<?xml version="1.0" standalone="no"?>
<!DOCTYPE svg PUBLIC "-//W3C//DTD SVG 1.1//EN" "http://www.w3.org/Graphics/SVG/1.1/DTD/svg11.dtd" >
<svg>
<metadata>
Created by FontForge 20090914 at Wed Jun 27 11:11:28 2018
 By www-data
Copyright (c) Gophmann A.L., 2005. All rights reserved.
</metadata>
<defs>
<font id="BickhamScriptThree" horiz-adv-x="239" >
  <font-face 
    font-family="Bickham Script Three"
    font-weight="400"
    font-stretch="normal"
    units-per-em="1000"
    panose-1="3 0 2 7 8 0 0 9 0 4"
    ascent="800"
    descent="-200"
    x-height="170.999"
    cap-height="898.5"
    bbox="-769 -1073.01 2989 1254"
    underline-thickness="20"
    underline-position="-123"
    unicode-range="U+0020-U+2122"
  />
<missing-glyph horiz-adv-x="500" 
d="M63 0v1254h375v-1254h-375zM125 63h250v1129h-250v-1129z" />
    <glyph glyph-name=".notdef" horiz-adv-x="500" 
d="M63 0v1254h375v-1254h-375zM125 63h250v1129h-250v-1129z" />
    <glyph glyph-name="space" unicode=" " horiz-adv-x="153" 
 />
    <glyph glyph-name="exclam" unicode="!" 
d="M317 334c0 -16.667 -74.999 -103.333 -224.999 -260c-4.66699 -4.66699 -7.66699 -7 -9 -7h-4c-0.666992 0.666992 -1.33398 1.66699 -2.00098 3c4 8.66699 18.333 29.667 43 63l51 67l74 107c14.667 21.333 35 32 61 32c7.33301 0 11 -1.66699 11 -5zM84.001 33.001
c0 -9.33301 -6.5 -18.667 -19.5 -28s-24.5 -14 -34.5 -14c-2.66699 2.66699 -4 9 -4 19c0 22.667 13.667 34 41 34c11.333 0 17 -3.66699 17 -11z" />
    <glyph glyph-name="quotedbl" unicode="&#x22;" horiz-adv-x="190" 
d="M283 332c0 -4.66699 -15.667 -20.168 -47 -46.501s-49 -39.5 -53 -39.5v0c-0.666992 0.666992 -1 1.66699 -1 3c0 0.666992 1.66699 3.33398 5 8.00098l41 64c8 12.667 21 19 39 19c10.667 0 16 -2.66699 16 -8zM204 331.999c0 -4.66699 -15.6689 -20.167 -47.002 -46.5
s-48.666 -39.5 -51.999 -39.5h-1v0c0 2.66699 6.33301 14.667 19 36c8.66699 12.667 16.834 25.5 24.501 38.5s21.167 19.5 40.5 19.5c10.667 0 16 -2.66699 16 -8z" />
    <glyph glyph-name="numbersign" unicode="#" horiz-adv-x="356" 
d="M387 283c0 -6 -25.665 -38.666 -76.998 -97.999h51c10.667 0 16 -1.33301 16 -4s-5.33301 -4 -16 -4h-58l-55 -67c52 0 79 -1.33301 81 -4c0 -3.33301 -5.33301 -5 -16 -5h-72l-46 -57c-32.667 -40.667 -51.334 -61 -56.001 -61l-2 1c-0.666992 0.666992 -1 1.66699 -1 3
c0 7.33301 27 45.333 81 114c-44 -1.33301 -77 -2 -99 -2l-53 -67c-30.667 -37.333 -48.667 -56 -54 -56l-3 1c0.666992 9.33301 29 50 85 122c-43.333 0 -65 2 -65 6c0 4.66699 24.667 7 74 7l48 63c-49.333 0 -74 2 -74 6c0 3.33301 5.66699 5.66602 17 6.99902
c8 0.666992 20 0.666992 36 0l30 -1l39 53c22 27.333 38.333 41 49 41c6 0 9.66699 -1.66699 11 -5c0 -2 -23.333 -31.667 -70 -89c28 0 58.667 -0.666992 92 -2l43 59c23.333 29.333 40.666 44 51.999 44c6.66699 0 10.667 -1.66699 12 -5zM274.002 176.001
c-8.66699 -0.666992 -40 -1 -94 -1l-52 -64c56 0 88.333 -0.333008 97 -1z" />
    <glyph glyph-name="dollar" unicode="$" horiz-adv-x="245" 
d="M288 247c0 -24 -8.33398 -35.9971 -25.001 -35.9971c-12.667 0 -19 5.66699 -19 17c0 5.33301 2.66699 11.5 8 18.5s8 11.833 8 14.5c0 4 -4 7.66699 -12 11l-66 -100c9.33301 -28.667 14 -48.667 14 -60c0 -24.667 -10.5 -46.334 -31.5 -65.001s-44.167 -28 -69.5 -28
c-5.33301 0 -10.333 0.333008 -15 1c-19.333 -32.667 -31.666 -48.667 -36.999 -48h-1l-2 5c10.667 20 19.667 34.667 27 44c-28.667 7.33301 -43 22.333 -43 45c0 26.667 10 40 30 40c14.667 0 22 -6 22 -18c0 -8 -3.16699 -15.333 -9.5 -22s-9.5 -12.334 -9.5 -17.001
c0 -8.66699 5.66699 -14.667 17 -18l74 113c-5.33301 11.333 -8 27 -8 47c0 26.667 9.33301 48.167 28 64.5s41.667 24.833 69 25.5c19.333 26.667 31 40 35 40h1c0.666992 -1.33301 1 -2.33301 1 -3c0 -4.66699 -7 -17.334 -21 -38.001c23.333 -5.33301 35 -16.333 35 -33z
M232.999 273.003c-17.333 0 -31.833 -5.83398 -43.5 -17.501s-17.5 -26.167 -17.5 -43.5c0 -9.33301 1.33301 -17.666 4 -24.999zM161.999 92.002c0 14.667 -2.66699 27.333 -8 38l-68 -101c2.66699 -0.666992 5 -1 7 -1c18 0 34 6.16699 48 18.5s21 27.5 21 45.5z" />
    <glyph glyph-name="percent" unicode="%" horiz-adv-x="392" 
d="M365 118c0 -27.333 -14.332 -54.832 -42.999 -82.499s-56.334 -41.5 -83.001 -41.5c-23.333 0 -35 10.667 -35 32c0 25.333 14 51.166 42 77.499s54.667 39.833 80 40.5l5 -2c-4 -2 -9.33301 -5 -16 -9c-15.333 -9.33301 -32.333 -26.666 -51 -51.999
c-20 -27.333 -30 -49 -30 -65c0 -8.66699 5 -13 15 -13c15.333 0 35.333 17 60 51c22.667 32 34 56 34 72c0 7.33301 -3 12.666 -9 15.999l5 2c17.333 0 26 -8.66699 26 -26zM378.001 298.001c0 -2.66699 -25.666 -30.333 -76.999 -83l-88 -91l-143 -158
c-5.33301 -6 -10 -9 -14 -9c-2 0 -3 1 -3 3c0 5.33301 38.667 51.666 116 138.999l137 151v1c-22 -13.333 -44 -20 -66 -20c-10.667 0 -22.667 2 -36 6c1.33301 -4.66699 2 -9 2 -13c0 -24.667 -14.667 -51.167 -44 -79.5s-56.333 -42.5 -81 -42.5c-24 0 -36 10.333 -36 31
c0 28.667 13.667 55 41 79c23.333 20 50.333 33.667 81 41l4 -2c-0.666992 -0.666992 -2.33398 -1.66699 -5.00098 -3c-16.667 -7.33301 -36 -25.666 -58 -54.999s-33 -52.333 -33 -69c0 -8 5 -12 15 -12c15.333 0 35 17 59 51c22.667 32 34 56.333 34 73
c0 2.66699 -0.666992 5.66699 -2 9l-6 6l5 2c8 0 13.667 -2 17 -6c10.667 -6 23 -9 37 -9c27.333 0 55.833 10.333 85.5 31s46.5 31 50.5 31c5.33301 0 8 -0.666992 8 -2z" />
    <glyph glyph-name="ampersand" unicode="&#x26;" horiz-adv-x="452" 
d="M547 267c0 -9.33301 -3.33398 -18.8311 -10.001 -28.498s-14.667 -14.5 -24 -14.5c-11.333 0 -17 6.33301 -17 19c0 2.66699 0.5 6 1.5 10s1.5 7 1.5 9c0 10 -6.33301 15 -19 15c-20.667 0 -59.667 -25.333 -117 -76c-12.667 -11.333 -49.334 -46.666 -110.001 -105.999
c29.333 -40 44 -77.333 44 -112c0 -43.333 -17.167 -80.333 -51.5 -111s-73.166 -46 -116.499 -46c-13.333 0 -26.666 3.33301 -39.999 10c-16 8 -24 18.333 -24 31c0 1.33301 0.666992 2.66602 2 3.99902c10.667 -22 31.334 -33 62.001 -33c34.667 0 63.834 13 87.501 39
s35.5 56.667 35.5 92c0 33.333 -8.66699 67.333 -26 102c-62.667 -50.667 -114.334 -76 -155.001 -76c-24.667 0 -37 10.333 -37 31c0 44 50 88.667 150 134c-4 13.333 -6 27.666 -6 42.999c0 21.333 7.5 41.666 22.5 60.999s33.167 29 54.5 29c18.667 0 28 -10.333 28 -31
c0 -29.333 -24.333 -61 -73 -95c12 -23.333 24.333 -44.333 37 -63c73.333 72.667 113.666 112 120.999 118c58.667 51.333 105 77 139 77c26.667 0 40 -10.667 40 -32zM271.999 256.002c0 14 -6.66699 20.999 -20 20.999c-14 0 -25.667 -8.5 -35 -25.5
s-14 -33.167 -14 -48.5c0 -9.33301 1.66699 -18.666 5 -27.999c42.667 30.667 64 57.667 64 81zM219.999 81.001c-15.333 26 -26.333 49.668 -33 71.001c-32.667 -22.667 -54 -38.334 -64 -47.001c-28 -24 -42 -45.333 -42 -64c0 -12.667 8.33301 -19 25 -19
c26.667 0 64.667 19.667 114 59z" />
    <glyph glyph-name="quotesingle" unicode="'" horiz-adv-x="109" 
d="M204 331c0 -5.33301 -15.001 -20 -45.001 -44c-25.333 -20 -43.666 -33.667 -54.999 -41v3c0 2.66699 14.667 26.667 44 72c8 12.667 21.667 19 41 19c10 0 15 -3 15 -9z" />
    <glyph glyph-name="parenleft" unicode="(" 
d="M491 461c-119.333 -40 -218 -110.001 -296 -210.001c-80.667 -103.333 -121 -216.666 -121 -339.999l-2 -3h-1c-6 4 -9 30.333 -9 79c0 112 43.333 215.333 130 310c85.333 92.667 184 148 296 166z" />
    <glyph glyph-name="parenright" unicode=")" 
d="M281 364c0 -77.333 -23 -152.667 -69 -226c-43.333 -68.667 -99.666 -125 -168.999 -169c-60 -38 -107 -57 -141 -57c-4 0 -7 1 -9 3v1l3 1c15.333 3.33301 37.666 12.666 66.999 27.999c82 44 151.667 108.667 209 194c58.667 88.667 89.334 178.334 92.001 269.001v25
c-0.666992 12 -1 20.333 -1 25c0 4 0.333008 6.66699 1 8c5.33301 -4 9.66602 -20 12.999 -48c2.66699 -21.333 4 -39.333 4 -54z" />
    <glyph glyph-name="asterisk" unicode="*" horiz-adv-x="231" 
d="M302 339c-11.333 -6 -35.999 -6.66699 -73.999 -2c14.667 -32 22 -51.667 22 -59c0 -2 -0.666992 -3.33301 -2 -4c-3.33301 1.33301 -10 9 -20 23s-17 24.667 -21 32l-38 -35c-8 -8 -18 -16 -30 -24l-2 1c2.66699 10 20 33 52 69c-11.333 2 -22.333 4.33301 -33 7
c-14 2.66699 -23.333 6.66699 -28 12c1.33301 3.33301 6.66602 5 15.999 5c16.667 0 32 -1 46 -3c-14 28 -21 46.333 -21 55c-0.666992 0.666992 -1 1.66699 -1 3c0 3.33301 1.66699 5 5 5c6 0 19.333 -19 40 -57c38 38 60.667 57 68 57c1.33301 0 2 -1 2 -3
c0 -7.33301 -16.333 -29 -49 -65c45.333 -6 68 -11.667 68 -17z" />
    <glyph glyph-name="plus" unicode="+" horiz-adv-x="356" 
d="M345 126c-2 -4 -24.3359 -6.66602 -67.0029 -7.99902c-33.333 -0.666992 -58.666 -0.666992 -75.999 0l-58 -68c-34.667 -40.667 -54.667 -61 -60 -61h-1c0 5.33301 29.667 48 89 128h-42c-18 -0.666992 -31.667 -1 -41 -1c-30 0 -45 2.33301 -45 7
c0 11.333 7 16.666 21 15.999l120 -4l65 87c12.667 18.667 25.334 28 38.001 28c10 0 15 -1.66699 15 -5c0 -5.33301 -29 -42.333 -87 -111c54.667 -2 92.334 -3 113.001 -3c10.667 0 16 -1.66699 16 -5z" />
    <glyph glyph-name="comma" unicode="," horiz-adv-x="126" 
d="M78 34c0 -8.66699 -12.999 -24.499 -38.999 -47.499s-44.667 -36.833 -56 -41.5c-2.66699 -0.666992 -7 -2.33398 -13 -5.00098c0.666992 3.33301 10 15 28 35c14.667 16.667 21 32.667 19 48c5.33301 14 20.666 21 45.999 21c10 0 15 -3.33301 15 -10z" />
    <glyph glyph-name="hyphen" unicode="-" horiz-adv-x="245" 
d="M195 65l-1.99805 -5l-4 3c-6.66699 10.667 -20 16 -40 16c-8.66699 0 -21.167 -1.5 -37.5 -4.5s-28.833 -4.5 -37.5 -4.5c-22 0 -34 5.33301 -36 16l1 3h2c6.66699 -3.33301 12.667 -5 18 -5c11.333 0 26.666 5.5 45.999 16.5s34.666 16.5 45.999 16.5
c30 0 44.667 -17.333 44 -52z" />
    <glyph glyph-name="hyphen" unicode="&#x2010;" horiz-adv-x="245" 
d="M195 65l-1.99805 -5l-4 3c-6.66699 10.667 -20 16 -40 16c-8.66699 0 -21.167 -1.5 -37.5 -4.5s-28.833 -4.5 -37.5 -4.5c-22 0 -34 5.33301 -36 16l1 3h2c6.66699 -3.33301 12.667 -5 18 -5c11.333 0 26.666 5.5 45.999 16.5s34.666 16.5 45.999 16.5
c30 0 44.667 -17.333 44 -52z" />
    <glyph glyph-name="period" unicode="." horiz-adv-x="126" 
d="M76 33c0 -9.33301 -6.5 -18.667 -19.5 -28s-24.5 -14 -34.5 -14c-2.66699 2.66699 -4 7.66699 -4 15c0 25.333 14.333 38 43 38c10 0 15 -3.66699 15 -11z" />
    <glyph glyph-name="slash" unicode="/" 
d="M383 374c-8 -12.667 -76.333 -87.666 -205 -224.999l-123 -133l-88 -95c-2 -2.66699 -6 -5.33398 -12 -8.00098l-3 2v2l1 4c14.667 18.667 83.667 98.667 207 240l161 189c17.333 20 34.333 30 51 30c7.33301 0 11 -2 11 -6z" />
    <glyph glyph-name="zero" unicode="0" horiz-adv-x="266" 
d="M283 217c0 -40.667 -26.332 -89.667 -78.999 -147c-48.667 -52.667 -95.334 -79 -140.001 -79c-37.333 0 -56 18.333 -56 55c0 44.667 24 92.167 72 142.5s94.333 75.5 139 75.5c4 0 6.66699 -1 8 -3c-0.666992 0 -2.66699 -0.333008 -6 -1
c-10 -1.33301 -28.667 -16 -56 -44c-78 -80 -117 -143.667 -117 -191c0 -15.333 7.66699 -23 23 -23c29.333 0 67 31.333 113 94c44.667 60.667 67 106.667 67 138c0 11.333 -6 20.333 -18 27c2.66699 1.33301 6 2 10 2c11.333 0 20.833 -4.66699 28.5 -14
s11.5 -20 11.5 -32z" />
    <glyph glyph-name="one" unicode="1" horiz-adv-x="187" 
d="M245 261c-3.33301 -6 -7.33301 -11.667 -12 -17c-50 -59.333 -102.333 -127.666 -157 -204.999c-22 -31.333 -49.667 -47 -83 -47c-3.33301 0 -5 1.33301 -5 4c0 8 28.5 45.333 85.5 112s91.833 104.667 104.5 114v1c-46 -34.667 -82.667 -52 -110 -52l-4 1v3
c12.667 3.33301 44.667 19.666 96 48.999c48 28 74.667 42 80 42c3.33301 0 5 -1.66699 5 -5z" />
    <glyph glyph-name="two" unicode="2" horiz-adv-x="249" 
d="M264 223c0 -63.333 -77.3301 -124.333 -231.997 -183v-1c8 2.66699 15.333 4 22 4c9.33301 0 22.166 -2.5 38.499 -7.5s28.5 -7.5 36.5 -7.5c18 0 34.667 6.66699 50 20l28 23l2 -3c-4 -13.333 -18.333 -29 -43 -47s-44.667 -27 -60 -27
c-11.333 0 -27.5 3.83301 -48.5 11.5s-37.167 11.5 -48.5 11.5c-10 0 -19.667 -2.66699 -29 -8c-14.667 -9.33301 -23 -14.333 -25 -15l-2 6c11.333 11.333 29.666 23.333 54.999 36c41.333 20.667 82 46 122 76c56 43.333 84 79.666 84 108.999c0 17.333 -9 26 -27 26
c-22.667 0 -45.334 -8.33301 -68.001 -25c-24.667 -18 -37 -38 -37 -60c0 -10 3.33301 -16 10 -18c2 -0.666992 9 -1 21 -1c1.33301 0 2.33301 -0.333008 3 -1c0 -6.66699 -8.33301 -10 -25 -10c-19.333 0 -29 8 -29 24c0 26.667 18.333 52.334 55 77.001
c33.333 22 64.333 33 93 33c36 0 54 -14.333 54 -43z" />
    <glyph glyph-name="three" unicode="3" horiz-adv-x="252" 
d="M269 235c0 -32 -36.002 -60.667 -108.002 -86v-1c33.333 0 50 -14.333 50 -43c0 -31.333 -20.333 -59 -61 -83c-35.333 -20.667 -70 -31 -104 -31c-44.667 0 -67 13.667 -67 41c0 32.667 17 49 51 49c16 0 24 -5.33301 24 -16c0 -9.33301 -6.33301 -18.333 -19 -27
s-19 -16.667 -19 -24c0 -9.33301 9.66699 -14 29 -14c26 0 52.5 13.5 79.5 40.5s40.5 53.833 40.5 80.5c0 12 -4.33301 18 -13 18c-9.33301 0 -22.666 -4 -39.999 -12c-0.666992 0.666992 -1 1.33398 -1 2.00098c0 3.33301 9.66699 9.66602 29 18.999
c24.667 11.333 42.334 21.333 53.001 30c18.667 15.333 28 32.333 28 51c0 12.667 -8 19 -24 19c-21.333 0 -40 -7 -56 -21s-24 -31.333 -24 -52l3 -4l-1 -4h-2c-8 0 -12 7.66699 -12 23c0 10 6 21.333 18 34c26 28 61 42 105 42c27.333 0 41 -10.333 41 -31z" />
    <glyph glyph-name="four" unicode="4" horiz-adv-x="273" 
d="M326 265l-5.99805 -8.99707l-52 -66l-101 -138c3.33301 -0.666992 9 -1 17 -1c24.667 0 37 -4 37 -12c-0.666992 -0.666992 -1 -1.33398 -1 -2.00098l-4 -2c-6 0 -15.167 0.666992 -27.5 2s-21.833 2 -28.5 2c-30 -40.667 -63.667 -83.334 -101 -128.001
c-12.667 -6.66699 -26.667 -10 -42 -10c-2.66699 0 -4.66699 1 -6 3v1c0 8 31 52.667 93 134c-32.667 0 -58.667 -1 -78 -3c-38.667 -4 -56 -6 -52 -6c-1.33301 0 -2 1 -2 3c0 13.333 76.333 69.666 229 168.999l54 37c29.333 18.667 50.666 28 63.999 28
c3.33301 0 5.66602 -0.666992 6.99902 -2zM258.002 221.003l-2 2c-84.667 -48 -168 -106.333 -250 -175v-1c23.333 3.33301 59.333 5 108 5l69 87c27.333 34 52.333 61.333 75 82z" />
    <glyph glyph-name="five" unicode="5" horiz-adv-x="258" 
d="M320 251c0 -2.66699 -5.33105 -8.33203 -15.998 -16.999c-15.333 -12 -37 -18 -65 -18c-20.667 0 -39.334 5 -56.001 15c-22.667 -30 -47.334 -57 -74.001 -81h1c12.667 6.66699 29 10 49 10c38.667 0 58 -15 58 -45c0 -38 -20 -69 -60 -93
c-34.667 -20.667 -72 -31 -112 -31c-42.667 0 -64 12.667 -64 38c0 33.333 14.667 50 44 50c14.667 0 22 -7.33301 22 -22c0 -3.33301 -4.66699 -10.333 -14 -21s-14 -18.334 -14 -23.001c0 -8.66699 8.66699 -13 26 -13c32 0 60.833 12.667 86.5 38s38.5 54 38.5 86
c0 16.667 -8.33301 25 -25 25c-14.667 0 -29 -4.33301 -43 -13s-21.667 -13 -23 -13c-3.33301 0 -5 1.66699 -5 5c0 2.66699 4.33301 7.66699 13 15c42.667 34.667 81 75.667 115 123c3.33301 4.66699 7.33301 7 12 7l4 -2c10 -18 33 -27 69 -27
c5.33301 0 11.333 1.83301 18 5.5s11 5.5 13 5.5c1.33301 -0.666992 2 -2 2 -4z" />
    <glyph glyph-name="six" unicode="6" horiz-adv-x="261" 
d="M403 284c0 -4 -0.666992 -7 -2 -9l-25 24c-8 6 -19.667 9 -35 9c-54 0 -122.333 -44.333 -205 -133c-57.333 -61.333 -86 -110.333 -86 -147c0 -19.333 8.33301 -29 25 -29c22 0 48.167 19 78.5 57s45.5 68.333 45.5 91c0 11.333 -5.66699 17 -17 17
c-8.66699 0 -17.667 -2.66699 -27 -8c-14.667 -8 -23 -12.333 -25 -13l-2 2c1.33301 8 9 15.333 23 22s25.667 10 35 10c32.667 0 49 -16.667 49 -50c0 -34.667 -17.5 -66.167 -52.5 -94.5s-70.5 -42.5 -106.5 -42.5c-38 0 -57 18 -57 54c0 64 37.667 126.667 113 188
c72.667 58.667 142 88 208 88c12.667 0 25.667 -3 39 -9c16 -7.33301 24 -16.333 24 -27z" />
    <glyph glyph-name="seven" unicode="7" horiz-adv-x="215" 
d="M287 249c0 -2.66699 -3.66504 -4.33301 -10.998 -5c-96 -89.333 -180.333 -177.333 -253 -264c-34.667 -10.667 -59.334 -16 -74.001 -16c-2 0 -4 0.333008 -6 1c-1.33301 6.66699 32.334 40 101.001 100c52 46.667 90.667 80.334 116 101.001c36 28.667 68 52.667 96 72
v1c-40.667 -17.333 -80.334 -26 -119.001 -26c-31.333 0 -47 8.66699 -47 26c0 11.333 5.33301 20.666 16 27.999s22 11 34 11v-1c0 -1.33301 -1.16699 -4 -3.5 -8s-3.5 -7 -3.5 -9c0 -14 19.333 -21 58 -21c12 0 23.667 0.666992 35 2c4.66699 0 14.167 2 28.5 6
s23.166 6 26.499 6c4 0 6 -1.33301 6 -4z" />
    <glyph glyph-name="eight" unicode="8" horiz-adv-x="245" 
d="M309 273c0 -23.333 -13 -45.0029 -39 -65.0029c-22.667 -17.333 -46.667 -28.333 -72 -33c2 2.66699 7 6.66699 15 12c38 26 57 54.333 57 85c0 21.333 -10.667 32 -32 32c-18 0 -33 -6.66699 -45 -20s-18 -29.333 -18 -48c0 -14.667 5.16699 -35.667 15.5 -63
s15.5 -48.666 15.5 -63.999c0 -31.333 -14.5 -58.833 -43.5 -82.5s-59.5 -35.5 -91.5 -35.5c-44.667 0 -67 16.333 -67 49c0 28 12.333 53 37 75c20.667 18.667 46 32.667 76 42c4 4 10.333 6 19 6l4 -2l-45 -32c-29.333 -27.333 -44 -57 -44 -89c0 -22.667 12 -34 36 -34
c22 0 40.5 8.83301 55.5 26.5s22.5 37.834 22.5 60.501c0 14 -4.66699 33.833 -14 59.5s-14 45.834 -14 60.501c0 27.333 12.5 51.833 37.5 73.5s51.5 32.5 79.5 32.5c36.667 0 55 -15.333 55 -46z" />
    <glyph glyph-name="nine" unicode="9" horiz-adv-x="267" 
d="M270 205c0 -36 -18.666 -78.4971 -55.999 -127.497s-81.333 -90.167 -132 -123.5c-58.667 -38.667 -114 -58 -166 -58c-12.667 0 -25.334 3 -38.001 9c-14.667 7.33301 -22 16.666 -22 27.999c0 3.33301 1 5.66602 3 6.99902l13 -17c10 -10 24.333 -15 43 -15
c44 0 92 22 144 66c40.667 33.333 77.667 74 111 122c46 66 69 112 69 138c0 14 -7.66699 21 -23 21c-22 0 -47.5 -17.333 -76.5 -52s-43.5 -63.334 -43.5 -86.001c0 -14.667 7.66699 -22 23 -22c9.33301 0 19.833 4.16699 31.5 12.5s19.167 12.833 22.5 13.5l1 -1
c0 -7.33301 -9 -15.333 -27 -24s-31.333 -13 -40 -13c-29.333 0 -44 16.333 -44 49c0 34.667 16.667 66 50 94c32.667 26 66.667 39 102 39c36.667 0 55 -20 55 -60z" />
    <glyph glyph-name="colon" unicode=":" horiz-adv-x="163" 
d="M125 132c0 -9.33301 -6.5 -18.667 -19.5 -28s-24.5 -14 -34.5 -14c-2.66699 2.66699 -4 7.66699 -4 15c0 25.333 14 38 42 38c10.667 0 16 -3.66699 16 -11zM77 32.999c0 -9.33301 -6.5 -18.667 -19.5 -28s-24.5 -14 -34.5 -14c-2.66699 2.66699 -4 7.66699 -4 15
c0 25.333 14 38 42 38c10.667 0 16 -3.66699 16 -11z" />
    <glyph glyph-name="semicolon" unicode=";" horiz-adv-x="163" 
d="M125 132c0 -9.33301 -6.5 -18.667 -19.5 -28s-24.5 -14 -34.5 -14c-2.66699 2.66699 -4 7.66699 -4 15c0 25.333 13.667 38 41 38c11.333 0 17 -3.66699 17 -11zM79 33.999c0 -8.66699 -12.999 -24.499 -38.999 -47.499s-44.667 -36.833 -56 -41.5
c-2.66699 -0.666992 -7 -2.33398 -13 -5.00098c0.666992 3.33301 10 15 28 35c14.667 16.667 21 32.667 19 48c5.33301 14 20.666 21 45.999 21c10 0 15 -3.33301 15 -10z" />
    <glyph glyph-name="less" unicode="&#x3c;" horiz-adv-x="282" 
d="M309 229c-0.666992 -1.33301 -1.99902 -2.66699 -3.99902 -4c-28 -15.333 -64.667 -32.333 -110 -51l-111 -47l140 -87c5.33301 -3.33301 8 -5.33301 8 -6c0 -4 -1.33301 -6 -4 -6c-0.666992 0 -1.33398 0.333008 -2.00098 1c-3.33301 0.666992 -30.333 14 -81 40l-93 48
c-8.66699 4.66699 -13 9 -13 13c0 2.66699 7.66699 7 23 13l78 29c107.333 40 162.333 60 165 60c2 0 3.33301 -1 4 -3z" />
    <glyph glyph-name="equal" unicode="=" horiz-adv-x="331" 
d="M343 160c-4.66699 -7.33301 -36.6689 -11 -96.002 -11c-15.333 0 -38.166 0.333008 -68.499 1s-53.166 1 -68.499 1c-34 0 -42.333 -0.333008 -25 -1c-12.667 0.666992 -19 3.66699 -19 9c0 10.667 8 16 24 16c64 0 143 -3 237 -9c10.667 -0.666992 16 -2.66699 16 -6z
M305.998 96c0 -2.66699 -4.99902 -4.33301 -14.999 -5c-58.667 -2.66699 -141.334 -4 -248.001 -4c-8.66699 0 -13 3.33301 -13 10c0 10 7.66699 14.667 23 14l237 -8c10.667 -0.666992 16 -3 16 -7z" />
    <glyph glyph-name="greater" unicode="&#x3e;" horiz-adv-x="282" 
d="M265 129c0 -2.66699 -7.66699 -7.00098 -23 -13.001c-152 -58.667 -233 -88 -243 -88c-0.666992 0 -1.66699 0.333008 -3 1c-0.666992 2.66699 21 14.334 65 35.001l159 68l-107 67c-26.667 14.667 -39.667 24 -39 28v1c0.666992 1.33301 2 2 4 2
c6.66699 0 65 -29.333 175 -88c8 -4 12 -8.33301 12 -13z" />
    <glyph glyph-name="question" unicode="?" 
d="M309 294c0 -31.333 -19.334 -60.667 -58.001 -88c-11.333 -8.66699 -43.666 -27 -96.999 -55c-38 -20 -59.333 -36.333 -64 -49c-7.33301 -20 -13.666 -30 -18.999 -30c-2 0 -3 1.33301 -3 4c0 22.667 27 53 81 91c60 42 96 78 108 108c2.66699 6 4 11.667 4 17
c0 17.333 -10.333 26 -31 26c-22.667 0 -45.834 -9.66699 -69.501 -29s-35.5 -40 -35.5 -62c0 -7.33301 3.66699 -15 11 -23c-1.33301 -1.33301 -3 -2 -5 -2c-16 0 -24 8.66699 -24 26c0 26.667 19.333 52 58 76c34.667 22 66.667 33 96 33c32 0 48 -14.333 48 -43z
M83.999 32.999c0 -9.33301 -6.5 -18.667 -19.5 -28s-24.5 -14 -34.5 -14c-2.66699 2.66699 -4 9 -4 19c0 22.667 13.667 34 41 34c11.333 0 17 -3.66699 17 -11z" />
    <glyph glyph-name="at" unicode="@" horiz-adv-x="495" 
d="M423 186c0 -19.333 -6.66602 -37.998 -19.999 -55.998c2.66699 -6 4 -12.333 4 -19c0 -38.667 -20.667 -69.667 -62 -93c-34.667 -20 -72.667 -30 -114 -30c-37.333 0 -69 8 -95 24c-30.667 19.333 -46 46.666 -46 81.999c0 51.333 26.333 93.666 79 126.999
c45.333 28.667 95 43 149 43h1c27.333 0 50.666 -6 69.999 -18c22.667 -14 34 -34 34 -60zM315.001 172.002c0 8 -4.66602 11.999 -13.999 11.999c-12 0 -31 -12.833 -57 -38.5s-39 -44.167 -39 -55.5c0 -5.33301 2.66699 -8 8 -8c11.333 0 31.166 12.333 59.499 37
s42.5 42.334 42.5 53.001zM407.002 187.001c0 22.667 -9.66895 40.333 -29.002 53c-17.333 10.667 -37.666 16 -60.999 16c-44.667 0 -88 -17.667 -130 -53c-44.667 -37.333 -67 -77.666 -67 -120.999c0 -56.667 38 -85 114 -85c59.333 0 107.333 21.333 144 64
c14 16.667 21 33 21 49c0 4 -0.333008 7.66699 -1 11c-7.33301 -13.333 -20.333 -25.833 -39 -37.5s-35.667 -17.5 -51 -17.5c-24.667 0 -37 8.33301 -37 25c0 5.33301 2.66699 12.333 8 21h-1c-30 -30 -55.667 -45 -77 -45c-19.333 0 -29 7.33301 -29 22
c0 24.667 15.667 48.667 47 72c29.333 21.333 56.666 32 81.999 32c18 0 25.667 -8 23 -24h1c14 16 25.333 24 34 24c8 0 12 -1.66699 12 -5c0 -1.33301 -10.833 -15.5 -32.5 -42.5s-32.5 -45.167 -32.5 -54.5c0 -8 5.33301 -12 16 -12c22.667 0 42.334 12.333 59.001 37
c2 4.66699 6 11 12 19c-3.33301 5.33301 -6.66602 11.666 -9.99902 18.999l1 1c2.66699 0 7 -4 13 -12c6.66699 15.333 10 30 10 44z" />
    <glyph glyph-name="A.swash1" unicode="A" horiz-adv-x="1350" 
d="M1009 230c25.333 21.333 49.333 42.5 72 63.5l65 60.5l63 60.5l59 54.5c-22.667 18.667 -49 33.167 -79 43.5s-61.667 15.5 -95 15.5c-53.333 0 -95.833 -13.167 -127.5 -39.5s-49.5 -61.833 -53.5 -106.5c-3.33301 -34 4 -64 22 -90s42.667 -46.667 74 -62zM1175 5
c8 -1.33301 17 -0.000976562 27 3.99902s20.167 9.83301 30.5 17.5s20.5 16.5 30.5 26.5s19.333 21 28 33c17.333 22.667 30.833 45.834 40.5 69.501s16.5 47.5 20.5 71.5c-8 -3.33301 -16.167 -6.33301 -24.5 -9s-17.166 -5.33398 -26.499 -8.00098
c-22.667 -6.66699 -45.334 -11.334 -68.001 -14.001l-31.5 -47c-9.66699 -14.667 -16.167 -25.667 -19.5 -33c-7.33301 -13.333 -13.833 -27 -19.5 -41s-9.16699 -26.667 -10.5 -38c-1.33301 -7.33301 -0.333008 -14.166 3 -20.499s10 -10.166 20 -11.499zM1333 399.999
l65.5 69.5l74.5 78.5l41 46l37 43c18.667 22.667 28.334 39.667 29.001 51c0 6.66699 -2.33301 10.334 -7 11.001c-8 2 -20.667 -2.33301 -38 -13c-9.33301 -6 -19.333 -13 -30 -21s-21.334 -16.667 -32.001 -26l-32 -28.5l-30 -27.5l-61 -55l-65 -61
c9.33301 -9.33301 18.333 -20 27 -32l10.5 -16.5c3.66699 -5.66699 7.16699 -11.834 10.5 -18.501zM1239 204.999c22 3.33301 41.667 7.33203 59 11.999c9.33301 3.33301 18.666 6.5 27.999 9.5s18.333 6.5 27 10.5c2.66699 18.667 3.66699 37.667 3 57
c-1.33301 17.333 -4.66602 34.333 -9.99902 51l-27.5 -33l-28.5 -36c-7.33301 -9.33301 -15.333 -20.166 -24 -32.499zM1173 200.998c10 15.333 20.6689 30.835 32.002 46.502s23.333 31.167 36 46.5c15.333 19.333 30 36.833 44 52.5l41 46.5l-21 36
c-7.33301 11.333 -16.333 21.666 -27 30.999l-63 -57.5l-60 -56.5l-63 -58l-72 -63c11.333 -4.66699 23 -8.83398 35 -12.501s24.667 -6.16699 38 -7.5c11.333 -1.33301 23.666 -2.5 36.999 -3.5s27.666 -1.16699 42.999 -0.5zM355.002 -77
c-50.667 0 -100.002 5.16504 -148.002 15.498s-90.5 27 -127.5 50s-66.667 52.833 -89 89.5s-33.5 81.334 -33.5 134.001c0 50.667 12.667 95.834 38 135.501s58.166 73.167 98.499 100.5s85.666 48.166 135.999 62.499s100.5 21.5 150.5 21.5c33.333 0 67 -4 101 -12
s64.5 -20 91.5 -36s49 -36.167 66 -60.5s25.5 -53.166 25.5 -86.499c0 -31.333 -7.83301 -60 -23.5 -86s-36.167 -48.167 -61.5 -66.5s-54 -32.666 -86 -42.999s-64 -15.5 -96 -15.5c-22.667 0 -45.167 2.33301 -67.5 7s-42.333 12 -60 22s-32 22.667 -43 38
s-16.5 33.666 -16.5 54.999c0 14 3.16699 27 9.5 39s14.333 22.667 24 32s20.667 17.333 33 24s24.5 11.334 36.5 14.001c11.333 2 17 1.66699 17 -1c0 -0.666992 -1.33301 -1 -4 -1s-7 -1 -13 -3c-21.333 -6.66699 -40 -19.334 -56 -38.001s-24 -40.667 -24 -66
c0 -19.333 4.5 -36 13.5 -50s21 -25.667 36 -35s32.333 -16.333 52 -21s40.167 -7 61.5 -7c31.333 0 61.833 4.83301 91.5 14.5s55.834 23.5 78.501 41.5s40.834 39.5 54.501 64.5s20.5 52.833 20.5 83.5c0 31.333 -7.66699 58.5 -23 81.5s-35.166 42.167 -59.499 57.5
s-52 26.666 -83 33.999s-62.5 11 -94.5 11c-49.333 0 -97.333 -7.16699 -144 -21.5s-88 -34.666 -124 -60.999s-65 -58.5 -87 -96.5s-33 -81 -33 -129c0 -52 9.5 -95.833 28.5 -131.5s45 -64.834 78 -87.501s71.5 -39 115.5 -49s91 -15 141 -15c38 0 75.667 3.33301 113 10
s73.5 15.667 108.5 27s68.5 24.5 100.5 39.5s62.333 30.833 91 47.5c39.333 22.667 78.5 48.334 117.5 77.001s76.833 58.667 113.5 90c-17.333 8 -33.666 17.5 -48.999 28.5s-28.333 23.167 -39 36.5s-18.834 28 -24.501 44s-7.5 33 -5.5 51
c2 22.667 9.16699 43.5 21.5 62.5s28 35.167 47 48.5s40.833 23.833 65.5 31.5s51 11.5 79 11.5c35.333 0 68.333 -5.33301 99 -16s57.667 -26 81 -46l63 58.5l63 57.5l31.5 28c11 10 22.167 19.5 33.5 28.5l33.5 25.5c11 8 21.5 15 31.5 21
c16.667 10.667 32 15.334 46 14.001c8.66699 -0.666992 15.834 -3.33398 21.501 -8.00098s8.83398 -10.334 9.50098 -17.001c0.666992 -8 -0.5 -16.667 -3.5 -26s-9.16699 -20.333 -18.5 -33c-10.667 -15.333 -22.667 -30.833 -36 -46.5l-42 -47.5l-83 -92.5l-72 -83.5
c3.33301 -10 6.16602 -20.167 8.49902 -30.5s3.83301 -20.5 4.5 -30.5c0.666992 -8 0.833984 -16.167 0.500977 -24.5s-1.16602 -17.166 -2.49902 -26.499c34 16 65 34.667 93 56s53.333 43.666 76 66.999c49.333 52.667 78 104.334 86 155.001
c1.33301 8.66699 1.5 14.167 0.5 16.5s-0.833008 3.83301 0.5 4.5c5.33301 1.33301 7 -6.33398 5 -23.001c-3.33301 -26.667 -12.333 -53.5 -27 -80.5s-34 -53.5 -58 -79.5c-24.667 -26 -51.5 -49.833 -80.5 -71.5s-61.5 -40.167 -97.5 -55.5
c-4 -24.667 -11.167 -49.667 -21.5 -75s-24.5 -50 -42.5 -74c-19.333 -25.333 -40.833 -46.5 -64.5 -63.5s-46.5 -25.5 -68.5 -25.5c-18 0 -32.833 5.16699 -44.5 15.5s-16.167 26.166 -13.5 47.499c1.33301 13.333 4.5 27 9.5 41s11.167 27.667 18.5 41
c4.66699 8.66699 9.66699 17.5 15 26.5l17 27.5c-13.333 0 -26.333 0.333008 -39 1s-24.667 1.66699 -36 3c-13.333 1.33301 -26.833 4 -40.5 8s-27.167 8.66699 -40.5 14c-37.333 -31.333 -76 -61.666 -116 -90.999s-80 -55.666 -120 -78.999
c-27.333 -16 -56.833 -31.5 -88.5 -46.5s-65.334 -28.333 -101.001 -40s-72.834 -21 -111.501 -28s-78 -10.5 -118 -10.5h-1z" />
    <glyph glyph-name="B.swash1" unicode="B" horiz-adv-x="1194" 
d="M929 5c20 0 40.667 5.66602 62 16.999s41.833 26 61.5 44s37.5 38.333 53.5 61s28.667 45.334 38 68.001c-20 -4 -39.833 -8.83301 -59.5 -14.5s-37.167 -11.5 -52.5 -17.5c-44 -16.667 -79 -36.167 -105 -58.5s-39 -43.5 -39 -63.5c0 -24 13.333 -36 40 -36h1z
M671 -243.001c-32 0 -62.166 4.82617 -90.499 14.4932s-53.833 23.5 -76.5 41.5s-42 39.833 -58 65.5s-27.333 54.5 -34 86.5c-15.333 -2.66699 -30.833 -4.5 -46.5 -5.5s-31.834 -1.5 -48.501 -1.5c-36.667 0 -72.667 4.83301 -108 14.5s-66.833 24.167 -94.5 43.5
s-50 43.666 -67 72.999s-25.5 64 -25.5 104c0 46 10.333 88.667 31 128s48.834 73.5 84.501 102.5s77.5 51.667 125.5 68s99.333 24.5 154 24.5c30 0 62 -4.16699 96 -12.5s65.333 -21.166 94 -38.499c32 32 67.833 62.333 107.5 91s81.834 53.667 126.501 75
s91.334 38 140.001 50s98 17.333 148 16c25.333 -0.666992 49.5 -3.66699 72.5 -9s43.833 -13.333 62.5 -24c9.33301 5.33301 20.5 10.5 33.5 15.5s25.5 9.16699 37.5 12.5c9.33301 2 14 2 14 0c0 -0.666992 -1.5 -1.16699 -4.5 -1.5s-6.16699 -1.16602 -9.5 -2.49902
c-10.667 -3.33301 -21.334 -7.66602 -32.001 -12.999s-20.667 -11 -30 -17c16.667 -11.333 30 -25 40 -41s15.667 -34.667 17 -56c0.666992 -17.333 -2.16602 -33.833 -8.49902 -49.5s-15 -30.334 -26 -44.001s-23.667 -26.167 -38 -37.5s-29.166 -21.666 -44.499 -30.999
c-20.667 -12 -42.167 -21.833 -64.5 -29.5s-41.166 -13.167 -56.499 -16.5c36.667 -3.33301 65.834 -15.166 87.501 -35.499s32.5 -44.166 32.5 -71.499c0 -10.667 -1.66699 -22.667 -5 -36c19.333 2 36.666 2 51.999 0c7.33301 -1.33301 11.833 -2.5 13.5 -3.5
s2.16699 -2.16699 1.5 -3.5s-2 -1.66602 -4 -0.999023s-6.66699 1.33398 -14 2.00098c-15.333 1.33301 -32.333 1.33301 -51 0c-8.66699 -26 -23.834 -51.5 -45.501 -76.5s-46.334 -47.333 -74.001 -67s-56.834 -35.667 -87.501 -48s-59.334 -18.5 -86.001 -18.5
c-16 0 -30.667 3 -44 9s-20 17.333 -20 34c0 12.667 5 25.167 15 37.5s23.333 24.166 40 35.499s36 22.166 58 32.499s44.667 19.833 68 28.5c18 6.66699 37 12.667 57 18s40.333 9.66602 61 12.999c7.33301 20.667 11 39.667 11 57c0 24.667 -6.5 45.334 -19.5 62.001
s-33.5 24.667 -61.5 24c-10.667 0 -20.5 -1.83301 -29.5 -5.5s-18.833 -6.5 -29.5 -8.5c-5.33301 -1.33301 -10 -1.33301 -14 0s-6 4.33301 -6 9c0 5.33301 2.16699 8.83301 6.5 10.5s11.166 3.16699 20.499 4.5l66 8c22 2.66699 45 10.334 69 23.001
c36 18.667 65.667 43.167 89 73.5s35 66.5 35 108.5c0 30.667 -11 56 -33 76c-48 -34 -94.333 -75.833 -139 -125.5s-92.334 -106.5 -143.001 -170.5c-36 -45.333 -73.667 -88.5 -113 -129.5s-80.666 -78 -123.999 -111s-88.833 -61.333 -136.5 -85
s-98.167 -40.834 -151.5 -51.501c6 -31.333 15.667 -59.666 29 -84.999s30 -46.666 50 -63.999s42.667 -30.666 68 -39.999s52.666 -14 81.999 -14c25.333 0 47.333 1.83301 66 5.5s38.334 11.167 59.001 22.5c6 3.33301 10 6 12 8s3.33301 2.33301 4 1s0.166992 -3 -1.5 -5
s-5.16699 -5 -10.5 -9c-17.333 -12 -37 -20.667 -59 -26s-45.667 -8 -71 -8h-1zM442.001 -19.0078c48.667 11.333 93.498 29.1709 134.498 53.5039s80.333 53.166 118 86.499s74.834 70.333 111.501 111l114 128c54.667 62 108 118.333 160 169s106 91.667 162 123
c-29.333 22.667 -66.666 34.667 -111.999 36c-49.333 1.33301 -97.833 -4 -145.5 -16s-93.334 -28.5 -137.001 -49.5s-85 -45.833 -124 -74.5s-73.833 -59 -104.5 -91c25.333 -16.667 45.833 -37.167 61.5 -61.5s23.5 -53.166 23.5 -86.499
c0 -25.333 -3.5 -47.833 -10.5 -67.5s-16.5 -36.167 -28.5 -49.5c-2 -2.66699 -4.16699 -4.83398 -6.5 -6.50098s-4.16602 -1.83398 -5.49902 -0.500977c-0.666992 0.666992 0 2.16699 2 4.5s3.66699 4.16602 5 5.49902c12 16.667 20.5 33.667 25.5 51
s7.5 37.666 7.5 60.999c0 32 -8 59.167 -24 81.5s-36.667 41.166 -62 56.499c-52.667 -57.333 -94 -119 -124 -185s-45 -140 -45 -222c0 -10 0.333008 -19.667 1 -29s1.66699 -18.666 3 -27.999zM316.999 -33.0029c16 0 31.668 0.665039 47.001 1.99805
s30.666 3.33301 45.999 6c-1.33301 8 -2.5 17.167 -3.5 27.5s-1.5 20.833 -1.5 31.5c0 42.667 4.83301 83.334 14.5 122.001s23 75.334 40 110.001s37 67.5 60 98.5s47.833 60.167 74.5 87.5c-26 13.333 -54.5 23.166 -85.5 29.499s-61.833 9.5 -92.5 9.5
c-51.333 0 -100 -7.33301 -146 -22s-86.333 -35.167 -121 -61.5s-62.167 -57.666 -82.5 -93.999s-30.5 -75.833 -30.5 -118.5c0 -38 7.83301 -71.333 23.5 -100s36.5 -52.5 62.5 -71.5s55.833 -33.167 89.5 -42.5s68.5 -14 104.5 -14h1z" />
    <glyph glyph-name="C.swash1" unicode="C" horiz-adv-x="558" 
d="M228 -30c15.333 0 32.1689 2.16895 50.502 6.50195s36.666 10.333 54.999 18s36.5 16.834 54.5 27.501s34.333 22.667 49 36c16.667 14.667 32 30 46 46s26 31.667 36 47s17.833 30.166 23.5 44.499s8.5 27.166 8.5 38.499c0 14 -4.33301 24.5 -13 31.5
s-20.334 10.5 -35.001 10.5c-13.333 0 -28 -3 -44 -9s-32.333 -14.667 -49 -26s-33.5 -24.833 -50.5 -40.5s-32.833 -33.167 -47.5 -52.5c-9.33301 -12 -18.5 -25.667 -27.5 -41s-17.333 -31 -25 -47s-14.167 -31.833 -19.5 -47.5s-9.33301 -29.834 -12 -42.501z
M307.003 396.002c52 5.33301 104.5 13.668 157.5 25.001s101.833 27 146.5 47c58 25.333 102 53.166 132 83.499s45 60.5 45 90.5c0 11.333 -3.5 20.5 -10.5 27.5s-17.5 10.5 -31.5 10.5c-22 0 -46.167 -5 -72.5 -15s-53.5 -23 -81.5 -39s-56 -34.167 -84 -54.5
s-54.667 -41 -80 -62s-48.5 -41.5 -69.5 -61.5s-38.167 -37.333 -51.5 -52zM222.003 -134.996c-2 -2 -4 2.00391 -6 12.0039c-2.66699 13.333 -3.66699 27 -3 41s2 28.333 4 43c-14 0 -28.5 2.16699 -43.5 6.5s-29 11.166 -42 20.499s-23.667 21.333 -32 36
s-12.5 33 -12.5 55c0 26.667 3.83301 53.5 11.5 80.5s17.834 53.333 30.501 79s27.5 50.667 44.5 75s35.167 47.5 54.5 69.5h-27c-42.667 0 -86.5 3.16699 -131.5 9.5s-88.5 16.166 -130.5 29.499s-81.5 30.166 -118.5 50.499s-69.5 44.333 -97.5 72s-50 59.334 -66 95.001
s-24 75.167 -24 118.5c0 59.333 14.667 111.166 44 155.499s67.166 81.333 113.499 111s98 51.834 155 66.501s112.833 22 167.5 22c40.667 0 81.5 -4.33301 122.5 -13s78 -22.167 111 -40.5s59.667 -41.333 80 -69s30.5 -60.5 30.5 -98.5s-9.33301 -71.667 -28 -101
s-42.5 -53.833 -71.5 -73.5s-61 -34.5 -96 -44.5s-69.167 -15 -102.5 -15c-16 0 -31.167 1.5 -45.5 4.5s-26.833 8.16699 -37.5 15.5c22 -7.33301 49.333 -11 82 -11s66 5 100 15s64.833 24.5 92.5 43.5s50.167 42.667 67.5 71s26 60.833 26 97.5
c0 36 -10.167 67.167 -30.5 93.5s-46.333 48.166 -78 65.499s-67.167 30.166 -106.5 38.499s-78 12.5 -116 12.5c-35.333 0 -70.833 -3.33301 -106.5 -10s-69.834 -16.667 -102.501 -30s-63.167 -29.833 -91.5 -49.5s-53 -42.5 -74 -68.5s-37.5 -55 -49.5 -87
s-18 -67 -18 -105c0 -66 15.667 -122 47 -168s72.333 -83.333 123 -112s107.834 -49.5 171.501 -62.5s128.167 -19.5 193.5 -19.5h30c15.333 16.667 34.833 35.667 58.5 57s50 43 79 65s59.833 43.5 92.5 64.5s65.667 39.667 99 56s66 29.5 98 39.5s62 15 90 15
c20.667 0 36.667 -5.33301 48 -16s17 -23.667 17 -39s-5.66699 -31 -17 -47s-26.166 -31.5 -44.499 -46.5s-38.833 -29.167 -61.5 -42.5s-45.334 -25 -68.001 -35c-48 -21.333 -100.833 -38.166 -158.5 -50.499s-114.5 -20.833 -170.5 -25.5
c-20 -22.667 -39.667 -46.334 -59 -71.001s-36.666 -50.5 -51.999 -77.5s-27.833 -55 -37.5 -84s-14.5 -58.833 -14.5 -89.5c0 -32 8.16699 -55.5 24.5 -70.5s36.166 -23.167 59.499 -24.5c2.66699 14 6.66699 29 12 45s11.833 32 19.5 48s16 31.833 25 47.5
s18.833 30.167 29.5 43.5c14.667 18.667 30.667 36 48 52s34.666 29.667 51.999 41s34.5 20.166 51.5 26.499s33.167 9.5 48.5 9.5s29.833 -3.83301 43.5 -11.5s20.5 -22.167 20.5 -43.5c0 -16 -3.33301 -31.833 -10 -47.5s-15.5 -31 -26.5 -46s-24 -29.667 -39 -44
s-30.833 -28.5 -47.5 -42.5c-32 -26 -67.667 -47 -107 -63s-77 -24 -113 -24c-3.33301 -14.667 -5.33301 -28.667 -6 -42s-0.333984 -26.666 0.999023 -39.999c0.666992 -6 1.33398 -9.66699 2.00098 -11s0.333984 -2.33301 -0.999023 -3z" />
    <glyph glyph-name="D.swash1" unicode="D" horiz-adv-x="1503" 
d="M710 -18c67.333 0 129.332 10.667 185.999 32c-25.333 6.66699 -51.166 12.5 -77.499 17.5s-54.5 7.5 -84.5 7.5c-34.667 0 -61.667 -3 -81 -9s-29 -13.667 -29 -23s7.66699 -15.833 23 -19.5s36 -5.5 62 -5.5h1zM1061 1c43.333 0 81.502 2.16602 114.502 6.49902
s63.167 11.666 90.5 21.999s53 24.333 77 42s48.667 40.167 74 67.5c15.333 16 31.333 36 48 60s32 50.667 46 80s25.667 60.833 35 94.5s14 68.167 14 103.5c0 42.667 -9 82.667 -27 120c-21.333 -18.667 -41.333 -39.667 -60 -63s-37.834 -48.666 -57.501 -75.999l-62 -87
c-21.667 -30.667 -45.834 -63 -72.501 -97c-47.333 -58.667 -98.833 -110.167 -154.5 -154.5s-117.167 -79.166 -184.5 -104.499c19.333 -4 38.5 -7.33301 57.5 -10s39.167 -4 60.5 -4h1zM754.001 -380.001c-76 0 -148.329 10.4961 -216.996 31.4961
s-128.834 52.833 -180.501 95.5s-92.834 96.667 -123.501 162s-46 142.666 -46 231.999c0 41.333 4.83301 82.666 14.5 123.999s23 81.5 40 120.5s37.5 76.5 61.5 112.5s50.333 69.667 79 101c38.667 42 82 79.833 130 113.5s98.667 62.334 152 86.001
s108.5 41.834 165.5 54.501s113.5 19 169.5 19c58 0 113.833 -5.66699 167.5 -17s103.834 -28 150.501 -50s88.667 -49 126 -81s68 -68.333 92 -109c15.333 12 31.666 23.667 48.999 35s35.5 21.5 54.5 30.5s38.667 16.333 59 22s41.166 8.5 62.499 8.5
c32 0 55.667 -7 71 -21c1.33301 -1.33301 2.66602 -2.83301 3.99902 -4.5s1.66602 -2.83398 0.999023 -3.50098l-9 5c-7.33301 4.66699 -16.166 8.33398 -26.499 11.001s-23.833 4 -40.5 4c-40 0 -78.167 -9.5 -114.5 -28.5s-70.833 -42.167 -103.5 -69.5
c16.667 -30 29.334 -61.833 38.001 -95.5s13 -69.5 13 -107.5c0 -30 -3.83301 -58.333 -11.5 -85s-18 -52 -31 -76s-28.167 -46.5 -45.5 -67.5s-36 -40.5 -56 -58.5c-19.333 -17.333 -42.666 -33.666 -69.999 -48.999s-57.833 -28.666 -91.5 -39.999s-70 -20.5 -109 -27.5
s-79.167 -10.5 -120.5 -10.5c-24 0 -47.167 2.16699 -69.5 6.5s-44.5 9.16602 -66.5 14.499c-34 -11.333 -69.5 -20.166 -106.5 -26.499s-75.5 -9.5 -115.5 -9.5c-17.333 0 -33.833 0.5 -49.5 1.5s-29.167 3 -40.5 6s-20.333 6.83301 -27 11.5s-10 10.667 -10 18
s4.33301 13.5 13 18.5s20.334 9 35.001 12s31.667 5.16699 51 6.5s39.666 2 60.999 2c35.333 0 67.333 -2.83301 96 -8.5s57 -11.834 85 -18.501c30 12.667 58.5 28.334 85.5 47.001s53.5 39.5 79.5 62.5s51.667 48.333 77 76s51 57.5 77 89.5l145 169
c49.333 55.333 99 103.333 149 144c-18 34 -42.833 65.333 -74.5 94s-70 53.667 -115 75s-96.167 38 -153.5 50s-120.333 18 -189 18c-56 0 -112 -5.66699 -168 -17s-110.333 -27.666 -163 -48.999s-102.334 -47.666 -149.001 -78.999s-89 -67.333 -127 -108
c-27.333 -29.333 -52 -62 -74 -98s-40.667 -73.5 -56 -112.5s-27 -78.833 -35 -119.5s-12 -81 -12 -121c0.666992 -83.333 15.5 -156.666 44.5 -219.999s68.167 -116.333 117.5 -159s107 -74.834 173 -96.501s136.333 -32.5 211 -32.5c77.333 0 148.166 9 212.499 27
s121.166 43.333 170.499 76c30.667 20 57.167 42.167 79.5 66.5s38.5 47.166 48.5 68.499c2 4 3.16699 7 3.5 9s1.16602 3 2.49902 3c4 0 3.66699 -5.33301 -1 -16c-4 -9.33301 -10 -19.833 -18 -31.5s-17.5 -23.667 -28.5 -36s-23.5 -24.666 -37.5 -36.999
s-29 -23.833 -45 -34.5c-51.333 -34 -109.666 -60.667 -174.999 -80s-136.666 -29 -213.999 -29h-1z" />
    <glyph glyph-name="E.swash1" unicode="E" horiz-adv-x="622" 
d="M669 421c20.667 0 39.999 3.33496 57.999 10.002s33.833 16 47.5 28s24.334 26.167 32.001 42.5s11.5 34.166 11.5 53.499c0 21.333 -3.66699 40.166 -11 56.499s-17.333 30 -30 41s-27.667 19.833 -45 26.5s-36 11 -56 13c-34.667 -15.333 -63.667 -37.333 -87 -66
s-35 -63 -35 -103c0 -32 10.5 -57 31.5 -75s48.5 -27 82.5 -27h1zM464.999 380.002c9.33301 0 18.1709 1.83203 26.5039 5.49902s13.166 10.167 14.499 19.5c1.33301 7.33301 -0.833984 13.333 -6.50098 18s-12.834 8.5 -21.501 11.5s-17.834 5 -27.501 6
s-17.834 1.5 -24.501 1.5c-6 0 -12 -0.166992 -18 -0.5s-12 -0.833008 -18 -1.5c3.33301 -17.333 10.833 -31.666 22.5 -42.999s28.834 -17 51.501 -17h1zM272.004 -51.999c35.333 0 70.668 5.83105 106.001 17.498s64.666 25.167 87.999 40.5
c34 22.667 60.333 47.834 79 75.501s28.667 58.834 30 93.501c0.666992 35.333 -10.5 62.166 -33.5 80.499s-52.167 27.5 -87.5 27.5c-18.667 0 -36.667 -2.5 -54 -7.5s-33.666 -11.667 -48.999 -20s-29.833 -17.666 -43.5 -27.999s-25.834 -20.833 -36.501 -31.5
c-25.333 -24.667 -46.5 -53 -63.5 -85s-26.167 -66.667 -27.5 -104c-0.666992 -7.33301 -0.666992 -14.333 0 -21s1.66699 -13.334 3 -20.001c11.333 -5.33301 24.5 -9.66602 39.5 -12.999s31.167 -5 48.5 -5h1zM386.006 -207.001c-62.667 0 -114.336 20.333 -155.003 61
c-12.667 12.667 -23.667 27.167 -33 43.5s-16.666 34.833 -21.999 55.5c-36.667 13.333 -67.167 34.166 -91.5 62.499s-36.5 64.5 -36.5 108.5c0 46 9.66699 88.5 29 127.5s50.333 75.5 93 109.5c10 8 21.833 16 35.5 24s28.667 15.667 45 23s33.666 14 51.999 20
s37.166 11 56.499 15c-5.33301 14.667 -8 29.334 -8 44.001c0 31.333 7 59.833 21 85.5s33.667 48.5 59 68.5c12 9.33301 25.833 17.833 41.5 25.5s32.834 14.334 51.501 20.001s38 10 58 13s40.333 4.5 61 4.5c6 0 12 -0.166992 18 -0.5s12 -0.833008 18 -1.5
c38.667 16 79.334 24 122.001 24c21.333 0 42.333 -3.33301 63 -10s39.167 -16 55.5 -28s29.5 -26.667 39.5 -44s15 -37 15 -59c0 -17.333 -4.33301 -33.5 -13 -48.5s-18.334 -27.167 -29.001 -36.5c-2 -1.33301 -4.16699 -3 -6.5 -5s-4.16602 -2.33301 -5.49902 -1
c-0.666992 0.666992 0 1.66699 2 3s4 3.66602 6 6.99902c7.33301 10.667 13.5 22.834 18.5 36.501s7.5 28.5 7.5 44.5c0 20.667 -4.16699 39.334 -12.5 56.001s-19.5 30.667 -33.5 42s-30.333 20 -49 26s-38.334 9 -59.001 9c-37.333 0 -72.666 -6.33301 -105.999 -19
c19.333 -4 37.666 -10 54.999 -18s32.5 -18 45.5 -30s23.167 -26.167 30.5 -42.5s11 -34.833 11 -55.5c0 -20 -4.83301 -38.667 -14.5 -56s-22.5 -32.333 -38.5 -45s-34.167 -22.5 -54.5 -29.5s-40.833 -10.5 -61.5 -10.5c-36 0 -65.333 9.5 -88 28.5s-34 46.5 -34 82.5
c0 39.333 11 73.333 33 102s49.667 51.334 83 68.001c-3.33301 0.666992 -6.5 1 -9.5 1h-9.5c-21.333 0 -40.833 -2.33301 -58.5 -7s-34 -11 -49 -19s-29 -17 -42 -27s-24.833 -20.333 -35.5 -31c-20.667 -20 -37.334 -42.5 -50.001 -67.5s-19 -51.5 -19 -79.5v-7
c0 -2 0.333008 -4.66699 1 -8c6 0.666992 12.167 1.16699 18.5 1.5s12.5 0.5 18.5 0.5c9.33301 0 19.5 -0.833008 30.5 -2.5s21.167 -4.33398 30.5 -8.00098s16.833 -8.5 22.5 -14.5s7.83398 -13.333 6.50098 -22c-1.33301 -10.667 -7.5 -18.5 -18.5 -23.5
s-21.833 -7.5 -32.5 -7.5c-21.333 0 -41.333 5.66699 -60 17s-33 26.666 -43 45.999c-31.333 -8 -60 -20.833 -86 -38.5s-51 -38.834 -75 -63.501c-30.667 -32 -54.167 -65.167 -70.5 -99.5s-24.5 -74.5 -24.5 -120.5c0 -31.333 5.33301 -59.166 16 -83.499
s27.667 -43.833 51 -58.5c-0.666992 6 -1.16699 12 -1.5 18s-0.5 12.333 -0.5 19c0.666992 40 8.33398 76.667 23.001 110s36 63.666 64 90.999c23.333 23.333 51.833 43 85.5 59s70.5 24 110.5 24c18.667 0 36.5 -2.5 53.5 -7.5s32 -12.5 45 -22.5s23.333 -22.333 31 -37
s11.167 -31.334 10.5 -50.001c-1.33301 -38 -13.333 -71.167 -36 -99.5s-52 -54.166 -88 -77.499c-25.333 -16.667 -55.666 -30.834 -90.999 -42.501s-71.666 -17.5 -108.999 -17.5c-29.333 0 -57.333 4 -84 12c5.33301 -18.667 12.333 -35.5 21 -50.5
s18.667 -28.167 30 -39.5c18.667 -19.333 40.834 -33.333 66.501 -42s54.167 -13 85.5 -13c17.333 0 32.666 1.33301 45.999 4s27.333 7.66699 42 15c3.33301 1.33301 6 3 8 5s3.33301 2.33301 4 1c0.666992 -2 -2.33301 -5.33301 -9 -10
c-11.333 -7.33301 -25 -13.666 -41 -18.999s-33.333 -8 -52 -8h-1z" />
    <glyph glyph-name="F.swash1" unicode="F" horiz-adv-x="1300" 
d="M671 -81c46.667 0 93.6689 6.33203 141.002 18.999s96 35 146 67c43.333 28 80.666 57.833 111.999 89.5s61.666 65.834 90.999 102.501c-54 -1.33301 -107.5 -5 -160.5 -11s-108.5 -17 -166.5 -33c-28.667 -8 -57.667 -18 -87 -30s-55.833 -25.667 -79.5 -41
s-42.667 -32.333 -57 -51s-20.833 -38.667 -19.5 -60c1.33301 -17.333 9.5 -30.333 24.5 -39s33.167 -13 54.5 -13h1zM1591 539.999c16.667 0 34.832 1.33398 54.499 4.00098s37.667 6.5 54 11.5s30 11.5 41 19.5s16.5 17 16.5 27c0 9.33301 -4.83301 15.666 -14.5 18.999
s-19.167 5 -28.5 5c-37.333 0 -72.666 -7.33301 -105.999 -22s-67 -34 -101 -58c26 -4 53.667 -6 83 -6h1zM668 -90c-14 0 -27.835 0.99707 -41.502 2.99707s-26 5.33301 -37 10s-20 10.834 -27 18.501s-10.833 17.5 -11.5 29.5c-1.33301 22 7.5 43 26.5 63
s43.167 38.333 72.5 55s61.5 31.5 96.5 44.5s67.5 23.5 97.5 31.5c54.667 14.667 107.834 25 159.501 31s106.834 9.66699 165.501 11l47 61.5l50 65.5c34.667 44.667 69.834 84.334 105.501 119.001s69.167 63.667 100.5 87c-53.333 8 -104 22.667 -152 44s-99 50 -153 86
l-144.5 91c-45.667 27.333 -92 50.833 -139 70.5s-96 34.834 -147 45.501s-107.5 16 -169.5 16c-59.333 0 -119 -6.5 -179 -19.5s-114.333 -33.167 -163 -60.5s-88.167 -62.333 -118.5 -105s-45.5 -93.667 -45.5 -153c0 -49.333 11.167 -93.166 33.5 -131.499
s52.166 -70.5 89.499 -96.5s80.333 -45.667 129 -59s99.334 -20.333 152.001 -21c44 -0.666992 88.667 3.33301 134 12s86.5 22.5 123.5 41.5s67.333 43.5 91 73.5s35.5 65.667 35.5 107c0 26.667 -7 49.834 -21 69.501s-32 36 -54 49s-46.667 22.5 -74 28.5
s-54.333 9 -81 9c-44 0 -85.167 -6 -123.5 -18s-68.5 -32 -90.5 -60c-3.33301 -4.66699 -5.5 -8.16699 -6.5 -10.5s-2.16699 -3.16602 -3.5 -2.49902s-1.33301 2.66699 0 6s3 6.66602 5 9.99902c7.33301 12 17.833 23.333 31.5 34s30 20.167 49 28.5s40.333 14.833 64 19.5
s49.167 7 76.5 7c31.333 0 63 -3.5 95 -10.5s60.833 -17.667 86.5 -32s46.667 -32.833 63 -55.5s24.5 -49.334 24.5 -80.001c0 -42 -13.333 -77.833 -40 -107.5s-60.834 -54 -102.501 -73s-87.5 -32.833 -137.5 -41.5s-98.333 -13 -145 -13
c-51.333 0 -102.5 6.33301 -153.5 19s-97 32 -138 58s-74.167 59 -99.5 99s-38 87.333 -38 142c0 61.333 16.167 113.833 48.5 157.5s74.166 79.5 125.499 107.5s108.5 48.5 171.5 61.5s125.167 19.5 186.5 19.5c62 0 119.667 -4.16699 173 -12.5s104.666 -21 153.999 -38
s97.833 -38.167 145.5 -63.5s96.834 -55 147.501 -89l78 -51.5c24.667 -15.667 49 -29.834 73 -42.501s48 -23.667 72 -33s49 -16.666 75 -21.999c40.667 28 79.5 49.167 116.5 63.5s74.833 21.5 113.5 21.5c7.33301 0 15.166 -0.5 23.499 -1.5s16 -2.83301 23 -5.5
s12.833 -6.33398 17.5 -11.001s7 -10.667 7 -18c0 -10 -6.5 -19.167 -19.5 -27.5s-29.167 -15.5 -48.5 -21.5s-40.666 -10.667 -63.999 -14s-45.333 -5 -66 -5c-32.667 0 -64 2 -94 6c-12 -10 -24.833 -22.333 -38.5 -37s-27.5 -30.667 -41.5 -48l-42.5 -54l-40.5 -55
l-54 -71.5c-17.333 -22.333 -34.666 -43.166 -51.999 -62.499h78c8 0 14.5 0.166992 19.5 0.5s9.33301 1.16602 13 2.49902s7 3.33301 10 6s6.16699 6.33398 9.5 11.001c8 11.333 16 20.5 24 27.5s15.667 10.5 23 10.5c3.33301 0 6 -1.16699 8 -3.5
s2.66699 -5.16602 2 -8.49902c-2 -10 -10 -20.667 -24 -32c-6.66699 -5.33301 -12.334 -9.5 -17.001 -12.5s-10 -7.16699 -16 -12.5c-6.66699 -6 -12.167 -11.667 -16.5 -17s-8.5 -11 -12.5 -17c-2.66699 -3.33301 -5 -6.83301 -7 -10.5s-4 -5.5 -6 -5.5
s-2.33301 2.16699 -1 6.5s2.66602 8.16602 3.99902 11.499c4 8.66699 7.33301 15.5 10 20.5s5.66699 10.167 9 15.5c-4 -1.33301 -11 -2.33301 -21 -3s-20 -1 -30 -1c-13.333 0 -25.166 0.166992 -35.499 0.5s-21.166 0.166016 -32.499 -0.500977
c-37.333 -42 -74.666 -78.833 -111.999 -110.5s-78 -60.834 -122 -87.501c-55.333 -33.333 -109.833 -56.666 -163.5 -69.999s-103.834 -20 -150.501 -20h-1z" />
    <glyph glyph-name="G.swash1" unicode="G" horiz-adv-x="1550" 
d="M1273 361c64.667 1.33301 125.999 8.83496 183.999 22.502s116.333 33.5 175 59.5c26.667 12 53.167 25.833 79.5 41.5s50 32.5 71 50.5s38.167 36.667 51.5 56s20 38.666 20 57.999c0 16.667 -4.5 30.167 -13.5 40.5s-23.5 15.5 -43.5 15.5
c-30.667 0 -61 -4.5 -91 -13.5s-59 -20.667 -87 -35s-54.667 -30.333 -80 -48s-48.666 -34.834 -69.999 -51.501c-44 -34 -81.333 -66.667 -112 -98s-58.667 -64 -84 -98zM566.999 -451.998c-45.333 0 -90.165 3.17285 -134.498 9.50586s-86.666 16.166 -126.999 29.499
s-77.666 30.666 -111.999 51.999s-64 47 -89 77s-44.167 64.667 -57.5 104s-19 84 -17 134c2 59.333 16.333 112.833 43 160.5s61.5 88.167 104.5 121.5s92.333 59 148 77s113.167 27 172.5 27c42 0 83.667 -5.16699 125 -15.5s78.5 -25.666 111.5 -45.999
s59.833 -46 80.5 -77s31 -67.5 31 -109.5c0 -35.333 -8.33301 -67.5 -25 -96.5s-38.334 -53.833 -65.001 -74.5s-56.667 -36.5 -90 -47.5s-66.666 -16.5 -99.999 -16.5c-13.333 0 -26.166 1 -38.499 3s-23.166 5.33301 -32.499 10c-2.66699 1.33301 -5.5 3 -8.5 5
s-4.16699 3.66699 -3.5 5s2 1.16602 4 -0.500977s5.66699 -3.16699 11 -4.5c18.667 -6 40.667 -9 66 -9c30.667 0 60 6.16699 88 18.5s52.833 28.833 74.5 49.5s39 44.667 52 72s19.5 56.333 19.5 87c0 36.667 -8.83301 69 -26.5 97s-40.834 51.667 -69.501 71
s-61 34 -97 44s-72.333 15 -109 15c-55.333 0 -109.5 -8.5 -162.5 -25.5s-100.5 -41.333 -142.5 -73s-76.333 -69.834 -103 -114.501s-41 -95 -43 -151c-2.66699 -72 10.5 -133.333 39.5 -184s68.333 -92 118 -124s106.5 -55.167 170.5 -69.5s129.667 -21.5 197 -21.5
c60.667 0 119 6.33301 175 19s109 29.834 159 51.501s96.333 46.667 139 75s81.667 58.166 117 89.499c29.333 26 57.333 53.167 84 81.5s51.5 56 74.5 83s43.5 52.167 61.5 75.5s32.667 43 44 59c-14.667 -12.667 -30.5 -25.334 -47.5 -38.001s-34.667 -24 -53 -34
s-37.166 -18 -56.499 -24s-38.333 -9 -57 -9c-16.667 0 -32.334 2.16699 -47.001 6.5s-27.334 11.333 -38.001 21s-19 21.834 -25 36.501s-8.33301 32 -7 52c1.33301 24 5.5 47.5 12.5 70.5s15.5 45.167 25.5 66.5s21.333 41.666 34 60.999l37 54
c-25.333 2.66699 -51.833 7.83398 -79.5 15.501s-53.334 19.167 -77.001 34.5s-43.167 35 -58.5 59s-23 54 -23 90c0 28 6.5 53 19.5 75s30 40.667 51 56s44.167 27 69.5 35s50.666 12 75.999 12c19.333 0 37.833 -2.5 55.5 -7.5s33.334 -12.333 47.001 -22
s24.5 -21.334 32.5 -35.001s12 -29.167 12 -46.5c0 -6 -0.666992 -9 -2 -9l-2 9c-6 30.667 -22.167 54.5 -48.5 71.5s-57.5 25.5 -93.5 25.5c-24 0 -47 -3.83301 -69 -11.5s-41.333 -18.667 -58 -33s-29.834 -31.5 -39.501 -51.5s-14.5 -42.333 -14.5 -67
c0 -32 6.16699 -59.333 18.5 -82s28.5 -41.5 48.5 -56.5s42.5 -26.667 67.5 -35s50.167 -13.833 75.5 -16.5c33.333 44 69.666 83.167 108.999 117.5s82 66.833 128 97.5c24 16 50 32 78 48s57.167 30.5 87.5 43.5s61.333 23.5 93 31.5s63.167 12 94.5 12
c10.667 0 21.5 -1.33301 32.5 -4s21 -6.66699 30 -12s16.167 -12 21.5 -20s8 -17.667 8 -29c0 -17.333 -7.66699 -35.833 -23 -55.5s-35.166 -39 -59.499 -58s-51.666 -37.167 -81.999 -54.5s-60.5 -32.666 -90.5 -45.999s-59.5 -24.833 -88.5 -34.5s-58.333 -18 -88 -25
s-60.5 -12.5 -92.5 -16.5s-66 -6.33301 -102 -7l-43 -59c-14 -20 -26.833 -40.833 -38.5 -62.5s-21.334 -43.834 -29.001 -66.501s-12.5 -46.334 -14.5 -71.001c-2 -28 1.83301 -51.167 11.5 -69.5s30.167 -27.5 61.5 -27.5c17.333 0 35.833 3.33301 55.5 10
s39.334 15.667 59.001 27s38.834 24.166 57.501 38.499s35.334 29.166 50.001 44.499l32.5 33.5c10.333 10.333 20.333 21.166 30 32.499l29.5 35.5c10 12.333 20.667 26.5 32 42.5c7.33301 10.667 15.666 19.834 24.999 27.501s18.666 11.167 27.999 10.5
c13.333 -1.33301 16 -10.666 8 -27.999c-4.66699 -10.667 -11.334 -20.667 -20.001 -30l-32 -34l-81 -106.5l-95 -120.5c-33.333 -40.667 -67.833 -79.667 -103.5 -117s-71.167 -69.333 -106.5 -96c-42.667 -32 -86.334 -61.5 -131.001 -88.5s-91.834 -50 -141.501 -69
s-102.667 -33.833 -159 -44.5s-117.5 -16 -183.5 -16h-1z" />
    <glyph glyph-name="H.swash1" unicode="H" horiz-adv-x="1443" 
d="M1431 388c78 23.333 146.333 49.6689 205 79.002c24 12 47.833 25.167 71.5 39.5s45 29.666 64 45.999s34.5 33 46.5 50s18 34.167 18 51.5c0 9.33301 -3.16699 17.333 -9.5 24s-15.5 10 -27.5 10c-18.667 0 -37 -3.33301 -55 -10s-35.667 -15.834 -53 -27.501
s-34.833 -25.5 -52.5 -41.5s-35.834 -33.333 -54.501 -52l-84.5 -87.5c-24.333 -26.333 -47.166 -53.5 -68.499 -81.5zM601 -65.9971c28 0 54.666 4.66602 79.999 13.999s49 21.5 71 36.5s42.5 31.667 61.5 50s36.5 36.833 52.5 55.5c16.667 19.333 37.334 46 62.001 80
l80 109c-51.333 -12.667 -100.666 -26.667 -147.999 -42s-97 -34 -149 -56c-60 -25.333 -106.833 -53.666 -140.5 -84.999s-49.834 -66 -48.501 -104c2 -38.667 28 -58 78 -58h1zM586.999 -75.998c-11.333 0 -22.8311 0.99707 -34.498 2.99707s-22.334 5.66699 -32.001 11
s-17.834 12.333 -24.501 21s-10.334 19.667 -11.001 33c-1.33301 19.333 3.83398 38.166 15.501 56.499s27.834 35.833 48.501 52.5s44.667 32.334 72 47.001s55.666 28.334 84.999 41.001c54 23.333 106.167 42.833 156.5 58.5s101.5 29.834 153.5 42.501l58 76l57 72
c29.333 35.333 59.333 67.333 90 96s59.667 53 87 73c-30 -11.333 -60.5 -19.666 -91.5 -24.999s-66.5 -8.66602 -106.5 -9.99902c-31.333 -0.666992 -60.666 0.166016 -87.999 2.49902s-53.833 6.16602 -79.5 11.499s-51 12 -76 20s-50.833 17 -77.5 27l-93 35
c-28 10.667 -55.667 19.667 -83 27s-55.5 13.166 -84.5 17.499s-61.5 6.5 -97.5 6.5c-26.667 0 -55.167 -2 -85.5 -6s-60.333 -10.333 -90 -19s-58.167 -19.834 -85.5 -33.501s-51.5 -30 -72.5 -49s-37.667 -41 -50 -66s-18.5 -53.167 -18.5 -84.5
c0 -42 10.667 -77.5 32 -106.5s49 -52.5 83 -70.5s71.833 -30.833 113.5 -38.5s83.167 -11.5 124.5 -11.5c40 0 80.167 4 120.5 12s76.666 19.667 108.999 35s58.666 34.166 78.999 56.499s30.5 47.5 30.5 75.5c0 26 -6.66699 47.667 -20 65s-30.5 31.333 -51.5 42
s-44.667 18.167 -71 22.5s-52.833 6.5 -79.5 6.5c-31.333 0 -61.166 -3.33301 -89.499 -10s-53.166 -16 -74.499 -28c-5.33301 -2.66699 -9.16602 -5.16699 -11.499 -7.5s-3.83301 -2.83301 -4.5 -1.5s0.5 3.33301 3.5 6s5.83301 5 8.5 7c19.333 15.333 43.833 28 73.5 38
s61.5 15 95.5 15c28 0 55.667 -2.83301 83 -8.5s52 -14.667 74 -27s39.667 -28.333 53 -48s20 -43.5 20 -71.5c0 -30 -10.167 -57.167 -30.5 -81.5s-46.833 -45.166 -79.5 -62.499s-69.834 -30.666 -111.501 -39.999s-83.834 -14 -126.501 -14
c-42 0 -84.5 4.66699 -127.5 14s-81.833 23.833 -116.5 43.5s-63 45 -85 76s-33 68.5 -33 112.5c0 48 13.667 89.333 41 124s61.666 63.167 102.999 85.5s86.166 38.833 134.499 49.5s93.5 16 135.5 16c40 0 76 -1.66699 108 -5s62.333 -8.33301 91 -15
s57.167 -14.5 85.5 -23.5l91.5 -29.5c26 -8.66699 50.667 -17.667 74 -27s46.666 -17.833 69.999 -25.5s47.5 -14 72.5 -19s52.167 -7.83301 81.5 -8.5c33.333 -0.666992 65.833 1.16602 97.5 5.49902s64.834 13.5 99.501 27.5c20 8 36.667 16 50 24s28.666 18 45.999 30
c6.66699 4.66699 12.167 7.83398 16.5 9.50098s8.83301 2.5 13.5 2.5c2.66699 0 5.16699 -1.16699 7.5 -3.5s2.83301 -5.16602 1.5 -8.49902c-1.33301 -5.33301 -5.5 -10 -12.5 -14s-16.5 -8.66699 -28.5 -14l-32 -15c-10 -4.66699 -20.333 -10 -31 -16
c-19.333 -15.333 -37.666 -32.833 -54.999 -52.5s-37 -44.167 -59 -73.5l-67 -91.5l-60 -85.5l59 12l62 13l72 16c24 5.33301 47.667 11.333 71 18c28 34.667 55.667 66.334 83 95.001s52 53.334 74 74.001c22.667 21.333 47.334 42 74.001 62s53.334 37.833 80.001 53.5
s52.667 28 78 37s48 13.5 68 13.5c14.667 0 27.334 -4 38.001 -12s15.667 -20.667 15 -38c-0.666992 -16 -8.16699 -32.667 -22.5 -50s-32.5 -34.5 -54.5 -51.5s-46.5 -33.5 -73.5 -49.5s-53.5 -30.333 -79.5 -43c-64 -31.333 -136.667 -59 -218 -83
c-17.333 -22.667 -34.166 -46.334 -50.499 -71.001l-52.5 -82c-26 -42.667 -47.5 -80 -64.5 -112s-26.167 -58.667 -27.5 -80c-0.666992 -15.333 2.66602 -26.333 9.99902 -33s16.666 -10.667 27.999 -12c12 -1.33301 26.667 1.5 44 8.5s38.666 20.167 63.999 39.5
c6 4 12.333 8.83301 19 14.5l19.5 16.5l18 15.5c5.66699 5 10.167 9.16699 13.5 12.5c2.66699 2.66699 5.83398 5.33398 9.50098 8.00098s6.16699 3.33398 7.5 2.00098c1.33301 -2 -1.33398 -6.33301 -8.00098 -13l-13 -12.5l-20 -18.5
c-7.33301 -6.66699 -14.666 -13 -21.999 -19l-18 -15c-50.667 -38.667 -92.667 -58 -126 -58c-25.333 0 -45.166 5.5 -59.499 16.5s-20.833 28.5 -19.5 52.5c0.666992 12 2.5 23.833 5.5 35.5s7.66699 24.5 14 38.5s14.166 29.333 23.499 46l33 57
c15.333 25.333 31.5 50 48.5 74s34.167 47 51.5 69c-21.333 -5.33301 -43.333 -10.5 -66 -15.5l-66 -14.5c-23.333 -5.33301 -45.666 -10 -66.999 -14s-42 -8.33301 -62 -13l-69 -92.5c-22.667 -29.667 -47.334 -58.5 -74.001 -86.5
c-25.333 -26.667 -52 -51.834 -80 -75.501s-57 -44.334 -87 -62.001s-60.833 -31.667 -92.5 -42s-64.167 -15.5 -97.5 -15.5h-1z" />
    <glyph glyph-name="I.swash1" unicode="I" horiz-adv-x="851" 
d="M323 -50c-38.667 0 -75.5029 4.83594 -110.503 14.5029s-65.667 23.834 -92 42.501s-47.333 41.5 -63 68.5s-23.5 57.833 -23.5 92.5c0 44.667 11.333 84.334 34 119.001s51.334 64 86.001 88s72.834 42.167 114.501 54.5s81.5 18.5 119.5 18.5
c26 0 51.167 -2.83301 75.5 -8.5s46 -14.334 65 -26.001s34.333 -26.167 46 -43.5s17.5 -38 17.5 -62c0 -26 -7.33301 -49.5 -22 -70.5s-32.834 -38.667 -54.501 -53s-45 -25.5 -70 -33.5s-47.5 -12.333 -67.5 -13c-11.333 -0.666992 -21.333 -0.333984 -30 0.999023
s-12.667 3.66602 -12 6.99902c0 1.33301 0.5 1.83301 1.5 1.5s3 -0.666016 6 -0.999023s7.16699 -0.833008 12.5 -1.5s12.333 -0.333984 21 0.999023c18.667 2 38.334 7 59.001 15s39.334 18.833 56.001 32.5s30.5 30 41.5 49s16.5 40.833 16.5 65.5
c0 20.667 -4.16699 39.167 -12.5 55.5s-19.833 30 -34.5 41s-32 19.5 -52 25.5s-41.333 9 -64 9c-38 0 -76.333 -6 -115 -18s-73.5 -29.5 -104.5 -52.5s-56.333 -51.333 -76 -85s-29.5 -72.167 -29.5 -115.5c0 -32.667 6.16699 -61.834 18.5 -87.501s30 -47.5 53 -65.5
s50.667 -31.833 83 -41.5s68.166 -14.5 107.499 -14.5c58.667 0 111.667 6.66699 159 20s91.666 32.5 132.999 57.5s80.833 55.5 118.5 91.5s76.167 76.667 115.5 122c22 25.333 48.167 57.333 78.5 96s63.333 77.667 99 117s72.667 76.166 111 110.499
s76.5 60.166 114.5 77.499c-18.667 -2.66699 -36.5 -4.5 -53.5 -5.5l-60.5 -3.5c-36.667 -2.66699 -73 -7.5 -109 -14.5s-68.333 -16.833 -97 -29.5s-52 -29 -70 -49s-27 -44.333 -27 -73c0 -20.667 5.5 -36.834 16.5 -48.501s26.5 -17.5 46.5 -17.5
c5.33301 0 11 0.333008 17 1s12.333 2 19 4c2 0.666992 4.16699 1.5 6.5 2.5s3.83301 1.16699 4.5 0.5s-0.333008 -1.83398 -3 -3.50098l-7 -4.5c-5.33301 -3.33301 -12.166 -6.16602 -20.499 -8.49902s-17.5 -3.5 -27.5 -3.5c-24 0 -45 7.5 -63 22.5s-27 34.5 -27 58.5
c0 28.667 10.667 53.334 32 74.001s48.5 37.834 81.5 51.501s69.5 24.167 109.5 31.5s78.667 12.333 116 15l51 3c11.333 0.666992 22.666 1.66699 33.999 3c10 1.33301 18.667 2.83301 26 4.5s14.5 4 21.5 7s14.333 6.5 22 10.5l26.5 14
c13.333 7.33301 26.833 14.333 40.5 21s25.834 10 36.501 10c12.667 0 18.667 -5.33301 18 -16c-0.666992 -7.33301 -4.83398 -12.833 -12.501 -16.5s-15.5 -6.83398 -23.5 -9.50098c-23.333 -7.33301 -43.166 -13 -59.499 -17s-30.166 -7.66699 -41.499 -11
c-7.33301 -3.33301 -15.333 -8 -24 -14s-15.667 -11.333 -21 -16c-46 -38 -89 -82 -129 -132s-78.333 -100.333 -115 -151c-41.333 -57.333 -85.833 -110 -133.5 -158s-99 -89.167 -154 -123.5s-113.667 -61.166 -176 -80.499s-128.833 -29 -199.5 -29h-1z" />
    <glyph glyph-name="J.swash1" unicode="J" horiz-adv-x="1280" 
d="M1379 293c20 0 39.167 3.33301 57.5 10s34.5 15.5 48.5 26.5s25.167 23.5 33.5 37.5s12.5 28.667 12.5 44c-1.33301 27.333 -11.666 46 -30.999 56c-25.333 -27.333 -49.5 -55.5 -72.5 -84.5l-69.5 -88.5c3.33301 -0.666992 6.66602 -1 9.99902 -1h10h1zM1311 303
l79.4961 91.4971c25.667 29 51.167 56.167 76.5 81.5h-4c-1.33301 0 -3 0.166992 -5 0.5s-4.66699 0.5 -8 0.5c-19.333 0 -36 -3.66699 -50 -11l-7 -4c-1.33301 1.33301 0.333984 3.66602 5.00098 6.99902c5.33301 4 13 7.66699 23 11s20.333 5 31 5h11.5
c3.66699 0 7.5 -0.333008 11.5 -1c25.333 26 50.333 49.5 75 70.5s49.334 38.833 74.001 53.5c34.667 20.667 69.667 36.834 105 48.501s75.333 19.834 120 24.501c6.66699 0.666992 12.667 1.16699 18 1.5s8 1.83301 8 4.5s-1.66699 4.83398 -5 6.50098
s-6.66602 3.16699 -9.99902 4.5c-10.667 3.33301 -24.167 5.66602 -40.5 6.99902s-33.166 2 -50.499 2c-36 0 -72.833 -3.5 -110.5 -10.5s-73.167 -15.5 -106.5 -25.5s-63.333 -20.5 -90 -31.5s-47.334 -20.833 -62.001 -29.5c-18.667 -11.333 -38 -24.166 -58 -38.499
s-38 -30.333 -54 -48s-29 -37.167 -39 -58.5s-14 -44 -12 -68c1.33301 -24.667 8.83301 -44.667 22.5 -60s30.834 -26.666 51.501 -33.999zM504.996 -251.003c-61.333 -2.66699 -119.329 1.66504 -173.996 12.998s-102.834 29.166 -144.501 53.499
s-75.5 55.166 -101.5 92.499s-41.333 81 -46 131c-4 41.333 -0.333008 79.333 11 114s28.166 66.334 50.499 95.001s49.166 53.834 80.499 75.501s65.166 39.834 101.499 54.501s74.5 25.834 114.5 33.501s79.667 11.5 119 11.5c37.333 0 75 -4 113 -12s73 -20.5 105 -37.5
s58.833 -38.5 80.5 -64.5s34.5 -56.667 38.5 -92c5.33301 -44 -1.66699 -83.5 -21 -118.5s-46.166 -64.833 -80.499 -89.5s-74 -43.667 -119 -57s-90.5 -20 -136.5 -20c-26.667 0 -53.167 3 -79.5 9s-50 15 -71 27s-38.333 27 -52 45s-21.167 39 -22.5 63
c-1.33301 17.333 1 32.5 7 45.5s13.667 24.167 23 33.5c2 2 4.16699 3.83301 6.5 5.5s3.83301 2.16699 4.5 1.5s-0.166016 -1.83398 -2.49902 -3.50098s-4.16602 -3.5 -5.49902 -5.5c-18 -20.667 -26 -46.334 -24 -77.001c1.33301 -22.667 8.66602 -42.5 21.999 -59.5
s30.333 -31 51 -42s43.5 -19.167 68.5 -24.5s49.833 -8 74.5 -8c44.667 0 87.167 6.5 127.5 19.5s75.333 31.333 105 55s52.334 52.334 68.001 86.001s21.167 71.167 16.5 112.5c-4 32 -14.833 60.333 -32.5 85s-40 45.5 -67 62.5s-57.5 29.833 -91.5 38.5s-69 13 -105 13
c-61.333 0 -120.333 -8.33301 -177 -25s-106.5 -41 -149.5 -73s-76.5 -71.333 -100.5 -118s-33.333 -100 -28 -160c4 -48 18.5 -90.167 43.5 -126.5s57.333 -66.333 97 -90s85.334 -40.834 137.001 -51.501s106.5 -14.667 164.5 -12
c72.667 3.33301 139.5 16.166 200.5 38.499s117.5 50.333 169.5 84s100.5 71.334 145.5 113.001s87.5 83.834 127.5 126.501l81 89l77 87c-21.333 8 -39.166 20.333 -53.499 37s-22.166 37.667 -23.499 63c-2 26 1.66699 50.333 11 73s21.666 43.667 36.999 63
s33.166 36.833 53.499 52.5s40.5 29.5 60.5 41.5c16.667 9.33301 38.5 19.333 65.5 30s57.167 20.334 90.5 29.001s69 15.834 107 21.501s76.333 8.5 115 8.5c18.667 0 37.667 -1 57 -3s35 -5 47 -9c4.66699 -1.33301 9 -3.5 13 -6.5s6.33301 -6.5 7 -10.5
c0.666992 -4.66699 -2.5 -7.66699 -9.5 -9l-21.5 -4c-24 -3.33301 -45.5 -7.33301 -64.5 -12s-37 -10.334 -54 -17.001s-33.667 -14.5 -50 -23.5s-33.5 -19.5 -51.5 -31.5c-24.667 -16 -47.834 -33.5 -69.501 -52.5s-42.5 -39.167 -62.5 -60.5
c13.333 -5.33301 24.666 -13.333 33.999 -24s14.333 -24.667 15 -42c0.666992 -16 -4.33301 -31.667 -15 -47s-24.667 -28.833 -42 -40.5s-36.833 -21 -58.5 -28s-43.5 -10.5 -65.5 -10.5h-13c-4 0 -8.33301 0.333008 -13 1l-67 -88
c-22.667 -28.667 -46.334 -56.334 -71.001 -83.001c-46.667 -51.333 -95.834 -98.666 -147.501 -141.999s-106.667 -81 -165 -113s-120.333 -57.667 -186 -77s-135.5 -30.333 -209.5 -33z" />
    <glyph glyph-name="K.swash1" unicode="K" horiz-adv-x="1459" 
d="M333 -93c-50 -0.666992 -97.1621 4.99902 -141.495 16.999s-82.333 30.167 -114 54.5s-55.334 54.833 -71.001 91.5s-19.834 79.334 -12.501 128.001c6.66699 48 23.834 91.667 51.501 131s61.5 73 101.5 101s84 49.667 132 65s96 23 144 23c30.667 0 60 -3.66699 88 -11
s52.167 -18.333 72.5 -33s35.833 -32.834 46.5 -54.501s14.334 -46.834 11.001 -75.501c-3.33301 -28 -14.333 -53.667 -33 -77s-41.334 -43.5 -68.001 -60.5s-55.167 -30.167 -85.5 -39.5s-58.833 -14.333 -85.5 -15c-30 -0.666992 -56.667 2.5 -80 9.5
s-41 18.167 -53 33.5c-5.33301 6.66699 -8.66602 12.834 -9.99902 18.501s-1 9.16699 1 10.5c1.33301 0.666992 2.5 -1.5 3.5 -6.5s4.5 -10.5 10.5 -16.5c17.333 -17.333 36.833 -28.166 58.5 -32.499s46.167 -6.16602 73.5 -5.49902c24.667 0 49.834 4.83301 75.501 14.5
s49.167 22.834 70.5 39.501s39.333 35.834 54 57.501s23.667 45.167 27 70.5c3.33301 26.667 1.66602 50.334 -5.00098 71.001s-17.834 38 -33.501 52s-35.167 24.5 -58.5 31.5s-50 10.5 -80 10.5c-47.333 0 -93.5 -7.66699 -138.5 -23s-85.833 -36.833 -122.5 -64.5
s-67.167 -60.5 -91.5 -98.5s-39.5 -79.667 -45.5 -125c-6 -48.667 -2.33301 -90.834 11 -126.501s34.166 -65.334 62.499 -89.001s62.833 -41 103.5 -52s85 -16.167 133 -15.5c65.333 0.666992 125.5 10.167 180.5 28.5s107.167 43.833 156.5 76.5s96.833 71.5 142.5 116.5
s91.834 94.833 138.501 149.5l54.5 64.5l53 63l48.5 57l41 46.5c-20 -12 -39.833 -20.167 -59.5 -24.5s-39.167 -6.5 -58.5 -6.5c-22.667 0 -43.5 3.66699 -62.5 11s-34.833 17.666 -47.5 30.999s-21.667 29.166 -27 47.499s-6 38.5 -2 60.5
c4.66699 24.667 14.834 49 30.501 73s34.167 45.5 55.5 64.5s44.166 34.333 68.499 46s47.5 17.5 69.5 17.5c23.333 0 42 -6.33301 56 -19s19.333 -30.667 16 -54c-2.66699 -20.667 -9.5 -40.5 -20.5 -59.5s-24.167 -37 -39.5 -54s-31.833 -32.667 -49.5 -47
s-34.5 -26.833 -50.5 -37.5l-12 -7c-4.66699 -2.66699 -7.33398 -3.33398 -8.00098 -2.00098s0.166016 2.83301 2.49902 4.5l13.5 9.5c15.333 10.667 30.666 23 45.999 37s29.5 29.333 42.5 46s24.167 34.334 33.5 53.001s15.666 38.334 18.999 59.001
c3.33301 18.667 0 33.834 -10 45.501s-23.667 17.5 -41 17.5c-21.333 0 -42.166 -5.66699 -62.499 -17s-39 -26.333 -56 -45s-31.5 -39.5 -43.5 -62.5s-20 -46.167 -24 -69.5c-8 -42.667 -3 -76.834 15 -102.501s48.333 -38.5 91 -38.5c26 0 49.333 3.5 70 10.5
s42 19.167 64 36.5c15.333 11.333 31.666 26.166 48.999 44.499s34 35.166 50 50.499c10.667 10 20.667 18.333 30 25s19 10 29 10c8.66699 0 13 -4 13 -12c0 -5.33301 -2.33301 -10.333 -7 -15s-10.667 -10 -18 -16l-39 -30c-14.667 -11.333 -29 -23.333 -43 -36
c-15.333 -14 -31.5 -31.333 -48.5 -52s-34.167 -43 -51.5 -67l-52.5 -74l-52.5 -72c-50 -65.333 -101.167 -122.333 -153.5 -171s-107 -89.167 -164 -121.5s-116.667 -56.666 -179 -72.999s-128.5 -24.833 -198.5 -25.5zM1108 308.999c10 0 20.999 1.66699 32.999 5
c-9.33301 6 -20 9 -32 9c-3.33301 0 -7.5 -0.333008 -12.5 -1s-7.5 -2.66699 -7.5 -6c0 -2.66699 1.83301 -4.5 5.5 -5.5s7.83398 -1.5 12.501 -1.5h1zM1130 -36.001c-14.667 0 -28.1709 2.16504 -40.5039 6.49805s-22.833 10.666 -31.5 18.999s-15 18.833 -19 31.5
s-4.33301 27.667 -1 45c3.33301 19.333 10.333 37.5 21 54.5s22.667 34.167 36 51.5l38.5 47.5c13 15.667 21.167 32.167 24.5 49.5c2.66699 14.667 -0.333008 27 -9 37c-17.333 -4 -35 -6 -53 -6c-20.667 0 -30.334 5.33301 -29.001 16
c0.666992 5.33301 4.83398 9.33301 12.501 12s18.167 3.66699 31.5 3c16.667 -1.33301 31 -5.66602 43 -12.999c18.667 6.66699 36.667 17.167 54 31.5s34.166 30.333 50.499 48s32.5 36.167 48.5 55.5s32.333 37.333 49 54c29.333 30 59.333 58.5 90 85.5s62 50.5 94 70.5
s65 36 99 48s69 18 105 18c18 0 35 -2.33301 51 -7s29.5 -11.5 40.5 -20.5s19.167 -20.167 24.5 -33.5s6.33301 -28.666 3 -45.999c-4 -23.333 -15.5 -44.5 -34.5 -63.5s-41.167 -35.167 -66.5 -48.5s-52 -23.666 -80 -30.999s-53 -11 -75 -11c-13.333 0 -26 0.666992 -38 2
s-22.667 3.66602 -32 6.99902c-3.33301 1.33301 -6.16602 2.66602 -8.49902 3.99902s-3.16602 2.66602 -2.49902 3.99902s2.16699 1.33301 4.5 0s5.16602 -2.33301 8.49902 -3c11.333 -2.66699 22.666 -4.33398 33.999 -5.00098s23 -1 35 -1c21.333 0 45 3.5 71 10.5
s50.667 17 74 30s43.5 28.833 60.5 47.5s27.5 39.334 31.5 62.001c5.33301 32 -1.33398 55.667 -20.001 71s-46 23 -82 23s-69.333 -6.5 -100 -19.5s-59 -29.333 -85 -49s-49.833 -40.834 -71.5 -63.501l-60.5 -63l-64.5 -67.5c-21 -22.333 -42 -43 -63 -62
s-42.5 -36 -64.5 -51s-45 -26.5 -69 -34.5c9.33301 -7.33301 16.333 -16.833 21 -28.5s5.66699 -24.5 3 -38.5c-3.33301 -17.333 -9.5 -34.166 -18.5 -50.499s-19.833 -34.166 -32.5 -53.499c-12 -18.667 -21.833 -34.667 -29.5 -48s-13.167 -29.666 -16.5 -48.999
s-0.666016 -35.166 8.00098 -47.499s23.667 -18.5 45 -18.5c12.667 0 27.167 2.33301 43.5 7s33.5 11.5 51.5 20.5s36.333 19.667 55 32s37 26.166 55 41.499c29.333 25.333 53.5 51.833 72.5 79.5s30.833 52.167 35.5 73.5c4 19.333 1.66699 33.666 -7 42.999
s-21.667 14 -39 14c-19.333 0 -39.166 -4.83301 -59.499 -14.5s-39.833 -22.167 -58.5 -37.5c-14 -11.333 -28.167 -25.5 -42.5 -42.5s-25.166 -31.5 -32.499 -43.5c-4.66699 -8.66699 -7.66699 -12.667 -9 -12c-2 1.33301 -0.666992 6.33301 4 15
c6 11.333 15.833 25.333 29.5 42s28.5 32.334 44.5 47.001c17.333 16 37.333 29.833 60 41.5s45 17.5 67 17.5s39.333 -5.66699 52 -17s16.334 -29.333 11.001 -54c-5.33301 -23.333 -19.5 -49 -42.5 -77s-48.833 -54.667 -77.5 -80
c-17.333 -15.333 -35.666 -29.666 -54.999 -42.999s-38.833 -24.833 -58.5 -34.5s-39.167 -17.167 -58.5 -22.5s-37.666 -8 -54.999 -8h-1z" />
    <glyph glyph-name="L.swash1" unicode="L" horiz-adv-x="1510" 
d="M488 -16c29.333 0 59.5 0.500977 90.5 1.50098s61.5 2.5 91.5 4.5s59 4.33301 87 7s53.667 5.66699 77 9c-48.667 6.66699 -98 14 -148 22s-100 15.167 -150 21.5s-99.667 11.666 -149 15.999s-97.333 6.5 -144 6.5c-62.667 0 -108.667 -3.33301 -138 -10
s-44 -16.667 -44 -30c0 -11.333 13.5 -20.333 40.5 -27s61.5 -11.5 103.5 -14.5s88 -4.83301 138 -5.5s98 -1 144 -1h1zM1368 324.001c48.667 17.333 96.166 38.8301 142.499 64.4971s93.5 55.167 141.5 88.5c24.667 16.667 49.667 34.834 75 54.501
s48.333 39.334 69 59.001s37.834 38.834 51.501 57.501s21.167 35.667 22.5 51c1.33301 13.333 -2.5 23 -11.5 29s-18.5 9 -28.5 9c-24 0 -48 -5.16699 -72 -15.5s-47.667 -24.5 -71 -42.5s-46.833 -38.833 -70.5 -62.5l-71.5 -74.5c-32 -34 -62 -69.667 -90 -107z
M484.999 -25.002c-31.333 0 -64.002 0.15918 -98.002 0.492188s-67.5 1 -100.5 2s-64.5 2.66699 -94.5 5s-56.333 5.66602 -79 9.99902s-40.667 9.66602 -54 15.999s-20 14.166 -20 23.499c0 8 4.5 15.167 13.5 21.5s21.833 11.5 38.5 15.5s36.334 7 59.001 9s48 3 76 3
c48 0 99.333 -2.16699 154 -6.5s112 -9.5 172 -15.5l186.5 -18.5c64.333 -6.33301 130.166 -11.5 197.499 -15.5c38.667 10 72.834 22.667 102.501 38s61.167 35.666 94.5 60.999c24.667 18.667 48.834 41.834 72.501 69.501s47.834 57.834 72.501 90.501
c-50.667 -13.333 -103.667 -23.333 -159 -30s-113 -10 -173 -10c-49.333 0 -99.666 5.16699 -150.999 15.5s-97.666 26.666 -138.999 48.999s-75.166 51.333 -101.499 87s-39.5 78.834 -39.5 129.501c0 32 5.83301 61.333 17.5 88s27.167 50.834 46.5 72.501
s42 40.667 68 57s53.333 30 82 41s58 19.333 88 25s58.667 8.5 86 8.5c35.333 0 69.333 -4 102 -12s61.5 -19.5 86.5 -34.5s45.167 -33.5 60.5 -55.5s23.333 -47 24 -75c0.666992 -29.333 -5.83301 -56.166 -19.5 -80.499s-31.667 -45.166 -54 -62.499
s-47.833 -31 -76.5 -41s-57.667 -15 -87 -15c-20.667 0 -41.167 2.16699 -61.5 6.5s-38.666 11 -54.999 20s-29.5 20.833 -39.5 35.5s-15 32.667 -15 54c0 12.667 2.66699 24.334 8 35.001s11 18.667 17 24c6 4.66699 9.66699 6.33398 11 5.00098l-8 -9
c-12.667 -14.667 -19 -32.334 -19 -53.001c0 -18.667 5 -34.167 15 -46.5s22.833 -22.166 38.5 -29.499s33 -12.5 52 -15.5s37.833 -4.5 56.5 -4.5c28 0 55.667 4 83 12s51.833 19.5 73.5 34.5s39.167 33.5 52.5 55.5s19.666 47 18.999 75
c-0.666992 26 -8.5 48.833 -23.5 68.5s-34.833 36 -59.5 49s-52.667 22.833 -84 29.5s-63.666 10 -96.999 10c-40 0 -82.333 -5.5 -127 -16.5s-85.667 -27.833 -123 -50.5s-68.166 -51 -92.499 -85s-36.5 -74 -36.5 -120c0 -49.333 13 -91.166 39 -125.499
s59.333 -62.333 100 -84s85.834 -37.5 135.501 -47.5s98.5 -15 146.5 -15c62.667 0 122.5 3.83301 179.5 11.5s111.5 18.834 163.5 33.501l68 89.5c23.333 30.333 48.333 60.5 75 90.5c33.333 38 68.333 73.333 105 106s72.667 61 108 85s69.166 42.833 101.499 56.5
s61.166 20.5 86.499 20.5c13.333 0 25.333 -3.66699 36 -11s15.334 -19.666 14.001 -36.999c-1.33301 -16 -8.5 -34 -21.5 -54s-29.833 -40.5 -50.5 -61.5s-43.834 -41.833 -69.501 -62.5s-51.834 -39.667 -78.501 -57c-51.333 -34 -102 -63.667 -152 -89
s-101.333 -47 -154 -65c-23.333 -30 -48 -58.833 -74 -86.5s-54 -53.834 -84 -78.501c-41.333 -33.333 -80.333 -59.166 -117 -77.499s-75.334 -32.833 -116.001 -43.5c28 -1.33301 56.167 -2.33301 84.5 -3s56.833 -1 85.5 -1c46.667 0 91.167 2.16699 133.5 6.5
s80.166 14.833 113.499 31.5c23.333 12 44 27.333 62 46s31.667 42.667 41 72c3.33301 10.667 4.66602 18.5 3.99902 23.5s0 7.5 2 7.5s3.33301 -3.33301 4 -10s0.333984 -13.667 -0.999023 -21c-6 -30.667 -18.333 -57.167 -37 -79.5s-40.334 -41.166 -65.001 -56.499
c-34.667 -21.333 -74.667 -36.5 -120 -45.5s-91 -13.5 -137 -13.5c-42.667 0 -87 2.16699 -133 6.5s-93.333 9.83301 -142 16.5c-29.333 -4 -61.166 -7.83301 -95.499 -11.5s-68.333 -6.66699 -102 -9s-65.834 -4.16602 -96.501 -5.49902s-57.334 -2 -80.001 -2h-1z" />
    <glyph glyph-name="M" unicode="M" horiz-adv-x="1814" 
d="M480 -113c-58.667 0 -116.839 6.32617 -174.506 18.9932s-109 33.834 -154 63.501s-81 68.5 -108 116.5s-39.5 107.333 -37.5 178c1.33301 45.333 10.333 88.166 27 128.499s39 77.333 67 111s60.667 63.834 98 90.501s77.666 49.334 120.999 68.001
s88.5 32.834 135.5 42.501s94.5 14.5 142.5 14.5c37.333 0 74.666 -4.66699 111.999 -14s70.833 -23.333 100.5 -42s53.834 -42 72.501 -70s28 -60.333 28 -97c0 -48 -12.167 -91.667 -36.5 -131s-55.333 -73.166 -93 -101.499s-79.5 -50.166 -125.5 -65.499
s-90.667 -23 -134 -23c-22 0 -44.167 2.83301 -66.5 8.5s-42.333 14.167 -60 25.5s-32.167 25.5 -43.5 42.5s-17 36.833 -17 59.5c0 27.333 5.83301 50.5 17.5 69.5s24.167 33.5 37.5 43.5c8.66699 6.66699 13.667 9.33398 15 8.00098
c0.666992 -0.666992 -0.5 -2.16699 -3.5 -4.5s-5.83301 -4.83301 -8.5 -7.5c-14 -14.667 -24.833 -30.167 -32.5 -46.5s-11.5 -36.166 -11.5 -59.499c0 -20 5.33301 -37.333 16 -52s24.334 -26.667 41.001 -36s35.5 -16.333 56.5 -21s42.167 -7 63.5 -7
c42 0 85.167 7 129.5 21s84.833 34 121.5 60s66.667 57.333 90 94s35 77.667 35 123c0 36 -9 67.333 -27 94s-41.5 48.834 -70.5 66.501s-61.5 31 -97.5 40s-72 13.5 -108 13.5c-69.333 0 -136.833 -10.833 -202.5 -32.5s-124 -52.167 -175 -91.5s-92.333 -86.5 -124 -141.5
s-48.167 -115.5 -49.5 -181.5c-1.33301 -64 9.66699 -119.167 33 -165.5s55 -84.333 95 -114s86.5 -51.667 139.5 -66s108.5 -21.5 166.5 -21.5c66 0 129 6.83301 189 20.5s118.333 33.167 175 58.5s111.834 56.166 165.501 92.499s107.167 77.166 160.5 122.499
c48.667 42 96 86.167 142 132.5l134.5 136.5l126.5 125.5c40.667 39 80.667 72.167 120 99.5c10 7.33301 19.833 13.166 29.5 17.499s18.834 5.83301 27.501 4.5c14 -2 21.833 -9.16699 23.5 -21.5s-0.5 -25.833 -6.5 -40.5c-4 -10 -13 -25 -27 -45l-49.5 -67.5l-60.5 -80
l-62 -82.5l-79 -107.5l-76.5 -105l-61.5 -89c-17.333 -26.333 -28.666 -46.166 -33.999 -59.499c-2 -5.33301 -3.5 -11 -4.5 -17s1.16699 -9.66699 6.5 -11c4.66699 -1.33301 9.5 -0.166016 14.5 3.50098s10.167 8.16699 15.5 13.5
c49.333 48.667 99.166 103.667 149.499 165s107.166 126.666 170.499 195.999l88 98l80 88c26 28 52.333 54.667 79 80s55 50 85 74c8 6.66699 16.333 11.834 25 15.501s17.334 4.5 26.001 2.5c9.33301 -2 15.333 -7.33301 18 -16s2.33398 -18.334 -0.999023 -29.001
c-4.66699 -16.667 -13.167 -35.334 -25.5 -56.001s-27 -42.834 -44 -66.501l-55.5 -74.5l-60 -79l-59.5 -81l-58.5 -83l-52.5 -79.5c-16.333 -25.667 -30.5 -48.834 -42.5 -69.501c-9.33301 -15.333 -16.666 -29.166 -21.999 -41.499s-8.66602 -22.5 -9.99902 -30.5
c-2.66699 -23.333 6 -36.666 26 -39.999c14 -2 31.5 0.833008 52.5 8.5s39.5 18.167 55.5 31.5c6.66699 5.33301 11 9.33301 13 12s3.66699 3.33398 5 2.00098c2 -2 -2.33301 -7.66699 -13 -17c-13.333 -12.667 -30.333 -24 -51 -34s-42.667 -15 -66 -15
s-40.666 6 -51.999 18s-16.333 27.333 -15 46c1.33301 24 12 54.667 32 92c18 34 41.333 72 70 114s59 83.333 91 124l77.5 98l77.5 98.5l61.5 81.5c17 23.333 27.167 38.666 30.5 45.999c4.66699 11.333 4.66699 18.666 0 21.999
c-4 2.66699 -9.33301 2.33398 -16 -0.999023s-13 -7.66602 -19 -12.999c-28 -23.333 -55 -47.666 -81 -72.999s-51.833 -51.833 -77.5 -79.5l-78.5 -87l-85 -94.5l-93.5 -106l-88.5 -103.5l-78.5 -90c-24.333 -27 -45.5 -48.833 -63.5 -65.5
c-9.33301 -9.33301 -18 -16.5 -26 -21.5s-16.333 -7.16699 -25 -6.5c-10 0.666992 -18 4.5 -24 11.5s-8.33301 16.833 -7 29.5c1.33301 10.667 5 23.667 11 39s13 30.333 21 45c14 24.667 28.167 47.667 42.5 69s29.166 42.166 44.499 62.499l48 62.5l53 70l61.5 82.5
l55.5 71.5l55.5 72l61.5 84c5.33301 7.33301 9.16602 13.833 11.499 19.5s1.83301 9.83398 -1.5 12.501c-7.33301 4.66699 -19.666 0.666992 -36.999 -12c-25.333 -17.333 -51.666 -38.5 -78.999 -63.5l-84.5 -80.5l-88.5 -90l-89.5 -93.5l-87.5 -90
c-28.667 -29 -56.667 -55.5 -84 -79.5c-53.333 -47.333 -107.333 -89.166 -162 -125.499s-111 -66.833 -169 -91.5s-118 -43.334 -180 -56.001s-126.667 -19 -194 -19h-1z" />
    <glyph glyph-name="N.swash1" unicode="N" horiz-adv-x="1620" 
d="M485 -165c-61.333 0 -119.161 6.49219 -173.494 19.4922s-101.833 32.667 -142.5 59s-72.834 60 -96.501 101s-35.5 89.5 -35.5 145.5c0 62.667 14.167 119 42.5 169s65.666 92.667 111.999 128s99.166 62.5 158.499 81.5s120 28.5 182 28.5
c40.667 0 80.167 -4.66699 118.5 -14s72.5 -23.666 102.5 -42.999s54 -43.833 72 -73.5s27 -64.834 27 -105.501c0 -31.333 -7.83301 -60.333 -23.5 -87s-35.834 -49.834 -60.501 -69.501s-52 -34.834 -82 -45.501s-59.333 -16 -88 -16c-8.66699 0 -17.334 1 -26.001 3
s-12 4.66699 -10 8c0.666992 1.33301 3.66699 1.16602 9 -0.500977s14.333 -2.5 27 -2.5c28.667 0 56.667 5.33301 84 16s51.666 25.334 72.999 44.001s38.5 40.834 51.5 66.501s19.5 53.5 19.5 83.5c0 40.667 -8 75.334 -24 104.001s-37.5 52.167 -64.5 70.5
s-58.333 31.666 -94 39.999s-73.167 12.5 -112.5 12.5c-60.667 0 -117.834 -9.33301 -171.501 -28s-100.667 -44.834 -141 -78.501s-72.166 -74.167 -95.499 -121.5s-35 -99.666 -35 -156.999c0 -55.333 9.5 -103.666 28.5 -144.999s46 -75.666 81 -102.999
s77 -47.666 126 -60.999s103.5 -20 163.5 -20c66 0 129.333 6.5 190 19.5s118.834 31.167 174.501 54.5s108.834 50.833 159.501 82.5s98.667 66.167 144 103.5c41.333 34 81.333 71.5 120 112.5s74.834 82.833 108.501 125.5s64.334 84.834 92.001 126.501
s51.167 80.167 70.5 115.5l22.5 43c5.66699 11.333 14.167 23.666 25.5 36.999l12.5 14c4.33301 4.66699 10.5 7 18.5 7c6.66699 0 11 -2.66699 13 -8s1.33301 -9.66602 -2 -12.999c-11.333 -9.33301 -20 -17.166 -26 -23.499s-10.667 -13.166 -14 -20.499
c-4 -10 -7.16699 -23 -9.5 -39s-4.33301 -34.833 -6 -56.5l-5.5 -73c-2 -27 -4.66699 -56.5 -8 -88.5c-2.66699 -25.333 -6 -51.333 -10 -78s-8.5 -52.667 -13.5 -78s-10.167 -49.666 -15.5 -72.999l-15 -63c12.667 21.333 31.5 50.333 56.5 87s53.333 75.834 85 117.501
s65.167 83.334 100.5 125.001s69.666 78.167 102.999 109.5c35.333 33.333 72.166 64.666 110.499 93.999s77.666 54.833 117.999 76.5s81.5 38.834 123.5 51.501s84.667 19 128 19c24 0 49.167 -2.5 75.5 -7.5s50.5 -12.667 72.5 -23s40.167 -23.833 54.5 -40.5
s21.5 -36.667 21.5 -60s-8.5 -42.833 -25.5 -58.5s-36.167 -25.167 -57.5 -28.5c-3.33301 -0.666992 -7.33301 -0.833984 -12 -0.500977s-7 1.16602 -7 2.49902s1.16699 2 3.5 2s6.83301 2 13.5 6c14 9.33301 23.5 20.333 28.5 33s7.5 27.334 7.5 44.001
c0 20 -5.33301 37.5 -16 52.5s-24.5 27.5 -41.5 37.5s-35.833 17.5 -56.5 22.5s-41 7.5 -61 7.5c-43.333 0 -86 -6.16699 -128 -18.5s-82.833 -29.333 -122.5 -51s-78.334 -47.167 -116.001 -76.5s-73.834 -60.666 -108.501 -93.999
c-32.667 -31.333 -67.167 -68.166 -103.5 -110.499s-71.833 -86.666 -106.5 -132.999s-67.334 -92.833 -98.001 -139.5s-56.667 -89.667 -78 -129c-2.66699 -5.33301 -5 -10.5 -7 -15.5s-6 -7.5 -12 -7.5c-6.66699 0 -9.5 4.16699 -8.5 12.5s2.5 15.5 4.5 21.5
c11.333 32.667 20.333 75.5 27 128.5l22 179.5l9 72c3.33301 26 7 51 11 75s7.83301 45.833 11.5 65.5s7.5 34.167 11.5 43.5c-19.333 -34 -42.166 -71.167 -68.499 -111.5s-55.666 -81.166 -87.999 -122.499s-67.5 -82.333 -105.5 -123s-78.333 -78.334 -121 -113.001
c-46 -38 -94.667 -72.833 -146 -104.5s-105.166 -58.834 -161.499 -81.501s-115.333 -40.334 -177 -53.001s-125.834 -19 -192.501 -19h-1z" />
    <glyph glyph-name="O.swash1" unicode="O" horiz-adv-x="946" 
d="M440 305c48.667 10 103.002 22.665 163.002 37.998s121.667 35 185 59c24.667 9.33301 48.667 20.5 72 33.5s44.333 27.167 63 42.5s33.667 31.5 45 48.5s17.333 34.167 18 51.5c1.33301 27.333 -6.66699 49.5 -24 66.5s-41 25.5 -71 25.5
c-32 0 -64.167 -6.66699 -96.5 -20s-64.333 -31.166 -96 -53.499s-62.334 -48.166 -92.001 -77.499s-57.5 -60.333 -83.5 -93c-16.667 -20.667 -31.834 -41 -45.501 -61s-26.167 -40 -37.5 -60zM510.002 -34.002c42 0 82.998 8.16699 122.998 24.5s78.667 37.5 116 63.5
c-22 27.333 -50.667 48.333 -86 63s-73.666 22 -114.999 22c-26.667 0 -54.667 -4 -84 -12s-56.666 -19.333 -81.999 -34c1.33301 -40 12.333 -71.167 33 -93.5s52 -33.5 94 -33.5h1zM395 -368.002c49.333 0 97.8311 6.66797 145.498 20.001s90.167 32.833 127.5 58.5
s67.333 57 90 94s34 79.167 34 126.5c0 39.333 -9.66699 73.666 -29 102.999c-40 -23.333 -81.5 -42 -124.5 -56s-86.5 -21 -130.5 -21c-38 0 -72.5 9.5 -103.5 28.5s-52.167 45.167 -63.5 78.5c-18.667 -15.333 -33.667 -32.666 -45 -51.999s-17 -40.333 -17 -63
c0 -8.66699 1 -16.667 3 -24s4.33301 -14 7 -20c1.33301 -3.33301 2.83301 -6.16602 4.5 -8.49902s2.16699 -3.83301 1.5 -4.5c-2 -1.33301 -5.33301 1.66699 -10 9c-4 6.66699 -7.33301 14.334 -10 23.001s-4 17.667 -4 27c0 25.333 6 48.166 18 68.499s28 38.833 48 55.5
c-1.33301 4 -2.5 10.167 -3.5 18.5s-1.5 16.166 -1.5 23.499c0 55.333 11.667 109.333 35 162c-45.333 -12 -88.166 -27.5 -128.499 -46.5s-75.666 -42.5 -105.999 -70.5s-54.5 -60.833 -72.5 -98.5s-27.667 -80.834 -29 -129.501c-1.33301 -50.667 7.16699 -95 25.5 -133
s44 -69.5 77 -94.5s71.833 -43.667 116.5 -56s92.667 -18.5 144 -18.5h1zM391.998 -377.001c-52.667 0 -102.328 6.33691 -148.995 19.0039s-87.167 31.667 -121.5 57s-61.333 57 -81 95s-28.834 82.667 -27.501 134s11.833 96.666 31.5 135.999s45.667 73.5 78 102.5
s69.833 53.5 112.5 73.5s88 36.333 136 49c13.333 27.333 29.166 54.166 47.499 80.499s39.166 53.166 62.499 80.499c22.667 26 50.834 52.5 84.501 79.5s69.334 51.667 107.001 74s75.334 40.5 113.001 54.5s72.167 21 103.5 21c15.333 0 29.666 -2.33301 42.999 -7
s24.666 -11.167 33.999 -19.5s16.666 -18.833 21.999 -31.5s7.66602 -27 6.99902 -43c-0.666992 -18.667 -6.83398 -37 -18.501 -55s-27.167 -35 -46.5 -51s-41.166 -30.667 -65.499 -44s-49.166 -25 -74.499 -35c-60.667 -23.333 -122.334 -42.833 -185.001 -58.5
s-119.334 -28.834 -170.001 -39.501c-16.667 -32 -29.5 -63.667 -38.5 -95s-13.833 -63 -14.5 -95c25.333 13.333 52.5 23.833 81.5 31.5s57.167 11.5 84.5 11.5c42 0 81.5 -7.5 118.5 -22.5s67.833 -36.5 92.5 -64.5c25.333 18.667 49.666 39 72.999 61
s45.333 44.333 66 67s39.834 45.167 57.501 67.5s33.5 43.5 47.5 63.5c11.333 16 22.666 34 33.999 54s21.5 41 30.5 63s16.333 44.667 22 68s8.5 46.333 8.5 69c0 16 -2 31.5 -6 46.5s-10.167 28 -18.5 39s-18.833 19.833 -31.5 26.5s-27.667 10 -45 10
c-15.333 0 -29.333 -2.33301 -42 -7c-3.33301 -1.33301 -5.66602 -2.5 -6.99902 -3.5s-2.33301 -1.16699 -3 -0.5c-1.33301 0.666992 0.666992 2.66699 6 6c6 3.33301 13.167 6.16602 21.5 8.49902s17.166 3.5 26.499 3.5c18.667 0 36.167 -3 52.5 -9s30.833 -15 43.5 -27
s22.667 -27.5 30 -46.5s11 -41.5 11 -67.5c0 -42.667 -9 -86.334 -27 -131.001s-40.333 -86.334 -67 -125.001c-33.333 -48 -72.666 -94.5 -117.999 -139.5s-95 -83.833 -149 -116.5c10.667 -15.333 19 -32.166 25 -50.499s9 -38.166 9 -59.499
c0 -48 -12 -91.167 -36 -129.5s-55.667 -70.666 -95 -96.999s-83.833 -46.5 -133.5 -60.5s-100.167 -21 -151.5 -21h-1z" />
    <glyph glyph-name="P" unicode="P" horiz-adv-x="1580" 
d="M458 -18c25.333 0 55.502 0.833984 90.502 2.50098s71 3.66699 108 6s73.5 5 109.5 8s67.667 6.16699 95 9.5l-171 21l-170 20.5c-54.667 6.33301 -105.334 11.666 -152.001 15.999s-85.334 6.83301 -116.001 7.5c-72.667 1.33301 -127.5 -1 -164.5 -7
s-55.5 -17.333 -55.5 -34c0 -12 12.333 -21.333 37 -28s57 -11.667 97 -15s85.5 -5.33301 136.5 -6s102.5 -1 154.5 -1h1zM456.002 -27.999c-53.333 0 -106.498 0.338867 -159.498 1.00586s-100.833 2.83398 -143.5 6.50098s-77.167 9.5 -103.5 17.5s-39.5 19.667 -39.5 35
c0 20.667 21.5 34.5 64.5 41.5s102.5 9.83301 178.5 8.5c48 -1.33301 99.333 -4.16602 154 -8.49902s112 -9.5 172 -15.5l186 -18c64 -6 129.667 -11 197 -15c19.333 4.66699 37.333 9.5 54 14.5s33 11 49 18s32.167 15 48.5 24s33.5 19.5 51.5 31.5
c32 21.333 59.667 43.666 83 66.999s45.333 48 66 74l62.5 82.5c21 29 45.167 59.833 72.5 92.5c50 59.333 98.333 107.666 145 144.999s94 70 142 98c-22.667 24 -52.834 41.5 -90.501 52.5s-77.5 16.5 -119.5 16.5c-36 0 -71.667 -3.33301 -107 -10s-70 -15.667 -104 -27
s-66.667 -25 -98 -41s-60.333 -33.333 -87 -52c-26 -18 -50.667 -37.667 -74 -59s-43.666 -43.5 -60.999 -66.5s-31 -46.333 -41 -70s-15 -46.834 -15 -69.501c0 -38 10.667 -66.833 32 -86.5s50 -29.5 86 -29.5s71.833 9.16699 107.5 27.5s66.167 45.833 91.5 82.5
c13.333 19.333 24.166 38.666 32.499 57.999s12.5 38 12.5 56c0 19.333 -4.83301 36.166 -14.5 50.499s-25.167 21.5 -46.5 21.5c-10.667 0 -20.334 -1.66699 -29.001 -5l-7 -3c-0.666992 0.666992 1 2.33398 5 5.00098c9.33301 6 20.666 9 33.999 9
c23.333 0 43.5 -7.5 60.5 -22.5s25.5 -35.167 25.5 -60.5c0 -23.333 -5.16699 -45.5 -15.5 -66.5s-24.166 -40.833 -41.499 -59.5c-32 -34 -66.333 -59.5 -103 -76.5s-74 -25.5 -112 -25.5c-39.333 0 -70.5 10.833 -93.5 32.5s-34.5 52.5 -34.5 92.5
c0 25.333 4.83301 50.833 14.5 76.5s23 50.5 40 74.5s37.333 47.167 61 69.5s49.167 42.5 76.5 60.5c28 18.667 58 35.5 90 50.5s65.333 27.833 100 38.5s70.167 19 106.5 25s72.5 9 108.5 9c40.667 0 81 -5.66699 121 -17s73.333 -29.666 100 -54.999
c16.667 9.33301 34.667 18.166 54 26.499s39.166 15.5 59.499 21.5s41 10.833 62 14.5s41.5 5.5 61.5 5.5c13.333 0 20 -1.66699 20 -5c-0.666992 -2 -2.33398 -2.83301 -5.00098 -2.5s-7.66699 0.5 -15 0.5c-18.667 0 -38.167 -2 -58.5 -6s-40.5 -9.16699 -60.5 -15.5
s-39.333 -13.666 -58 -21.999s-35.667 -16.833 -51 -25.5c26 -26.667 40.333 -60 43 -100c1.33301 -26.667 -4.16699 -53 -16.5 -79s-29.166 -49.667 -50.499 -71c-25.333 -23.333 -54.5 -42.333 -87.5 -57s-64.167 -22 -93.5 -22c-10 0 -19.5 2.16699 -28.5 6.5
s-13.5 11.166 -13.5 20.499c0 8.66699 4.16699 16.5 12.5 23.5s17.833 12.5 28.5 16.5c8 2.66699 12 3.66699 12 3l-11 -6c-7.33301 -4 -13.5 -8.83301 -18.5 -14.5s-7.5 -12.834 -7.5 -21.501c0 -8 3.33301 -13.5 10 -16.5s14.667 -4.5 24 -4.5c12 0 24.667 2.33301 38 7
s26.833 11 40.5 19s27 17.667 40 29s24.833 23.666 35.5 36.999c18.667 22 33.167 46 43.5 72s14.833 51.667 13.5 77c-2 29.333 -11 54 -27 74c-45.333 -28 -87.833 -64 -127.5 -108s-79.5 -91.667 -119.5 -143l-69 -88c-20.667 -26 -40.667 -49.833 -60 -71.5
s-39 -41.834 -59 -60.501s-42 -37 -66 -55c-42 -32 -83.5 -56.167 -124.5 -72.5s-82.5 -30.166 -124.5 -41.499c28 -1.33301 56 -2.33301 84 -3s56.333 -1 85 -1s56.334 0.166992 83.001 0.5s52 1.83301 76 4.5s47.167 7 69.5 13s43.5 14.667 63.5 26
c28 15.333 51.5 34.666 70.5 57.999s32.167 48.666 39.5 75.999c3.33301 10.667 5 18 5 22s1 6 3 6s2.66699 -3.5 2 -10.5s-1.66699 -14.167 -3 -21.5c-7.33301 -28.667 -19.5 -55.334 -36.5 -80.001s-40.833 -46.667 -71.5 -66
c-38.667 -23.333 -83.5 -40.166 -134.5 -50.499s-107.833 -15.5 -170.5 -15.5c-28 0 -64.833 2.16699 -110.5 6.5s-96.5 9.83301 -152.5 16.5c-33.333 -5.33301 -69.833 -10 -109.5 -14s-79.334 -7.33301 -119.001 -10s-77.667 -4.66699 -114 -6s-68.166 -2 -95.499 -2h-1z
" />
    <glyph glyph-name="Q.swash1" unicode="Q" horiz-adv-x="698" 
d="M262 -34c31.333 0 64.4971 4.99902 99.4971 14.999s70.167 24.5 105.5 43.5s69.666 42 102.999 69s64.333 57.167 93 90.5c20.667 24 39.334 49.333 56.001 76s30.834 53 42.501 79s20.667 51 27 75s9.5 45.667 9.5 65c0 32 -7.16699 59 -21.5 81
s-38.833 33.333 -73.5 34c-23.333 0.666992 -47.166 -3.83301 -71.499 -13.5s-48.833 -22.667 -73.5 -39s-48.667 -35.5 -72 -57.5s-45.666 -45.333 -66.999 -70c-26 -30 -50.167 -61 -72.5 -93s-41.833 -64.5 -58.5 -97.5s-29.667 -66 -39 -99s-14 -65.5 -14 -97.5
c0 -11.333 0.5 -22.166 1.5 -32.499s2.16699 -19.5 3.5 -27.5c3.33301 -0.666992 6.83301 -1 10.5 -1h10.5h1zM687.997 -223.001c-1.33301 -0.666992 -2.66504 1.16992 -3.99805 5.50293s-3.66602 9.16602 -6.99902 14.499c-14 24.667 -30 41 -48 49s-39 11 -63 9
c-12.667 -1.33301 -25.667 -5.5 -39 -12.5l-42.5 -22.5c-15 -8 -30.833 -15.333 -47.5 -22s-34.334 -10.334 -53.001 -11.001c-46 -1.33301 -81.667 13.334 -107 44.001s-41.333 73.334 -48 128.001c-48 6 -86.167 22.167 -114.5 48.5s-44.166 64.833 -47.499 115.5
c-3.33301 52.667 5.5 108.5 26.5 167.5s53.5 113.833 97.5 164.5c30 34.667 63.5 67 100.5 97s77 56 120 78s88.333 39.333 136 52s97.167 19 148.5 19c22 0 43.833 -2.83301 65.5 -8.5s41.5 -14 59.5 -25s33.167 -24.667 45.5 -41s19.5 -35.5 21.5 -57.5
c2 -20 0 -38.333 -6 -55s-14 -31.667 -24 -45c-4 -5.33301 -7.83301 -10 -11.5 -14s-6.16699 -5.66699 -7.5 -5c-0.666992 0.666992 0.333008 3 3 7s5.66699 10 9 18c5.33301 13.333 9 27.5 11 42.5s2 31.167 0 48.5c-4.66699 43.333 -22.167 75.166 -52.5 95.499
s-67.833 30.5 -112.5 30.5c-50.667 0 -97.834 -7.33301 -141.501 -22s-84.667 -34.5 -123 -59.5s-74 -54 -107 -87s-64.167 -67.833 -93.5 -104.5c-18 -22.667 -34.667 -46.667 -50 -72s-28.333 -51.333 -39 -78s-18.667 -53.667 -24 -81s-7.33301 -54.666 -6 -81.999
c4 -82 42.333 -128 115 -138c-2 18.667 -3 38.334 -3 59.001c0 68 13.667 136.333 41 205s68 133.667 122 195c22.667 26 47.334 50 74.001 72s53.667 40.833 81 56.5s54.666 27.667 81.999 36s53.666 12.166 78.999 11.499c36 -1.33301 64.833 -14.5 86.5 -39.5
s32.5 -55.833 32.5 -92.5c0 -50 -11.833 -101 -35.5 -153s-56.834 -102.333 -99.501 -151c-29.333 -34 -61.666 -64 -96.999 -90s-71.5 -47.833 -108.5 -65.5s-73.667 -31.167 -110 -40.5s-69.833 -14 -100.5 -14h-15c-4.66699 0 -9.66699 0.333008 -15 1
c9.33301 -44.667 27.166 -77.334 53.499 -98.001s56.5 -30.334 90.5 -29.001c15.333 0 30.5 3.16699 45.5 9.5s30 13.166 45 20.499s30.167 14 45.5 20s30.666 9 45.999 9c30 0 54.333 -8.5 73 -25.5s32.667 -38.5 42 -64.5l4.5 -14
c1.66699 -5.33301 1.83398 -8.33301 0.500977 -9z" />
    <glyph glyph-name="R.swash1" unicode="R" horiz-adv-x="1630" 
d="M1279 319c7.33301 0 14.668 0.332031 22.001 0.999023s14.333 1.66699 21 3c-5.33301 6.66699 -12 12 -20 16s-17.333 6 -28 6c-5.33301 0 -10.666 -0.666992 -15.999 -2s-8.33301 -4.66602 -9 -9.99902c-0.666992 -6 2.66602 -9.83301 9.99902 -11.5
s13.666 -2.5 18.999 -2.5h1zM378.002 -15.001c30 14 58 31.3311 84 51.998s48.5 43.334 67.5 68.001s34 51 45 79s16.5 56.667 16.5 86s-8.5 54.5 -25.5 75.5s-42.167 31.5 -75.5 31.5c-23.333 0 -46.333 -6.16699 -69 -18.5s-42.667 -28.666 -60 -48.999
s-31.5 -43.833 -42.5 -70.5s-16.5 -54 -16.5 -82c-0.666992 -36 5.5 -68.667 18.5 -98s32.167 -54 57.5 -74zM555.002 -80.0029c-36 0 -69.167 4.49707 -99.5 13.4971s-56.833 22.167 -79.5 39.5c-28 -11.333 -56.167 -20.333 -84.5 -27s-56.5 -10 -84.5 -10
c-18 0 -35.667 2 -53 6s-33.333 9.83301 -48 17.5s-27.667 17.334 -39 29.001s-19.333 25.167 -24 40.5c-3.33301 11.333 -3.66602 17.333 -0.999023 18l6 -16c12.667 -28.667 33.667 -50 63 -64s61 -21 95 -21c28 0 55.5 3 82.5 9s53.167 14.333 78.5 25
c-25.333 21.333 -45 46.833 -59 76.5s-21 63.167 -21 100.5c0 30 5.83301 58.833 17.5 86.5s27.167 52.167 46.5 73.5s41.166 38.333 65.499 51s49.166 19 74.499 19c38.667 0 69.834 -12.333 93.501 -37s35.5 -57 35.5 -97c0 -26 -6.16699 -52.167 -18.5 -78.5
s-29 -51.666 -50 -75.999s-45.667 -46.833 -74 -67.5s-58.5 -38.334 -90.5 -53.001c21.333 -15.333 46 -27 74 -35s59.333 -12 94 -12c60 0 116 10.333 168 31s101 48 147 82s89.5 73.167 130.5 117.5s80.833 90.166 119.5 137.499l92.5 110.5
c29.667 34.333 59.5 66.333 89.5 96s60.667 56.834 92 81.501s64.666 47 99.999 67c-22.667 25.333 -52.5 43.833 -89.5 55.5s-74.833 17.5 -113.5 17.5c-30 0 -59.667 -2.33301 -89 -7s-57.333 -11 -84 -19s-51.5 -17 -74.5 -27s-42.833 -20.333 -59.5 -31
c-52 -32 -93.833 -68.833 -125.5 -110.5s-49.167 -85.5 -52.5 -131.5c-2 -32.667 5.33301 -58.5 22 -77.5s40.334 -29.167 71.001 -30.5c24 -1.33301 47.333 3.16699 70 13.5s42.667 23.833 60 40.5s31.166 34.834 41.499 54.501s15.5 38.167 15.5 55.5
c0 6 -0.833008 12.167 -2.5 18.5s-4.5 12.166 -8.5 17.499s-9.16699 9.83301 -15.5 13.5s-14.166 5.5 -23.499 5.5c-16 0 -30.667 -3.66699 -44 -11l-11 -6c-0.666992 0.666992 0.333008 2 3 4s4.66699 3.66699 6 5c15.333 10 31 15 47 15
c20.667 0 37.834 -5.33301 51.501 -16s20.5 -27.667 20.5 -51c0 -20 -6.33301 -40.167 -19 -60.5s-29 -38.666 -49 -54.999s-42.667 -29.5 -68 -39.5s-50.666 -14.333 -75.999 -13c-32.667 1.33301 -58.834 12.166 -78.501 32.499s-28.5 48.833 -26.5 85.5
c1.33301 22.667 6.83301 45.334 16.5 68.001s22.667 44.834 39 66.501s35.5 42 57.5 61s46 36.5 72 52.5c16.667 10.667 36.667 21.167 60 31.5s48.5 19.666 75.5 27.999s55.667 15 86 20s61.166 7.5 92.499 7.5c39.333 0 78.666 -5.83301 117.999 -17.5
s72.666 -30.5 99.999 -56.5c38 21.333 78.333 39.166 121 53.499s89 20.833 139 19.5c20.667 -0.666992 30.334 -3 29.001 -7c-0.666992 -1.33301 -2.5 -1.66602 -5.5 -0.999023s-10.5 1 -22.5 1c-50.667 0 -95.667 -6.83301 -135 -20.5s-78.666 -31.5 -117.999 -53.5
c25.333 -26.667 40 -60 44 -100c2.66699 -32 -2 -60.5 -14 -85.5s-28 -48.167 -48 -69.5c-18 -19.333 -40.5 -35.666 -67.5 -48.999s-54.833 -23.666 -83.5 -30.999c7.33301 -7.33301 13.333 -15.666 18 -24.999s7 -19.666 7 -30.999c0 -22 -5.16699 -43.5 -15.5 -64.5
s-21.833 -41.167 -34.5 -60.5c-12 -18.667 -21.833 -34.667 -29.5 -48s-13.167 -29.666 -16.5 -48.999s-0.666016 -35.166 8.00098 -47.499s23.667 -18.5 45 -18.5c12.667 0 27 2.33301 43 7s33 11.334 51 20.001s36.167 19.167 54.5 31.5s36.5 26.166 54.5 41.499
c29.333 25.333 51 49.666 65 72.999s22.667 45.666 26 66.999c2.66699 16 0 29.5 -8 40.5s-20.667 16.5 -38 16.5c-19.333 0 -38.833 -5.33301 -58.5 -16s-36.5 -22 -50.5 -34c-13.333 -11.333 -25.666 -23.5 -36.999 -36.5s-20.666 -25.5 -27.999 -37.5
c-4.66699 -8.66699 -7.66699 -12.667 -9 -12c-2 1.33301 -0.666992 6.33301 4 15c6 11.333 13.833 23.166 23.5 35.499s22.5 25.833 38.5 40.5c15.333 13.333 33.666 26.166 54.999 38.499s43 18.833 65 19.5s38.833 -5.66602 50.5 -18.999s15.834 -30.666 12.501 -51.999
c-3.33301 -24 -14.166 -47.667 -32.499 -71s-41.833 -47.666 -70.5 -72.999c-35.333 -31.333 -73 -57 -113 -77s-77.333 -30 -112 -30c-14.667 0 -28.334 2.16699 -41.001 6.5s-23.334 10.666 -32.001 18.999s-15 18.833 -19 31.5s-4.33301 27.667 -1 45
c3.33301 19.333 10.166 37.166 20.499 53.499s22.5 33.833 36.5 52.5c14.667 19.333 27.667 37.5 39 54.5s17 35.167 17 54.5c0 13.333 -3 25 -9 35c-15.333 -2.66699 -31.666 -4 -48.999 -4c-9.33301 0 -19 1.33301 -29 4s-14.333 8.66699 -13 18
c1.33301 7.33301 6 12.166 14 14.499s16.333 3.5 25 3.5c23.333 0 45.333 -8.33301 66 -25c26 7.33301 48.833 18.833 68.5 34.5s39.167 34.5 58.5 56.5c8.66699 10 16.834 21.167 24.501 33.5s14.5 25.333 20.5 39s10.5 27.5 13.5 41.5s3.83301 28 2.5 42
c-2 26.667 -11 50.667 -27 72c-30 -19.333 -59.333 -42.833 -88 -70.5s-56.5 -57.5 -83.5 -89.5s-53.667 -65.5 -80 -100.5l-78.5 -101.5c-44.667 -56 -89.834 -106.5 -135.501 -151.5s-93.334 -83.333 -143.001 -115s-102.334 -55.834 -158.001 -72.501
s-115.5 -25 -179.5 -25h-1z" />
    <glyph glyph-name="S.swash1" unicode="S" horiz-adv-x="954" 
d="M1346 496c12 8.66699 19.001 18.333 21.001 29c0.666992 2 0.666992 4.16699 0 6.5s-2.33398 3.5 -5.00098 3.5c-5.33301 0 -9.5 -3.16699 -12.5 -9.5s-4.5 -12.5 -4.5 -18.5c0 -4 0.333008 -7.66699 1 -11zM1468 434.999c19.333 0 38.6689 3.16895 58.002 9.50195
s36.666 15.166 51.999 26.499s27.833 24.5 37.5 39.5s14.834 31.5 15.501 49.5c1.33301 38 -12.334 67.333 -41.001 88s-65.667 31 -111 31c-25.333 0 -50 -4 -74 -12s-46.667 -18.333 -68 -31s-41.166 -27 -59.499 -43s-34.833 -32 -49.5 -48
c-15.333 -16 -29.5 -32.5 -42.5 -49.5l-40.5 -53.5c41.333 0 79.166 4.66699 113.499 14s61.166 21 80.499 35c-0.666992 2 -1.33398 5.16699 -2.00098 9.5s-0.666992 8.5 0 12.5c1.33301 8.66699 4.33301 16 9 22s10.334 9 17.001 9c4.66699 0 8 -1.5 10 -4.5
s2.66699 -6.5 2 -10.5c-1.33301 -14 -10.333 -27.333 -27 -40c3.33301 -9.33301 9 -17.333 17 -24s17.5 -12.334 28.5 -17.001s23 -8 36 -10s25.5 -3 37.5 -3h1zM409.004 -72.999c-56 -1.33301 -108.493 3.99902 -157.493 15.999s-91.333 30.667 -127 56
s-63.5 57.333 -83.5 96s-29 84.334 -27 137.001c2 51.333 15 98.5 39 141.5s55.167 80 93.5 111s81.666 55.167 129.999 72.5s97.5 26 147.5 26c39.333 0 75.166 -4.5 107.499 -13.5s59.833 -22 82.5 -39s40 -38.167 52 -63.5s17.333 -54.333 16 -87
c-1.33301 -33.333 -10.5 -63.666 -27.5 -90.999s-38.833 -50.666 -65.5 -69.999s-56.167 -34.5 -88.5 -45.5s-64.5 -16.5 -96.5 -16.5c-16.667 0 -33 1.66699 -49 5s-30.333 8.66602 -43 15.999s-23.334 16.666 -32.001 27.999s-13.667 25 -15 41
c-0.666992 5.33301 -0.666992 10.166 0 14.499s1.66699 6.5 3 6.5s1.83301 -1.66699 1.5 -5s0.166992 -8.66602 1.5 -15.999c2 -14.667 7.16699 -27.167 15.5 -37.5s18.833 -18.666 31.5 -24.999s26.667 -11 42 -14s30.666 -4.5 45.999 -4.5c30.667 0 60.667 5.33301 90 16
s55.5 25.5 78.5 44.5s41.667 41.833 56 68.5s22.166 56 23.499 88c0.666992 27.333 -3.33301 52.666 -12 75.999s-22.334 43.5 -41.001 60.5s-42.667 30.333 -72 40s-64 14.5 -104 14.5c-48.667 0 -96.167 -8.33301 -142.5 -25s-87.666 -40.167 -123.999 -70.5
s-66 -66.5 -89 -108.5s-35.5 -88.333 -37.5 -139s6.33301 -94.834 25 -132.501s45 -68.667 79 -93s74.333 -42.333 121 -54s97.334 -16.834 152.001 -15.501c52 1.33301 101.833 9.5 149.5 24.5s93.167 35.833 136.5 62.5s84.666 58.5 123.999 95.5s77 78.167 113 123.5
l85 109l68 84.999c-29.333 3.33301 -57.5 10.166 -84.5 20.499s-50.667 24 -71 41s-36.5 37.167 -48.5 60.5s-17.333 49.666 -16 78.999c0.666992 23.333 6.16699 45 16.5 65s23.666 37.5 39.999 52.5s35.333 26.667 57 35s44.167 12.5 67.5 12.5
c14.667 0 29.167 -2 43.5 -6s27 -10 38 -18s19.667 -18 26 -30s9.16602 -26 8.49902 -42c-0.666992 -32 -15.667 -58 -45 -78c-3.33301 -2 -6.5 -3.66699 -9.5 -5s-4.83301 -1.33301 -5.5 0s0.5 2.83301 3.5 4.5s5.83301 3.5 8.5 5.5c24 18.667 36.333 43.334 37 74.001
c0 14.667 -2.83301 27.5 -8.5 38.5s-13.334 20 -23.001 27s-20.834 12.167 -33.501 15.5s-26 5 -40 5c-22.667 0 -43.5 -4.16699 -62.5 -12.5s-35.667 -19.666 -50 -33.999s-25.666 -31.5 -33.999 -51.5s-12.833 -41.333 -13.5 -64c-1.33301 -26 3.5 -49.667 14.5 -71
s26 -40 45 -56s41.167 -29 66.5 -39s52 -16.667 80 -20c16 19.333 32 37.5 48 54.5l50 51.5c18 17.333 38.5 34.333 61.5 51s47 31.334 72 44.001s50.667 22.834 77 30.501s52.5 11.5 78.5 11.5c48.667 0 88.334 -11.167 119.001 -33.5s45.334 -54.166 44.001 -95.499
c-0.666992 -19.333 -6.16699 -37.166 -16.5 -53.499s-23.833 -30.333 -40.5 -42s-35.334 -20.834 -56.001 -27.501s-41.667 -10 -63 -10c-13.333 0 -26.5 1.16699 -39.5 3.5s-25.167 5.83301 -36.5 10.5s-21.333 10.667 -30 18s-15 16 -19 26
c-20.667 -14.667 -48.5 -27 -83.5 -37s-74.5 -14.667 -118.5 -14l-66.5 -93.5c-23.667 -33 -51.5 -69.167 -83.5 -108.5c-43.333 -52.667 -88 -98 -134 -136s-93 -69.167 -141 -93.5s-97.5 -42.5 -148.5 -54.5s-103.167 -18.667 -156.5 -20z" />
    <glyph glyph-name="T.swash1" unicode="T" horiz-adv-x="970" 
d="M255 -22c35.333 0 70.501 2.00195 105.501 6.00195s67.833 9.66699 98.5 17l-137 27c-46 9.33301 -95.667 14 -149 14c-18.667 0 -35.334 -2.33301 -50.001 -7s-22 -12 -22 -22c0 -6.66699 4.83301 -12.334 14.5 -17.001s22 -8.33398 37 -11.001s31.5 -4.5 49.5 -5.5
s35.333 -1.5 52 -1.5h1zM251.001 -30.998c-18 0 -37.5 0.494141 -58.5 1.49414s-40.5 3.16699 -58.5 6.5s-33 8.16602 -45 14.499s-18 15.166 -18 26.499c0 6 3 11.167 9 15.5s13.833 7.66602 23.5 9.99902s20.5 4 32.5 5s24 1.5 36 1.5c31.333 0 61 -1.33301 89 -4
s55.333 -6 82 -10s53 -8.16699 79 -12.5s52.667 -8.16602 80 -11.499c70.667 21.333 134.667 52.333 192 93s111.333 91.667 162 153l90 105.5l90.5 99c29.667 31 58.167 58.833 85.5 83.5s52.666 44 75.999 58c-42 -16 -81.833 -32.167 -119.5 -48.5l-112.5 -48.5
c-41.333 -18 -81.833 -34.5 -121.5 -49.5s-80 -28.333 -121 -40s-83 -21 -126 -28s-88.167 -10.833 -135.5 -11.5c-60 -1.33301 -116.5 3.5 -169.5 14.5s-99.167 28.333 -138.5 52s-70.5 53.834 -93.5 90.501s-34.5 80 -34.5 130c0 37.333 7.83301 73.333 23.5 108
s37.5 66.834 65.5 96.501s61.333 56.667 100 81s80.5 45.333 125.5 63s92.5 31.834 142.5 42.501s100.667 17 152 19c42.667 2 85.334 0.166992 128.001 -5.5s81.167 -15.667 115.5 -30s62.333 -33 84 -56s32.5 -51.167 32.5 -84.5
c0 -41.333 -13.833 -80.666 -41.5 -117.999s-63.5 -70.333 -107.5 -99s-93 -51.334 -147 -68.001s-107.333 -25 -160 -25c-24.667 0 -50 2.16699 -76 6.5s-49.833 11.5 -71.5 21.5s-39.334 23 -53.001 39s-20.5 35.333 -20.5 58c0 24.667 6.5 47.334 19.5 68.001
s29.333 38.334 49 53.001s40.834 26.5 63.501 35.5s43.667 14.5 63 16.5c12 0.666992 18 0 18 -2s-5.33301 -3.33301 -16 -4c-18.667 -2 -38.834 -7.33301 -60.501 -16s-41.834 -20.334 -60.501 -35.001s-34.167 -31.667 -46.5 -51s-18.5 -40.666 -18.5 -63.999
c0 -19.333 5.33301 -35.5 16 -48.5s24.167 -23.5 40.5 -31.5s34.333 -13.667 54 -17s38.167 -5 55.5 -5c35.333 0 72 3.33301 110 10s75.167 16.167 111.5 28.5s70.833 27.166 103.5 44.499s61.334 36.5 86.001 57.5s44.167 43.833 58.5 68.5s21.5 50.334 21.5 77.001
c0 31.333 -10.667 57.833 -32 79.5s-48.666 39 -81.999 52s-70.833 22.167 -112.5 27.5s-82.834 7.33301 -123.501 6c-47.333 -2 -95 -8.66699 -143 -20s-94.167 -26.166 -138.5 -44.499s-85.833 -40 -124.5 -65s-72.334 -51.833 -101.001 -80.5
s-51.167 -59.167 -67.5 -91.5s-24.5 -64.833 -24.5 -97.5c0 -48 11 -89.833 33 -125.5s52.333 -65 91 -88s83.834 -39.833 135.501 -50.5s107.167 -15.334 166.5 -14.001c46.667 0.666992 91.834 5.33398 135.501 14.001s85.834 19.667 126.501 33s80.167 28.5 118.5 45.5
s76.166 34.833 113.499 53.5l118.5 58.5c39.667 19 79 36.167 118 51.5s77.667 27.666 116 36.999s75.833 14 112.5 14c19.333 0 38.333 -1.33301 57 -4s36.167 -7 52.5 -13s30.833 -13.333 43.5 -22s22.334 -19 29.001 -31l6.5 -12.5
c2.33301 -4.33301 2.5 -7.16602 0.5 -8.49902c-1.33301 -0.666992 -3 0.333008 -5 3s-6 6 -12 10c-17.333 11.333 -39.166 20.166 -65.499 26.499s-52.833 9.5 -79.5 9.5c-22.667 0 -43.834 -0.833008 -63.501 -2.5s-38.834 -4.16699 -57.501 -7.5
s-37.334 -7.66602 -56.001 -12.999s-38 -11.666 -58 -18.999c-27.333 -18.667 -53.166 -42.667 -77.499 -72s-48.5 -60.833 -72.5 -94.5l-74 -102.5c-25.333 -34.667 -52 -66.667 -80 -96c-29.333 -30.667 -58.666 -58.167 -87.999 -82.5s-59.166 -46.333 -89.499 -66
s-61.833 -36.667 -94.5 -51s-67 -26.833 -103 -37.5c5.33301 -0.666992 12.666 -1.16699 21.999 -1.5s19.166 -0.666016 29.499 -0.999023l30.5 -1c10 -0.333008 18 -0.5 24 -0.5c44 0 87.333 2.5 130 7.5s80.667 14.833 114 29.5c22.667 10 40.5 19.5 53.5 28.5
s25.167 18.167 36.5 27.5c10 8 15.667 11.333 17 10c2.66699 -2.66699 -0.333008 -7.66699 -9 -15c-13.333 -12 -27.5 -23.5 -42.5 -34.5s-32.167 -21.167 -51.5 -30.5c-35.333 -15.333 -73.333 -26.833 -114 -34.5s-86 -11.5 -136 -11.5c-10.667 0 -22.667 0.333008 -36 1
s-26.833 1.66699 -40.5 3s-26.834 2.83301 -39.501 4.5l-33 4.5c-71.333 -16.667 -150.666 -25 -237.999 -25h-1z" />
    <glyph glyph-name="U" unicode="U" horiz-adv-x="1078" 
d="M821 -28c-22.667 0 -42.0078 5.50879 -58.0078 16.5088s-24 31.167 -24 60.5c0 11.333 2.16699 23.5 6.5 36.5s10.166 24.5 17.499 34.5c-15.333 -13.333 -33.833 -28.5 -55.5 -45.5s-44.334 -33 -68.001 -48s-47.334 -27.5 -71.001 -37.5s-45.5 -15 -65.5 -15
c-21.333 0 -40.166 6 -56.499 18s-24.5 31 -24.5 57c0 19.333 4 38.5 12 57.5s19.667 39.5 35 61.5s34.5 45.833 57.5 71.5l79.5 87.5l61.5 68c21.667 24.667 41.834 50.167 60.501 76.5s34 53.333 46 81s18 54.5 18 80.5c0 28 -6.66699 51.833 -20 71.5
s-30.5 35.5 -51.5 47.5s-44.5 20.667 -70.5 26s-51.667 8 -77 8c-31.333 0 -63 -3.33301 -95 -10s-63 -15 -93 -25s-57.833 -21.333 -83.5 -34s-47.167 -25 -64.5 -37c-30.667 -21.333 -58.834 -43.666 -84.501 -66.999s-47.667 -47.833 -66 -73.5
s-32.666 -52.667 -42.999 -81s-15.5 -57.833 -15.5 -88.5c0 -45.333 14.5 -81.833 43.5 -109.5s70.5 -41.5 124.5 -41.5c33.333 0 70.5 7.66699 111.5 23s81.5 41.333 121.5 78c30 27.333 54.667 55.666 74 84.999s29 60 29 92c0 23.333 -7.33301 41.5 -22 54.5
s-34.334 19.5 -59.001 19.5c-28 0 -54 -5.33301 -78 -16s-42.667 -22.334 -56 -35.001c-7.33301 -6.66699 -11.666 -11.334 -12.999 -14.001s-2.66602 -3.33398 -3.99902 -2.00098s-0.333008 4.16602 3 8.49902s6.66602 8.16602 9.99902 11.499
c12.667 12.667 31.334 25.167 56.001 37.5s52.334 18.5 83.001 18.5c27.333 0 50.833 -7.16699 70.5 -21.5s29.5 -36.166 29.5 -65.499c0 -33.333 -11 -66 -33 -98s-48.667 -61.667 -80 -89c-37.333 -32.667 -77.833 -56.834 -121.5 -72.501s-83.834 -23.5 -120.501 -23.5
c-56.667 0 -101.5 14.167 -134.5 42.5s-49.5 67.833 -49.5 118.5c0 30 5.33301 59.167 16 87.5s25.5 55.833 44.5 82.5s41.667 52.167 68 76.5s55.5 47.5 87.5 69.5c18.667 12.667 40.834 25.5 66.501 38.5s53.334 24.667 83.001 35s61 18.666 94 24.999
s66.167 9.5 99.5 9.5c32 0 63.667 -3.83301 95 -11.5s59.333 -19.5 84 -35.5s44.5 -36 59.5 -60s22.5 -52.333 22.5 -85c0 -24.667 -4.33301 -48.167 -13 -70.5s-20.5 -44.833 -35.5 -67.5s-32.667 -45.834 -53 -69.501l-66.5 -75.5l-68 -74.5
c-24.667 -26.333 -47.667 -52.666 -69 -78.999s-39.166 -51.5 -53.499 -75.5s-21.5 -45.333 -21.5 -64c0 -16 5.33301 -27.333 16 -34s22.667 -10 36 -10c18.667 0 40.167 5.33301 64.5 16s48.666 24 72.999 40s47.833 33 70.5 51s42 34 58 48
c7.33301 12 18.333 27.667 33 47l49.5 63.5l59.5 71.5l62 72l108.5 121c36.333 39.333 71 74.166 104 104.499s63.5 54.833 91.5 73.5s51.667 28 71 28c6.66699 0 12.167 -1.83301 16.5 -5.5s6.5 -8.5 6.5 -14.5c0 -10.667 -4.66699 -23.167 -14 -37.5
s-21.166 -29.5 -35.499 -45.5s-30.333 -32.5 -48 -49.5l-51.5 -49.5l-90.5 -84.5l-77 -69l-70.5 -60.5l-71 -60l-34.5 -46c-14.333 -18.667 -28.5 -38.334 -42.5 -59.001s-26 -41.167 -36 -61.5s-15 -38.5 -15 -54.5c0 -12 2.66699 -21.667 8 -29s15.333 -11 30 -11
c26.667 0 54 7.66699 82 23s54.667 34.666 80 57.999c20 18.667 36.5 39.167 49.5 61.5s19.5 43.833 19.5 64.5c0 9.33301 -2.5 17.166 -7.5 23.499s-12.5 9.5 -22.5 9.5s-20.5 -2.33301 -31.5 -7s-21.667 -10.834 -32 -18.501s-20.166 -16.334 -29.499 -26.001
s-17 -19.5 -23 -29.5c-4.66699 -7.33301 -7.66699 -12.5 -9 -15.5s-2.66602 -3.83301 -3.99902 -2.5c-1.33301 0.666992 -1.16602 3.16699 0.500977 7.5s3.83398 8.5 6.50098 12.5c6.66699 10.667 14.667 21.334 24 32.001s19.5 20.167 30.5 28.5s22.5 15 34.5 20
s23.667 7.5 35 7.5c14.667 0 26.167 -3.33301 34.5 -10s12.5 -17.667 12.5 -33c0 -21.333 -7.66699 -43.166 -23 -65.499s-34.666 -44.166 -57.999 -65.499c-28 -24.667 -56.333 -45 -85 -61s-57.667 -24 -87 -24h-1zM926.992 264.009l120.501 105.5l166.5 153.5
c18 16.667 35.5 34 52.5 52s32.333 35 46 51s24.667 30.5 33 43.5s12.5 23.167 12.5 30.5c0 8 -3.66699 12 -11 12c-11.333 0 -25 -6 -41 -18s-33.333 -27.5 -52 -46.5s-37.834 -39.833 -57.501 -62.5l-57.5 -65l-59.5 -68.5l-53 -63l-49.5 -61z" />
    <glyph glyph-name="V.swash1" unicode="V" horiz-adv-x="1414" 
d="M1124 -34c6 0 13.999 3.5 23.999 10.5s20.833 16.167 32.5 27.5s23.334 24.166 35.001 38.499s22.167 28.833 31.5 43.5l-60 -37.5c-16.667 -10.333 -30.5 -19.666 -41.5 -27.999s-19.167 -16 -24.5 -23s-8 -14.167 -8 -21.5c0 -6.66699 3.33301 -10 10 -10h1z
M674.999 -467c-105.333 -2 -202.832 10.6738 -292.499 38.0068s-165.334 68.5 -227.001 123.5s-105.5 123 -131.5 204s-27.667 174.167 -5 279.5c11.333 52 29.833 99.667 55.5 143s57 82.5 94 117.5s78.5 65.5 124.5 91.5s94.833 47.833 146.5 65.5
s105.667 31.167 162 40.5s112.833 14.666 169.5 15.999c68 1.33301 129.5 -0.166992 184.5 -4.5s106.667 -9.5 155 -15.5s95 -11.5 140 -16.5s91.167 -7.5 138.5 -7.5c12 0 27.167 0.666992 45.5 2s37.666 3.66602 57.999 6.99902s40.333 7.33301 60 12
s36.167 10.667 49.5 18c13.333 13.333 24.333 23.166 33 29.499s16.667 9.5 24 9.5c4.66699 0 8.5 -1.33301 11.5 -4s3.83301 -6.66699 2.5 -12c-1.33301 -8 -6.33301 -13.167 -15 -15.5s-19.334 -8.5 -32.001 -18.5c-21.333 -16.667 -40.666 -35.834 -57.999 -57.501
s-33.666 -45 -48.999 -70s-29.833 -51.167 -43.5 -78.5l-40.5 -81l-27.5 -57l-25 -50c-8.33301 -16 -17.166 -31.833 -26.499 -47.5s-20 -32.167 -32 -49.5l95 58.5l89.5 59l90.5 64.5l98 76c28 22 54.667 46 80 72s48.333 51.667 69 77s38.334 49.666 53.001 72.999
s25.334 43.333 32.001 60c-2 4.66699 -3.83301 9.5 -5.5 14.5s-2.5 10.5 -2.5 16.5c0 14.667 8 22 24 22c8 0 13.667 -3.66699 17 -11s5 -15 5 -23c0 -4 -0.666992 -9.33301 -2 -16c17.333 2.66699 39.5 7.66699 66.5 15s62.5 20.333 106.5 39
c38.667 16 77.834 31.333 117.5 46c39.667 14.667 79.667 27.334 120 38.001s81.166 19.167 122.5 25.5c41.333 6.33301 83.666 9.5 127 9.5c48 0 93.833 -4.5 137.5 -13.5s82.167 -23.167 115.5 -42.5s59.833 -44.5 79.5 -75.5s29.5 -68.5 29.5 -112.5
c0 -40 -10.833 -75.833 -32.5 -107.5s-49.667 -59.167 -84 -82.5s-73.166 -42 -116.5 -56c-43.333 -14 -87 -23 -131 -27c-39.333 -3.33301 -79.5 -4 -120.5 -2s-78.5 8.5 -112.5 19.5s-62.667 27.167 -86 48.5s-36.333 49.333 -39 84c-2.66699 28 2.83301 54 16.5 78
s32.667 45.167 57 63.5s53 33.166 86 44.499s67.5 18.666 103.5 21.999c25.333 2 51 1.5 77 -1.5s50.333 -8.5 73 -16.5s42.334 -18.333 59 -31c16.667 -12.667 28.334 -27.334 35 -44.001c3.33301 -7.33301 5.33301 -14.166 6 -20.499s0.333984 -9.5 -1 -9.5
c-2 0 -3.16699 2.16699 -3.5 6.5s-2.5 11.166 -6.5 20.499c-7.33301 16 -19 30 -35 42s-34.667 21.667 -56 29s-44.5 12.333 -69.5 15s-49.5 3 -73.5 1c-34 -3.33301 -66 -10.333 -96 -21s-56 -24.667 -78 -42s-38.833 -37.5 -50.5 -60.5s-16.5 -48.167 -14.5 -75.5
c2.66699 -32 14.167 -58 34.5 -78s45.833 -35.167 76.5 -45.5s64.834 -16.666 102.5 -18.999c37.667 -2.33301 75.5 -1.83301 113.5 1.5c40.667 3.33301 82.167 11.833 124.5 25.5s80.666 31.667 115 54c34.333 22.333 62.5 49 84.5 80s33 65.5 33 103.5
c0 42.667 -10 79 -30 109s-46.5 54.5 -79.5 73.5s-70.833 32.667 -113.5 41s-86.667 12.5 -132 12.5c-53.333 0 -102.666 -4.33301 -147.999 -13s-87.5 -19.334 -126.5 -32.001s-75 -26.167 -108 -40.5s-63.833 -27.166 -92.5 -38.499c-49.333 -20 -88.5 -33 -117.5 -39
s-51.5 -9.33301 -67.5 -10c-6 -22 -18.167 -46.167 -36.5 -72.5s-40 -52.666 -65 -78.999s-51.833 -52 -80.5 -77s-55.667 -47.5 -81 -67.5c-34.667 -27.333 -68.334 -52.333 -101.001 -75l-97 -64.5l-96.5 -60l-100.5 -61.5c-18 -24 -37 -46.667 -57 -68
s-39.167 -39.833 -57.5 -55.5s-35.166 -28.167 -50.499 -37.5s-27.333 -14 -36 -14c-13.333 0 -20 6 -20 18c0 8 5.5 17.667 16.5 29s25 23.5 42 36.5s35.833 26.167 56.5 39.5l59 37c14.667 25.333 27.167 49.5 37.5 72.5l30.5 69l32 70.5c11.333 24 25 49.667 41 77
c14.667 24.667 28.834 47 42.501 67s27.667 38.833 42 56.5s29.5 35.167 45.5 52.5l54 57c-10.667 -4 -24.334 -7.83301 -41.001 -11.5s-34.334 -6.83398 -53.001 -9.50098s-37 -4.83398 -55 -6.50098s-33.667 -2.5 -47 -2.5c-50 0 -97.5 2.33301 -142.5 7l-139.5 15
c-48 5.33301 -99.167 10 -153.5 14s-115.5 5.33301 -183.5 4c-84.667 -2 -166 -13 -244 -33s-148.667 -49.333 -212 -88s-117 -86.5 -161 -143.5s-74.333 -123.5 -91 -199.5c-14.667 -66.667 -19.334 -128.834 -14.001 -186.501s19.166 -110.167 41.499 -157.5
s52.5 -89.166 90.5 -125.499s82.167 -66.833 132.5 -91.5s106 -43.167 167 -55.5s126.167 -17.833 195.5 -16.5c60 1.33301 117.667 7.66602 173 18.999s106.833 26.666 154.5 45.999s91.167 42 130.5 68s72.833 54.333 100.5 85s49.167 62.834 64.5 96.501
s23 68.167 23 103.5c0.666992 11.333 0.166992 19.666 -1.5 24.999s-1.83398 8.33301 -0.500977 9c2.66699 0.666992 5 -2.16602 7 -8.49902s3 -15.166 3 -26.499c0 -55.333 -16.5 -108.333 -49.5 -159s-78.667 -95.5 -137 -134.5s-127.5 -70.333 -207.5 -94
s-166.667 -36.5 -260 -38.5z" />
    <glyph glyph-name="W.swash1" unicode="W" horiz-adv-x="1630" 
d="M498 -31c-61.333 0 -120.663 7.17285 -177.996 21.5059s-108 36.333 -152 66s-79.333 67.334 -106 113.001s-40 99.834 -40 162.501c0 78 20.167 146 60.5 204s93.833 106.167 160.5 144.5s142.5 67 227.5 86s172.5 28.5 262.5 28.5
c49.333 0 96.666 -2.83301 141.999 -8.5s88.833 -12.834 130.5 -21.501s81.5 -18.334 119.5 -29.001l108 -30c42.667 -12 82.667 -22.333 120 -31s72 -13 104 -13c27.333 0 51.333 1.33301 72 4s43.667 8.66699 69 18c6 2.66699 11.333 5.66699 16 9l13.5 10
c4.33301 3.33301 8.66602 6.16602 12.999 8.49902s9.16602 3.5 14.499 3.5c4 0 8 -0.666992 12 -2s6 -4.33301 6 -9c0 -3.33301 -1.83301 -5.33301 -5.5 -6s-6.83398 -2.33398 -9.50098 -5.00098c-34.667 -29.333 -66.667 -67.666 -96 -114.999l-93 -153
c-42.667 -70.667 -83.167 -134.834 -121.5 -192.501s-76.833 -112.5 -115.5 -164.5l74 75.5l67 67.5l68.5 67l77.5 73l93 86l85.5 76.5l82.5 72l85 72.5c3.33301 3.33301 7 6 11 8s8.33301 2.33301 13 1c5.33301 -2 7 -6.16699 5 -12.5s-4 -11.166 -6 -14.499l-44.5 -63.5
l-44 -65l-46.5 -70.5l-50 -80l-87.5 -140.5c-30.333 -48.333 -59.5 -92.5 -87.5 -132.5l71 73l86.5 87.5l93.5 91l92 84.5l97.5 86l85.5 71.5c28 22.333 57.333 44 88 65s66 43.5 106 67.5c26.667 16 53.834 30.667 81.5 44c27.667 13.333 55.334 25 83 35
c27.667 10 54.5 17.833 80.5 23.5s50.667 8.5 74 8.5c18.667 0 37.334 -1.66699 56 -5c18.667 -3.33301 35.5 -8.83301 50.5 -16.5s26.833 -17.667 35.5 -30s12.667 -27.833 12 -46.5c-0.666992 -10 -3.33398 -19.167 -8 -27.5
c-4.66699 -8.33301 -10.334 -15.666 -17 -21.999c-6.66699 -6.33301 -13.667 -11.5 -21 -15.5s-13.666 -7 -19 -9c-5.33301 -1.33301 -10.5 -2.5 -15.5 -3.5s-8.16699 -0.833008 -9.5 0.5c-0.666992 1.33301 0.666016 2.16602 4 2.49902
c3.33301 0.333008 7.66602 3.16602 13 8.49902c6.66699 6 11.834 14.5 15.5 25.5c3.66699 11 5.16699 22.167 4.5 33.5c-0.666992 12.667 -4.33398 24 -11 34c-6.66699 10 -15.5 18.167 -26.5 24.5s-23.167 11.166 -36.5 14.499s-27 5 -41 5
c-52 0 -102.833 -8.66699 -152.5 -26s-99.5 -40.666 -149.5 -69.999c-32 -18.667 -61.167 -36.834 -87.5 -54.501s-51.333 -35.5 -75 -53.5s-47.167 -37 -70.5 -57l-75 -66l-260 -242c-78 -76 -149.333 -149.667 -214 -221c-3.33301 -3.33301 -7.16602 -6.33301 -11.499 -9
s-10.5 -4 -18.5 -4c-8.66699 0 -12.834 3.83301 -12.501 11.5s3.16602 15.5 8.49902 23.5l36.5 54l45.5 69.5l50 78.5l52 82l95.5 150.5c30.333 47 60.833 90.167 91.5 129.5l-60 -52l-69 -61.5l-74.5 -67.5l-76.5 -70l-98.5 -94l-94.5 -94l-82 -83l-59 -61
c-6.66699 -6.66699 -12.667 -11.5 -18 -14.5s-13 -4.5 -23 -4.5c-5.33301 0 -8.33301 1.83301 -9 5.5s0 8.16699 2 13.5s4.66699 10.833 8 16.5s6.33301 10.5 9 14.5l94 141.5l104 166.5l62.5 98.5l65 97c21 30.333 40.667 56.833 59 79.5s33.5 38.667 45.5 48
c-21.333 -6.66699 -42.833 -11.667 -64.5 -15s-45.167 -5 -70.5 -5c-50 0 -95.167 3.5 -135.5 10.5s-79.166 16.167 -116.499 27.5c-34 10 -67.5 20.5 -100.5 31.5s-68 21.167 -105 30.5s-77 17.166 -120 23.499s-91.5 9.5 -145.5 9.5
c-57.333 0 -114.166 -4.16699 -170.499 -12.5s-109.833 -20.666 -160.5 -36.999s-97.5 -37.166 -140.5 -62.499s-80.333 -54.833 -112 -88.5s-56.334 -71.834 -74.001 -114.501s-26.5 -89.667 -26.5 -141c0 -60.667 12.167 -113 36.5 -157s57.166 -80.5 98.499 -109.5
s89.166 -50.5 143.499 -64.5s111.5 -21 171.5 -21c38 0 76.333 2.83301 115 8.5s76 14.167 112 25.5s69.833 25.666 101.5 42.999s59.167 37.333 82.5 60s41.833 48.167 55.5 76.5s20.5 59.5 20.5 93.5c0 34.667 -7.83301 64.667 -23.5 90s-36.167 46.166 -61.5 62.499
s-54.333 28.5 -87 36.5s-66.334 12 -101.001 12s-67.834 -3.83301 -99.501 -11.5s-60.167 -18 -85.5 -31s-46.666 -27.833 -63.999 -44.5s-28.333 -34.334 -33 -53.001c-3.33301 -12.667 -4.5 -21.667 -3.5 -27s-0.166992 -8.33301 -3.5 -9
c-2 -0.666992 -3.33301 3.33301 -4 12s0 17 2 25c4.66699 20 15.834 39 33.501 57s39.667 33.833 66 47.5s56 24.334 89 32.001s67.167 11.5 102.5 11.5c36 0 72.333 -4 109 -12s69.834 -20.333 99.501 -37s53.834 -38.167 72.501 -64.5s28 -57.833 28 -94.5
c0 -35.333 -7.5 -67.833 -22.5 -97.5s-35.333 -56.167 -61 -79.5s-55.667 -43.833 -90 -61.5s-71 -32.334 -110 -44.001s-79 -20.5 -120 -26.5s-80.833 -9 -119.5 -9h-1z" />
    <glyph glyph-name="X" unicode="X" horiz-adv-x="924" 
d="M677 380l67.001 25.001l61 24.5l61 26.5c20.667 9.33301 43 20 67 32c21.333 10.667 42.5 22.334 63.5 35.001s40 26.167 57 40.5s31 29.833 42 46.5s17.167 34.667 18.5 54c1.33301 16 -3.16699 27.5 -13.5 34.5s-23.5 10.5 -39.5 10.5
c-18 0 -36.5 -3.83301 -55.5 -11.5s-37.833 -17.167 -56.5 -28.5s-36.334 -24 -53.001 -38s-32 -27.667 -46 -41l-49.5 -50.5c-15 -15.667 -29.333 -31.834 -43 -48.501s-27 -33.834 -40 -51.501s-26.5 -37.5 -40.5 -59.5zM87.001 -24.999
c29.333 -1.33301 62.5 4.66992 99.5 18.0029s81.167 36 132.5 68c32 19.333 66.667 43.666 104 72.999s73.666 64.666 108.999 105.999c8.66699 16 18.167 32.167 28.5 48.5l32.5 50.5l-191.5 -69c-61 -22 -120.5 -47 -178.5 -75
c-53.333 -25.333 -96.666 -52.833 -129.999 -82.5s-50 -61.834 -50 -96.501c0 -14 4.83301 -24.167 14.5 -30.5s19.5 -9.83301 29.5 -10.5zM85.001 -35.9961c-21.333 0.666992 -39 5.33301 -53 14s-20.333 23 -19 43c0.666992 18 7.5 35.667 20.5 53s29.5 34 49.5 50
s42.5 31 67.5 45s50.167 26.667 75.5 38c30 14 60 27 90 39l91 35l94 34l100 36l40.5 59.5c15 21.667 29.167 44 42.5 67s24.833 45.833 34.5 68.5s15.167 44 16.5 64c2 29.333 -4.83301 51 -20.5 65s-39.167 21 -70.5 21c-16.667 0 -35.167 -2.16699 -55.5 -6.5
s-41 -10.333 -62 -18s-41.833 -17 -62.5 -28s-39.667 -22.833 -57 -35.5c-14 -10.667 -28.167 -22.834 -42.5 -36.501s-27.333 -28.334 -39 -44.001s-21.167 -31.667 -28.5 -48s-11.333 -32.5 -12 -48.5c-2 -44 19.333 -66 64 -66c31.333 0 59.833 7.16699 85.5 21.5
s47.167 29.166 64.5 44.499c6.66699 6 11 10.5 13 13.5s3.66699 3.83301 5 2.5s0.166016 -4.33301 -3.50098 -9s-7.5 -9 -11.5 -13c-8 -7.33301 -17.333 -15.166 -28 -23.499s-22.834 -15.833 -36.501 -22.5s-28.167 -12.167 -43.5 -16.5s-31.333 -6.5 -48 -6.5
c-12 0 -23.333 1.66699 -34 5s-20 8.33301 -28 15s-14.333 15 -19 25s-6.66699 21.667 -6 35c0.666992 16.667 4.83398 33 12.501 49s17.5 31.333 29.5 46s25.667 28.834 41 42.501s31.666 26.834 48.999 39.501c18.667 13.333 39.334 25.666 62.001 36.999
s45.334 21 68.001 29s44.667 14.333 66 19s40.333 7 57 7c20.667 0 39.834 -2.16699 57.501 -6.5s32.5 -11.166 44.5 -20.499s21 -21.333 27 -36s8.33301 -32.334 7 -53.001c-0.666992 -10 -2.5 -21.167 -5.5 -33.5s-6.16699 -22.833 -9.5 -31.5c18 20.667 39 42.5 63 65.5
s49.167 43.833 75.5 62.5s53.333 34.167 81 46.5s54.167 18.5 79.5 18.5c10 0 19.333 -1 28 -3s16.167 -5.16699 22.5 -9.5s11.333 -10.5 15 -18.5s5.16699 -18 4.5 -30c-1.33301 -18 -8.16602 -35.167 -20.499 -51.5s-27.833 -31.833 -46.5 -46.5s-39.667 -28.667 -63 -42
s-46.333 -25.666 -69 -36.999c-24 -12 -46.833 -22.833 -68.5 -32.5l-64 -27.5l-64 -25.5l-69.5 -26.5l-49 -74.5c-15.333 -23.667 -29 -47 -41 -70s-21.833 -46 -29.5 -69s-12.5 -46.833 -14.5 -71.5c-2 -30 3.5 -52.167 16.5 -66.5s35.833 -20.833 68.5 -19.5
c17.333 0.666992 35.666 4 54.999 10s38.666 14 57.999 24s38.333 21.5 57 34.5s36 26.167 52 39.5c24 20.667 44.333 40.667 61 60s30.167 37.666 40.5 54.999s18.166 33.166 23.499 47.499s9 26.5 11 36.5c3.33301 16.667 1.16602 31.667 -6.50098 45
s-20.834 20 -39.501 20c-22.667 0 -44.667 -5.5 -66 -16.5s-42.666 -25.833 -63.999 -44.5c-8.66699 -7.33301 -17.167 -15.666 -25.5 -24.999s-16 -18.5 -23 -27.5s-13.167 -17.5 -18.5 -25.5s-9.33301 -14.667 -12 -20c-5.33301 -11.333 -8.33301 -19.333 -9 -24
s-1.66699 -7 -3 -7s-1.66602 2.66699 -0.999023 8s3 13.333 7 24c5.33301 12.667 14.833 28.834 28.5 48.501s30.5 38.167 50.5 55.5c23.333 19.333 45.833 34.833 67.5 46.5s44.834 17.5 69.501 17.5c22.667 0 40 -8.16699 52 -24.5s16.667 -35.166 14 -56.499
c-3.33301 -25.333 -16.333 -54.833 -39 -88.5s-59.667 -71.834 -111 -114.501c-16.667 -14 -34.5 -27.333 -53.5 -40s-38.667 -24 -59 -34s-40.5 -18 -60.5 -24s-39.333 -9.33301 -58 -10c-40 -1.33301 -72.5 7 -97.5 25s-36.167 47.667 -33.5 89c2 30 10.333 62.333 25 97
c-28 -26 -57.833 -51.167 -89.5 -75.5s-65.5 -47.5 -101.5 -69.5c-50.667 -31.333 -94.667 -54 -132 -68s-72 -20.667 -104 -20z" />
    <glyph glyph-name="Y.swash1" unicode="Y" horiz-adv-x="738" 
d="M-616 -1063c36 0 74.167 6.16016 114.5 18.4932s81.833 29.333 124.5 51s85.334 47.667 128.001 78s84.334 63.5 125.001 99.5c56.667 50.667 109.5 100.834 158.5 150.501s96.167 101.334 141.5 155.001s90.333 110.167 135 169.5l139 194
c-54 -9.33301 -108.333 -21.5 -163 -36.5s-107.834 -32.167 -159.501 -51.5s-101.167 -40.333 -148.5 -63s-91.333 -45.667 -132 -69c-49.333 -28.667 -97.833 -59.167 -145.5 -91.5s-92.834 -65.666 -135.501 -99.999s-82 -69.166 -118 -104.499
s-67.167 -70.166 -93.5 -104.499s-46.833 -68.166 -61.5 -101.499s-22 -64.666 -22 -93.999c0 -32 10.5 -56.667 31.5 -74s47.833 -26 80.5 -26h1zM-618 -1073.01c-19.333 0 -37.9941 2.33691 -55.9941 7.00391s-34 11.667 -48 21s-25.333 21.5 -34 36.5
s-13 33.167 -13 54.5c0 29.333 8 60.333 24 93s38 66 66 100s61.333 68.5 100 103.5s80.667 69.5 126 103.5s92.833 67.333 142.5 100s100.167 64 151.5 94c41.333 24 86.166 47.667 134.499 71s99 44.833 152 64.5s107.333 37.167 163 52.5s111.5 27.333 167.5 36
c39.333 58 74 111.333 104 160l84 139c-20 -19.333 -40.667 -38.166 -62 -56.499s-42.833 -34.666 -64.5 -48.999s-43 -25.833 -64 -34.5s-41.167 -13 -60.5 -13c-18 0 -32.667 5.33301 -44 16s-17 26.667 -17 48c0 18 5 37.167 15 57.5s22.667 41 38 62
s32.5 42.333 51.5 64l55.5 65.5l45 55c15.333 18.667 29 37.834 41 57.501s21.833 39.834 29.5 60.501s11.5 42 11.5 64c0 22.667 -4.33301 42 -13 58s-20.334 29.167 -35.001 39.5s-31.334 17.833 -50.001 22.5s-38.334 7 -59.001 7c-23.333 0 -47.333 -2.66699 -72 -8
s-49 -13 -73 -23s-47.333 -21.833 -70 -35.5s-43.334 -28.834 -62.001 -45.501c-38 -32.667 -67.667 -67.834 -89 -105.501s-32 -79.167 -32 -124.5c0 -32 10 -58.333 30 -79s46.333 -31 79 -31c26 0 51.833 5.33301 77.5 16s49 25.167 70 43.5s38.5 40 52.5 65
s22.667 51.5 26 79.5c1.33301 15.333 -1.33398 28.666 -8.00098 39.999s-19 17 -37 17c-12.667 0 -24.834 -2.33301 -36.501 -7s-20.167 -9.33398 -25.5 -14.001c-4.66699 -3.33301 -7.83398 -6.16602 -9.50098 -8.49902s-3.16699 -2.83301 -4.5 -1.5
c-0.666992 0.666992 -0.166992 2.16699 1.5 4.5s4.16699 5.16602 7.5 8.49902c7.33301 7.33301 17.5 14 30.5 20s26.167 9 39.5 9c19.333 0 35.666 -5.83301 48.999 -17.5s19 -29.167 17 -52.5c-2 -29.333 -11.5 -56.666 -28.5 -81.999s-37.667 -47.666 -62 -66.999
s-50.666 -34.5 -78.999 -45.5s-55.166 -16.5 -80.499 -16.5c-38.667 0 -70.334 10.167 -95.001 30.5s-37 49.166 -37 86.499c0 23.333 3.5 45.833 10.5 67.5s16.667 42.334 29 62.001s26.833 38.667 43.5 57s35 36.166 55 53.499c18 15.333 38.5 30.166 61.5 44.499
s47.167 26.833 72.5 37.5s51.166 19.167 77.499 25.5s51.5 9.5 75.5 9.5c28 0 54.167 -3.33301 78.5 -10s45.5 -16.5 63.5 -29.5s32.167 -29 42.5 -48s15.5 -40.833 15.5 -65.5c0 -22 -4.33301 -44 -13 -66s-20.167 -44.5 -34.5 -67.5s-30.833 -46.167 -49.5 -69.5l-59 -72
l-47.5 -58c-15.667 -19.333 -29.667 -38.5 -42 -57.5s-22.5 -37.333 -30.5 -55s-12 -34.167 -12 -49.5c0 -8.66699 3 -15.5 9 -20.5s13.667 -7.5 23 -7.5c10.667 0 21.667 1.83301 33 5.5s22.833 8.5 34.5 14.5s23.167 12.833 34.5 20.5s22 15.5 32 23.5l37.5 30.5
c11 9 21.5 18.333 31.5 28s19.833 19.834 29.5 30.501s20.167 23.667 31.5 39l41.5 55.5l39 53.5l40 55.5l45.5 61.5l80.5 104l64.5 78c6 7.33301 13.667 15 23 23s18.333 11.333 27 10c5.33301 -1.33301 9 -4 11 -8s2.33301 -8.66699 1 -14
c-1.33301 -4.66699 -5.16602 -9.83398 -11.499 -15.501s-13.166 -13.167 -20.499 -22.5l-100.5 -130l-88.5 -121l-88 -129.5l-76 -117.5l-71.5 -113l-75.5 -114c21.333 2 42.166 3.66699 62.499 5s40.833 2 61.5 2c42.667 0 85.167 -3 127.5 -9s82.833 -15.5 121.5 -28.5
s74.667 -29.5 108 -49.5s62.166 -44.333 86.499 -73s43.5 -61.834 57.5 -99.501s21 -80.167 21 -127.5c0 -44.667 -7 -87.667 -21 -129s-33.5 -80 -58.5 -116s-54.667 -68.833 -89 -98.5s-72 -55.334 -113 -77.001s-84.5 -38.5 -130.5 -50.5s-93 -18.333 -141 -19
c-41.333 -0.666992 -82 3.66602 -122 12.999s-75.667 24 -107 44s-56.833 45.5 -76.5 76.5s-29.5 68.5 -29.5 112.5c0 40 8 77 24 111s37.167 64.333 63.5 91s56.166 49.334 89.499 68.001s67 32.334 101 41.001c6 1.33301 11.667 2.33301 17 3s8 0.333984 8 -0.999023
c0 -2 -1.5 -3.16699 -4.5 -3.5s-8.83301 -1.83301 -17.5 -4.5c-34 -9.33301 -66.333 -23.5 -97 -42.5s-57.667 -41.667 -81 -68s-41.833 -56.333 -55.5 -90s-20.5 -69.834 -20.5 -108.501c0 -40.667 8.83301 -75.834 26.5 -105.501s40.834 -54 69.501 -73s61.5 -33 98.5 -42
s75.167 -13.167 114.5 -12.5c70.667 1.33301 136.834 14.666 198.501 39.999s115.334 59.666 161.001 102.999s81.667 94 108 152s39.5 120.667 39.5 188s-13.167 124.833 -39.5 172.5s-61.5 86.5 -105.5 116.5s-94.667 52 -152 66s-117.333 21 -180 21
c-21.333 0 -43 -0.666992 -65 -2s-44 -3.33301 -66 -6l-54.5 -77l-61.5 -81l-122.5 -153c-38.333 -46.667 -77 -91.167 -116 -133.5s-80.167 -83.5 -123.5 -123.5s-91.666 -81 -144.999 -123c-43.333 -34 -86.833 -65.833 -130.5 -95.5s-87 -55.5 -130 -77.5
s-85 -39.333 -126 -52s-80.167 -19 -117.5 -19h-1z" />
    <glyph glyph-name="Z.swash1" unicode="Z" horiz-adv-x="997" 
d="M661 2c16 0 32.998 1.66797 50.998 5.00098s36.333 8 55 14s37 13.167 55 21.5s34.667 17.5 50 27.5c42.667 26.667 78.834 58.5 108.501 95.5s48.167 74.167 55.5 111.5c4.66699 23.333 3.33398 43.333 -3.99902 60s-22.666 25.667 -45.999 27
c-66.667 4 -143.334 -33.333 -230.001 -112c-16 -14.667 -32 -31.334 -48 -50.001s-31.333 -38.5 -46 -59.5s-28.5 -42.667 -41.5 -65s-24.833 -44.5 -35.5 -66.5c24.667 -6 49.667 -9 75 -9h1zM538.998 -177.999c-1.33301 0 -2.33105 2.00391 -2.99805 6.00391
s-1 8.33301 -1 13c-1.33301 17.333 1 39.333 7 66s13 51.334 21 74.001c-25.333 3.33301 -51 9 -77 17s-52.333 19.667 -79 35l-46.5 27.5c-14.333 8.33301 -28.666 15.5 -42.999 21.5s-29 10.833 -44 14.5s-31.5 5.5 -49.5 5.5c-18.667 0 -36.167 -2.83301 -52.5 -8.5
s-31.666 -12.834 -45.999 -21.501s-27.5 -18 -39.5 -28s-22.667 -19.333 -32 -28l-12.5 -13c-4.33301 -4.66699 -8.5 -8.83398 -12.5 -12.501s-7.83301 -6.33398 -11.5 -8.00098s-6.83398 -1.16699 -9.50098 1.5c-6 5.33301 -7.16699 12.333 -3.5 21
s8.83398 15.667 15.501 21l62.5 50.5l100.5 77l122 90l129 90.5c-22 -0.666992 -38 0.333008 -48 3s-14.667 7 -14 13c0 4.66699 1.66699 8.5 5 11.5s9 5 17 6s18.833 1.16699 32.5 0.5s31.5 -1.66699 53.5 -3l102 64.5l108 64l104.5 57.5c33.667 18 64.167 33.333 91.5 46
c-44 -15.333 -86.167 -27.333 -126.5 -36s-78.166 -15.167 -113.499 -19.5s-67.833 -7 -97.5 -8s-55.834 -0.833008 -78.501 0.5c-46 2 -85.833 8.66699 -119.5 20s-61.334 26 -83.001 44s-36.834 38.833 -45.501 62.5s-10.334 48.834 -5.00098 75.501
c4.66699 26 16.5 50 35.5 72s42.667 41.167 71 57.5s60 29.166 95 38.499s70.833 14 107.5 14c22 0 44 -1.83301 66 -5.5s41.833 -9.33398 59.5 -17.001s32.167 -17.5 43.5 -29.5s17 -26.667 17 -44c0 -21.333 -7.66699 -41 -23 -59s-34.5 -33.833 -57.5 -47.5
s-48.167 -25 -75.5 -34s-53.333 -15.5 -78 -19.5c-8.66699 -1.33301 -14.334 -2 -17.001 -2s-4.33398 0.666992 -5.00098 2s0.5 2.33301 3.5 3s8.83301 1.66699 17.5 3c23.333 4.66699 46.833 11.334 70.5 20.001s45.167 19.5 64.5 32.5s35.166 28 47.499 45
s18.5 36.5 18.5 58.5c0 14.667 -4.66699 27.5 -14 38.5s-21.333 20 -36 27s-31.167 12.167 -49.5 15.5s-36.833 5 -55.5 5c-35.333 0 -69.833 -4.5 -103.5 -13.5s-63.834 -21.333 -90.501 -37s-49 -34.167 -67 -55.5s-29.333 -44.333 -34 -69c-8 -44 8.5 -81.333 49.5 -112
s105.833 -47.667 194.5 -51c22 -0.666992 48.833 -0.833984 80.5 -0.500977s64.334 1.33301 98.001 3s66.834 4.33398 99.501 8.00098s61.667 8.16699 87 13.5c12 2.66699 29.5 7.5 52.5 14.5s49.5 15.833 79.5 26.5c14 5.33301 30 10.166 48 14.499s35 6.5 51 6.5
c15.333 0 23 -4.33301 23 -13c0 -11.333 -14 -21.333 -42 -30c-16.667 -5.33301 -31.834 -8.83301 -45.501 -10.5s-26.5 -3 -38.5 -4l-34.5 -3c-11 -1 -22.167 -3.5 -33.5 -7.5c-26 -13.333 -55 -29 -87 -47l-98.5 -58l-101 -62.5l-93.5 -60.5l43 -3.5
c12 -1 26.667 -1.5 44 -1.5c2 0 4.33301 -0.166992 7 -0.5s4 -1.16602 4 -2.49902s-1.16699 -2.33301 -3.5 -3s-4.83301 -1 -7.5 -1c-20 -1.33301 -40.833 -3.5 -62.5 -6.5s-42.5 -5.16699 -62.5 -6.5l-96.5 -63.5l-106.5 -70.5l-101 -71c-32 -23.333 -58.667 -45 -80 -65
c31.333 21.333 61 38 89 50s53.667 18 77 18c18.667 0 35.834 -1.5 51.501 -4.5s31 -7.16699 46 -12.5s30 -12.166 45 -20.499l48.5 -27.5c44 -26.667 85.333 -45.334 124 -56.001c10 22 21.5 44.167 34.5 66.5s27 44.166 42 65.499s30.833 41.666 47.5 60.999
s33.667 37 51 53c43.333 40 84.666 70 123.999 90s77.333 29 114 27c30 -1.33301 51.5 -11.666 64.5 -30.999s16.833 -42.333 11.5 -69c-3.33301 -17.333 -10.5 -35.333 -21.5 -54s-24.667 -37.334 -41 -56.001s-35.333 -37 -57 -55s-44.834 -34.667 -69.501 -50
c-89.333 -56 -176 -84 -260 -84c-7.33301 0 -14.666 0.166992 -21.999 0.5s-14.666 0.833008 -21.999 1.5c-7.33301 -22 -14.166 -46 -20.499 -72s-9.5 -48.333 -9.5 -67c0 -6 0.166992 -10.667 0.5 -14s-0.5 -5 -2.5 -5h-1z" />
    <glyph glyph-name="bracketleft" unicode="[" 
d="M485 463l-4 -7c-27.333 -2 -43.333 -3.33301 -48 -4c-24 -2.66699 -38.667 -7 -44 -13l-47 -62l-98 -128l-194 -242c-37.333 -45.333 -56 -70.333 -56 -75v0c2 -3.33301 14.333 -6.33301 37 -9c19.333 -2.66699 33 -4 41 -4l-5 -6h-111l209 280
c79.333 102.667 153.333 192.667 222 270h98z" />
    <glyph glyph-name="backslash" unicode="\" 
d="M143 -78c0 -5.33301 -1.66797 -8 -5.00098 -8c-2.66699 0 -5 4.33301 -7 13l-74 324c-15.333 68 -23 101.333 -23 100c0 6 1.83301 13 5.5 21s7.83398 12 12.501 12s9.33398 -11.333 14.001 -34c9.33301 -44 20.666 -104 33.999 -180l42 -237
c0.666992 -4 1 -7.66699 1 -11z" />
    <glyph glyph-name="bracketright" unicode="]" 
d="M398 463c-16 -26.667 -60.667 -88.3311 -134 -184.998c-88.667 -116.667 -187.667 -238.334 -297 -365.001h-98l5 7c26 1.33301 54 5 84 11c13.333 12 31 33.333 53 64l48 66c98 129.333 180 232.333 246 309c37.333 43.333 56 67.666 56 72.999
c0 4 -11.667 7.33301 -35 10c-18 2.66699 -32.333 4 -43 4l4 6h111z" />
    <glyph glyph-name="asciicircum" unicode="^" horiz-adv-x="307" 
d="M291 136c-0.666992 0 -1.66504 -0.331055 -2.99805 -0.998047c-10 0 -40.333 25.333 -91 76c-14.667 -10 -41.667 -25.667 -81 -47c-41.333 -22 -65.333 -33 -72 -33c-0.666992 0 -1.33398 0.333008 -2.00098 1c2.66699 3.33301 30.667 24.166 84 62.499
s80.666 57.5 81.999 57.5c2 0 3.66699 -1 5 -3c11.333 -14.667 37.333 -52.334 78 -113.001z" />
    <glyph glyph-name="underscore" unicode="_" horiz-adv-x="500" 
d="M445 -135h-509v30h509v-30z" />
    <glyph glyph-name="grave" unicode="`" horiz-adv-x="307" 
d="M246 201l-0.99707 -3.99902c-8.66699 1.33301 -24.334 13.5 -47.001 36.5s-34 39.5 -34 49.5c0 12.667 6 19 18 19c3.33301 0 5.66602 -1 6.99902 -3c4 -4.66699 12.667 -20.334 26 -47.001c7.33301 -11.333 17.666 -28.333 30.999 -51z" />
    <glyph glyph-name="a" unicode="a" horiz-adv-x="288" 
d="M302 99c0 -6.66699 -23.001 -28.333 -69.001 -65c-33.333 -26.667 -62 -40 -86 -40c-19.333 0 -29 8 -29 24c0 12 4.66699 23 14 33h-1c-42 -38 -79.667 -57 -113 -57c-25.333 0 -38 11 -38 33c0 19.333 9.33301 39.666 28 60.999h-1c-10 -10.667 -16.333 -16 -19 -16
c-1.33301 0 -2.33301 0.333008 -3 1v2l1 4c16.667 20 44.5 40.5 83.5 61.5s70.167 31.5 93.5 31.5s35 -8.66699 35 -26c0 -4 -0.666992 -8.33301 -2 -13h1c22.667 25.333 43.334 38 62.001 38c8.66699 0 13 -1 13 -3s-17 -23.5 -51 -64.5s-51 -68.167 -51 -81.5l2 -5
c2 -0.666992 4.33301 -1 7 -1c14 0 37.167 13.833 69.5 41.5s49.833 41.834 52.5 42.501zM188.999 143.001c0 12 -6.33301 18 -19 18c-17.333 0 -46.166 -19.333 -86.499 -58s-60.5 -66 -60.5 -82c0 -8 4.33301 -12 13 -12c19.333 0 49.666 18 90.999 54s62 62.667 62 80z
" />
    <glyph glyph-name="b" unicode="b" horiz-adv-x="298" 
d="M534 542c0 -44.667 -102.999 -144.999 -308.999 -300.999c-27.333 -19.333 -61 -47 -101 -83c-12.667 -16 -32 -42.667 -58 -80l2 -3c68 64.667 122 97 162 97c28 0 42 -10.333 42 -31c0 -32.667 -21 -65.667 -63 -99c-39.333 -31.333 -76 -47 -110 -47
c-20 0 -30 6.66699 -30 20c0 12.667 17.333 25.667 52 39l70 22c23.333 23.333 35 46.333 35 69c0 7.33301 -4.33301 11 -13 11c-33.333 0 -99.333 -48.667 -198 -146c-10 -9.33301 -22 -14 -36 -14c-7.33301 0 -11 2.33301 -11 7c0 15.333 24.667 53.666 74 114.999h-1
c-24.667 -24.667 -39.667 -37 -45 -37c-0.666992 0 -1.33398 0.333008 -2.00098 1c0.666992 4.66699 11 15.667 31 33l38 33l57 73c61.333 75.333 121.333 143 180 203c96 96.667 163.333 145 202 145c21.333 0 32 -9 32 -27zM508.001 539.001
c0 12.667 -5.66699 19.001 -17 19.001c-27.333 0 -89.333 -56 -186 -168c-69.333 -80.667 -124.333 -149.334 -165 -206.001v-1l204 171c109.333 96 164 157.667 164 185zM183.001 65.002v0.999023l-54 -20c-27.333 -11.333 -41 -20.666 -41 -27.999c0 -6 3 -9 9 -9
c27.333 0 56 18.667 86 56z" />
    <glyph glyph-name="c" unicode="c" horiz-adv-x="213" 
d="M221 92c0 -8.66699 -21.332 -27.665 -63.999 -56.998s-82 -44 -118 -44c-35.333 0 -53 12 -53 36c0 20.667 9.66699 43 29 67h-1c-6 -6.66699 -15.667 -13.667 -29 -21v2c0 1.33301 0.333008 2.66602 1 3.99902c15.333 18.667 42.666 38.667 81.999 60s70 32 92 32
c23.333 0 35 -9.33301 35 -28c0 -10 -3.5 -19.833 -10.5 -29.5s-15.167 -14.5 -24.5 -14.5s-14 4.66699 -14 14c0 4 2.66699 10.667 8 20s8 16.333 8 21s-3.33301 7 -10 7c-16.667 0 -40 -17.833 -70 -53.5s-45 -62.834 -45 -81.501c0 -12.667 7.66699 -19 23 -19
c27.333 0 60.833 14.333 100.5 43l59.5 43h1v-1z" />
    <glyph glyph-name="d" unicode="d" horiz-adv-x="288" 
d="M496 432c-106.667 -106.667 -202.664 -220.998 -287.997 -342.998c-26.667 -38 -40 -59.667 -40 -65c0 -6 3.66699 -9 11 -9c10.667 0 31 12.333 61 37c34.667 28.667 55 44.667 61 48l1 -2c-8.66699 -17.333 -32.167 -39 -70.5 -65s-66.833 -39 -85.5 -39s-28 8 -28 24
c0 12 4.66699 23 14 33h-1c-42 -38 -80 -57 -114 -57c-24.667 0 -37 11 -37 33c0 19.333 9.33301 39.666 28 60.999h-1c-10 -10.667 -16.667 -16 -20 -16c-0.666992 0 -1.33398 0.333008 -2.00098 1v2c0 1.33301 0.333008 2.66602 1 3.99902
c17.333 20 45.166 40.5 83.499 61.5s69.833 31.5 94.5 31.5c27.333 0 38.666 -10.667 33.999 -32h1c155.333 199.333 249.333 299 282 299c9.33301 0 14.333 -2.33301 15 -7zM188.003 143.002c0 12 -6 18 -18 18c-17.333 0 -46.333 -19.167 -87 -57.5s-61 -65.833 -61 -82.5
c0 -8 4.66699 -12 14 -12c19.333 0 49.5 18 90.5 54s61.5 62.667 61.5 80z" />
    <glyph glyph-name="e" unicode="e" horiz-adv-x="212" 
d="M227 98c0 -2 -3.00098 -6.00098 -9.00098 -12.001c-24.667 -25.333 -52 -46.666 -82 -63.999c-35.333 -20.667 -68 -31 -98 -31c-36.667 0 -55 12.333 -55 37c0 18 8 37.667 24 59h-1c-9.33301 -10 -15.666 -15 -18.999 -15c-0.666992 0 -1.33398 0.333008 -2.00098 1v2
l1 4c18.667 20.667 46 41 82 61c38.667 20.667 70.334 31 95.001 31c19.333 0 29 -8.66699 29 -26c0 -30 -50.333 -61 -151 -93c-4 -13.333 -6 -22.333 -6 -27c0 -12 7.66699 -18 23 -18c20.667 0 45 8 73 24c19.333 11.333 40.333 26.333 63 45
c19.333 16.667 29.333 25 30 25c2 0 3 -1 3 -3zM156.999 148.999c0 6 -4.00098 9 -12.001 9c-13.333 0 -31.666 -12.667 -54.999 -38c-18 -19.333 -32.333 -38.333 -43 -57v-1c73.333 23.333 110 52.333 110 87z" />
    <glyph glyph-name="f" unicode="f" horiz-adv-x="171" 
d="M535 542c0 -26 -22.667 -59.832 -68 -101.499s-129.666 -112.834 -252.999 -213.501c-19.333 -14.667 -47 -37.334 -83 -68.001c-8.66699 -8 -48 -59.667 -118 -155c52.667 14.667 105.667 44.667 159 90c5.33301 4.66699 8.66602 7 9.99902 7c2 0 3 -0.333008 3 -1
c0 -3.33301 -2.66699 -7.66602 -8 -12.999c-16 -16.667 -37.667 -33.334 -65 -50.001c-32 -15.333 -67 -34 -105 -56c-5.33301 -7.33301 -10.666 -19.333 -15.999 -36c-4.66699 -13.333 -9 -26.333 -13 -39c-22.667 -59.333 -53 -120 -91 -182
c-52.667 -85.333 -96.667 -128 -132 -128c-15.333 0 -23 7.66699 -23 23c0 70 108 240 324 510h-1c-14 -13.333 -34.333 -29 -61 -47c0.666992 4 13.667 17 39 39l45 37l114 141c45.333 54.667 94.666 107.334 147.999 158.001c78 74.667 133.333 112 166 112
c19.333 0 29 -9 29 -27zM510 540.001c0 12 -5.33203 18 -15.999 18c-24.667 0 -83.334 -54.333 -176.001 -163c-62 -72 -118.333 -142 -169 -210v-1l202 176c106 95.333 159 155.333 159 180zM-8.99902 -24.999l-0.999023 -0.000976562
c-39.333 -52.667 -81.333 -112 -126 -178c-66 -97.333 -99 -154.666 -99 -171.999c0 -6.66699 3 -10 9 -10c26 0 69 51.333 129 154c33.333 57.333 62.666 126 87.999 206z" />
    <glyph glyph-name="g" unicode="g" horiz-adv-x="285" 
d="M299 98c0 -10 -27.333 -33.665 -82 -70.998c-36 -25.333 -69.333 -47 -100 -65c-115.333 -173.333 -229.666 -289 -342.999 -347c-27.333 -14 -50.333 -21 -69 -21c-32 0 -48 11.667 -48 35c0 30.667 29 70 87 118c42 35.333 100.667 76.333 176 123l143 85
c16 21.333 37 51.666 63 90.999v1c-42 -35.333 -78.333 -53 -109 -53c-25.333 0 -38 11 -38 33c0 21.333 9.33301 41 28 59v1c-12 -10 -18.667 -15 -20 -15c-0.666992 0 -1.33398 0.333008 -2.00098 1v2l1 4c18 20.667 46.167 41.167 84.5 61.5s70.166 30.5 95.499 30.5
c24 0 34.667 -11.333 32 -34h1c20 22.667 36 34 48 34s18 -2.33301 18 -7c0 -2 -5.16699 -9.16699 -15.5 -21.5s-51.5 -67.166 -123.5 -164.499v-1l46 30c30 19.333 56.333 38 79 56c8.66699 9.33301 24.334 21.666 47.001 36.999c0.666992 -0.666992 1 -1.33398 1 -2.00098
zM189 143.002c0 12 -6 18 -18 18c-17.333 0 -46.333 -19.167 -87 -57.5s-61 -65.833 -61 -82.5c0 -8 4.66699 -12 14 -12c19.333 0 49.5 18 90.5 54s61.5 62.667 61.5 80zM54 -61.998v1c-130 -82 -200.667 -127 -212 -135c-100 -72 -150 -129.333 -150 -172
c0 -16.667 9.33301 -25 28 -25c64.667 0 176 110.333 334 331z" />
    <glyph glyph-name="h" unicode="h" horiz-adv-x="317" 
d="M534 542c0 -26 -22.665 -59.666 -67.998 -100.999c-56 -51.333 -141.333 -123 -256 -215c-20.667 -14.667 -49.334 -37.334 -86.001 -68.001c-12 -12 -26 -30 -42 -54l-37 -56l3 -1c98 82.667 163 124 195 124c20.667 0 31 -7.33301 31 -22c0 -12 -13 -34 -39 -66
s-39 -52.333 -39 -61l1 -4c2 -0.666992 4.33301 -1 7 -1c14 0 37.667 13.5 71 40.5s51.666 40.833 54.999 41.5v-2c0 -1.33301 -2.66699 -5 -8 -11c-20 -20.667 -43 -40 -69 -58c-33.333 -22.667 -60.333 -34 -81 -34s-31 6.66699 -31 20c0 17.333 14.833 43.333 44.5 78
s44.5 53.667 44.5 57s-2.33301 5 -7 5c-20 0 -61.833 -26.333 -125.5 -79s-101.167 -79 -112.5 -79s-17 2 -17 6c0 6.66699 11 26 33 58c17.333 26 31.333 45.667 42 59v1c-28 -26 -44 -39 -48 -39l-1 1c0.666992 5.33301 11 16.666 31 33.999l39 32
c0.666992 0.666992 19.667 25 57 73c51.333 66.667 111.333 134.334 180 203.001c96 96.667 163 145 201 145c21.333 0 32 -9 32 -27zM508.002 539.001c0 12.667 -5.66699 19.001 -17 19.001c-27.333 0 -89.333 -56 -186 -168
c-69.333 -80.667 -124.333 -149.334 -165 -206.001v-1l204 171c109.333 96 164 157.667 164 185z" />
    <glyph glyph-name="i" unicode="i" horiz-adv-x="161" 
d="M235 293c0 -9.33301 -6.5 -18.667 -19.5 -28s-24.5 -14 -34.5 -14c-2.66699 2.66699 -4 8.66699 -4 18c0 23.333 14.667 35 44 35c9.33301 0 14 -3.66699 14 -11zM176 97.999c0 -7.33301 -22.668 -28.668 -68.001 -64.001c-35.333 -27.333 -64.333 -41 -87 -41
c-20 0 -30 7.66699 -30 23s11.667 38 35 68c19.333 25.333 37.666 45 54.999 59v1c-10.667 -7.33301 -26.667 -19.333 -48 -36c-8 -7.33301 -20 -17.666 -36 -30.999c-4 -2.66699 -7.33301 -4 -10 -4l-1 2c6.66699 15.333 28.334 34.833 65.001 58.5
s64.334 35.5 83.001 35.5c4.66699 0 8.66699 -0.666992 12 -2v-2c0 -1.33301 -17 -22.5 -51 -63.5s-51 -66.833 -51 -77.5c0.666992 -2 1.66699 -4 3 -6s3.33301 -3 6 -3c11.333 0 32.5 13.5 63.5 40.5s50.833 41.5 59.5 43.5v-1z" />
    <glyph glyph-name="j" unicode="j" horiz-adv-x="165" 
d="M228 293c0 -9.33301 -6.5 -18.5 -19.5 -27.5s-24.5 -13.5 -34.5 -13.5c-2.66699 2.66699 -4 7 -4 13c0 26 14 39 42 39c10.667 0 16 -3.66699 16 -11zM180 97l-8.00195 -11c-9.33301 -12 -38 -34.333 -86 -67c-40.667 -27.333 -73 -47.666 -97 -60.999
c-52 -74.667 -94.333 -130.667 -127 -168c-48.667 -55.333 -100.667 -102.333 -156 -141c-52.667 -36.667 -95.334 -55 -128.001 -55c-28 0 -42 11.333 -42 34c0 61.333 133 169.666 399 324.999l71 98c32 44 57 75 75 93v1c-11.333 -8 -27.333 -20.333 -48 -37
c-8 -8 -20 -18.333 -36 -31c-3.33301 -2 -6.66602 -3.33301 -9.99902 -4l-1 2c2.66699 6 11 15 25 27c28.667 23.333 48 38.333 58 45c24 15.333 46.333 23 67 23c4 0 7 -1 9 -3l-146 -191v-1c67.333 38 123 77.333 167 118c4.66699 4.66699 8.33398 7 11.001 7
c0.666992 0 1.33398 -0.333008 2.00098 -1zM-76.002 -65v1.00098l-83 -54c-76.667 -46.667 -130.667 -82.334 -162 -107.001c-74 -57.333 -111 -106 -111 -146c0 -14 10 -21 30 -21c41.333 0 102 45.667 182 137c52.667 60.667 100.667 124 144 190z" />
    <glyph glyph-name="k" unicode="k" horiz-adv-x="312" 
d="M534 542c0 -26 -22.6689 -59.667 -68.002 -101c-62.667 -57.333 -121.334 -107.666 -176.001 -150.999l-87 -64c-36 -26.667 -62.333 -49.334 -79 -68.001c-11.333 -12.667 -25 -30.667 -41 -54c-19.333 -29.333 -32.333 -48 -39 -56l2 -1c43.333 39.333 73.333 65 90 77
c42 31.333 77 47 105 47c28.667 0 43 -9.66699 43 -29c0 -14.667 -8.5 -23.667 -25.5 -27s-33.5 -6.33301 -49.5 -9c-17.333 -6.66699 -26 -20.334 -26 -41.001c0 -31.333 6.66699 -47 20 -47c14 0 36.667 13.333 68 40s49.333 40.334 54 41.001v-2
c0 -7.33301 -23 -28.666 -69 -63.999c-34 -26 -62.667 -39 -86 -39c-22.667 0 -34 13.667 -34 41c0 29.333 8.66699 50.333 26 63c6.66699 4.66699 22.667 11 48 19c17.333 5.33301 26 13.666 26 24.999c0 10.667 -5 16 -15 16c-24.667 0 -66.5 -27 -125.5 -81
s-95.5 -81 -109.5 -81c-8 0 -13.333 1 -16 3v4c-1.33301 16 22.334 54 71.001 114v1c-24.667 -24.667 -39.667 -37 -45 -37c-1.33301 0 -2 0.333008 -2 1c0.666992 4.66699 11 15.667 31 33c24.667 21.333 37.334 32.333 38.001 33l57 73
c52.667 66.667 111.334 132.667 176.001 198c98 100 166.667 150 206 150c21.333 0 32 -9 32 -27zM507.998 539c0 12.667 -5.66699 19 -17 19c-41.333 0 -158.333 -124.667 -351 -374v-1l204 171c109.333 96 164 157.667 164 185z" />
    <glyph glyph-name="l" unicode="l" horiz-adv-x="167" 
d="M527 542c0 -24.667 -22.833 -58.5 -68.5 -101.5s-157.167 -137.167 -334.5 -282.5c-8.66699 -6.66699 -23.834 -28 -45.501 -64s-32.5 -58.667 -32.5 -68l2 -5c2.66699 -2.66699 5.33398 -4 8.00098 -4c22.667 0 59.667 25.333 111 76l13 6v-2
c0 -6.66699 -22.667 -27.667 -68 -63c-34.667 -26.667 -64.667 -40 -90 -40c-20.667 0 -31 7.66699 -31 23c0 20 18.333 55 55 105h-1c-29.333 -27.333 -46 -41 -50 -41l-1 1c0.666992 5.33301 11.667 17 33 35l40 34l52 66c189.333 234.667 315 352 377 352
c20.667 0 31 -9 31 -27zM502 539c0 12.667 -5.66699 18.999 -17 18.999c-24.667 0 -85 -56.333 -181 -169c-70 -81.333 -124.667 -149.666 -164 -204.999v-1l206 177c104 93.333 156 153 156 179z" />
    <glyph glyph-name="m" unicode="m" horiz-adv-x="512" 
d="M525 98c0 -8 -23 -29.335 -69 -64.002c-36 -26.667 -66 -40 -90 -40c-19.333 0 -29 7.66699 -29 23s14.667 40.333 44 75s44 53.667 44 57s-2.33301 5 -7 5c-20 0 -61.333 -26.333 -124 -79s-100.667 -79 -114 -79c-10.667 0 -16 2 -16 6c0 13.333 16.833 40.5 50.5 81.5
s50.5 62.5 50.5 64.5c0 4 -2.66699 6 -8 6c-18 0 -59.333 -26.333 -124 -79s-102.334 -79 -113.001 -79c-11.333 0 -17 2 -17 6c0 9.33301 16 35.166 48 77.499s48.333 63.833 49 64.5c-1.33301 4 -3.33301 6 -6 6c-11.333 0 -31.666 -13 -60.999 -39s-44.333 -39 -45 -39
c-2.66699 0 -4 1.33301 -4 4c0 4 21.667 24.333 65 61c26.667 22.667 50 34 70 34c16.667 0 25 -7.66699 25 -23c0 -11.333 -21.333 -44.666 -64 -99.999l3 -1c98 82.667 162.667 124 194 124c21.333 0 32 -7.66699 32 -23c0 -11.333 -9 -28.333 -27 -51l-42 -49l3 -1
c98 82.667 163 124 195 124c20.667 0 31 -7.33301 31 -22c0 -11.333 -13 -33.166 -39 -65.499s-39 -52.833 -39 -61.5l1 -4c2 -0.666992 4.33301 -1 7 -1c14 0 35.333 11.667 64 35c36 28.667 56.667 44.334 62 47.001v-1z" />
    <glyph glyph-name="n" unicode="n" horiz-adv-x="352" 
d="M367 98c0 -2.66699 -10.667 -13 -32 -31c-18 -16 -31 -27 -39 -33c-36 -26.667 -66 -40 -90 -40c-20 0 -30 6.66699 -30 20c0 17.333 14.833 43.333 44.5 78s44.5 53.667 44.5 57s-2.33301 5 -7 5c-20 0 -61.833 -26.333 -125.5 -79s-101.167 -79 -112.5 -79s-17 2 -17 6
c0 9.33301 16 35.166 48 77.499s48.333 63.833 49 64.5c-1.33301 4 -3.33301 6 -6 6c-11.333 0 -31.666 -13 -60.999 -39s-44.333 -39 -45 -39c-2.66699 0 -4 1.33301 -4 4c0 7.33301 18.5 25 55.5 53s63.5 42 79.5 42c16.667 0 25 -7.66699 25 -23
c0 -11.333 -21.333 -44.666 -64 -99.999l3 -1c98 82.667 163 124 195 124c20.667 0 31 -7.33301 31 -22c0 -12 -13 -34 -39 -66s-39 -52.333 -39 -61l1 -4c2 -0.666992 4.33301 -1 7 -1c14.667 0 38.667 13.833 72 41.5s50.666 41.5 51.999 41.5l3 -1.5z" />
    <glyph glyph-name="o" unicode="o" horiz-adv-x="248" 
d="M262 97c0 -8 -12.666 -19.998 -37.999 -35.998s-43 -24 -53 -24c-8.66699 0 -14.667 1 -18 3c-46.667 -32.667 -84.667 -49 -114 -49c-32.667 0 -49 12.333 -49 37s9.33301 47.667 28 69v1c-17.333 -17.333 -28 -26 -32 -26c-0.666992 0 -1 0.333008 -1 1v2l1 4
c20.667 22 48.667 42.667 84 62c38 20 70.667 30.333 98 31l6 -5c-0.666992 -0.666992 -4.33398 -2.66699 -11.001 -6c-22 -10.667 -48.333 -31.667 -79 -63c-34 -34.667 -51 -62.334 -51 -83.001c0 -9.33301 4.66699 -14 14 -14c26 0 57 20.333 93 61
c8.66699 34.667 25.334 57.334 50.001 68.001c2 4.66699 3 13 3 25c0 1.33301 -0.5 3.16602 -1.5 5.49902s-1.5 4.16602 -1.5 5.49902c0 2.66699 2 4 6 4c6 0 11.167 -4.16699 15.5 -12.5s6.5 -15.833 6.5 -22.5c0 -23.333 -19 -52.666 -57 -87.999c2 -0.666992 4 -1 6 -1
c15.333 0 32.666 8 51.999 24c22 18 36 27.667 42 29c0.666992 -0.666992 1 -1.33398 1 -2.00098z" />
    <glyph glyph-name="p" unicode="p" horiz-adv-x="326" 
d="M340 99c-1.33301 -10 -24.333 -31.6719 -69 -65.0049c-35.333 -26.667 -65.333 -40 -90 -40c-22 0 -33 7.66699 -33 23c0 17.333 15.167 42.333 45.5 75s45.5 51.334 45.5 56.001c0 3.33301 -2.66699 5 -8 5c-34.667 0 -102 -62 -202 -186
c-40 -49.333 -103.667 -134.666 -191 -255.999l-38 -56c-18 -24.667 -31.667 -40.834 -41 -48.501s-17.333 -11.5 -24 -11.5c-15.333 0 -23 8.33301 -23 25s11 41.334 33 74.001c132 192.667 250.667 352.334 356 479.001h-1c-70.667 -66 -109 -99 -115 -99v0
c3.33301 8 61 62.667 173 164c14.667 13.333 27.667 20 39 20c10 0 15 -1.33301 15 -4c0 -1.33301 -5.33301 -8.33301 -16 -21c-36.667 -42.667 -98 -120.667 -184 -234c-78.667 -102.667 -143.667 -191.667 -195 -267c-42.667 -62 -64 -96.667 -64 -104v-3
c0.666992 -0.666992 1.33398 -1 2.00098 -1c7.33301 0 44.333 47.333 111 142c84 119.333 150.667 207 200 263c82 94.667 145 142 189 142c20.667 0 31 -6.66699 31 -20s-13.833 -35.166 -41.5 -65.499s-41.5 -50.166 -41.5 -59.499c0 -6 3.33301 -9 10 -9
c14.667 0 38.667 13.5 72 40.5s51.666 40.833 54.999 41.5z" />
    <glyph glyph-name="q" unicode="q" horiz-adv-x="274" 
d="M287 97c0 -0.666992 -11.6689 -12.667 -35.002 -36c-40.667 -40.667 -72.667 -74.667 -96 -102c-54 -63.333 -115 -143.666 -183 -240.999l-39 -58c-16.667 -22.667 -32 -40 -46 -52c-10 -8.66699 -19.667 -13 -29 -13c-12.667 0 -19 7.33301 -19 22
c0 22.667 46.667 99.334 140 230.001c60 85.333 110 153.333 150 204v1c-38.667 -38.667 -76.667 -58 -114 -58c-24.667 0 -37 11 -37 33c0 21.333 9.33301 41 28 59v1c-12 -10 -18.667 -15 -20 -15c-0.666992 0 -1.33398 0.333008 -2.00098 1v2l1 4
c16 19.333 43.833 39.666 83.5 60.999s70.834 32 93.501 32c23.333 0 35 -8.66699 35 -26c0 -4 -0.666992 -8.33301 -2 -13h1c23.333 25.333 40 38 50 38c12 0 18 -2.33301 18 -7c0 1.33301 -22.333 -27.334 -67 -86.001c-210.667 -276.667 -316 -426.667 -316 -450
c0 -0.666992 0.333008 -1.5 1 -2.5s1.33398 -1.5 2.00098 -1.5c6.66699 0 21 16 43 48c115.333 164 213 287.667 293 371l31 32c16.667 15.333 28.334 23.333 35.001 24v-2zM188.998 143c0 12 -6.33301 18 -19 18c-17.333 0 -46.166 -19.333 -86.499 -58
s-60.5 -66 -60.5 -82c0 -8 4.33301 -12 13 -12c19.333 0 49.666 18 90.999 54s62 62.667 62 80z" />
    <glyph glyph-name="r" unicode="r" horiz-adv-x="205" 
d="M219 98c0 -9.33301 -23.001 -30.6699 -69.001 -64.0029c-36 -26.667 -65.667 -40 -89 -40c-20.667 0 -31 8 -31 24c0 20 19 46.833 57 80.5s57 50.834 57 51.501c0 4 -3.66699 6.33301 -11 7c-5.33301 0.666992 -12.666 0.666992 -21.999 0l-17 -2c-3.33301 0 -8 1 -14 3
c-4.66699 -6 -20.667 -21.667 -48 -47s-42.333 -38 -45 -38c-2 0 -3 1 -3 3c0 1.33301 2.66699 4.33301 8 9c11.333 9.33301 38 35 80 77c-4.66699 2.66699 -7 7.33398 -7 14.001c0 10 4.83301 18.333 14.5 25s19.834 10 30.501 10c9.33301 0 15.333 -3.33301 18 -10
c-5.33301 -4 -10.333 -8 -15 -12c-6.66699 -5.33301 -10 -10.666 -10 -15.999c0 -4.66699 11.333 -7.66699 34 -9s34 -8 34 -20c0 -6.66699 -14 -25.167 -42 -55.5s-42 -51.833 -42 -64.5c0 -2 1 -4 3 -6h5c12.667 -0.666992 36.167 13 70.5 41s51.166 42 50.499 42
c2 0 3 -1 3 -3z" />
    <glyph glyph-name="s" unicode="s" horiz-adv-x="228" 
d="M242 98c0 -3.33301 -10 -13.665 -30 -30.998c-58.667 -50.667 -118.334 -76 -179.001 -76c-40.667 0 -61 16.333 -61 49c0 14.667 4.83301 28.667 14.5 42s21.5 20 35.5 20c14.667 0 22 -5 22 -15s-7.66699 -20.333 -23 -31s-23 -21.667 -23 -33
c0 -14.667 9.66699 -22 29 -22c20 0 37.667 10.667 53 32c10 12.667 21.167 34.5 33.5 65.5s21.5 50.5 27.5 58.5v1c-53.333 -43.333 -84.666 -65 -93.999 -65c-0.666992 0 -1.33398 0.333008 -2.00098 1c1.33301 4 17.333 17.333 48 40c34 24.667 53.333 39.667 58 45
c16 18.667 31 28 45 28c8.66699 0 13 -1.33301 13 -4c0 -4 -14 -14.667 -42 -32c-4 -2.66699 -6 -25.334 -6 -68.001c0 -14.667 -4 -30 -12 -46s-18 -28 -30 -36v-1c31.333 14.667 58.833 31.667 82.5 51s36.834 29 39.501 29c0.666992 -0.666992 1 -1.33398 1 -2.00098z
" />
    <glyph glyph-name="t" unicode="t" horiz-adv-x="167" 
d="M252 307c-27.333 -24.667 -67.999 -71.001 -121.999 -139.001c5.33301 0.666992 10.666 1 15.999 1h41c10 0 15 -1.66699 15 -5c0 -4.66699 -11 -7 -33 -7h-47c-51.333 -66.667 -77 -109.667 -77 -129c0 -8 3.33301 -12 10 -12c12.667 0 36.334 14 71.001 42l52 42
c1.33301 0 2 -0.666992 2 -2c0 -7.33301 -22.667 -28.666 -68 -63.999c-35.333 -27.333 -66 -41 -92 -41c-20 0 -30 8 -30 24c0 20.667 18 55 54 103v1c-15.333 -14.667 -34.333 -31 -57 -49c-2 0.666992 -3 2 -3 4s12.333 14 37 36c30.667 26.667 47.667 41.667 51 45
c-4.66699 0 -11.334 -0.333008 -20.001 -1s-15 -1 -19 -1l-6 1c-1.33301 1.33301 -2 3 -2 5c0 4 9 6 27 6c16 0 25.333 0.333008 28 1c76.667 96.667 129 145 157 145c6 0 11 -2 15 -6z" />
    <glyph glyph-name="u" unicode="u" horiz-adv-x="320" 
d="M333 98c0 -8 -22.6689 -29.333 -68.002 -64c-35.333 -26.667 -64 -40 -86 -40c-20.667 0 -31 8 -31 24c0 20 18.333 48.333 55 85l-2 2c-89.333 -74 -148.666 -111 -177.999 -111c-22 0 -33 8 -33 24c0 26 30 67.667 90 125v1c-10.667 -7.33301 -26.667 -19.333 -48 -36
c-8 -7.33301 -20 -17.666 -36 -30.999c-4 -2.66699 -7.33301 -4 -10 -4l-1 2c11.333 18 33 37.667 65 59c34.667 23.333 62 35 82 35c6.66699 0 10.667 -1 12 -3c-0.666992 -1.33301 -19 -25 -55 -71c-30 -38 -45 -61.667 -45 -71c0.666992 -0.666992 1.66699 -2 3 -4
s3.66602 -3 6.99902 -3c16 0 82.333 47.667 199 143c8.66699 7.33301 18.334 11 29.001 11c14 0 21 -1.66699 21 -5s-16.833 -25 -50.5 -65s-50.5 -65 -50.5 -75c0 -2.66699 0.666992 -4.83398 2 -6.50098s3.33301 -2.5 6 -2.5c22.667 0 59.334 25.333 110.001 76l13 6v-1z
" />
    <glyph glyph-name="v" unicode="v" horiz-adv-x="295" 
d="M309 99c-24.667 -36 -54.0029 -53.9971 -88.0029 -53.9971c-18 0 -28.333 6.33301 -31 19c-83.333 -48.667 -140.666 -73 -171.999 -73c-10 0 -15 4.66699 -15 14c0 4 16.167 25.167 48.5 63.5s48.833 63.166 49.5 74.499l-3 5l-6 2
c-21.333 -8.66699 -52.666 -32.334 -93.999 -71.001c-4.66699 -4.66699 -8 -7 -10 -7c-2.66699 0 -4 1.33301 -4 4c0 6.66699 18.5 24.167 55.5 52.5s63.5 42.5 79.5 42.5c18.667 0 28 -9.33301 28 -28c0 -34 -30.667 -78 -92 -132v-1c16.667 4.66699 40.167 14.5 70.5 29.5
s51.5 27.5 63.5 37.5c2.66699 17.333 10.334 36.666 23.001 57.999c15.333 24 30.333 36 45 36c8 0 12 -4.66699 12 -14c0 -14 -8.66699 -30.333 -26 -49c-13.333 -15.333 -28 -28 -44 -38c1.33301 -10.667 9.33301 -16 24 -16c15.333 0 33 7.66699 53 23s30.667 23 32 23
c0.666992 0 1 -0.333008 1 -1z" />
    <glyph glyph-name="w" unicode="w" horiz-adv-x="426" 
d="M440 97c0 -8 -11.502 -18.6641 -34.502 -31.9971s-40.167 -20 -51.5 -20c-15.333 0 -25.666 4.66699 -30.999 14c-54.667 -44 -100.667 -66 -138 -66c-23.333 0 -35 8.66699 -35 26c0 13.333 5.33301 27.666 16 42.999l28 36l-2 2c-82.667 -71.333 -139 -107 -169 -107
c-18 0 -27 8.33301 -27 25c0 32.667 32 76.667 96 132v1c-12 -4.66699 -31.833 -18.834 -59.5 -42.501s-42.5 -35.834 -44.5 -36.501l-3 3c2.66699 6.66699 15.667 19.334 39 38.001c46 37.333 82.333 56 109 56c12.667 0 19 -1.33301 19 -4
c0 -0.666992 -17.5 -20 -52.5 -58s-52.5 -64.333 -52.5 -79c0 -7.33301 3 -11 9 -11c16 0 52.333 24.167 109 72.5s90.667 72.5 102 72.5c14 0 21 -1.66699 21 -5c0 -2 -14.833 -21.833 -44.5 -59.5s-44.5 -62.834 -44.5 -75.501c0 -7.33301 4.66699 -11 14 -11
c12.667 0 31.667 7.66699 57 23c23.333 14 39.666 26.667 48.999 38c0 16 7.83301 36.5 23.5 61.5s30.834 37.5 45.501 37.5c8 0 12 -5.66699 12 -17c0 -18.667 -23 -48 -69 -88c3.33301 -8 11 -12 23 -12c12.667 0 29.667 7.66699 51 23s32.333 23 33 23
s1.33398 -1 2.00098 -3z" />
    <glyph glyph-name="x" unicode="x" horiz-adv-x="285" 
d="M293 92c0 -4.66699 -9.33008 -14.667 -27.9971 -30c-28.667 -23.333 -48 -38 -58 -44c-24.667 -16 -47.334 -24 -68.001 -24c-30.667 0 -46 13 -46 39c0 4.66699 0.666992 10 2 16h-1c-22.667 -36.667 -47.334 -55 -74.001 -55c-25.333 0 -38 10.667 -38 32
c0 12 3.66699 22.667 11 32s16.666 14 27.999 14c14 0 21 -5.66699 21 -17c0.666992 -0.666992 1 -1.33398 1 -2.00098c0 -3.33301 -3.83301 -8.66602 -11.5 -15.999s-11.5 -14 -11.5 -20c0 -4.66699 3.66699 -7 11 -7c14 0 35 18 63 54s42 61.667 42 77
c0 10.667 -6 16 -18 16c-16.667 0 -42.5 -14.167 -77.5 -42.5s-53.167 -42.5 -54.5 -42.5c-0.666992 0 -1 0.333008 -1 1v2l1 4c32 29.333 54.667 49 68 59c30 22 56.333 33 79 33c29.333 0 44 -12.667 44 -38c0 -4.66699 -0.666992 -10 -2 -16h1c32 36 58.333 54 79 54
c19.333 0 29 -8 29 -24c0 -25.333 -11 -38 -33 -38c-10.667 0 -16 3.66699 -16 11c0 6.66699 3.66699 14.667 11 24c0.666992 4.66699 -2 7 -8 7c-14 0 -34.667 -16.833 -62 -50.5s-41 -58.167 -41 -73.5c0 -12 7 -18 21 -18c21.333 0 49 14 83 42s51.667 42 53 42
c0.666992 0 1 -0.333008 1 -1z" />
    <glyph glyph-name="y" unicode="y" horiz-adv-x="313" 
d="M328 97c0 -2 -3.33398 -6.00195 -10.001 -12.002c-51.333 -48.667 -92 -90.667 -122 -126c-55.333 -64.667 -116.333 -145 -183 -241c-22 -32 -35.667 -51.333 -41 -58c-18.667 -25.333 -33.167 -42.5 -43.5 -51.5s-20.166 -13.5 -29.499 -13.5
c-12.667 0 -19 7.33301 -19 22c0 24.667 43.333 96.667 130 216l200 276l-3 1c-97.333 -78 -160 -117 -188 -117c-17.333 0 -26 8 -26 24c0 30 29 72 87 126v1c-10.667 -7.33301 -26.667 -19.333 -48 -36c-8 -7.33301 -20 -17.666 -36 -30.999
c-4 -2.66699 -7.33301 -4 -10 -4l-1 2c0 6.66699 25 29 75 67c24 18 48 27 72 27c4.66699 0 8.66699 -1 12 -3v-2c0 -0.666992 -16.667 -22 -50 -64s-50 -67.667 -50 -77c0 -4 2 -6 6 -6c14 0 47.667 20.667 101 62l101 81c9.33301 7.33301 19 11 29 11
c13.333 0 20 -1.66699 20 -5l-189.5 -256.5c-126.333 -171 -189.5 -264.833 -189.5 -281.5c0 -0.666992 0.333008 -1.5 1 -2.5s1.33398 -1.5 2.00098 -1.5c5.33301 0 13.666 7.66699 24.999 23l169 234c67.333 88.667 132.333 159.334 195 212.001c5.33301 4.66699 9 7 11 7
s3 -1 3 -3z" />
    <glyph glyph-name="z" unicode="z" horiz-adv-x="244" 
d="M259 98c0 -8 -43.999 -42.001 -131.999 -102.001c0.666992 -4.66699 1 -10 1 -16c0 -34 -20.333 -77 -61 -129c-29.333 -38 -63 -73.667 -101 -107c-113.333 -99.333 -199 -149 -257 -149c-28 0 -42 11.667 -42 35c0 44.667 58 109 174 193
c27.333 19.333 111.333 73.333 252 162c0.666992 4 1 7.66699 1 11c0 22 -9.33301 33 -28 33c-14.667 0 -29.334 -5.33301 -44.001 -16l-37 -28c-4 6 -6 8.33301 -6 7c0 2 2 6 6 12c16.667 14 30.667 24 42 30l91 45c34.667 19.333 61.334 39.333 80.001 60
c3.33301 3.33301 4.66602 6.33301 3.99902 9l-2 2l-46 -18c-18 -7.33301 -34 -11 -48 -11c-25.333 0 -41.333 6 -48 18c-42.667 -44 -66 -66 -70 -66c-0.666992 0 -1.66699 0.333008 -3 1v3v2c22.667 25.333 45.334 48.333 68.001 69v4c0 28.667 14.333 43 43 43
c11.333 0 17 -3.33301 17 -10c-11.333 -8 -17 -15.667 -17 -23c0 -8.66699 9.66699 -13 29 -13c15.333 0 34.333 3.33301 57 10s34.667 10 36 10c6.66699 0 10 -2.33301 10 -7s-2.66699 -10.667 -8 -18c-17.333 -23.333 -43.333 -44.666 -78 -63.999l-92 -44v-1
c9.33301 2.66699 15.666 4 18.999 4c28 0 46.333 -11.333 55 -34l90 62c6 6 16 14.667 30 26c6 4 10.333 6 13 6h1zM90.001 -26.001l-155 -100c-162.667 -104 -244 -186.333 -244 -247c0 -14 7.66699 -21 23 -21c49.333 0 121.333 49.333 216 148
c90 92.667 143.333 166 160 220z" />
    <glyph glyph-name="braceleft" unicode="{" horiz-adv-x="295" 
d="M555 463l-5.99805 -8.00098c-4.66699 0 -11.334 0.333008 -20.001 1h-20c-34 0 -64.333 -6.66699 -91 -20c-20 -10 -41 -35.333 -63 -76c-28 -50.667 -49 -84 -63 -100c-30.667 -34 -68.667 -52 -114 -54c10 -10 15 -23.667 15 -41c0 -20 -19.833 -54.333 -59.5 -103
s-59.5 -80.334 -59.5 -95.001c0 -17.333 11.333 -30 34 -38c10 -3.33301 28.667 -6.66602 56 -9.99902l-6 -6c-72 0 -108 20 -108 60c0 23.333 19.667 59.333 59 108s59 81.334 59 98.001c0 17.333 -9.66699 28.333 -29 33v1c46 0 83.667 15.667 113 47
c8.66699 9.33301 30 42 64 98c25.333 42 53 71 83 87c25.333 13.333 65.666 20 120.999 20z" />
    <glyph glyph-name="bar" unicode="|" horiz-adv-x="144" 
d="M82 -250h-20v1000h20v-1000z" />
    <glyph glyph-name="braceright" unicode="}" horiz-adv-x="295" 
d="M366 404c0 -22 -19.0029 -56.666 -57.0029 -103.999s-57 -79.333 -57 -96s9.66699 -26.667 29 -30v-1c-3.33301 0.666992 -6.66602 1 -9.99902 1c-4.66699 0 -9.66699 -0.666992 -15 -2c-33.333 -7.33301 -61.666 -23.666 -84.999 -48.999
c-13.333 -14.667 -30.833 -40.667 -52.5 -78s-40.167 -64 -55.5 -80c-33.333 -35.333 -88.666 -53 -165.999 -53c-0.666992 0 -12.667 0.666992 -36 2l6 7c48 0 82 2.33301 102 7c29.333 6.66699 57.333 32 84 76c44 71.333 68 109.333 72 114c33.333 39.333 74 60 122 62
c-14 11.333 -21 24.666 -21 39.999c0 16.667 19.333 48.667 58 96s58 78.333 58 93c0 25.333 -29.667 41.666 -89 48.999l5 5c72 0 108 -19.667 108 -59z" />
    <glyph glyph-name="asciitilde" unicode="~" horiz-adv-x="307" 
d="M308 153c0 -3.33301 -0.668945 -5.33398 -2.00195 -6.00098c0 0.666992 -1.33301 2.66699 -4 6c-14.667 18.667 -40.667 28 -78 28c-13.333 0 -33.166 -3.83301 -59.499 -11.5s-46.5 -11.5 -60.5 -11.5c-10 0 -21.167 3.66699 -33.5 11s-18.5 16 -18.5 26
c0 1.33301 0.333008 2.33301 1 3c4 -3.33301 7.66699 -6.66602 11 -9.99902c6.66699 -6 15.334 -9 26.001 -9c16 0 38.833 5.83301 68.5 17.5s52.5 17.5 68.5 17.5c20.667 0 38.667 -4.66699 54 -14c18 -11.333 27 -27 27 -47z" />
    <glyph glyph-name="currency" unicode="&#xa4;" horiz-adv-x="320" 
d="M329 244c0 -6 -17 -21.6641 -51 -46.9971c4 -8 6 -16.667 6 -26c0 -40 -20.333 -76.667 -61 -110c20.667 -28.667 31 -46.334 31 -53.001c0 -5.33301 -2.33301 -8 -7 -8c-2.66699 0 -9.66699 7.33301 -21 22c-10 12 -16.667 21 -20 27c-26.667 -20 -53.667 -30 -81 -30
c-20 0 -37 7.66699 -51 23c-41.333 -26.667 -63.333 -40 -66 -40c-2 1.33301 -3 2.66602 -3 3.99902c0 3.33301 19.333 20.333 58 51c-4 7.33301 -6 17.666 -6 30.999c0 39.333 20 74.333 60 105c-20 32.667 -30 51 -30 55s2.33301 6 7 6c2.66699 0 6 -3.33301 10 -10
l30 -38c26.667 18.667 54 28 82 28c22.667 0 40 -7.33301 52 -22c33.333 24 52 36 56 36c3.33301 0 5 -1.33301 5 -4zM245 172.003c0 32.667 -14 49 -42 49c-26 0 -51 -17 -75 -51c-22 -31.333 -33 -61 -33 -89c0 -34 13.333 -51 40 -51c27.333 0 53 17.333 77 52
c22 31.333 33 61.333 33 90z" />
    <glyph glyph-name="brokenbar" unicode="&#xa6;" horiz-adv-x="144" 
d="M82 325h-20v350h20v-350zM82 -175h-20v350h20v-350z" />
    <glyph glyph-name="section" unicode="&#xa7;" horiz-adv-x="356" 
d="M361 282c0 -8.66699 -2.83105 -17.001 -8.49805 -25.001s-12.5 -12 -20.5 -12c-12.667 0 -19 6 -19 18c0 6 2.83301 12.667 8.5 20s8.5 12 8.5 14c0 10 -9.33301 15 -28 15s-35.167 -7 -49.5 -21s-21.5 -30.333 -21.5 -49c0 -12.667 5 -31 15 -55s15 -42.333 15 -55
c0 -27.333 -11.167 -50.166 -33.5 -68.499s-47.5 -28.5 -75.5 -30.5c4.66699 -14.667 7 -27.667 7 -39c0 -28 -12.333 -51.333 -37 -70s-51.334 -28 -80.001 -28c-18.667 0 -34.667 4.33301 -48 13c-16 10 -24 23.667 -24 41c0 10.667 3.16699 20.167 9.5 28.5
s14.5 12.5 24.5 12.5c15.333 0 23 -6.33301 23 -19c0 -8 -3.5 -16 -10.5 -24s-10.5 -13.333 -10.5 -16c0 -16.667 13.333 -25 40 -25c22 0 40.667 6.66699 56 20s23 31 23 53c0 12.667 -4.5 30.834 -13.5 54.501s-13.5 41.834 -13.5 54.501c0 8 2 16.667 6 26
c18 46.667 52.333 70 103 70c-4.66699 15.333 -7 29.666 -7 42.999c0 26.667 11.667 49 35 67c21.333 17.333 45.666 26 72.999 26c13.333 0 25.5 -3.33301 36.5 -10s16.5 -16.334 16.5 -29.001zM225.002 113.999c0 20.667 -4.99902 40.999 -14.999 60.999h-1
c-22 0 -40.833 -6.33301 -56.5 -19s-23.5 -29.667 -23.5 -51c0 -10.667 6 -31.667 18 -63c21.333 2 39.666 9.33301 54.999 22s23 29.334 23 50.001z" />
    <glyph glyph-name="copyright" unicode="&#xa9;" horiz-adv-x="509" 
d="M429 135c0 -43.333 -16.167 -79.833 -48.5 -109.5s-70.166 -44.5 -113.499 -44.5c-44 0 -82.167 14.833 -114.5 44.5s-48.5 66.167 -48.5 109.5s16.167 80 48.5 110s70.5 45 114.5 45c43.333 0 81.166 -15 113.499 -45s48.5 -66.667 48.5 -110zM403 134
c0 38 -13.333 70.333 -40 97s-58.667 40 -96 40s-69.333 -13.5 -96 -40.5s-40 -59.167 -40 -96.5s13.333 -69.166 40 -95.499s58.667 -39.5 96 -39.5s69.333 13.167 96 39.5s40 58.166 40 95.499zM342 102c0 -16.667 -2.33203 -28.333 -6.99902 -35
c-7.33301 -10.667 -25.333 -16 -54 -16c-26.667 0 -49.334 6.66699 -68.001 20c-20.667 15.333 -31 36 -31 62c0 26.667 10.333 48 31 64c18.667 14.667 41.667 22 69 22c39.333 0 59 -11.333 59 -34v-22h-15c-1.33301 28 -16 42 -44 42c-40 0 -60 -23 -60 -69
c0 -47.333 19.333 -71 58 -71c24 0 40.667 12.333 50 37h12z" />
    <glyph glyph-name="guillemotleft" unicode="&#xab;" horiz-adv-x="279" 
d="M248 163c0 -5.33301 -11 -17.668 -33 -37.001c-19.333 -16 -34 -27 -44 -33c13.333 -35.333 20 -62 20 -80c0 -6 -1 -9 -3 -9s-3.33301 1 -4 3c-12.667 25.333 -23.667 46.333 -33 63l-16 25c0 2.66699 10.667 10.334 32 23.001c18.667 10 42.334 24.667 71.001 44
c3.33301 2.66699 5.66602 4 6.99902 4h2zM163 162.998c0 -5.33301 -10.666 -17.332 -31.999 -35.999c-18.667 -16.667 -33.334 -28 -44.001 -34c12.667 -33.333 19 -60 19 -80c0 -6 -0.666992 -9 -2 -9c-4 0 -6 2.33301 -6 7c-12 27.333 -26 52.666 -42 75.999
c-3.33301 4.66699 -5 7.33398 -5 8.00098c0 4.66699 3.66699 8.66699 11 12c39.333 19.333 70 37.666 92 54.999c3.33301 2.66699 5.33301 4 6 4h2z" />
    <glyph glyph-name="logicalnot" unicode="&#xac;" horiz-adv-x="457" 
d="M413 163c0 -1.33301 -0.668945 -2.99902 -2.00195 -4.99902l-54 -62c-14.667 -18.667 -34 -41.334 -58 -68.001c-3.33301 -2.66699 -6 -4 -8 -4c-1.33301 0 -2.16602 0.333008 -2.49902 1s-0.833008 1.33398 -1.5 2.00098c0 12.667 26.333 52 79 118
c-59.333 1.33301 -148.333 3.66602 -267 6.99902c-12.667 0.666992 -19 3 -19 7c0 2.66699 2.33301 4.66699 7 6c2 0 29 0.666992 81 2c50 0.666992 101 2 153 4c44.667 1.33301 70.334 2 77.001 2c10 0 15 -3.33301 15 -10z" />
    <glyph glyph-name="sfthyphen" unicode="&#xad;" horiz-adv-x="245" 
d="M195 65l-1.99805 -5l-4 3c-6.66699 10.667 -20 16 -40 16c-8.66699 0 -21.167 -1.5 -37.5 -4.5s-28.833 -4.5 -37.5 -4.5c-22 0 -34 5.33301 -36 16l1 3h2c6.66699 -3.33301 12.667 -5 18 -5c11.333 0 26.666 5.5 45.999 16.5s34.666 16.5 45.999 16.5
c30 0 44.667 -17.333 44 -52z" />
    <glyph glyph-name="sfthyphen" unicode="&#x2212;" horiz-adv-x="245" 
d="M195 65l-1.99805 -5l-4 3c-6.66699 10.667 -20 16 -40 16c-8.66699 0 -21.167 -1.5 -37.5 -4.5s-28.833 -4.5 -37.5 -4.5c-22 0 -34 5.33301 -36 16l1 3h2c6.66699 -3.33301 12.667 -5 18 -5c11.333 0 26.666 5.5 45.999 16.5s34.666 16.5 45.999 16.5
c30 0 44.667 -17.333 44 -52z" />
    <glyph glyph-name="registered" unicode="&#xae;" horiz-adv-x="453" 
d="M366 286c0 -34.667 -13.1689 -64.5 -39.502 -89.5s-57.166 -37.5 -92.499 -37.5s-66.5 12.5 -93.5 37.5s-40.5 54.833 -40.5 89.5c0 35.333 13.5 65.5 40.5 90.5s58.167 37.5 93.5 37.5c34.667 0 65.334 -12.667 92.001 -38s40 -55.333 40 -90zM344.998 285
c0 30.667 -10.8301 56.833 -32.4971 78.5s-47.834 32.5 -78.501 32.5c-30 0 -56 -11 -78 -33s-33 -48 -33 -78c0 -29.333 11.167 -55 33.5 -77s48.166 -33 77.499 -33s55.166 11 77.499 33s33.5 47.667 33.5 77zM319.001 220.999h-7.99902c-3.33301 -0.666992 -6 -1 -8 -1
c-16 0 -29.333 6.33301 -40 19c-4 4 -12.333 16.667 -25 38c-3.33301 -0.666992 -7.33301 -1 -12 -1c-5.33301 0 -8 0.333008 -8 1v-19c0 -16.667 7.33301 -25 22 -25v-11h-73v11c14 0 21 8.66699 21 26v60c0 14 -7 21 -21 21v11h70c33.333 0 50 -11.333 50 -34
c0 -12.667 -7.66699 -22.667 -23 -30c9.33301 -16.667 16.666 -28 21.999 -34c10 -12 21 -19.333 33 -22v-10zM256.002 315.999c0 15.333 -10.333 23 -31 23h-7v-51h5h5c18.667 0 28 9.33301 28 28z" />
    <glyph glyph-name="degree" unicode="&#xb0;" horiz-adv-x="155" 
d="M169 218c0 -12 -4.50098 -22.333 -13.501 -31s-19.5 -13 -31.5 -13c-12.667 0 -23.334 4.16699 -32.001 12.5s-13 18.833 -13 31.5s4.33301 23.5 13 32.5s19.334 13.5 32.001 13.5s23.334 -4.5 32.001 -13.5s13 -19.833 13 -32.5zM153.999 217c0 8 -3 15 -9 21
s-13 9 -21 9s-15 -3 -21 -9s-9 -13 -9 -21c0 -19.333 10 -29 30 -29s30 9.66699 30 29z" />
    <glyph glyph-name="plusminus" unicode="&#xb1;" horiz-adv-x="359" 
d="M375 173c0 -2.66699 -5 -4.33301 -15 -5c-38.667 -1.33301 -81 -2 -127 -2c-46.667 -51.333 -72 -77 -76 -77c-0.666992 0.666992 -1.33398 1.16699 -2.00098 1.5s-1 1.16602 -1 2.49902c0 4.66699 16 28.667 48 72c-78 -3.33301 -120 -2.66602 -126 2.00098
c-2 0.666992 -3 2 -3 4c0 10 7.33301 15 22 15l120 -4c13.333 20 34.333 48.667 63 86c4.66699 5.33301 11.667 8 21 8c10.667 0 16 -2 16 -6c0 -3.33301 -23 -33 -69 -89c26.667 -0.666992 64.334 -1.66699 113.001 -3c10.667 0 16 -1.66699 16 -5zM303 66.001
c0 -3.33301 -5 -5.33203 -15 -5.99902c-65.333 -2.66699 -148 -4 -248 -4c-8.66699 0 -13 2.33301 -13 7c0 11.333 8 17 24 17c17.333 0 96.333 -3 237 -9c10 -0.666992 15 -2.33398 15 -5.00098z" />
    <glyph glyph-name="mu1" unicode="&#xb5;" horiz-adv-x="320" 
d="M334 98c0 -6 -15.665 -21.6641 -46.998 -46.9971c-26.667 -20.667 -46.667 -35 -60 -43c-15.333 -9.33301 -31.333 -14 -48 -14c-20.667 0 -31 8 -31 24c0 20 18.333 48.333 55 85l-2 2c-43.333 -38 -86 -69.667 -128 -95c-18 -10.667 -34.667 -16 -50 -16
c-10.667 0 -17.667 4.33301 -21 13c-8.66699 -10 -17.5 -26.167 -26.5 -48.5s-13.5 -39.5 -13.5 -51.5v-6c0.666992 -2 1 -3.66699 1 -5s-0.333008 -2.33301 -1 -3h-2c-12 0 -18 8 -18 24c0 30 17 70.333 51 121c26.667 38.667 55.667 73.667 87 105v1
c-12.667 -7.33301 -26.5 -17.5 -41.5 -30.5l-42.5 -36.5c-4 -2.66699 -6.66699 -4 -8 -4h-2l-1 2c0 9.33301 27.667 33.333 83 72c21.333 14.667 41.666 22 60.999 22c10 0 15 -1.66699 15 -5c0 -0.666992 -16.667 -21.334 -50 -62.001s-50 -66.334 -50 -77.001
c0 -5.33301 3.33301 -8 10 -8c20.667 0 70.667 34.333 150 103c16 13.333 36.333 29.333 61 48c4 2 9.66699 3 17 3c14 0 21 -2 21 -6c0 -2 -16.833 -23.167 -50.5 -63.5s-50.5 -65.5 -50.5 -75.5c0 -6.66699 2.66699 -10 8 -10c13.333 0 36.666 14 69.999 42
s50.333 42 51 42c1.33301 -0.666992 2.33301 -1.33398 3 -2.00098z" />
    <glyph glyph-name="mu1" unicode="&#x3bc;" horiz-adv-x="320" 
d="M334 98c0 -6 -15.665 -21.6641 -46.998 -46.9971c-26.667 -20.667 -46.667 -35 -60 -43c-15.333 -9.33301 -31.333 -14 -48 -14c-20.667 0 -31 8 -31 24c0 20 18.333 48.333 55 85l-2 2c-43.333 -38 -86 -69.667 -128 -95c-18 -10.667 -34.667 -16 -50 -16
c-10.667 0 -17.667 4.33301 -21 13c-8.66699 -10 -17.5 -26.167 -26.5 -48.5s-13.5 -39.5 -13.5 -51.5v-6c0.666992 -2 1 -3.66699 1 -5s-0.333008 -2.33301 -1 -3h-2c-12 0 -18 8 -18 24c0 30 17 70.333 51 121c26.667 38.667 55.667 73.667 87 105v1
c-12.667 -7.33301 -26.5 -17.5 -41.5 -30.5l-42.5 -36.5c-4 -2.66699 -6.66699 -4 -8 -4h-2l-1 2c0 9.33301 27.667 33.333 83 72c21.333 14.667 41.666 22 60.999 22c10 0 15 -1.66699 15 -5c0 -0.666992 -16.667 -21.334 -50 -62.001s-50 -66.334 -50 -77.001
c0 -5.33301 3.33301 -8 10 -8c20.667 0 70.667 34.333 150 103c16 13.333 36.333 29.333 61 48c4 2 9.66699 3 17 3c14 0 21 -2 21 -6c0 -2 -16.833 -23.167 -50.5 -63.5s-50.5 -65.5 -50.5 -75.5c0 -6.66699 2.66699 -10 8 -10c13.333 0 36.666 14 69.999 42
s50.333 42 51 42c1.33301 -0.666992 2.33301 -1.33398 3 -2.00098z" />
    <glyph glyph-name="paragraph" unicode="&#xb6;" horiz-adv-x="417" 
d="M609 383c0 -4.66699 -3.66797 -6.99902 -11.001 -6.99902c-4.66699 0 -10 2.66699 -16 8s-12.667 8 -20 8c-31.333 0 -70.333 -27.333 -117 -82c20 -4.66699 30 -10.667 30 -18c0 -0.666992 -0.166992 -1.33398 -0.5 -2.00098s-0.833008 -1 -1.5 -1c-2 0 -4.33301 1 -7 3
c-5.33301 4 -14.333 8 -27 12l-121 -154c-91.333 -112 -164.666 -168 -219.999 -168c-9.33301 0 -15.333 0.333008 -18 1c-37.333 -24.667 -72.333 -37 -105 -37c-18 0 -34 3.33301 -48 10c-17.333 8 -26 20 -26 36c0 11.333 3.33301 21.166 10 29.499s15 12.5 25 12.5
c15.333 0 23 -6.33301 23 -19c0 -8 -3.5 -16 -10.5 -24s-10.5 -14 -10.5 -18c0 -12 12.667 -18 38 -18c36.667 0 76 18.667 118 56c22.667 20 53 53.667 91 101c-20.667 2.66699 -37.834 11.334 -51.501 26.001s-20.5 32.334 -20.5 53.001
c0 25.333 9.66699 48.666 29 69.999c39.333 43.333 106.333 65 201 65c30 0 56 -2.66699 78 -8c54.667 54.667 103.334 82 146.001 82c28 0 42 -5.66699 42 -17zM379.999 314.001l-0.000976562 1h-13c-81.333 0 -141 -25 -179 -75c-20 -26.667 -30 -51.667 -30 -75
c0 -25.333 11 -40.666 33 -45.999c2 3.33301 18.333 24 49 62c62.667 77.333 109.334 121.666 140.001 132.999zM415.998 310.001c-4.66699 2 -10 2.99902 -16 2.99902c-9.33301 0 -21 -6.33301 -35 -19c-18 -16 -56.333 -60.667 -115 -134
c-42 -52.667 -81.667 -97.667 -119 -135c-9.33301 -9.33301 -23.333 -20.666 -42 -33.999v-1c0.666992 0 2 -0.333008 4 -1h4c32 0 74.667 29.667 128 89c1.33301 2 36 45.667 104 131c18 23.333 47 57 87 101z" />
    <glyph glyph-name="periodcentered" unicode="&#xb7;" horiz-adv-x="126" 
d="M110 150c0 -8.66699 -6.66797 -17.667 -20.001 -27s-24.666 -14 -33.999 -14c-2.66699 4 -4 9.66699 -4 17c0 24 13.667 36 41 36c11.333 0 17 -4 17 -12z" />
    <glyph glyph-name="periodcentered" unicode="&#x2219;" horiz-adv-x="126" 
d="M110 150c0 -8.66699 -6.66797 -17.667 -20.001 -27s-24.666 -14 -33.999 -14c-2.66699 4 -4 9.66699 -4 17c0 24 13.667 36 41 36c11.333 0 17 -4 17 -12z" />
    <glyph glyph-name="guillemotright" unicode="&#xbb;" horiz-adv-x="279" 
d="M217 73c0 -2.66699 -1 -4.66504 -3 -5.99805l-78 -45c-8.66699 -6.66699 -17.667 -13 -27 -19c-1.33301 0 -2.33301 1.33301 -3 4c0 5.33301 11 17.666 33 36.999c18.667 16 33 27 43 33c-12.667 33.333 -19 59.666 -19 78.999c0 6.66699 0.666992 10 2 10
c4 0 6 -2.33301 6 -7zM135 72.002c0 -2 -10 -8.66699 -30 -20l-51 -30c-7.33301 -6 -16.666 -12.333 -27.999 -19c-2 0 -3 1.33301 -3 4c0 5.33301 11.333 17.666 34 36.999c19.333 16.667 33.666 27.667 42.999 33c-13.333 34.667 -20 61 -20 79c0 6.66699 1 10 3 10
c1.33301 0 6 -8 14 -24c0.666992 -1.33301 7.66699 -13.666 21 -36.999c11.333 -20 17 -31 17 -33z" />
    <glyph glyph-name="circumflex" unicode="&#x2c6;" horiz-adv-x="307" 
d="M296 201l-3 -1.00098c-10 0 -27 15.333 -51 46c-11.333 -6.66699 -29.666 -16 -54.999 -28c-30 -13.333 -48.333 -20 -55 -20c-2.66699 0 -4 1 -4 3c0 0.666992 0.666992 1.66699 2 3c7.33301 4 18 10.333 32 19c19.333 10.667 46.666 28.334 81.999 53.001
c4 3.33301 7.33301 5 10 5c2 0 4 -2.33301 6 -7c24 -52.667 36 -77 36 -73z" />
    <glyph glyph-name="tilde" unicode="&#x2dc;" horiz-adv-x="307" 
d="M318 260c0 -8.66699 -8 -20.334 -24 -35.001c-10 -9.33301 -22 -14 -36 -14c-8.66699 0 -19.834 4.5 -33.501 13.5s-25.167 13.5 -34.5 13.5c-8.66699 0 -17.667 -4.66699 -27 -14s-14.333 -14 -15 -14h-1c-0.666992 0.666992 -1 1.66699 -1 3
c0 10.667 9 23.334 27 38.001c9.33301 7.33301 20.333 11 33 11c9.33301 0 20.5 -4.66699 33.5 -14s23.833 -14 32.5 -14c9.33301 0 18.833 4.83301 28.5 14.5s14.834 14.5 15.501 14.5h1c0.666992 -0.666992 1 -1.66699 1 -3z" />
    <glyph glyph-name="Edieresis.swash1" unicode="&#x401;" horiz-adv-x="622" 
d="M669 421c20.667 0 39.999 3.33496 57.999 10.002s33.833 16 47.5 28s24.334 26.167 32.001 42.5s11.5 34.166 11.5 53.499c0 21.333 -3.66699 40.166 -11 56.499s-17.333 30 -30 41s-27.667 19.833 -45 26.5s-36 11 -56 13c-34.667 -15.333 -63.667 -37.333 -87 -66
s-35 -63 -35 -103c0 -32 10.5 -57 31.5 -75s48.5 -27 82.5 -27h1zM464.999 380.002c9.33301 0 18.1709 1.83203 26.5039 5.49902s13.166 10.167 14.499 19.5c1.33301 7.33301 -0.833984 13.333 -6.50098 18s-12.834 8.5 -21.501 11.5s-17.834 5 -27.501 6
s-17.834 1.5 -24.501 1.5c-6 0 -12 -0.166992 -18 -0.5s-12 -0.833008 -18 -1.5c3.33301 -17.333 10.833 -31.666 22.5 -42.999s28.834 -17 51.501 -17h1zM272.004 -51.999c35.333 0 70.668 5.83105 106.001 17.498s64.666 25.167 87.999 40.5
c34 22.667 60.333 47.834 79 75.501s28.667 58.834 30 93.501c0.666992 35.333 -10.5 62.166 -33.5 80.499s-52.167 27.5 -87.5 27.5c-18.667 0 -36.667 -2.5 -54 -7.5s-33.666 -11.667 -48.999 -20s-29.833 -17.666 -43.5 -27.999s-25.834 -20.833 -36.501 -31.5
c-25.333 -24.667 -46.5 -53 -63.5 -85s-26.167 -66.667 -27.5 -104c-0.666992 -7.33301 -0.666992 -14.333 0 -21s1.66699 -13.334 3 -20.001c11.333 -5.33301 24.5 -9.66602 39.5 -12.999s31.167 -5 48.5 -5h1zM386.006 -207.001c-62.667 0 -114.336 20.333 -155.003 61
c-12.667 12.667 -23.667 27.167 -33 43.5s-16.666 34.833 -21.999 55.5c-36.667 13.333 -67.167 34.166 -91.5 62.499s-36.5 64.5 -36.5 108.5c0 46 9.66699 88.5 29 127.5s50.333 75.5 93 109.5c10 8 21.833 16 35.5 24s28.667 15.667 45 23s33.666 14 51.999 20
s37.166 11 56.499 15c-5.33301 14.667 -8 29.334 -8 44.001c0 31.333 7 59.833 21 85.5s33.667 48.5 59 68.5c12 9.33301 25.833 17.833 41.5 25.5s32.834 14.334 51.501 20.001s38 10 58 13s40.333 4.5 61 4.5c6 0 12 -0.166992 18 -0.5s12 -0.833008 18 -1.5
c38.667 16 79.334 24 122.001 24c21.333 0 42.333 -3.33301 63 -10s39.167 -16 55.5 -28s29.5 -26.667 39.5 -44s15 -37 15 -59c0 -17.333 -4.33301 -33.5 -13 -48.5s-18.334 -27.167 -29.001 -36.5c-2 -1.33301 -4.16699 -3 -6.5 -5s-4.16602 -2.33301 -5.49902 -1
c-0.666992 0.666992 0 1.66699 2 3s4 3.66602 6 6.99902c7.33301 10.667 13.5 22.834 18.5 36.501s7.5 28.5 7.5 44.5c0 20.667 -4.16699 39.334 -12.5 56.001s-19.5 30.667 -33.5 42s-30.333 20 -49 26s-38.334 9 -59.001 9c-37.333 0 -72.666 -6.33301 -105.999 -19
c19.333 -4 37.666 -10 54.999 -18s32.5 -18 45.5 -30s23.167 -26.167 30.5 -42.5s11 -34.833 11 -55.5c0 -20 -4.83301 -38.667 -14.5 -56s-22.5 -32.333 -38.5 -45s-34.167 -22.5 -54.5 -29.5s-40.833 -10.5 -61.5 -10.5c-36 0 -65.333 9.5 -88 28.5s-34 46.5 -34 82.5
c0 39.333 11 73.333 33 102s49.667 51.334 83 68.001c-3.33301 0.666992 -6.5 1 -9.5 1h-9.5c-21.333 0 -40.833 -2.33301 -58.5 -7s-34 -11 -49 -19s-29 -17 -42 -27s-24.833 -20.333 -35.5 -31c-20.667 -20 -37.334 -42.5 -50.001 -67.5s-19 -51.5 -19 -79.5v-7
c0 -2 0.333008 -4.66699 1 -8c6 0.666992 12.167 1.16699 18.5 1.5s12.5 0.5 18.5 0.5c9.33301 0 19.5 -0.833008 30.5 -2.5s21.167 -4.33398 30.5 -8.00098s16.833 -8.5 22.5 -14.5s7.83398 -13.333 6.50098 -22c-1.33301 -10.667 -7.5 -18.5 -18.5 -23.5
s-21.833 -7.5 -32.5 -7.5c-21.333 0 -41.333 5.66699 -60 17s-33 26.666 -43 45.999c-31.333 -8 -60 -20.833 -86 -38.5s-51 -38.834 -75 -63.501c-30.667 -32 -54.167 -65.167 -70.5 -99.5s-24.5 -74.5 -24.5 -120.5c0 -31.333 5.33301 -59.166 16 -83.499
s27.667 -43.833 51 -58.5c-0.666992 6 -1.16699 12 -1.5 18s-0.5 12.333 -0.5 19c0.666992 40 8.33398 76.667 23.001 110s36 63.666 64 90.999c23.333 23.333 51.833 43 85.5 59s70.5 24 110.5 24c18.667 0 36.5 -2.5 53.5 -7.5s32 -12.5 45 -22.5s23.333 -22.333 31 -37
s11.167 -31.334 10.5 -50.001c-1.33301 -38 -13.333 -71.167 -36 -99.5s-52 -54.166 -88 -77.499c-25.333 -16.667 -55.666 -30.834 -90.999 -42.501s-71.666 -17.5 -108.999 -17.5c-29.333 0 -57.333 4 -84 12c5.33301 -18.667 12.333 -35.5 21 -50.5
s18.667 -28.167 30 -39.5c18.667 -19.333 40.834 -33.333 66.501 -42s54.167 -13 85.5 -13c17.333 0 32.666 1.33301 45.999 4s27.333 7.66699 42 15c3.33301 1.33301 6 3 8 5s3.33301 2.33301 4 1c0.666992 -2 -2.33301 -5.33301 -9 -10
c-11.333 -7.33301 -25 -13.666 -41 -18.999s-33.333 -8 -52 -8h-1zM745.004 781.999c-2 3.33301 -3.16895 8 -3.50195 14s0.833984 12.333 3.50098 19c3.33301 7.33301 8.33301 12.333 15 15s14.334 4 23.001 4c8 0 13.167 -2.5 15.5 -7.5s0.5 -11.167 -5.5 -18.5
s-14 -13.5 -24 -18.5s-18 -7.5 -24 -7.5zM636.002 781.999c-6 7.33301 -6.33203 18.333 -0.999023 33c3.33301 7.33301 8.16602 12.333 14.499 15s13.833 4 22.5 4c8 0 13 -2.5 15 -7.5s0.333008 -11.167 -5 -18.5c-6 -7.33301 -14 -13.5 -24 -18.5s-17.333 -7.5 -22 -7.5z
" />
    <glyph glyph-name="afii10053" unicode="&#x404;" horiz-adv-x="558" 
d="M222 -135c-2 -2 -4 2.00391 -6 12.0039c-2.66699 13.333 -3.66699 27 -3 41s2 28.333 4 43c-14 0 -28.5 2.16699 -43.5 6.5s-29 11.166 -42 20.499s-23.667 21.333 -32 36s-12.5 33 -12.5 55c0 40 8 79.667 24 119s36.333 77 61 113c-2.66699 0 -2.33398 1 0.999023 3
c-15.333 -1.33301 -30.333 -3.5 -45 -6.5s-23 -8.16699 -25 -15.5c-0.666992 0.666992 -1 2 -1 4c0 9.33301 7.5 16.333 22.5 21s34.167 7.66699 57.5 9c7.33301 10 14.833 19.667 22.5 29l23.5 28h-27c-42.667 0 -86.5 3.16699 -131.5 9.5s-88.5 16.166 -130.5 29.499
s-81.5 30.166 -118.5 50.499s-69.5 44.333 -97.5 72s-50 59.334 -66 95.001s-24 75.167 -24 118.5c0 59.333 14.667 111.166 44 155.499s67.166 81.333 113.499 111s98 51.834 155 66.501s112.833 22 167.5 22c40.667 0 81.5 -4.33301 122.5 -13s78 -22.167 111 -40.5
s59.667 -41.333 80 -69s30.5 -60.5 30.5 -98.5s-9.33301 -71.667 -28 -101s-42.5 -53.833 -71.5 -73.5s-61 -34.5 -96 -44.5s-69.167 -15 -102.5 -15c-16 0 -31.167 1.5 -45.5 4.5s-26.833 8.16699 -37.5 15.5c22 -7.33301 49.333 -11 82 -11s66 5 100 15
s64.833 24.5 92.5 43.5s50.167 42.667 67.5 71s26 60.833 26 97.5c0 36 -10.167 67.167 -30.5 93.5s-46.333 48.166 -78 65.499s-67.167 30.166 -106.5 38.499s-78 12.5 -116 12.5c-35.333 0 -70.833 -3.33301 -106.5 -10s-69.834 -16.667 -102.501 -30
s-63.167 -29.833 -91.5 -49.5s-53 -42.5 -74 -68.5s-37.5 -55 -49.5 -87s-18 -67 -18 -105c0 -66 15.667 -122 47 -168s72.333 -83.333 123 -112s107.834 -49.5 171.501 -62.5s128.167 -19.5 193.5 -19.5h30c15.333 16.667 34.833 35.667 58.5 57s50 43 79 65
s59.833 43.5 92.5 64.5s65.667 39.667 99 56s66 29.5 98 39.5s62 15 90 15c20.667 0 36.667 -5.33301 48 -16s17 -23.667 17 -39s-5.66699 -31 -17 -47s-26.166 -31.5 -44.499 -46.5s-38.833 -29.167 -61.5 -42.5s-45.334 -25 -68.001 -35
c-48 -21.333 -100.833 -38.166 -158.5 -50.499s-114.5 -20.833 -170.5 -25.5l-50 -59c25.333 -0.666992 52.833 -1.16699 82.5 -1.5s60.167 -0.5 91.5 -0.5c28 0 56.833 0.666992 86.5 2s56.834 5.16602 81.501 11.499s45 16.333 61 30s24 33.167 24 58.5
c0 3.33301 -0.5 6.5 -1.5 9.5s-2.16699 6.16699 -3.5 9.5c-2 3.33301 -3.66699 7 -5 11c0 1.33301 0.666992 2 2 2c2 0 4 -1.5 6 -4.5s3.83301 -6.83301 5.5 -11.5s2.83398 -9.33398 3.50098 -14.001s1 -9 1 -13c0 -19.333 -4.66699 -36 -14 -50s-22.333 -25.667 -39 -35
s-36.167 -16.166 -58.5 -20.499s-46.833 -6.5 -73.5 -6.5c-21.333 0 -42 0.5 -62 1.5l-61.5 3c-21 1 -42.667 2.16699 -65 3.5s-46.166 2 -71.499 2c-28 -37.333 -52.167 -76.833 -72.5 -118.5s-30.5 -85.5 -30.5 -131.5c0 -32 8.16699 -55.5 24.5 -70.5
s36.166 -23.167 59.499 -24.5c2.66699 14 6.66699 29 12 45s11.833 32 19.5 48s16 31.833 25 47.5s18.833 30.167 29.5 43.5c14.667 18.667 30.667 36 48 52s34.666 29.667 51.999 41s34.5 20.166 51.5 26.499s33.167 9.5 48.5 9.5s29.833 -3.83301 43.5 -11.5
s20.5 -22.167 20.5 -43.5c0 -16 -3.33301 -31.833 -10 -47.5s-15.5 -31 -26.5 -46s-24 -29.667 -39 -44s-30.833 -28.5 -47.5 -42.5c-32 -26 -67.667 -47 -107 -63s-77 -24 -113 -24c-3.33301 -14.667 -5.33301 -28.667 -6 -42s-0.333984 -26.666 0.999023 -39.999
c0.666992 -6 1.33398 -9.66699 2.00098 -11s0.333984 -2.33301 -0.999023 -3zM307 396.004c52 5.33301 104.5 13.668 157.5 25.001s101.833 27 146.5 47c58 25.333 102 53.166 132 83.499s45 60.5 45 90.5c0 11.333 -3.5 20.5 -10.5 27.5s-17.5 10.5 -31.5 10.5
c-22 0 -46.167 -5 -72.5 -15s-53.5 -23 -81.5 -39s-56 -34.167 -84 -54.5s-54.667 -41 -80 -62s-48.5 -41.5 -69.5 -61.5s-38.167 -37.333 -51.5 -52zM228 -29.9941c15.333 0 32.1689 2.16895 50.502 6.50195s36.666 10.333 54.999 18s36.5 16.834 54.5 27.501
s34.333 22.667 49 36c16.667 14.667 32 30 46 46s26 31.667 36 47s17.833 30.166 23.5 44.499s8.5 27.166 8.5 38.499c0 14 -4.33301 24.5 -13 31.5s-20.334 10.5 -35.001 10.5c-13.333 0 -28 -3 -44 -9s-32.333 -14.667 -49 -26s-33.5 -24.833 -50.5 -40.5
s-32.833 -33.167 -47.5 -52.5c-9.33301 -12 -18.5 -25.667 -27.5 -41s-17.333 -31 -25 -47s-14.167 -31.833 -19.5 -47.5s-9.33301 -29.834 -12 -42.501z" />
    <glyph glyph-name="afii10054" unicode="&#x405;" horiz-adv-x="954" 
d="M1346 496c12 8.66699 19.001 18.333 21.001 29c0.666992 2 0.666992 4.16699 0 6.5s-2.33398 3.5 -5.00098 3.5c-5.33301 0 -9.5 -3.16699 -12.5 -9.5s-4.5 -12.5 -4.5 -18.5c0 -4 0.333008 -7.66699 1 -11zM1468 434.999c19.333 0 38.6689 3.16895 58.002 9.50195
s36.666 15.166 51.999 26.499s27.833 24.5 37.5 39.5s14.834 31.5 15.501 49.5c1.33301 38 -12.334 67.333 -41.001 88s-65.667 31 -111 31c-25.333 0 -50 -4 -74 -12s-46.667 -18.333 -68 -31s-41.166 -27 -59.499 -43s-34.833 -32 -49.5 -48
c-15.333 -16 -29.5 -32.5 -42.5 -49.5l-40.5 -53.5c41.333 0 79.166 4.66699 113.499 14s61.166 21 80.499 35c-0.666992 2 -1.33398 5.16699 -2.00098 9.5s-0.666992 8.5 0 12.5c1.33301 8.66699 4.33301 16 9 22s10.334 9 17.001 9c4.66699 0 8 -1.5 10 -4.5
s2.66699 -6.5 2 -10.5c-1.33301 -14 -10.333 -27.333 -27 -40c3.33301 -9.33301 9 -17.333 17 -24s17.5 -12.334 28.5 -17.001s23 -8 36 -10s25.5 -3 37.5 -3h1zM409.004 -72.999c-56 -1.33301 -108.493 3.99902 -157.493 15.999s-91.333 30.667 -127 56
s-63.5 57.333 -83.5 96s-29 84.334 -27 137.001c2 51.333 15 98.5 39 141.5s55.167 80 93.5 111s81.666 55.167 129.999 72.5s97.5 26 147.5 26c39.333 0 75.166 -4.5 107.499 -13.5s59.833 -22 82.5 -39s40 -38.167 52 -63.5s17.333 -54.333 16 -87
c-1.33301 -33.333 -10.5 -63.666 -27.5 -90.999s-38.833 -50.666 -65.5 -69.999s-56.167 -34.5 -88.5 -45.5s-64.5 -16.5 -96.5 -16.5c-16.667 0 -33 1.66699 -49 5s-30.333 8.66602 -43 15.999s-23.334 16.666 -32.001 27.999s-13.667 25 -15 41
c-0.666992 5.33301 -0.666992 10.166 0 14.499s1.66699 6.5 3 6.5s1.83301 -1.66699 1.5 -5s0.166992 -8.66602 1.5 -15.999c2 -14.667 7.16699 -27.167 15.5 -37.5s18.833 -18.666 31.5 -24.999s26.667 -11 42 -14s30.666 -4.5 45.999 -4.5c30.667 0 60.667 5.33301 90 16
s55.5 25.5 78.5 44.5s41.667 41.833 56 68.5s22.166 56 23.499 88c0.666992 27.333 -3.33301 52.666 -12 75.999s-22.334 43.5 -41.001 60.5s-42.667 30.333 -72 40s-64 14.5 -104 14.5c-48.667 0 -96.167 -8.33301 -142.5 -25s-87.666 -40.167 -123.999 -70.5
s-66 -66.5 -89 -108.5s-35.5 -88.333 -37.5 -139s6.33301 -94.834 25 -132.501s45 -68.667 79 -93s74.333 -42.333 121 -54s97.334 -16.834 152.001 -15.501c52 1.33301 101.833 9.5 149.5 24.5s93.167 35.833 136.5 62.5s84.666 58.5 123.999 95.5s77 78.167 113 123.5
l85 109l68 84.999c-29.333 3.33301 -57.5 10.166 -84.5 20.499s-50.667 24 -71 41s-36.5 37.167 -48.5 60.5s-17.333 49.666 -16 78.999c0.666992 23.333 6.16699 45 16.5 65s23.666 37.5 39.999 52.5s35.333 26.667 57 35s44.167 12.5 67.5 12.5
c14.667 0 29.167 -2 43.5 -6s27 -10 38 -18s19.667 -18 26 -30s9.16602 -26 8.49902 -42c-0.666992 -32 -15.667 -58 -45 -78c-3.33301 -2 -6.5 -3.66699 -9.5 -5s-4.83301 -1.33301 -5.5 0s0.5 2.83301 3.5 4.5s5.83301 3.5 8.5 5.5c24 18.667 36.333 43.334 37 74.001
c0 14.667 -2.83301 27.5 -8.5 38.5s-13.334 20 -23.001 27s-20.834 12.167 -33.501 15.5s-26 5 -40 5c-22.667 0 -43.5 -4.16699 -62.5 -12.5s-35.667 -19.666 -50 -33.999s-25.666 -31.5 -33.999 -51.5s-12.833 -41.333 -13.5 -64c-1.33301 -26 3.5 -49.667 14.5 -71
s26 -40 45 -56s41.167 -29 66.5 -39s52 -16.667 80 -20c16 19.333 32 37.5 48 54.5l50 51.5c18 17.333 38.5 34.333 61.5 51s47 31.334 72 44.001s50.667 22.834 77 30.501s52.5 11.5 78.5 11.5c48.667 0 88.334 -11.167 119.001 -33.5s45.334 -54.166 44.001 -95.499
c-0.666992 -19.333 -6.16699 -37.166 -16.5 -53.499s-23.833 -30.333 -40.5 -42s-35.334 -20.834 -56.001 -27.501s-41.667 -10 -63 -10c-13.333 0 -26.5 1.16699 -39.5 3.5s-25.167 5.83301 -36.5 10.5s-21.333 10.667 -30 18s-15 16 -19 26
c-20.667 -14.667 -48.5 -27 -83.5 -37s-74.5 -14.667 -118.5 -14l-66.5 -93.5c-23.667 -33 -51.5 -69.167 -83.5 -108.5c-43.333 -52.667 -88 -98 -134 -136s-93 -69.167 -141 -93.5s-97.5 -42.5 -148.5 -54.5s-103.167 -18.667 -156.5 -20z" />
    <glyph glyph-name="uni0406" unicode="&#x406;" horiz-adv-x="851" 
d="M323 -50c-38.667 0 -75.5029 4.83594 -110.503 14.5029s-65.667 23.834 -92 42.501s-47.333 41.5 -63 68.5s-23.5 57.833 -23.5 92.5c0 44.667 11.333 84.334 34 119.001s51.334 64 86.001 88s72.834 42.167 114.501 54.5s81.5 18.5 119.5 18.5
c26 0 51.167 -2.83301 75.5 -8.5s46 -14.334 65 -26.001s34.333 -26.167 46 -43.5s17.5 -38 17.5 -62c0 -26 -7.33301 -49.5 -22 -70.5s-32.834 -38.667 -54.501 -53s-45 -25.5 -70 -33.5s-47.5 -12.333 -67.5 -13c-11.333 -0.666992 -21.333 -0.333984 -30 0.999023
s-12.667 3.66602 -12 6.99902c0 1.33301 0.5 1.83301 1.5 1.5s3 -0.666016 6 -0.999023s7.16699 -0.833008 12.5 -1.5s12.333 -0.333984 21 0.999023c18.667 2 38.334 7 59.001 15s39.334 18.833 56.001 32.5s30.5 30 41.5 49s16.5 40.833 16.5 65.5
c0 20.667 -4.16699 39.167 -12.5 55.5s-19.833 30 -34.5 41s-32 19.5 -52 25.5s-41.333 9 -64 9c-38 0 -76.333 -6 -115 -18s-73.5 -29.5 -104.5 -52.5s-56.333 -51.333 -76 -85s-29.5 -72.167 -29.5 -115.5c0 -32.667 6.16699 -61.834 18.5 -87.501s30 -47.5 53 -65.5
s50.667 -31.833 83 -41.5s68.166 -14.5 107.499 -14.5c58.667 0 111.667 6.66699 159 20s91.666 32.5 132.999 57.5s80.833 55.5 118.5 91.5s76.167 76.667 115.5 122c22 25.333 48.167 57.333 78.5 96s63.333 77.667 99 117s72.667 76.166 111 110.499
s76.5 60.166 114.5 77.499c-18.667 -2.66699 -36.5 -4.5 -53.5 -5.5l-60.5 -3.5c-36.667 -2.66699 -73 -7.5 -109 -14.5s-68.333 -16.833 -97 -29.5s-52 -29 -70 -49s-27 -44.333 -27 -73c0 -20.667 5.5 -36.834 16.5 -48.501s26.5 -17.5 46.5 -17.5
c5.33301 0 11 0.333008 17 1s12.333 2 19 4c2 0.666992 4.16699 1.5 6.5 2.5s3.83301 1.16699 4.5 0.5s-0.333008 -1.83398 -3 -3.50098l-7 -4.5c-5.33301 -3.33301 -12.166 -6.16602 -20.499 -8.49902s-17.5 -3.5 -27.5 -3.5c-24 0 -45 7.5 -63 22.5s-27 34.5 -27 58.5
c0 28.667 10.667 53.334 32 74.001s48.5 37.834 81.5 51.501s69.5 24.167 109.5 31.5s78.667 12.333 116 15l51 3c11.333 0.666992 22.666 1.66699 33.999 3c10 1.33301 18.667 2.83301 26 4.5s14.5 4 21.5 7s14.333 6.5 22 10.5l26.5 14
c13.333 7.33301 26.833 14.333 40.5 21s25.834 10 36.501 10c12.667 0 18.667 -5.33301 18 -16c-0.666992 -7.33301 -4.83398 -12.833 -12.501 -16.5s-15.5 -6.83398 -23.5 -9.50098c-23.333 -7.33301 -43.166 -13 -59.499 -17s-30.166 -7.66699 -41.499 -11
c-7.33301 -3.33301 -15.333 -8 -24 -14s-15.667 -11.333 -21 -16c-46 -38 -89 -82 -129 -132s-78.333 -100.333 -115 -151c-41.333 -57.333 -85.833 -110 -133.5 -158s-99 -89.167 -154 -123.5s-113.667 -61.166 -176 -80.499s-128.833 -29 -199.5 -29h-1z" />
    <glyph glyph-name="Idieresis.swash1" unicode="&#x407;" horiz-adv-x="851" 
d="M323 -50c-38.667 0 -75.5029 4.83594 -110.503 14.5029s-65.667 23.834 -92 42.501s-47.333 41.5 -63 68.5s-23.5 57.833 -23.5 92.5c0 44.667 11.333 84.334 34 119.001s51.334 64 86.001 88s72.834 42.167 114.501 54.5s81.5 18.5 119.5 18.5
c26 0 51.167 -2.83301 75.5 -8.5s46 -14.334 65 -26.001s34.333 -26.167 46 -43.5s17.5 -38 17.5 -62c0 -26 -7.33301 -49.5 -22 -70.5s-32.834 -38.667 -54.501 -53s-45 -25.5 -70 -33.5s-47.5 -12.333 -67.5 -13c-11.333 -0.666992 -21.333 -0.333984 -30 0.999023
s-12.667 3.66602 -12 6.99902c0 1.33301 0.5 1.83301 1.5 1.5s3 -0.666016 6 -0.999023s7.16699 -0.833008 12.5 -1.5s12.333 -0.333984 21 0.999023c18.667 2 38.334 7 59.001 15s39.334 18.833 56.001 32.5s30.5 30 41.5 49s16.5 40.833 16.5 65.5
c0 20.667 -4.16699 39.167 -12.5 55.5s-19.833 30 -34.5 41s-32 19.5 -52 25.5s-41.333 9 -64 9c-38 0 -76.333 -6 -115 -18s-73.5 -29.5 -104.5 -52.5s-56.333 -51.333 -76 -85s-29.5 -72.167 -29.5 -115.5c0 -32.667 6.16699 -61.834 18.5 -87.501s30 -47.5 53 -65.5
s50.667 -31.833 83 -41.5s68.166 -14.5 107.499 -14.5c58.667 0 111.667 6.66699 159 20s91.666 32.5 132.999 57.5s80.833 55.5 118.5 91.5s76.167 76.667 115.5 122c22 25.333 48.167 57.333 78.5 96s63.333 77.667 99 117s72.667 76.166 111 110.499
s76.5 60.166 114.5 77.499c-18.667 -2.66699 -36.5 -4.5 -53.5 -5.5l-60.5 -3.5c-36.667 -2.66699 -73 -7.5 -109 -14.5s-68.333 -16.833 -97 -29.5s-52 -29 -70 -49s-27 -44.333 -27 -73c0 -20.667 5.5 -36.834 16.5 -48.501s26.5 -17.5 46.5 -17.5
c5.33301 0 11 0.333008 17 1s12.333 2 19 4c2 0.666992 4.16699 1.5 6.5 2.5s3.83301 1.16699 4.5 0.5s-0.333008 -1.83398 -3 -3.50098l-7 -4.5c-5.33301 -3.33301 -12.166 -6.16602 -20.499 -8.49902s-17.5 -3.5 -27.5 -3.5c-24 0 -45 7.5 -63 22.5s-27 34.5 -27 58.5
c0 28.667 10.667 53.334 32 74.001s48.5 37.834 81.5 51.501s69.5 24.167 109.5 31.5s78.667 12.333 116 15l51 3c11.333 0.666992 22.666 1.66699 33.999 3c10 1.33301 18.667 2.83301 26 4.5s14.5 4 21.5 7s14.333 6.5 22 10.5l26.5 14
c13.333 7.33301 26.833 14.333 40.5 21s25.834 10 36.501 10c12.667 0 18.667 -5.33301 18 -16c-0.666992 -7.33301 -4.83398 -12.833 -12.501 -16.5s-15.5 -6.83398 -23.5 -9.50098c-23.333 -7.33301 -43.166 -13 -59.499 -17s-30.166 -7.66699 -41.499 -11
c-7.33301 -3.33301 -15.333 -8 -24 -14s-15.667 -11.333 -21 -16c-46 -38 -89 -82 -129 -132s-78.333 -100.333 -115 -151c-41.333 -57.333 -85.833 -110 -133.5 -158s-99 -89.167 -154 -123.5s-113.667 -61.166 -176 -80.499s-128.833 -29 -199.5 -29h-1zM1429 782.003
c-2 3.33301 -3.16895 8 -3.50195 14s0.833984 12.333 3.50098 19c3.33301 7.33301 8.33301 12.333 15 15s14.334 4 23.001 4c8 0 13.167 -2.5 15.5 -7.5s0.5 -11.167 -5.5 -18.5s-14 -13.5 -24 -18.5s-18 -7.5 -24 -7.5zM1320 782.003
c-6 7.33301 -6.33203 18.333 -0.999023 33c3.33301 7.33301 8.16602 12.333 14.499 15s13.833 4 22.5 4c8 0 13 -2.5 15 -7.5s0.333008 -11.167 -5 -18.5c-6 -7.33301 -14 -13.5 -24 -18.5s-17.333 -7.5 -22 -7.5z" />
    <glyph glyph-name="afii10062" unicode="&#x40e;" horiz-adv-x="738" 
d="M-617 -1063c-32.667 0 -59.5 8.67383 -80.5 26.0068s-31.5 42 -31.5 74c0 29.333 7.33301 60.666 22 93.999s35.167 67.166 61.5 101.499s57.5 69.166 93.5 104.499s75.333 70.166 118 104.499s87.834 67.666 135.501 99.999s96.167 62.833 145.5 91.5
c40.667 23.333 84.667 46.333 132 69s96.833 43.667 148.5 63s104.834 36.5 159.501 51.5s109 27.167 163 36.5l-139 -194c-44.667 -59.333 -89.667 -115.833 -135 -169.5s-92.5 -105.334 -141.5 -155.001s-101.833 -99.834 -158.5 -150.501
c-40.667 -36 -82.334 -69.167 -125.001 -99.5s-85.334 -56.333 -128.001 -78s-84.167 -38.667 -124.5 -51s-78.5 -18.5 -114.5 -18.5h-1zM-617 -1072.99c37.333 0 76.4941 6.3291 117.494 18.9961s83 30 126 52s86.333 47.833 130 77.5s87.167 61.5 130.5 95.5
c53.333 42 101.666 83 144.999 123s84.5 81.167 123.5 123.5s77.667 86.833 116 133.5l122.5 153l61.5 81l54.5 77c22 2.66699 44 4.66699 66 6s43.667 2 65 2c62.667 0 122.667 -7 180 -21s108 -36 152 -66s79.167 -68.833 105.5 -116.5s39.5 -105.167 39.5 -172.5
s-13.167 -130 -39.5 -188s-62.333 -108.667 -108 -152s-99.334 -77.666 -161.001 -102.999s-127.834 -38.666 -198.501 -39.999c-39.333 -0.666992 -77.5 3.5 -114.5 12.5s-69.833 23 -98.5 42s-51.834 43.333 -69.501 73s-26.5 64.834 -26.5 105.501
c0 38.667 6.83301 74.834 20.5 108.501s32.167 63.667 55.5 90s50.333 49 81 68s63 33.167 97 42.5c8.66699 2.66699 14.5 4.16699 17.5 4.5s4.5 1.5 4.5 3.5c0 1.33301 -2.66699 1.66602 -8 0.999023s-11 -1.66699 -17 -3c-34 -8.66699 -67.667 -22.334 -101 -41.001
s-63.166 -41.334 -89.499 -68.001s-47.5 -57 -63.5 -91s-24 -71 -24 -111c0 -44 9.83301 -81.5 29.5 -112.5s45.167 -56.5 76.5 -76.5s67 -34.667 107 -44s80.667 -13.666 122 -12.999c48 0.666992 95 7 141 19s89.5 28.833 130.5 50.5s78.667 47.334 113 77.001
s64 62.5 89 98.5s44.5 74.667 58.5 116s21 84.333 21 129c0 47.333 -7 89.833 -21 127.5s-33.167 70.834 -57.5 99.501s-53.166 53 -86.499 73s-69.333 36.5 -108 49.5s-79.167 22.5 -121.5 28.5s-84.833 9 -127.5 9c-20.667 0 -41.167 -0.666992 -61.5 -2
s-41.166 -3 -62.499 -5l75.5 114l71.5 113l76 117.5l88 129.5l88.5 121l100.5 130c7.33301 9.33301 14.166 16.833 20.499 22.5s10.166 10.834 11.499 15.501c1.33301 5.33301 1 10 -1 14s-5.66699 6.66699 -11 8c-8.66699 1.33301 -17.667 -2 -27 -10s-17 -15.667 -23 -23
l-64.5 -78l-80.5 -104l-45.5 -61.5l-40 -55.5l-39 -53.5l-41.5 -55.5c-11.333 -15.333 -21.833 -28.333 -31.5 -39s-19.5 -20.834 -29.5 -30.501s-20.5 -19 -31.5 -28l-37.5 -30.5c-10 -8 -20.667 -15.833 -32 -23.5s-22.833 -14.5 -34.5 -20.5s-23.167 -10.833 -34.5 -14.5
s-22.333 -5.5 -33 -5.5c-9.33301 0 -17 2.5 -23 7.5s-9 11.833 -9 20.5c0 15.333 4 31.833 12 49.5s18.167 36 30.5 55s26.333 38.167 42 57.5l47.5 58l59 72c18.667 23.333 35.167 46.5 49.5 69.5s25.833 45.5 34.5 67.5s13 44 13 66c0 24.667 -5.16699 46.5 -15.5 65.5
s-24.5 35 -42.5 48s-39.167 22.833 -63.5 29.5s-50.5 10 -78.5 10c-24 0 -49.167 -3.16699 -75.5 -9.5s-52.166 -14.833 -77.499 -25.5s-49.5 -23.167 -72.5 -37.5s-43.5 -29.166 -61.5 -44.499c-20 -17.333 -38.333 -35.166 -55 -53.499s-31.167 -37.333 -43.5 -57
s-22 -40.334 -29 -62.001s-10.5 -44.167 -10.5 -67.5c0 -37.333 12.333 -66.166 37 -86.499s56.334 -30.5 95.001 -30.5c25.333 0 52.166 5.5 80.499 16.5s54.666 26.167 78.999 45.5s45 41.666 62 66.999s26.5 52.666 28.5 81.999c2 23.333 -3.66699 40.833 -17 52.5
s-29.666 17.5 -48.999 17.5c-13.333 0 -26.5 -3 -39.5 -9s-23.167 -12.667 -30.5 -20c-3.33301 -3.33301 -5.83301 -6.16602 -7.5 -8.49902s-2.16699 -3.83301 -1.5 -4.5c1.33301 -1.33301 2.83301 -0.833008 4.5 1.5s4.83398 5.16602 9.50098 8.49902
c5.33301 4.66699 13.833 9.33398 25.5 14.001s23.834 7 36.501 7c18 0 30.333 -5.66699 37 -17s9.33398 -24.666 8.00098 -39.999c-3.33301 -28 -12 -54.5 -26 -79.5s-31.5 -46.667 -52.5 -65s-44.333 -32.833 -70 -43.5s-51.5 -16 -77.5 -16c-32.667 0 -59 10.333 -79 31
s-30 47 -30 79c0 45.333 10.667 86.833 32 124.5s51 72.834 89 105.501c18.667 16.667 39.334 31.834 62.001 45.501s46 25.5 70 35.5s48.333 17.667 73 23s48.667 8 72 8c20.667 0 40.334 -2.33301 59.001 -7s35.334 -12.167 50.001 -22.5s26.334 -23.5 35.001 -39.5
s13 -35.333 13 -58c0 -22 -3.83301 -43.333 -11.5 -64s-17.5 -40.834 -29.5 -60.501s-25.667 -38.834 -41 -57.501l-45 -55l-55.5 -65.5c-19 -21.667 -36.167 -43 -51.5 -64s-28 -41.667 -38 -62s-15 -39.5 -15 -57.5c0 -21.333 5.66699 -37.333 17 -48s26 -16 44 -16
c19.333 0 39.5 4.33301 60.5 13s42.333 20.167 64 34.5s43.167 30.666 64.5 48.999s42 37.166 62 56.499l-84 -139c-30 -48.667 -64.667 -102 -104 -160c-56 -8.66699 -111.833 -20.667 -167.5 -36s-110 -32.833 -163 -52.5s-103.667 -41.167 -152 -64.5
s-93.166 -47 -134.499 -71c-51.333 -30 -101.833 -61.333 -151.5 -94s-97.167 -66 -142.5 -100s-87.333 -68.5 -126 -103.5s-72 -69.5 -100 -103.5s-50 -67.333 -66 -100s-24 -63.667 -24 -93c0 -21.333 4.33301 -39.5 13 -54.5s20 -27.167 34 -36.5s30 -16.333 48 -21
s36.667 -7 56 -7h1zM959.994 786.003c-0.666992 -17.333 -21.667 -35.334 -63 -54.001c-39.333 -18.667 -70.333 -28 -93 -28c-12 0 -24.5 3.33301 -37.5 10s-20.167 14.334 -21.5 23.001c-2.66699 11.333 -3.66699 20.5 -3 27.5s2.66699 12.5 6 16.5
s7.16602 6.83301 11.499 8.5s7.5 2.5 9.5 2.5c20 0 30 -6.66699 30 -20s-10.667 -25.333 -32 -36c5.33301 -12 18.333 -18 39 -18c21.333 0 52.333 11.333 93 34l59 35c0.666992 0 1.33398 -0.333008 2.00098 -1z" />
    <glyph glyph-name="afii10017" unicode="&#x410;" horiz-adv-x="1350" 
d="M1009 230c25.333 21.333 49.333 42.5 72 63.5l65 60.5l63 60.5l59 54.5c-22.667 18.667 -49 33.167 -79 43.5s-61.667 15.5 -95 15.5c-53.333 0 -95.833 -13.167 -127.5 -39.5s-49.5 -61.833 -53.5 -106.5c-3.33301 -34 4 -64 22 -90s42.667 -46.667 74 -62zM1175 5
c8 -1.33301 17 -0.000976562 27 3.99902s20.167 9.83301 30.5 17.5s20.5 16.5 30.5 26.5s19.333 21 28 33c17.333 22.667 30.833 45.834 40.5 69.501s16.5 47.5 20.5 71.5c-8 -3.33301 -16.167 -6.33301 -24.5 -9s-17.166 -5.33398 -26.499 -8.00098
c-22.667 -6.66699 -45.334 -11.334 -68.001 -14.001l-31.5 -47c-9.66699 -14.667 -16.167 -25.667 -19.5 -33c-7.33301 -13.333 -13.833 -27 -19.5 -41s-9.16699 -26.667 -10.5 -38c-1.33301 -7.33301 -0.333008 -14.166 3 -20.499s10 -10.166 20 -11.499zM1333 399.999
l65.5 69.5l74.5 78.5l41 46l37 43c18.667 22.667 28.334 39.667 29.001 51c0 6.66699 -2.33301 10.334 -7 11.001c-8 2 -20.667 -2.33301 -38 -13c-9.33301 -6 -19.333 -13 -30 -21s-21.334 -16.667 -32.001 -26l-32 -28.5l-30 -27.5l-61 -55l-65 -61
c9.33301 -9.33301 18.333 -20 27 -32l10.5 -16.5c3.66699 -5.66699 7.16699 -11.834 10.5 -18.501zM1239 204.999c22 3.33301 41.667 7.33203 59 11.999c9.33301 3.33301 18.666 6.5 27.999 9.5s18.333 6.5 27 10.5c2.66699 18.667 3.66699 37.667 3 57
c-1.33301 17.333 -4.66602 34.333 -9.99902 51l-27.5 -33l-28.5 -36c-7.33301 -9.33301 -15.333 -20.166 -24 -32.499zM1173 200.998c10 15.333 20.6689 30.835 32.002 46.502s23.333 31.167 36 46.5c15.333 19.333 30 36.833 44 52.5l41 46.5l-21 36
c-7.33301 11.333 -16.333 21.666 -27 30.999l-63 -57.5l-60 -56.5l-63 -58l-72 -63c11.333 -4.66699 23 -8.83398 35 -12.501s24.667 -6.16699 38 -7.5c11.333 -1.33301 23.666 -2.5 36.999 -3.5s27.666 -1.16699 42.999 -0.5zM355.002 -77
c-50.667 0 -100.002 5.16504 -148.002 15.498s-90.5 27 -127.5 50s-66.667 52.833 -89 89.5s-33.5 81.334 -33.5 134.001c0 50.667 12.667 95.834 38 135.501s58.166 73.167 98.499 100.5s85.666 48.166 135.999 62.499s100.5 21.5 150.5 21.5c33.333 0 67 -4 101 -12
s64.5 -20 91.5 -36s49 -36.167 66 -60.5s25.5 -53.166 25.5 -86.499c0 -31.333 -7.83301 -60 -23.5 -86s-36.167 -48.167 -61.5 -66.5s-54 -32.666 -86 -42.999s-64 -15.5 -96 -15.5c-22.667 0 -45.167 2.33301 -67.5 7s-42.333 12 -60 22s-32 22.667 -43 38
s-16.5 33.666 -16.5 54.999c0 14 3.16699 27 9.5 39s14.333 22.667 24 32s20.667 17.333 33 24s24.5 11.334 36.5 14.001c11.333 2 17 1.66699 17 -1c0 -0.666992 -1.33301 -1 -4 -1s-7 -1 -13 -3c-21.333 -6.66699 -40 -19.334 -56 -38.001s-24 -40.667 -24 -66
c0 -19.333 4.5 -36 13.5 -50s21 -25.667 36 -35s32.333 -16.333 52 -21s40.167 -7 61.5 -7c31.333 0 61.833 4.83301 91.5 14.5s55.834 23.5 78.501 41.5s40.834 39.5 54.501 64.5s20.5 52.833 20.5 83.5c0 31.333 -7.66699 58.5 -23 81.5s-35.166 42.167 -59.499 57.5
s-52 26.666 -83 33.999s-62.5 11 -94.5 11c-49.333 0 -97.333 -7.16699 -144 -21.5s-88 -34.666 -124 -60.999s-65 -58.5 -87 -96.5s-33 -81 -33 -129c0 -52 9.5 -95.833 28.5 -131.5s45 -64.834 78 -87.501s71.5 -39 115.5 -49s91 -15 141 -15c38 0 75.667 3.33301 113 10
s73.5 15.667 108.5 27s68.5 24.5 100.5 39.5s62.333 30.833 91 47.5c39.333 22.667 78.5 48.334 117.5 77.001s76.833 58.667 113.5 90c-17.333 8 -33.666 17.5 -48.999 28.5s-28.333 23.167 -39 36.5s-18.834 28 -24.501 44s-7.5 33 -5.5 51
c2 22.667 9.16699 43.5 21.5 62.5s28 35.167 47 48.5s40.833 23.833 65.5 31.5s51 11.5 79 11.5c35.333 0 68.333 -5.33301 99 -16s57.667 -26 81 -46l63 58.5l63 57.5l31.5 28c11 10 22.167 19.5 33.5 28.5l33.5 25.5c11 8 21.5 15 31.5 21
c16.667 10.667 32 15.334 46 14.001c8.66699 -0.666992 15.834 -3.33398 21.501 -8.00098s8.83398 -10.334 9.50098 -17.001c0.666992 -8 -0.5 -16.667 -3.5 -26s-9.16699 -20.333 -18.5 -33c-10.667 -15.333 -22.667 -30.833 -36 -46.5l-42 -47.5l-83 -92.5l-72 -83.5
c3.33301 -10 6.16602 -20.167 8.49902 -30.5s3.83301 -20.5 4.5 -30.5c0.666992 -8 0.833984 -16.167 0.500977 -24.5s-1.16602 -17.166 -2.49902 -26.499c34 16 65 34.667 93 56s53.333 43.666 76 66.999c49.333 52.667 78 104.334 86 155.001
c1.33301 8.66699 1.5 14.167 0.5 16.5s-0.833008 3.83301 0.5 4.5c5.33301 1.33301 7 -6.33398 5 -23.001c-3.33301 -26.667 -12.333 -53.5 -27 -80.5s-34 -53.5 -58 -79.5c-24.667 -26 -51.5 -49.833 -80.5 -71.5s-61.5 -40.167 -97.5 -55.5
c-4 -24.667 -11.167 -49.667 -21.5 -75s-24.5 -50 -42.5 -74c-19.333 -25.333 -40.833 -46.5 -64.5 -63.5s-46.5 -25.5 -68.5 -25.5c-18 0 -32.833 5.16699 -44.5 15.5s-16.167 26.166 -13.5 47.499c1.33301 13.333 4.5 27 9.5 41s11.167 27.667 18.5 41
c4.66699 8.66699 9.66699 17.5 15 26.5l17 27.5c-13.333 0 -26.333 0.333008 -39 1s-24.667 1.66699 -36 3c-13.333 1.33301 -26.833 4 -40.5 8s-27.167 8.66699 -40.5 14c-37.333 -31.333 -76 -61.666 -116 -90.999s-80 -55.666 -120 -78.999
c-27.333 -16 -56.833 -31.5 -88.5 -46.5s-65.334 -28.333 -101.001 -40s-72.834 -21 -111.501 -28s-78 -10.5 -118 -10.5h-1z" />
    <glyph glyph-name="afii10018" unicode="&#x411;" horiz-adv-x="1257" 
d="M1414 716c-5.33301 0.666992 -8.16797 -0.504883 -8.50098 -3.50488s-2.83301 -3.83301 -7.5 -2.5l-59 -22.5l-57 -23.5c-8.66699 -5.33301 -18.167 -12.333 -28.5 -21l-22.5 -19c-46 -38 -89 -82 -129 -132s-78.333 -100.333 -115 -151
c-41.333 -57.333 -85.833 -110 -133.5 -158s-99 -89.167 -154 -123.5s-113.667 -61.166 -176 -80.499s-128.833 -29 -199.5 -29h-1c-38.667 0 -75.5 4.83301 -110.5 14.5s-65.667 23.834 -92 42.501s-47.333 41.5 -63 68.5s-23.5 57.833 -23.5 92.5
c0 44.667 11.333 84.334 34 119.001s51.334 64 86.001 88s72.834 42.167 114.501 54.5s81.5 18.5 119.5 18.5c26 0 51.167 -2.83301 75.5 -8.5s46 -14.334 65 -26.001s34.333 -26.167 46 -43.5s17.5 -38 17.5 -62c0 -26 -7.33301 -49.5 -22 -70.5
s-32.834 -38.667 -54.501 -53s-45 -25.5 -70 -33.5s-47.5 -12.333 -67.5 -13c-11.333 -0.666992 -21.333 -0.333984 -30 0.999023s-12.667 3.66602 -12 6.99902c0 1.33301 0.5 1.83301 1.5 1.5s3 -0.666016 6 -0.999023s7.16699 -0.833008 12.5 -1.5
s12.333 -0.333984 21 0.999023c18.667 2 38.334 7 59.001 15s39.334 18.833 56.001 32.5s30.5 30 41.5 49s16.5 40.833 16.5 65.5c0 20.667 -4.16699 39.167 -12.5 55.5s-19.833 30 -34.5 41s-32 19.5 -52 25.5s-41.333 9 -64 9c-38 0 -76.333 -6 -115 -18
s-73.5 -29.5 -104.5 -52.5s-56.333 -51.333 -76 -85s-29.5 -72.167 -29.5 -115.5c0 -32.667 6.16699 -61.834 18.5 -87.501s30 -47.5 53 -65.5s50.667 -31.833 83 -41.5s68.166 -14.5 107.499 -14.5c58.667 0 111.667 6.66699 159 20s91.666 32.5 132.999 57.5
s80.833 55.5 118.5 91.5s76.167 76.667 115.5 122l74.5 90.5c29 36.333 60.5 73.666 94.5 111.999s69.667 74.833 107 109.5s74 62.334 110 83.001c-12 -5.33301 -23.833 -10.333 -35.5 -15l-34.5 -14c-41.333 -17.333 -82 -33.5 -122 -48.5s-80.5 -28 -121.5 -39
s-83.167 -19.667 -126.5 -26s-88.666 -9.83301 -135.999 -10.5c-60 -0.666992 -116.333 4.83301 -169 16.5s-98.5 29.5 -137.5 53.5s-69.833 54.5 -92.5 91.5s-33.667 80.5 -33 130.5c0 38 8 74 24 108s38.167 65.667 66.5 95s61.833 56 100.5 80s80.667 44.667 126 62
s93.166 31 143.499 41s101.166 15.667 152.499 17c42.667 1.33301 85.334 -1.16699 128.001 -7.5s81.167 -16.666 115.5 -30.999s62.166 -33.166 83.499 -56.499s31.666 -51.666 30.999 -84.999c0 -27.333 -6.66699 -54 -20 -80s-31.166 -50.333 -53.499 -73
s-48.5 -43.334 -78.5 -62.001s-61.833 -34.834 -95.5 -48.501s-68.667 -24.167 -105 -31.5s-71.833 -10.666 -106.5 -9.99902c-24.667 0 -50 2.5 -76 7.5s-49.833 12.667 -71.5 23s-39.167 23.5 -52.5 39.5s-20 35.333 -20 58c0 24.667 6.66699 47.167 20 67.5
s29.833 37.833 49.5 52.5s40.834 26.334 63.501 35.001s43.667 13.667 63 15c12.667 0.666992 19 0 19 -2c-0.666992 -2 -6.33398 -3 -17.001 -3c-18.667 -2 -38.834 -7.33301 -60.501 -16s-41.834 -20.167 -60.501 -34.5s-34.334 -31.166 -47.001 -50.499
s-19 -40.666 -19 -63.999c0 -19.333 5.16699 -35.5 15.5 -48.5s23.666 -23.5 39.999 -31.5s34.166 -13.833 53.499 -17.5s38 -5.5 56 -5.5c35.333 -0.666992 72 2.16602 110 8.49902s75.167 15.333 111.5 27s71 26 104 43s61.833 36 86.5 57s44.334 43.667 59.001 68
s22.334 49.833 23.001 76.5c0 31.333 -10.5 58 -31.5 80s-48.167 39.667 -81.5 53s-70.833 22.833 -112.5 28.5s-82.834 8.16699 -123.501 7.5c-47.333 -1.33301 -95 -7.33301 -143 -18s-94.167 -25.167 -138.5 -43.5s-86 -39.666 -125 -63.999
s-72.833 -50.666 -101.5 -78.999s-51.5 -58.5 -68.5 -90.5s-25.5 -64.333 -25.5 -97c-0.666992 -48 9.83301 -89.833 31.5 -125.5s51.5 -65.334 89.5 -89.001s82.833 -41.167 134.5 -52.5s107.167 -16.666 166.5 -15.999c47.333 0.666992 92.833 4.83398 136.5 12.501
s85.834 18 126.501 31s80.334 28 119.001 45l114 52.5l119 56c40 18.667 79.5 35.5 118.5 50.5s77.667 27 116 36s75.833 13.5 112.5 13.5c19.333 -0.666992 38.333 -2.5 57 -5.5s36.167 -7.5 52.5 -13.5s30.833 -13.5 43.5 -22.5s22.334 -19.5 29.001 -31.5
c2 -3.33301 4.16699 -7.33301 6.5 -12s2.5 -7.66699 0.5 -9c-1.33301 0 -3.16602 1.16699 -5.49902 3.5s-6.16602 5.83301 -11.499 10.5c-17.333 11.333 -39.166 20.166 -65.499 26.499s-52.833 9.83301 -79.5 10.5c-45.333 0.666992 -85.833 -2 -121.5 -8
s-73.834 -16.333 -114.501 -31zM1106 367.995c20.667 -2 40.001 -6.33398 58.001 -13.001s33.5 -15 46.5 -25s23.167 -21.5 30.5 -34.5s11 -26.5 11 -40.5c0 -6 -0.666992 -12.167 -2 -18.5l-4 -19.5c5.33301 0.666992 10.5 1 15.5 1h15.5c30 0 45 -2.33301 45 -7
c0 -1.33301 -0.666992 -2 -2 -2c-2 0 -7.5 0.5 -16.5 1.5s-19.167 1.5 -30.5 1.5c-4.66699 0 -9.5 -0.166992 -14.5 -0.5s-10.167 -0.5 -15.5 -0.5c-9.33301 -26.667 -26.333 -53 -51 -79s-52.667 -49.167 -84 -69.5s-64.5 -36.833 -99.5 -49.5s-67.5 -19 -97.5 -19
c-18.667 0 -35.5 3 -50.5 9s-22.5 17.667 -22.5 35c0 18 10.833 36 32.5 54s49.167 34.667 82.5 50s70 29 110 41s78.333 20.667 115 26c8 20.667 12 40.334 12 59.001c0 25.333 -7 46.333 -21 63s-37 25 -69 25c-13.333 0 -25.833 -2.5 -37.5 -7.5s-24.5 -7.5 -38.5 -7.5
c-5.33301 0 -9.66602 1 -12.999 3s-4.33301 4.66699 -3 8c2.66699 4.66699 7.66699 8.5 15 11.5s15.666 5.16699 24.999 6.5s19.166 1.83301 29.499 1.5s19.833 -1.5 28.5 -3.5zM929.999 4.99414c22.667 0 46.1689 5.8291 70.502 17.4961s47.666 26.834 69.999 45.501
s42.666 39.834 60.999 63.501s32.5 47.167 42.5 70.5c-42 -7.33301 -80.667 -17.166 -116 -29.499s-66 -25.666 -92 -39.999s-46.333 -29.333 -61 -45s-22 -30.5 -22 -44.5c0 -25.333 15.333 -38 46 -38h1z" />
    <glyph glyph-name="afii10019" unicode="&#x412;" horiz-adv-x="1194" 
d="M929 5c20 0 40.667 5.66602 62 16.999s41.833 26 61.5 44s37.5 38.333 53.5 61s28.667 45.334 38 68.001c-20 -4 -39.833 -8.83301 -59.5 -14.5s-37.167 -11.5 -52.5 -17.5c-44 -16.667 -79 -36.167 -105 -58.5s-39 -43.5 -39 -63.5c0 -24 13.333 -36 40 -36h1z
M671 -243.001c-32 0 -62.166 4.82617 -90.499 14.4932s-53.833 23.5 -76.5 41.5s-42 39.833 -58 65.5s-27.333 54.5 -34 86.5c-15.333 -2.66699 -30.833 -4.5 -46.5 -5.5s-31.834 -1.5 -48.501 -1.5c-36.667 0 -72.667 4.83301 -108 14.5s-66.833 24.167 -94.5 43.5
s-50 43.666 -67 72.999s-25.5 64 -25.5 104c0 46 10.333 88.667 31 128s48.834 73.5 84.501 102.5s77.5 51.667 125.5 68s99.333 24.5 154 24.5c30 0 62 -4.16699 96 -12.5s65.333 -21.166 94 -38.499c32 32 67.833 62.333 107.5 91s81.834 53.667 126.501 75
s91.334 38 140.001 50s98 17.333 148 16c25.333 -0.666992 49.5 -3.66699 72.5 -9s43.833 -13.333 62.5 -24c9.33301 5.33301 20.5 10.5 33.5 15.5s25.5 9.16699 37.5 12.5c9.33301 2 14 2 14 0c0 -0.666992 -1.5 -1.16699 -4.5 -1.5s-6.16699 -1.16602 -9.5 -2.49902
c-10.667 -3.33301 -21.334 -7.66602 -32.001 -12.999s-20.667 -11 -30 -17c16.667 -11.333 30 -25 40 -41s15.667 -34.667 17 -56c0.666992 -17.333 -2.16602 -33.833 -8.49902 -49.5s-15 -30.334 -26 -44.001s-23.667 -26.167 -38 -37.5s-29.166 -21.666 -44.499 -30.999
c-20.667 -12 -42.167 -21.833 -64.5 -29.5s-41.166 -13.167 -56.499 -16.5c36.667 -3.33301 65.834 -15.166 87.501 -35.499s32.5 -44.166 32.5 -71.499c0 -10.667 -1.66699 -22.667 -5 -36c19.333 2 36.666 2 51.999 0c7.33301 -1.33301 11.833 -2.5 13.5 -3.5
s2.16699 -2.16699 1.5 -3.5s-2 -1.66602 -4 -0.999023s-6.66699 1.33398 -14 2.00098c-15.333 1.33301 -32.333 1.33301 -51 0c-8.66699 -26 -23.834 -51.5 -45.501 -76.5s-46.334 -47.333 -74.001 -67s-56.834 -35.667 -87.501 -48s-59.334 -18.5 -86.001 -18.5
c-16 0 -30.667 3 -44 9s-20 17.333 -20 34c0 12.667 5 25.167 15 37.5s23.333 24.166 40 35.499s36 22.166 58 32.499s44.667 19.833 68 28.5c18 6.66699 37 12.667 57 18s40.333 9.66602 61 12.999c7.33301 20.667 11 39.667 11 57c0 24.667 -6.5 45.334 -19.5 62.001
s-33.5 24.667 -61.5 24c-10.667 0 -20.5 -1.83301 -29.5 -5.5s-18.833 -6.5 -29.5 -8.5c-5.33301 -1.33301 -10 -1.33301 -14 0s-6 4.33301 -6 9c0 5.33301 2.16699 8.83301 6.5 10.5s11.166 3.16699 20.499 4.5l66 8c22 2.66699 45 10.334 69 23.001
c36 18.667 65.667 43.167 89 73.5s35 66.5 35 108.5c0 30.667 -11 56 -33 76c-48 -34 -94.333 -75.833 -139 -125.5s-92.334 -106.5 -143.001 -170.5c-36 -45.333 -73.667 -88.5 -113 -129.5s-80.666 -78 -123.999 -111s-88.833 -61.333 -136.5 -85
s-98.167 -40.834 -151.5 -51.501c6 -31.333 15.667 -59.666 29 -84.999s30 -46.666 50 -63.999s42.667 -30.666 68 -39.999s52.666 -14 81.999 -14c25.333 0 47.333 1.83301 66 5.5s38.334 11.167 59.001 22.5c6 3.33301 10 6 12 8s3.33301 2.33301 4 1s0.166992 -3 -1.5 -5
s-5.16699 -5 -10.5 -9c-17.333 -12 -37 -20.667 -59 -26s-45.667 -8 -71 -8h-1zM442.001 -19.0078c48.667 11.333 93.498 29.1709 134.498 53.5039s80.333 53.166 118 86.499s74.834 70.333 111.501 111l114 128c54.667 62 108 118.333 160 169s106 91.667 162 123
c-29.333 22.667 -66.666 34.667 -111.999 36c-49.333 1.33301 -97.833 -4 -145.5 -16s-93.334 -28.5 -137.001 -49.5s-85 -45.833 -124 -74.5s-73.833 -59 -104.5 -91c25.333 -16.667 45.833 -37.167 61.5 -61.5s23.5 -53.166 23.5 -86.499
c0 -25.333 -3.5 -47.833 -10.5 -67.5s-16.5 -36.167 -28.5 -49.5c-2 -2.66699 -4.16699 -4.83398 -6.5 -6.50098s-4.16602 -1.83398 -5.49902 -0.500977c-0.666992 0.666992 0 2.16699 2 4.5s3.66699 4.16602 5 5.49902c12 16.667 20.5 33.667 25.5 51
s7.5 37.666 7.5 60.999c0 32 -8 59.167 -24 81.5s-36.667 41.166 -62 56.499c-52.667 -57.333 -94 -119 -124 -185s-45 -140 -45 -222c0 -10 0.333008 -19.667 1 -29s1.66699 -18.666 3 -27.999zM316.999 -33.0029c16 0 31.668 0.665039 47.001 1.99805
s30.666 3.33301 45.999 6c-1.33301 8 -2.5 17.167 -3.5 27.5s-1.5 20.833 -1.5 31.5c0 42.667 4.83301 83.334 14.5 122.001s23 75.334 40 110.001s37 67.5 60 98.5s47.833 60.167 74.5 87.5c-26 13.333 -54.5 23.166 -85.5 29.499s-61.833 9.5 -92.5 9.5
c-51.333 0 -100 -7.33301 -146 -22s-86.333 -35.167 -121 -61.5s-62.167 -57.666 -82.5 -93.999s-30.5 -75.833 -30.5 -118.5c0 -38 7.83301 -71.333 23.5 -100s36.5 -52.5 62.5 -71.5s55.833 -33.167 89.5 -42.5s68.5 -14 104.5 -14h1z" />
    </font>
</defs>
</svg>
