<?xml version="1.0" encoding="UTF-8" standalone="no"?>
<!DOCTYPE svg  PUBLIC '-//W3C//DTD SVG 1.1//EN'  'http://www.w3.org/Graphics/SVG/1.1/DTD/svg11.dtd'>
<svg xmlns="http://www.w3.org/2000/svg" version="1.1">
<defs>
<font id="BickhamScriptPro3" horiz-adv-x="390">
<font-face descent="-320" font-style="italic" font-weight="400" ascent="680" units-per-em="1000" font-family="Bickham Script Pro 3" slope="-39" cap-height="426" underline-position="-110" underline-thickness="10" unicode-range="U+0020-04F3" panose-1="3 4 6 2 4 6 7 13 13 6" bbox="-611.056 -406 1194.27 750" x-height="171"/>
<missing-glyph/>
<glyph glyph-name="space" unicode=" " horiz-adv-x="153"/>
<glyph d="M305 339q12 0 12 -5q-2 -7 -19 -30q-34 -45 -101 -118.5t-105 -111.5q-9 -9 -13 -7t6 16q97 128 160 224q22 32 60 32zM67 44q13 0 16 -7.5t-6 -18.5q-8 -11 -23 -19t-24 -8q-8 12 -1 34q7 19 38 19z" glyph-name="exclam" unicode="!" horiz-adv-x="239"/>
<glyph d="M164 356q13 0 15 -6t-10 -17q-55 -47 -79 -66q-8 -7 -10 -5q-4 1 3 11l41 64q11 19 40 19zM244 356q13 0 15 -6t-10 -17q-55 -47 -79 -66q-8 -7 -10 -5q-4 1 3 11l41 64q11 19 40 19z" glyph-name="quotedbl" unicode='&quot;' horiz-adv-x="171"/>
<glyph d="M246 281q11 0 11 -4q1 -7 -17 -28l-52 -62q6 0 43 -0.5t50 -0.5q3 5 24.5 33t31.5 42q1 1 6 7t6 7t4.5 5t6 5t6.5 2t9 1q11 0 12 -4q0 -6 -18 -28t-58 -70l50 -1q16 0 16 -4t-16 -4h-58q-52 -63 -55 -67h24.5h27.5l13 -1q16 0 16 -4t-16 -4l-73 -1q-57 -71 -87 -107 q-9 -13 -16 -9q-4 3 5 15q19 28 74 101l-98 -1q-49 -60 -93 -113q-11 -14 -17 -9q-4 4 5 15l80 107h-41q-23 0 -24 6q0 7 21 7h53q5 7 15 20t18 23.5t15 19.5h-50q-23 0 -24 5q0 3 3.5 5t7.5 2.5t10 0.5q11 0 31.5 -0.5t30.5 -0.5l50 66q2 3 6.5 9t6.5 8t6 5.5t8 4.5t10 1z M180 175l-52 -64q16 0 48 -0.5t49 -0.5q13 19 49 66q-13 0 -45 -0.5t-49 -0.5z" glyph-name="numbersign" unicode="#" horiz-adv-x="356"/>
<glyph d="M248 272l-66 -100q19 -60 10 -86q-10 -31 -40.5 -49.5t-59.5 -18.5q-9 0 -13 1q-19 -29 -26 -40q-6 -9 -11 -7t2 13l23 36q-23 6 -34.5 21.5t-7.5 34.5q6 31 34 29q9 -1 13.5 -8t2.5 -16q-2 -8 -10 -16.5t-8 -13.5q-2 -15 17 -21l74 113q-17 42 -4 74q10 29 36.5 45.5 t57.5 17.5q7 10 12 18q16 24 23 22q6 -1 -9 -24l-11 -17q18 -4 28 -16t5 -30q-8 -24 -28 -22q-22 3 -12 25q3 6 8.5 13t5.5 11q-1 8 -12 11zM176 187l57 86q-18 0 -35 -11.5t-23 -28.5q-7 -21 1 -46zM154 130l-69 -102q3 -1 10 -1q19 0 35.5 11.5t25.5 28.5q13 25 -2 63z " glyph-name="dollar" unicode="$" horiz-adv-x="266"/>
<glyph d="M306 250q-29 -16 -59 -19q-23 -2 -44 6q5 -11 1 -27q-8 -29 -41 -64q-18 -19 -41.5 -31.5t-40.5 -12.5t-27 11t-8 28q4 33 38 68q32 35 76 43q11 2 11 -1q0 -1 -2 -2l-6 -3l-8 -4q-19 -13 -45 -47q-30 -41 -34 -63q-3 -19 10 -20q25 -3 57 43q27 36 38 69q5 14 0 21 q-1 2 -2.5 3t-2.5 1.5t-1 1.5q2 5 14 1l8 -4q20 -11 50 -9q39 5 80 34q25 27 43 27q11 0 6 -7q-4 -6 -23 -25q-136 -133 -283 -302q-11 -11 -16 -8q-3 3 7 15q123 147 245 277zM240 -6q-17 0 -27 11t-8 28q5 32 38 67t76 43q3 1 7.5 0.5t4.5 -1.5t-1.5 -1.5t-6 -2.5t-8.5 -5 q-21 -13 -46 -46q-30 -38 -34 -64q-3 -17 10 -20q24 -4 57 43q30 41 38 69q5 16 0 22q-1 2 -4 4l-2 1q0 1 2 1.5t5.5 0.5t6.5 -1q23 -8 16 -38q-6 -32 -41 -68q-18 -19 -42 -31t-41 -12z" glyph-name="percent" unicode="%" horiz-adv-x="392"/>
<glyph d="M506 299q22 0 33 -11.5t7 -29.5q-3 -14 -14.5 -25t-23.5 -8q-14 3 -10 31q4 20 -14 21q-29 4 -110 -67q-19 -17 -60 -57t-61 -58q54 -77 40 -143q-12 -54 -59.5 -90t-104.5 -36q-46 0 -60 28q-7 14 -2 17q1 0 2 -1.5t2.5 -5t3.5 -6.5q16 -20 54 -20q40 0 71.5 25t43.5 65 q19 68 -18 143q-92 -76 -155 -76q-18 0 -29 11.5t-7 32.5q8 40 85 86q12 7 33.5 18.5t30.5 16.5q-9 34 -4 60q6 28 27 50.5t48 22.5q16 0 24 -14t0 -35q-14 -39 -69 -77q4 -11 37 -63q21 19 61 59t59 58q87 78 139 78zM253 277q-15 0 -29 -17t-19 -39q-4 -24 3 -46 q47 35 60 70q5 13 0.5 22.5t-15.5 9.5zM105 22q40 0 115 59q-23 40 -33 71q-52 -36 -59 -42q-42 -34 -46 -62q-4 -26 23 -26z" glyph-name="ampersand" unicode="&amp;" horiz-adv-x="452"/>
<glyph d="M164 356q13 0 15 -6t-10 -17q-55 -47 -79 -66q-8 -7 -10 -5q-4 1 3 11l41 64q11 19 40 19z" glyph-name="quotesingle" unicode="&apos;" horiz-adv-x="91"/>
<glyph d="M72 -92q-4 0 -5 9q-4 19 -4.5 48t3.5 73.5t24.5 98t54.5 100.5q136 190 337 225q9 2 9 -1q0 -2 -9 -5q-71 -21 -152.5 -75.5t-150.5 -152.5q-61 -87 -83.5 -171t-21.5 -140q0 -9 -2 -9z" glyph-name="parenleft" unicode="(" horiz-adv-x="239"/>
<glyph d="M-107 -86q0 1 9 4q67 22 141 80t137 156q55 85 71.5 166t11.5 138q0 8 1 8q3 0 5 -7q43 -163 -54 -315q-38 -60 -84 -105.5t-89.5 -70.5t-76.5 -38t-63 -18q-9 -2 -9 2z" glyph-name="parenright" unicode=")" horiz-adv-x="239"/>
<glyph d="M302 340q0 -4 -17 -4q-35 0 -57 1q13 -27 19 -48q4 -14 1 -15t-9 7q-16 21 -32 48q-41 -39 -54 -50q-13 -12 -16 -8q-3 3 7 16q38 46 45 53q-20 4 -48 10q-13 4 -13 9t16 5q19 0 46 -3q-10 21 -19 45q-5 14 0 17q4 3 13 -10q13 -18 29 -46q27 27 51 47q15 12 18 10 q3 -3 -7 -17q-19 -26 -41 -51q50 -8 53 -9q15 -3 15 -7z" glyph-name="asterisk" unicode="*" horiz-adv-x="231"/>
<glyph d="M287 250q5 0 8 -0.5t5 -1.5t2.5 -3t-1 -5.5t-5 -9t-9.5 -12.5q-20 -24 -71 -84l113 -3q16 0 16 -5t-16 -5l-127 -3q-93 -107 -103 -118q-13 -13 -16 -11q-4 3 5 15l84 113q-15 0 -50 -0.5t-55 -0.5q-11 0 -16.5 1.5t-6.5 3.5t0 5q4 13 21 13l120 -4q30 41 65 87 q1 1 4.5 5.5t4 5.5t3.5 4.5t4.5 4.5t4 3t5 3t5.5 1.5t6 0.5z" glyph-name="plus" unicode="+" horiz-adv-x="356"/>
<glyph d="M68 35q0 -8 -8 -17q-33 -41 -87 -73q-12 -6 -13 -5q-1 2 8 12q28 31 37 49q3 4 1 12.5t-1 10.5q6 16 48 20q15 2 15 -9z" glyph-name="comma" unicode="," horiz-adv-x="125"/>
<glyph d="M150 117q23 0 34.5 -15.5t10.5 -36.5q0 -5 -2 -5t-4 3q-10 16 -40 16q-12 0 -35 -4.5t-40 -4.5q-25 0 -35 13q-2 3 0 5t4 0q8 -4 16 -4q18 0 50 19q20 14 41 14z" glyph-name="hyphen" unicode="-" horiz-adv-x="245"/>
<glyph d="M50 44q13 0 16 -7.5t-6 -18.5q-8 -11 -23 -19t-24 -8q-8 12 -1 34q7 19 38 19z" glyph-name="period" unicode="." horiz-adv-x="124"/>
<glyph d="M371 380q12 0 12 -4q0 -7 -23 -31l-393 -424q-10 -10 -15 -6q-3 3 8 16q228 261 361 419q27 30 50 30z" glyph-name="slash" unicode="/" horiz-adv-x="239"/>
<glyph d="M65 -9q-29 0 -44.5 16.5t-12.5 48.5q5 61 67 127q26 30 63.5 52t67.5 28q21 4 21 -2q0 -1 -2.5 -1t-7.5 -2t-11 -6q-37 -25 -88 -89q-57 -69 -68 -124q-6 -35 18 -37q37 -4 107 82q55 71 73 134q7 24 -3 34q-3 4 -10 7l-2 2q1 2 8.5 2t14.5 -3q15 -7 22.5 -26t0.5 -44 q-15 -57 -75 -120q-33 -36 -71 -57.5t-68 -21.5z" glyph-name="zero" unicode="0" horiz-adv-x="266"/>
<glyph d="M216 221q-33 -22 -64 -38q-10 -5 -22 -8.5t-18 -4t-8 1.5q0 2 4 4q26 11 44 21q62 33 87 50q30 19 41 19q12 0 -7 -22q-77 -93 -157 -205q-19 -27 -28.5 -33t-43.5 -13q-15 -2 -16 3q0 6 21 33q36 48 94 114.5t73 77.5z" glyph-name="one" unicode="1" horiz-adv-x="266"/>
<glyph d="M160 94q-46 -27 -115 -53q15 3 31 2q12 -1 33.5 -8t29.5 -7q35 0 71 38q6 6 8 5q4 -3 -1 -8q-53 -69 -101 -69q-28 0 -56 14q-18 9 -41 9q-16 0 -32 -10q-3 -1 -8 -4.5t-8.5 -6t-5.5 -2.5q-3 -1 -3 2q0 2 1 4q2 6 17 15q7 5 40.5 22t52.5 29q53 31 96 71t53 71 q5 17 -2.5 28t-22.5 11q-37 0 -69 -26q-29 -23 -35 -49q-4 -18 3.5 -26t22.5 -4q6 2 7 0q1 -1 -1.5 -3t-5.5 -3q-11 -4 -23 -3q-29 4 -23 33q7 30 49 63q49 37 98 37q33 0 46 -17.5t5 -46.5q-16 -52 -111 -108z" glyph-name="two" unicode="2" horiz-adv-x="266"/>
<glyph d="M171 149q22 -1 36 -12q21 -17 10 -51q-13 -40 -67 -69q-47 -26 -98 -26q-29 1 -47.5 13.5t-14.5 35.5q3 18 17.5 29.5t32.5 11.5q12 0 18.5 -7t4.5 -16t-19 -21q-15 -10 -17 -19t6.5 -14t24.5 -4q64 2 108 88q9 16 8.5 33t-12.5 18q-10 1 -26 -7q-13 -7 -14 -5 q-2 3 3 7.5t14 8.5q43 18 67.5 41t24.5 45q0 19 -24 19q-27 0 -48 -15q-22 -16 -29 -37q-4 -14 -3 -21q0 -2 2 -5q1 -2 0 -3q-5 -3 -10 5q-6 10 -2 26q8 26 41 46q37 22 80 22q41 0 41 -31t-38 -55q-31 -19 -70 -31z" glyph-name="three" unicode="3" horiz-adv-x="266"/>
<glyph d="M318 267q7 0 7 -2t-5 -9q-68 -85 -153 -204q31 -3 39 -4q8 -2 11.5 -4.5t2.5 -6.5q0 -1 -18 0q-30 2 -42 2q-41 -51 -79 -106q-17 -24 -50 -30q-20 -4 -20 2q1 9 18 33q14 19 38.5 52t36.5 49q-44 0 -78 -3q-21 -1 -41 -5q-13 -3 -13 2q0 6 15 17q54 43 126 93 q36 25 162 107q27 17 43 17zM257 222q3 3 -1 1q-59 -34 -137 -90q-85 -62 -113 -85v-1q35 5 108 5q96 128 143 170z" glyph-name="four" unicode="4" horiz-adv-x="266"/>
<glyph d="M213 273q2 0 9 -7q11 -11 28 -17q14 -5 34 -5q17 0 26 7q7 5 8 4q4 -2 -3 -10q-8 -11 -25 -19q-25 -12 -60 -10q-28 1 -47 15q-31 -40 -74 -81l1 -1q24 11 49 11q29 0 46.5 -16t9.5 -48q-10 -46 -61 -75.5t-109 -29.5q-30 0 -48.5 12t-14.5 37q3 16 16 27.5t27 11.5 q24 0 22 -22q-1 -11 -13 -21q-13 -11 -14 -19t6 -12.5t19 -4.5q40 0 76.5 30t46.5 76q4 20 -2.5 31.5t-22.5 11.5q-18 0 -32 -7q-9 -5 -19 -13q-11 -9 -15 -6q-8 7 10 20q20 16 55 54q26 28 60 69q5 7 11 7z" glyph-name="five" unicode="5" horiz-adv-x="266"/>
<glyph d="M24 44q0 75 77 154q52 53 122.5 88t121.5 34q47 0 61 -32q5 -11 0 -13q-2 -1 -7 7q-16 26 -53 26q-80 0 -205 -133q-86 -90 -86 -147q0 -29 25 -29q41 2 94 78q22 32 28 57t-10 30q-23 3 -51 -17q-6 -4 -8 -2q-2 3 7 10q32 25 63 21q33 -4 36.5 -40.5t-25.5 -75.5 q-24 -33 -62 -51.5t-71 -18.5q-27 0 -42 15.5t-15 38.5z" glyph-name="six" unicode="6" horiz-adv-x="266"/>
<glyph d="M276 238q-68 -26 -127 -25q-17 0 -29 8t-10 23q2 17 25 28q12 6 23 6l2 -1l-4 -8q-3 -7 -2 -13.5t12.5 -11.5t30.5 -5q48 -1 94 11q4 2 9.5 3t6.5 -2t-2.5 -4.5t-8.5 -2.5q-112 -95 -253 -264q-8 -8 -53 -14q-25 -4 -26.5 -0.5t17.5 22.5q174 169 295 250z" glyph-name="seven" unicode="7" horiz-adv-x="266"/>
<glyph d="M243 304q-20 0 -38.5 -14.5t-22.5 -33.5q-7 -31 14 -81q16 -44 15 -68q-3 -48 -48.5 -83.5t-96.5 -32.5q-30 2 -46 20.5t-9 46.5q8 31 39.5 57t71.5 42q22 8 23 4q0 -1 -2 -2.5t-7 -4t-9 -5.5q-52 -35 -67 -85q-8 -26 0 -41t28 -17q34 -2 58 25.5t24 61.5q0 21 -16 61 q-14 34 -12 65q2 39 41 70t80 30q28 -1 41.5 -18.5t7.5 -42.5q-9 -41 -82 -76q-25 -12 -27 -7q0 2 2 4t7 4.5t6 3.5q45 28 55 71q5 19 -3.5 32.5t-26.5 13.5z" glyph-name="eight" unicode="8" horiz-adv-x="266"/>
<glyph d="M-96 -92q63 0 134 57q64 50 122 131q65 94 69 131q3 24 -15 27q-19 5 -47.5 -16t-54.5 -58q-21 -30 -24.5 -54.5t12.5 -29.5q20 -5 49 17q13 9 14 8t0 -3t-4.5 -6t-8.5 -8q-33 -25 -62 -20q-32 5 -35.5 40t24.5 74q26 36 69.5 53.5t72.5 11.5q39 -7 41 -50 q2 -25 -13.5 -63t-43.5 -74q-57 -75 -140.5 -127.5t-156.5 -52.5q-21 0 -37 9t-21 22q-4 11 1 13q1 0 2 -0.5t1.5 -3t1.5 -3.5q13 -25 50 -25z" glyph-name="nine" unicode="9" horiz-adv-x="266"/>
<glyph d="M60 44q13 0 16 -7.5t-6 -18.5q-8 -11 -23 -19t-24 -8q-8 12 -1 34q7 19 38 19zM108 143q13 0 16 -7.5t-6 -18.5q-8 -11 -23 -19t-24 -8q-8 12 -1 34q7 19 38 19z" glyph-name="colon" unicode=":" horiz-adv-x="163"/>
<glyph d="M79 35q0 -8 -8 -17q-33 -41 -87 -73q-12 -6 -13 -5q-1 2 8 12q28 31 37 49q3 4 1 12.5t-1 10.5q6 16 48 20q15 2 15 -9zM108 143q13 0 16 -7.5t-6 -18.5q-8 -11 -23 -19t-24 -8q-8 12 -1 34q7 19 38 19z" glyph-name="semicolon" unicode=";" horiz-adv-x="163"/>
<glyph d="M39 129q0 6 23 14q99 37 234 86q13 5 13 0q0 -4 -15 -10l-210 -92l140 -87q10 -5 7 -9t-12 0l-167 86q-13 7 -13 12z" glyph-name="less" unicode="&lt;" horiz-adv-x="282"/>
<glyph d="M343 161v-1q0 -5 -15 -5q-85 -2 -248 -4q-10 0 -12.5 3t-0.5 9q6 12 23 12l237 -9q16 0 16 -5zM306 97v-1q0 -5 -15 -5q-39 -1 -121.5 -2t-126.5 -2q-18 0 -12 13q5 12 22 11l237 -8q16 0 16 -6z" glyph-name="equal" unicode="=" horiz-adv-x="331"/>
<glyph d="M265 130q0 -5 -23 -14q-35 -13 -118 -44t-115 -43q-12 -4 -13 0q-1 2 3 5t11 6l210 92q-22 14 -56.5 35l-57.5 35t-26 16q-8 6 -6 10q3 5 11 0l168 -86q12 -6 12 -12z" glyph-name="greater" unicode="&gt;" horiz-adv-x="282"/>
<glyph d="M256 337q29 0 42.5 -19t5.5 -47q-17 -57 -117 -104q-37 -18 -62 -33q-28 -16 -35 -32q-1 -2 -3 -8l-3.5 -10.5t-5 -8t-7.5 -3.5q-5 1 -3.5 9.5t5.5 15.5q16 32 55 55q111 67 129 123q12 40 -21 43t-70 -25q-22 -18 -34 -41.5t-4 -38.5q1 -3 3.5 -4.5t3.5 -2.5t1 -2 q-2 -3 -11 -1q-25 5 -16 38q7 27 51 60q49 36 96 36zM67 44q13 0 16 -7.5t-6 -18.5q-8 -11 -23 -19t-24 -8q-8 12 -1 34q7 19 38 19z" glyph-name="question" unicode="?" horiz-adv-x="239"/>
<glyph d="M318 264q51 0 79 -24t26 -59q-1 -23 -20 -51q4 -10 4 -19q0 -32 -20 -56q-59 -70 -164 -67q-65 1 -100 33.5t-33.5 76.5t35.5 83q31 36 82.5 59.5t110.5 23.5zM317 256q-47 0 -91.5 -26t-69.5 -59q-30 -40 -35 -79t22 -66.5t82 -28.5q95 -3 153 64q21 26 21 49q0 8 -1 11 q-6 -8 -12 -14q-41 -41 -78 -41q-34 0 -37 22q-2 11 8 24h-1q-47 -45 -77 -45q-14 0 -22 6t-7 22q4 34 50 68q51 35 86 29q10 -1 14 -8.5t2 -14.5h1q21 24 34 24q19 0 9 -11q-49 -61 -57 -75q-7 -12 -4 -20t15 -8q29 0 59 37q6 8 12 19q-2 6 -7 12q-4 5 -3 7q1 3 6 -2l8 -9 q8 17 10 39q1 31 -22 52.5t-68 21.5zM302 184q-19 0 -61 -42q-36 -36 -36 -54q0 -7 8 -7q18 0 54 32q17 15 32 33t16 26q1 6 -3 9t-10 3z" glyph-name="at" unicode="@" horiz-adv-x="495"/>
<glyph d="M21 57q0 25 15.5 42t36.5 19q17 1 27 -7.5t10 -22.5q0 -18 -23 -34q-18 -13 -18 -25q0 -17 26 -27t72 -6q94 8 208 87q-55 47 -55 113q0 46 33 76t86 29q36 -1 64.5 -24t39.5 -48q11 11 47 44q94 86 149 115q69 38 121 38q22 0 35 -10q12 -10 7 -14q-1 0 -11 7 q-8 6 -22 6q-18 0 -32 -11q-36 -29 -81 -94q-95 -131 -187 -282q25 2 56 17q32 17 63 46q6 7 10 3q2 -2 -8 -13q-31 -29 -62 -45t-64 -18q-20 -21 -39 -25q-13 -3 -20 -0.5t-6 6.5l2 8l8 15q-29 3 -65 18q-38 15 -59 35q-119 -84 -221 -92q-62 -5 -102.5 14.5t-40.5 59.5z M439 286q-37 0 -58.5 -27t-23.5 -65q-1 -29 9 -56t24 -43q36 29 73 62q12 11 35.5 32.5t35.5 31.5q-35 65 -95 65zM558 99q59 92 121 172q82 107 161 145v1q-40 -3 -95 -35q-59 -34 -134 -103q-23 -21 -63 -59q11 -30 13 -65q2 -29 -3 -56zM397 86q17 -18 52 -35 q36 -16 65 -19q4 8 16 26.5t14 21.5q11 22 7 74q-3 35 -12 58q-12 -11 -35.5 -32.5t-34.5 -31.5q-44 -39 -72 -62z" glyph-name="A" unicode="A" horiz-adv-x="690"/>
<glyph d="M401 -9q-81 0 -81 49q0 23 19.5 39.5t42.5 16.5q31 0 31 -24q0 -18 -26 -29q-22 -9 -24 -20q-2 -12 10 -18t28 -6q50 0 95.5 46.5t48.5 106.5q2 33 -18.5 49t-39.5 14q-18 -3 -29 -3q-7 0 -12.5 0.5t-8.5 2.5t-3 5q1 8 27 8q3 0 30 -3q33 5 62 31t37 60q12 50 -22 71 l-7.5 -7.5t-8.5 -8t-7 -7.5q-32 -32 -124 -154q-169 -230 -317 -230q-106 0 -106 76q0 47 40.5 107.5t124.5 121.5q82 60 177.5 91t178.5 31q21 0 39 -3q51 36 96 54q51 21 99 21q53 0 70 -27q5 -8 2 -9q-1 0 -6 5q-19 23 -65 23q-47 0 -94 -22q-36 -16 -79 -51 q65 -25 55 -82q-7 -38 -46 -63.5t-81 -31.5v-1q44 -7 67 -30.5t21 -55.5q-3 -62 -60.5 -102.5t-135.5 -40.5zM38 55q0 -30 16.5 -48t48.5 -18q31 0 59 12.5t56.5 40.5t48.5 52.5t53 67.5q10 13 15 20q89 116 185 194q2 2 25 19q-14 3 -32 3q-76 0 -166.5 -31t-166.5 -89 q-75 -58 -108.5 -117.5t-33.5 -105.5z" glyph-name="B" unicode="B" horiz-adv-x="640"/>
<glyph d="M266 466q36 0 69.5 -17t53.5 -46q26 8 53 9q54 3 89 -15t27 -60q-8 -43 -67.5 -67.5t-124.5 -24.5q-98 0 -151 40q-57 -51 -93.5 -113.5t-36.5 -110.5q0 -81 86 -81q67 0 145 52q30 21 62 50q19 17 22 14q2 -2 -8 -13q-40 -38 -72 -60q-75 -53 -151 -57 q-65 -2 -103.5 22.5t-40.5 78.5q-2 61 46 126.5t118 116.5q-25 32 -25 63q0 41 30 67t72 26zM368 255q56 0 100.5 24t52.5 60q7 33 -13.5 50t-61.5 16q-29 0 -53 -10q14 -24 17 -55q1 -8 1 -14t-1 -9t-3 -2q-1 0 -1 2t-1 7t-2 11q-6 31 -24 55q-82 -31 -156 -98 q50 -37 145 -37zM258 453q-34 0 -57.5 -22.5t-23.5 -58.5q0 -30 20 -56q86 57 176 83q-49 54 -115 54z" glyph-name="C" unicode="C"/>
<glyph d="M356 272q0 21 -12 33.5t-32 13.5q-38 1 -65 -26q-4 -4 -7 -7.5t-4.5 -5.5t-2.5 -4t-2 -2.5t-2 -0.5q-1 1 -0.5 3.5t4 8t8.5 11.5q30 35 74 32q24 -1 40 -16t16 -41q0 -58 -60 -108q-67 -55 -154 -51q-56 3 -86.5 27.5t-29.5 70.5q1 58 52 107.5t130 77t164 27.5 q146 0 222 -67q34 23 65 35q49 20 98 20q35 0 56 -15q14 -10 9 -15q-1 0 -2 0.5t-4 3.5t-8 6q-18 11 -51 11q-44 0 -93 -21q-39 -17 -60 -36q44 -49 47.5 -114.5t-32.5 -117.5q-41 -61 -115.5 -90.5t-158.5 -29.5q-80 0 -147 5q-56 -6 -99 -6q-132 0 -151 9q-7 4 -7 9 q3 24 145 19q55 -2 134 -15q29 8 59.5 30.5t43 35.5t50 58.5t41.5 50.5q90 107 165 157q-32 33 -90 50.5t-117 17.5q-119 0 -211.5 -63.5t-92.5 -147.5q0 -34 19 -56t56 -24q78 -4 141 52q57 52 57 98zM250 11q42 -9 94 -9q148 0 244 132q36 50 41 106t-24 94 q-20 -18 -62.5 -79t-60.5 -83q-55 -68 -109 -104t-123 -57z" glyph-name="D" unicode="D" horiz-adv-x="673"/>
<glyph d="M225 261q0 31 22 61q-43 33 -43 74q0 30 20.5 48t53.5 20q31 2 65 -13t57 -42q41 7 74 6q49 -2 76 -20t27 -43q0 -33 -44.5 -57t-105.5 -24q-84 0 -140 28q-9 -13 -15 -30q-6 -19 -3 -32q26 5 49 3q57 -2 54 -25q-3 -19 -55 -19q-59 0 -80 27q-47 -17 -91 -60 q-58 -54 -59 -110q-3 -73 82 -73q69 0 147 52q32 22 71 58q10 9 13 6t-9 -14q-44 -41 -71 -59q-75 -53 -151 -57q-67 -3 -105 19.5t-38 69.5q0 56 56.5 105t149.5 70q-7 13 -7 31zM425 281q52 0 89.5 19.5t38.5 51.5q1 21 -17.5 37.5t-58.5 17.5q-29 1 -68 -12 q10 -20 13 -44q3 -26 -2 -26q-1 0 -1.5 1.5t-1 7t-2.5 11.5q-6 22 -22 44q-36 -17 -73 -51q-14 -12 -28 -31q52 -26 133 -26zM381 405q-19 23 -48 37t-57 13q-27 -2 -45 -17t-18 -41q0 -34 40 -67q8 11 21 22q42 36 107 53zM271 230q6 -23 47 -25q36 -2 36 13q0 12 -36 14 q-21 2 -47 -2z" glyph-name="E" unicode="E"/>
<glyph d="M347 401q-75 0 -128 -26.5t-66 -80.5q-7 -32 8 -63.5t58 -50.5l13 -6q-1 -4 -19 1q-43 15 -63 50t-15 76q8 57 67 94.5t150 36.5q61 0 170 -30l102 -28q52 28 110 28q28 0 45.5 -8t16.5 -23q-2 -26 -57 -28q-40 -1 -111 10q-34 -24 -79 -79q-17 -21 -42 -54t-37 -48 q54 -2 85 8q1 1 4.5 5.5t5.5 7t6 7t7 6.5t7 4.5t8 3.5t8 0q9 -6 4.5 -12t-24.5 -25q-25 -21 -46 -46q-2 -3 -4.5 -6t-3.5 -4t-2 -1q-5 1 4 20q6 13 18 28q-25 -7 -86 -7q-7 -9 -23 -27q-140 -152 -298 -152q-49 0 -84 16.5t-36 53.5q-1 20 12.5 35t35.5 15q14 0 22.5 -9 t7.5 -22q-2 -12 -15 -25t-13 -23q1 -15 21.5 -23.5t46.5 -8.5q111 0 200 97q35 37 61 74q-43 0 -55 -1q-7 0 -17 -2q-9 0 -9 3q0 6 34 9q11 1 54 1q18 25 51 62q34 37 77 73.5t68 50.5l-86 20q-102 23 -169 23zM733 393q-48 0 -87 -25q59 -16 97 -16q41 0 43 20q2 21 -53 21 z" glyph-name="F" unicode="F" horiz-adv-x="546"/>
<glyph d="M577 367q0 -39 -35 -78.5t-89 -68.5q-85 -43 -189 -43q-50 0 -90 14q-47 -69 -53 -127q-2 -26 10.5 -42.5t35.5 -17.5q67 -1 164 101q31 31 48 31q14 0 17 -3.5t-4 -12.5q-17 -20 -50 -66l-59 -78v-1q49 27 95 61q35 26 70 56q11 10 14 7t-13 -18q-23 -21 -60 -48 q-48 -37 -117 -74q-59 -85 -124 -161q-59 -69 -127 -115.5t-109 -46.5q-19 0 -31.5 9.5t-10.5 32.5q6 66 155 158q45 28 99 58t93 54q60 82 84 114l-1 1q-68 -68 -134 -73q-45 -4 -73 14t-31 58q-5 69 63 153q-55 36 -55 95q0 57 45.5 91t110.5 34q78 0 124 -49 q88 39 148 39q32 0 55.5 -13.5t23.5 -44.5zM565 369q0 45 -67 45q-61 0 -136 -44q17 -25 23 -54t0 -29q-1 0 -2 2t-2.5 9t-3.5 14q-9 28 -29 50q-54 -36 -104 -86q-36 -36 -64 -78q39 -12 83 -12q91 0 178 47q49 26 86.5 66t37.5 70zM219 423q-56 0 -97.5 -30.5t-41.5 -82.5 q0 -53 51 -88q45 52 89 85q58 44 113 71q-49 45 -114 45zM206 -68q-25 -16 -78.5 -46t-103.5 -63q-48 -31 -88.5 -73.5t-39.5 -73.5q0 -24 23 -26q26 -2 62 20q59 36 128 129q71 94 97 133z" glyph-name="G" unicode="G" horiz-adv-x="449"/>
<glyph d="M528 383q-26 -10 -80.5 -11t-133.5 3q-93 3 -155.5 -33t-62.5 -107q0 -28 19.5 -56.5t53.5 -39.5l12 -5q-1 -2 -7.5 -2.5t-11.5 1.5q-37 11 -60.5 40t-25.5 64q-2 72 56.5 117t168.5 42q19 -1 60.5 -4t72.5 -5t62 -0.5t42 7.5q27 15 33 12q4 -3 -5 -11q-5 -4 -8 -7 q-41 -39 -72 -79q-17 -21 -40.5 -52t-29.5 -39h143q37 43 84 87q66 62 126 96q53 30 100 30q25 0 42 -10t21 -22q5 -13 -1 -15q-1 0 -1.5 0.5t-1.5 3.5t-2 5q-14 28 -56 28q-44 0 -91 -34q-37 -27 -91 -85q-39 -42 -70 -84q66 -2 80 -4q23 -3 23 -5q0 -3 -22 -3 q-68 0 -91 -1q-109 -138 -109 -177q0 -17 19 -17q27 0 71 31q16 11 57 47q9 8 12 5q2 -2 -6 -11q-32 -29 -58 -49q-55 -40 -93 -40q-48 0 -48 44q0 53 95 167l-141 -1q-45 -55 -74 -86.5t-71.5 -67.5t-87 -52t-95.5 -16q-41 0 -70.5 19t-29.5 59q0 21 15 37t37 15 q15 -1 24 -11t8 -26q-1 -17 -16 -30q-13 -12 -13 -25q0 -14 15.5 -21.5t34.5 -7.5t40 7t37.5 15.5t37.5 26.5t33.5 29.5t33.5 36t28.5 33.5t28 35.5t22.5 29.5q-4 0 -74 -2q-18 2 -19 5q1 4 29 6q19 2 74 4q39 47 90.5 96t82.5 70z" glyph-name="H" unicode="H" horiz-adv-x="650"/>
<glyph d="M613 413q-11 -3 -39.5 -9.5t-43.5 -10.5q-96 -25 -147 -55q-25 -15 -45 -37.5t-20 -43.5q0 -26 27 -26q14 0 27 9q9 6 10 5q2 -3 -5 -10q-14 -14 -36 -14t-34.5 12t-12.5 30q0 51 87 93q56 27 147 47q86 20 92 23q16 7 20 6q6 -2 5 -8t-7 -8q-40 -18 -93 -92 q-6 -8 -40 -59t-50 -73q-164 -210 -351 -210q-50 0 -86 19t-36 59q0 22 15.5 41t40.5 19q16 0 25.5 -9.5t8.5 -25.5q-2 -16 -19 -30q-1 -1 -5 -4.5t-5.5 -5.5t-4 -5t-3.5 -7t-1 -8q0 -14 18.5 -23.5t48.5 -9.5q76 0 147.5 52t148.5 149q5 6 45.5 57.5t56.5 70.5q25 29 57 55 t57 37z" glyph-name="I" unicode="I" horiz-adv-x="440"/>
<glyph d="M161 -21q26 10 54 26t67 44q28 21 51 42q13 12 16 9t-13 -18q-33 -29 -56 -46q-35 -27 -70 -45q-34 -18 -60 -29q-47 -58 -71 -83q-114 -121 -224 -175q-56 -27 -95 -27q-56 0 -56 42q0 63 171 146q82 40 207 87q96 129 192 238q56 64 154 142q19 15 84 60q11 8 11 9 q0 5 -10 5q-96 2 -212 -59q-70 -37 -115.5 -87t-45.5 -93q0 -37 28 -44q6 -2 10.5 -1.5t5.5 1t2 -1.5t-1.5 -3.5t-7 -2t-9.5 -0.5q-23 2 -37 19.5t-14 44.5q0 47 43.5 101t134.5 93q44 19 107 32t115 10q7 -1 11 -2t8 -4t3 -9q-1 -4 -18 -17q-19 -15 -60 -54 q-59 -58 -124 -135q-100 -119 -176 -215zM73 -63q-110 -40 -197 -83q-73 -37 -109.5 -72.5t-33.5 -63.5q3 -23 33 -25q36 -3 84 20q73 36 175 161q17 21 48 63z" glyph-name="J" unicode="J" horiz-adv-x="335"/>
<glyph d="M834 367q0 -34 -39.5 -57.5t-84.5 -19.5q-21 2 -36 10q-4 3 -3 6q1 1 6 -1q15 -6 32 -7q41 -4 78.5 17t37.5 52q0 19 -14 30.5t-35 11.5q-9 0 -17.5 -2t-15.5 -4t-15.5 -7.5t-13.5 -9t-13.5 -12t-13 -12.5t-13.5 -15t-12 -15t-13 -17t-13 -16q-62 -81 -151 -108 q20 -13 25 -36q7 -28 -16 -62q-4 -5 -11 -15.5t-10 -16t-7.5 -13t-6 -13.5t-1.5 -12q0 -17 18 -17q23 0 72 38q29 22 46 38q17 14 19 12q3 -3 -7 -13q-26 -24 -55 -47q-54 -44 -94 -44q-23 0 -35.5 10.5t-12.5 28.5q0 29 35 78q3 5 15 20t16.5 23.5t4.5 16.5q0 11 -7 20 q-12 -6 -30 -6q-11 0 -20 3.5t-8 10.5q1 15 32 13q17 -2 30 -10q18 7 35.5 21t28.5 27t29.5 36t29.5 36q89 100 174 100q26 0 43 -13.5t17 -37.5zM-21 60q0 20 15 36t37 15q36 -2 33 -36q-1 -17 -17 -31q-13 -13 -13 -25q0 -14 16 -21.5t34 -7.5q26 0 54 12.5t48.5 27 t48.5 43t41 43.5t38.5 48t29.5 37q77 98 128 132v1q-35 -23 -74 -33.5t-63 -10.5q-51 -1 -81.5 16.5t-25.5 51.5q6 33 36 53q15 10 28 10q14 0 0 -12q-22 -20 -26 -52q-2 -26 16 -41.5t54 -15.5q46 0 99.5 24t95.5 60q20 20 26 16q5 -5 -9 -19q-23 -23 -62 -73 q-15 -19 -42 -56t-37 -49q-35 -44 -58 -70.5t-57.5 -59t-64 -50t-68.5 -30t-80 -12.5t-70.5 19.5t-29.5 59.5zM442 188q12 0 24 5q-6 6 -21 8q-21 2 -21 -6q0 -7 18 -7z" glyph-name="K" unicode="K" horiz-adv-x="606"/>
<glyph d="M252 350q0 40 39.5 69t107.5 29q95 0 159 -52q43 17 90 19q43 1 69.5 -18.5t20.5 -51.5q-9 -43 -72 -70.5t-123 -34.5q-58 -7 -110 0q-84 -123 -177 -185q18 -3 75 -18q72 -18 103 -18q44 0 80.5 16t82.5 56q11 9 13 7q3 -3 -9 -15q-61 -57 -94 -77t-79 -20 q-57 0 -108 20q-12 5 -32 13t-32.5 13.5t-18.5 6.5q-63 -50 -135 -51q-62 -2 -60 23q1 23 50.5 37.5t98.5 13.5q23 0 47 -4q31 29 75 97.5t63 93.5q-53 11 -88.5 38t-35.5 63zM438 249q47 -6 106 2q53 7 104 34.5t61 67.5q5 25 -12 40t-49 14q-41 0 -79 -24q12 -15 19 -34 q4 -12 5.5 -21t0.5 -12.5t-2 -3.5t-1.5 3t-4 12t-9.5 20q-9 16 -23 28q-46 -26 -116 -126zM261 353q0 -34 34.5 -59t86.5 -36q35 44 79.5 81t79.5 51q-65 44 -147 44q-61 0 -97 -24t-36 -57zM224 44q-31 8 -57 7q-31 -1 -55 -11.5t-25 -24.5q-1 -9 8 -12.5t24 -3.5 q23 0 54.5 13t50.5 32z" glyph-name="L" unicode="L" horiz-adv-x="599"/>
<glyph d="M85 -30q-115 0 -119 72q-1 26 16.5 47t43.5 21q17 0 28 -9.5t10 -24.5q-2 -16 -22 -34q-17 -15 -19 -25q-3 -15 16 -25t56 -10q63 0 154 40t172 100q32 24 70 56.5t65 57t73.5 69t70.5 66.5q-85 16 -198 16q-88 0 -153.5 -33.5t-79.5 -97.5q-7 -35 8.5 -66t59.5 -46 q3 -1 8 -2t4 -3q-2 -6 -19 -1q-42 12 -64.5 46t-18.5 75q8 71 75 111.5t182 36.5q29 -1 62 -4.5t53.5 -6.5t51 -8.5t38.5 -6.5l19 18q21 19 32 18q19 -3 -1 -26l-14 -16q31 -5 73 -5q58 0 103 18q47 19 67 46q6 7 7.5 12.5t1.5 8t2 3.5q4 1 6 -5q1 -10 -3 -20 q-10 -22 -38 -50q-106 -110 -167 -187q-106 -132 -107 -173q0 -13 13 -13q26 0 76 41q24 19 48 41q9 8 12 5q2 -3 -9 -14q-26 -24 -56 -48q-49 -39 -82 -40q-44 -2 -45 37q-1 42 74 138q31 40 80 92.5t86 83.5l-1 1q-90 -67 -201 -163q-113 -98 -191 -172l-6 -6t-6 -5.5 t-4.5 -3t-4.5 -1t-5 2.5q-11 8 3 27q22 31 102 154.5t110 160.5l-1 1q-177 -173 -256 -230q-80 -60 -173.5 -101t-167.5 -41zM568 96q98 88 188 161q85 69 155 118v1q-37 -14 -96 -16q-35 0 -77 5q-22 -31 -83 -132.5t-87 -136.5z" glyph-name="M" unicode="M" horiz-adv-x="828"/>
<glyph d="M-88 48q0 25 17.5 43.5t38.5 18.5q18 0 28.5 -9t10.5 -24q0 -18 -18 -33q-19 -19 -20 -27q-2 -15 15 -24t53 -9q61 0 137 31t144 84q143 109 217 249q7 14 19 32q22 30 40 31q9 1 11.5 -3t-1.5 -10q-16 -22 -24 -56q-4 -17 -13 -122q-8 -103 -28 -151h1q119 173 221 281 q116 123 195 123q29 0 45 -17t17 -39q0 -10 -3 -10l-5 10q-10 27 -57 27q-85 0 -184 -103q-104 -108 -263 -339q-16 -21 -25 -16q-10 6 -2 27q26 73 33 160q2 18 4 44t3 40.5t3.5 30.5t6.5 27h-1q-29 -55 -85.5 -116.5t-118.5 -108.5q-72 -54 -148.5 -86t-139.5 -33 q-51 -1 -87.5 17.5t-36.5 59.5z" glyph-name="N" unicode="N" horiz-adv-x="645"/>
<glyph d="M136 52q0 -22 11 -38q5 -6 4 -7q-2 -3 -8 3q-18 18 -18 51q0 76 66 163q54 66 118.5 106.5t108.5 35.5q47 -5 40 -72q-2 -30 -23 -76.5t-52 -84.5q-53 -64 -128.5 -106.5t-141.5 -41.5q-46 1 -73.5 25.5t-27.5 70.5q0 104 103 207q60 59 143 96.5t159 33.5 q31 -2 51.5 -15.5t22.5 -39.5q3 -29 -15 -49q-11 -13 -14 -8l8 12q14 21 10 44q-2 19 -20 30.5t-43 12.5q-61 3 -138.5 -44.5t-124.5 -99.5q-44 -50 -69 -104.5t-25 -97.5q0 -62 63 -65q103 -4 228 152q81 101 88 172q5 35 -22 38q-38 4 -97 -37t-110 -105q-74 -94 -74 -162 z" glyph-name="O" unicode="O" horiz-adv-x="407"/>
<glyph d="M394 282q0 19 -12 31.5t-30 13.5q-36 1 -65 -25q-5 -5 -9.5 -10.5t-6.5 -7.5t-3 -2q-1 1 -0.5 4t4.5 9.5t10 12.5q31 31 73 29q23 -1 39 -16t16 -41q0 -58 -62.5 -110t-138.5 -49q-114 3 -111 90t106 148.5t241 61.5q96 0 158 -37q31 24 70 40q48 21 101 21q56 0 73 -27 q4 -8 0 -9l-6 6q-19 21 -66 21q-48 0 -95 -21q-38 -17 -66 -39q21 -17 33 -39.5t11 -55t-24 -65.5q-45 -66 -150 -75q-35 -2 -50 3q-74 -79 -168 -118v-1q84 -15 101 -15q50 0 81 22q12 9 13 8t1 -2.5t-2.5 -5.5t-7.5 -8q-39 -34 -96 -34q-52 0 -128 19q-57 -21 -154 -21 q-91 0 -91 33q0 20 28 30.5t75 8.5q54 -3 161 -28q38 23 72.5 58t87.5 98q114 141 182 186q-18 14 -58.5 26t-83.5 12q-126 0 -213 -57t-94 -149q-2 -32 15.5 -53t53.5 -23q70 -3 127.5 50.5t57.5 101.5zM442 154q15 -4 37 -1q72 9 120 78q26 43 24 78t-22 55 q-27 -24 -80.5 -102t-57.5 -83q-13 -17 -21 -25zM212 15q-102 20 -130 22q-86 5 -86 -16q0 -23 78 -23q92 0 138 17z" glyph-name="P" unicode="P" horiz-adv-x="567"/>
<glyph d="M390 278q0 16 -12 27.5t-34 10.5q-28 -1 -50 -19q-4 -3 -7 -6.5t-5 -5.5t-3 -3.5t-2 -2t-2 -0.5q-5 4 13 22q24 24 60 25q27 1 44 -13t17 -41q0 -42 -45 -82q-57 -51 -139 -51q-73 0 -78 68q-2 37 20 77.5t58 67.5q84 66 187 66q55 0 95.5 -24.5t41.5 -73.5 q3 -93 -128 -183q-39 -27 -105.5 -58.5t-109.5 -44.5v-1q89 -21 114 -21q90 0 176 77q10 11 14 7q2 -3 -8 -13q-106 -97 -191 -97q-59 0 -152 27q-73 -25 -146 -25q-82 0 -82 32q0 20 29 32t80 12q64 0 151 -25q111 45 200 122q108 92 108 170t-87 78q-84 0 -176 -76 q-80 -68 -77 -126q3 -59 66 -59q62 0 124 56q41 36 41 74zM143 20q-80 17 -111 20q-87 6 -87 -19q0 -23 69 -23q68 0 129 22z" glyph-name="Q" unicode="Q" horiz-adv-x="500"/>
<glyph d="M770 439q-39 0 -85 -19q-37 -15 -58 -31q14 -10 26 -23.5t22 -40t-4 -54.5q-15 -35 -55.5 -53.5t-77.5 -18.5v-1q32 -13 35 -42q3 -25 -20 -57q-3 -5 -12.5 -19t-13 -19.5t-7 -15t-3.5 -16.5q0 -17 19 -17q22 0 72 38q25 19 48 40q10 10 14 7q2 -3 -7 -12 q-19 -19 -53 -46q-54 -43 -93 -43q-48 0 -48 40q-1 30 35 77q36 45 35 62q0 14 -18 23q-13 -2 -22 -1q-10 1 -18 5q-17 -24 -28 -38q-49 -60 -92.5 -91t-94.5 -53q27 -6 49 -8q43 -3 73 17q6 4 10 7.5t5 4t2 0.5q1 -1 1 -3t-2.5 -6t-7.5 -8q-37 -33 -94 -33q-29 0 -77 14 q-63 -19 -151 -17q-34 0 -62.5 8t-28.5 25q0 20 28 30.5t75 8.5q28 -2 164 -34q59 29 146 145q121 158 206 214q-44 27 -125 27q-98 0 -183.5 -53t-103.5 -131q-10 -41 3.5 -70.5t48.5 -32.5q7 -1 11.5 -0.5t7.5 1t4.5 1t2 0.5t1.5 -1q1 -2 -2 -4.5t-10.5 -4.5t-16.5 -2 q-47 2 -72.5 33t-16.5 81q15 83 111.5 137.5t214.5 54.5q87 0 139 -26q24 18 64 34q44 19 91 19q55 0 72 -26q2 -4 3 -7.5t1 -5.5t-1 -2t-1.5 0.5t-2.5 3.5t-5 7q-19 21 -67 21zM614 377q-28 -22 -65 -75q-11 -15 -32 -45.5t-31 -44.5q10 0 19 -1q8 -1 20 -5q34 2 64.5 22.5 t43.5 51.5q12 32 6 57.5t-25 39.5zM208 10q-11 2 -38 8.5t-50 11.5t-39 6q-86 9 -86 -16q0 -20 78 -23q85 -2 135 13z" glyph-name="R" unicode="R" horiz-adv-x="659"/>
<glyph d="M383 216q145 61 156 65q57 86 116 128q34 23 62 24q14 1 24.5 -5.5t9.5 -21.5q-2 -24 -38 -53t-87 -51l-27 -11q-10 -19 -27 -52.5t-24 -46.5q-104 -203 -323 -218q-106 -6 -163 34q-64 -57 -80 -93q-1 -3 -2 -4t-2 -3t-2 -2h-2q-4 1 0 12q15 43 75 100q-41 37 -37 94 q4 46 40 82t80.5 53t88.5 20q47 4 94.5 -8.5t67.5 -42.5zM253 70q-48 0 -80 21q-36 -24 -60 -42l-33 -26q49 -48 154 -40q78 7 139 58t116 152q32 55 44 73v1q-84 -34 -143 -62q6 -14 6 -31q-1 -47 -45.5 -75.5t-97.5 -28.5zM367 208q-16 31 -58.5 42.5t-87.5 7.5 q-62 -5 -115.5 -41.5t-58.5 -100.5q-3 -50 22 -80q13 13 31 26q26 19 58 40q-18 16 -21 38q-2 10 3 10q1 0 3 -8q5 -19 24 -34q61 37 134 70zM251 80q47 0 83.5 26t38.5 67q0 13 -3 24l-67 -31q-65 -32 -122 -69q31 -17 70 -17zM605 305l18 7q46 19 80 45t37 49q1 10 -6 15 t-17 3q-21 -3 -46 -28q-28 -26 -66 -91z" glyph-name="S" unicode="S" horiz-adv-x="545"/>
<glyph d="M716 513q-83 0 -127 -51q-10 -11 -15 -27l-5 -14q-4 0 -2 13q2 17 15 34q44 58 135 58q65 0 102.5 -29t27.5 -79q-8 -42 -58 -62.5t-125 -18.5q-22 0 -25 -1q-34 -13 -76 -62q-11 -13 -47 -62t-66 -78q-99 -91 -230 -117v-1q99 -9 159 -9q122 1 195 49q19 12 43 34 q10 8 13 6q3 -3 -8 -13q-26 -23 -45 -37q-83 -58 -212 -58q-94 0 -195 14q-40 -9 -107 -11q-14 -1 -31 -0.5t-32 2t-25 5.5t-9 10q5 25 83 25q53 0 149 -13q28 5 67.5 23t68.5 42q33 28 76.5 80t60.5 69q76 82 154 105v1q-51 5 -136 21q-119 22 -161 24q-70 3 -119.5 -20.5 t-55.5 -70.5q-4 -33 24 -56t71 -23q46 0 74.5 17t30.5 46q2 17 -7 29l-4 6q3 3 11 -3q20 -11 20 -34q1 -32 -36.5 -51t-88.5 -19q-49 0 -79.5 25.5t-26.5 65.5q5 53 61.5 83.5t136.5 28.5q48 -1 166 -21q106 -18 169 -21q67 -4 110 12.5t49 51.5q6 34 -27 58t-91 24z" glyph-name="T" unicode="T" horiz-adv-x="620"/>
<glyph d="M407 134q-51 -51 -118.5 -97t-111.5 -46q-50 0 -44 46q4 29 33 68.5t94 112.5q99 113 111 153q6 21 -7.5 30.5t-35.5 9.5q-39 0 -86 -23t-88 -64q-80 -78 -80 -130q0 -41 36 -41q20 0 36 10q5 3 10 7q3 4 5 3t-2 -6.5t-10 -9.5q-19 -13 -41 -13q-47 2 -50 49 q-2 34 18.5 74t58.5 75q42 39 96.5 58.5t96.5 19.5q37 0 59.5 -14.5t21.5 -42.5q-1 -48 -97 -157q-66 -73 -95 -111t-32 -61q-4 -22 14 -24q31 -4 110 54q75 55 147 140q98 112 183 178q58 44 81 41q13 -2 10.5 -15t-16.5 -30q-23 -25 -75 -63q-68 -51 -91 -70 q-20 -24 -32 -39q-108 -138 -108 -178q0 -17 20 -17q22 0 64 31q26 18 49 40q17 15 20 12q2 -3 -10 -15q-21 -20 -53 -45q-52 -40 -88 -40q-47 0 -47 44q0 35 44 96zM574 277q11 9 33 24.5t26 18.5q40 28 66 54q10 11 15.5 19.5t6 13t-2.5 6.5q-14 5 -54 -38 q-53 -55 -90 -98z" glyph-name="U" unicode="U" horiz-adv-x="553"/>
<glyph d="M94 3q89 5 189 49q41 18 91.5 51t81.5 60q87 75 122 138q5 9 5 25q0 12 -11 56q-11 40 12 40q15 0 23 -13t6 -37q-3 -35 -25 -75q-42 -82 -117 -150q-82 -72 -181 -112q-105 -41 -218 -44q-30 -8 -52 -9q-46 -3 -46 7q0 15 38 17q34 2 62 -2q72 31 170 132 q112 114 123 200q5 38 -11.5 57t-48.5 19q-73 0 -149 -59q-32 -25 -54.5 -60.5t-26.5 -66.5q-7 -62 43 -65q45 -4 106 62q40 44 44 81q2 16 -4 26q-4 6 -4 7q2 3 8 -3q13 -13 12 -38q-3 -42 -42 -84q-23 -24 -57 -42.5t-65 -16.5q-33 2 -49.5 22.5t-12.5 52.5q4 31 28.5 67 t63.5 65q81 61 161 61q51 0 84 -24t27 -81q-10 -83 -132 -196q-37 -35 -91.5 -67.5t-102.5 -49.5z" glyph-name="V" unicode="V" horiz-adv-x="482"/>
<glyph d="M305 412q-72 0 -149 -59q-32 -25 -54 -60.5t-26 -66.5q-7 -62 43 -65q46 -2 106 62q40 44 44 81q2 16 -5 26q-3 6 -3 7q2 3 8 -3q12 -12 11 -38q-3 -41 -41 -84q-23 -24 -57 -42.5t-65 -16.5q-33 2 -49.5 22t-12.5 53q4 31 28.5 67t63.5 65q81 61 159 61q50 0 82.5 -22.5 t30.5 -69.5q-2 -48 -65 -137q-53 -75 -115 -137v-1q16 11 114 83q73 52 124 92q23 65 44 99q36 57 71 57q14 0 21.5 -11.5t1.5 -28.5q-6 -18 -20 -35.5t-41.5 -41t-29.5 -25.5q-36 -149 -66 -189v-1q19 18 87.5 78t92.5 81q124 113 137 187q3 25 -6 34q-4 3 -10 5q-3 1 -3 2 q2 3 10 3q21 0 32 -14.5t9 -34.5q-7 -70 -159 -195q-151 -124 -222 -192q-15 -15 -28 -15q-7 0 -8 5.5t4 11.5q15 20 29 56.5t27.5 81.5t21.5 64v1q-30 -25 -129 -98q-153 -109 -168 -119t-21 -10q-9 0 -11 5.5t5 13.5t28 31.5t33.5 37.5t31.5 37.5t34 45.5q81 114 91 180 q6 37 -11.5 56.5t-49.5 19.5zM527 261q4 4 17.5 15.5t23 20.5t20 22.5t15.5 24.5q5 14 1 22.5t-14 8.5t-20 -11.5t-16 -24.5q-13 -28 -27 -78z" glyph-name="W" unicode="W" horiz-adv-x="601"/>
<glyph d="M475 314q117 102 202 102q22 0 34.5 -12.5t8.5 -31.5q-7 -32 -45.5 -55t-68.5 -27q-14 -2 -15 1q0 2 15 6q29 8 53.5 28.5t29.5 46.5q5 31 -23 33q-49 1 -115 -54.5t-131 -138.5q-83 -107 -96 -164q-8 -41 24 -41q28 0 80 36q19 13 56 46q14 13 17 10t-11 -16 q-35 -32 -57 -48q-56 -43 -100 -44q-35 -1 -49 14t-11 44q2 21 18 46v1q-120 -110 -231 -110q-92 0 -97 62q-2 26 15 47t46 21q15 0 24.5 -8t8.5 -21q-1 -16 -20 -31q-21 -17 -22 -31q-1 -16 13 -23t35 -7q132 0 286 196q37 47 68.5 99t37.5 76q10 45 -39 45q-39 0 -86 -23 t-88 -64q-81 -79 -80 -130q0 -41 36 -41q20 0 36 10q3 2 6 5t5 4t3 1q3 -1 -1 -6.5t-10 -9.5q-19 -13 -40 -13q-22 0 -36 13.5t-15 35.5q-2 36 18.5 76.5t58.5 72.5q44 38 98 58t95 20q36 0 56.5 -14.5t19.5 -42.5q-2 -27 -17 -49z" glyph-name="X" unicode="X" horiz-adv-x="488"/>
<glyph d="M421 148q-55 -58 -127 -107.5t-117 -49.5q-50 0 -44 46q4 29 33 68.5t94 112.5q99 113 111 153q6 21 -7.5 30.5t-35.5 9.5q-39 0 -86 -23t-88 -64q-80 -78 -80 -130q0 -41 36 -41q22 0 36 10q2 1 4.5 3t3.5 3.5t2.5 2.5t2.5 1h2q2 -1 -2 -6.5t-10 -9.5q-19 -13 -41 -13 q-21 0 -35 13.5t-15 35.5q-2 34 19 75t58 74q42 38 96.5 58t96.5 20q37 0 59.5 -14.5t21.5 -42.5q-1 -48 -97 -157q-66 -73 -95 -111t-32 -61q-4 -22 14 -24q31 -4 110 54q79 59 147 140q107 129 157 178q46 44 74 41q14 -1 14.5 -15.5t-11.5 -29.5q-22 -28 -66 -63 q-51 -40 -81 -70l-130 -178q-15 -21 -33.5 -47.5t-31 -44l-22.5 -31.5q76 2 116.5 -31t31.5 -90q-2 -8 -5 -14.5t-6 -5.5q-1 0 -1 0.5t0.5 2t1 3.5t1 5.5t1.5 7.5q6 54 -33 85t-113 27q-39 -56 -107 -136q-59 -69 -126.5 -115.5t-109.5 -46.5q-17 0 -30.5 9.5t-11.5 32.5 q3 39 51 90.5t97 84.5q95 64 192 84zM269 -74q-86 -19 -178 -82q-43 -29 -85 -81.5t-42 -86.5q0 -24 21 -26q24 -3 62 20q58 36 128 129zM566 278l51 42q41 33 58 54q27 34 13 39t-48 -38q-18 -21 -74 -97z" glyph-name="Y" unicode="Y" horiz-adv-x="499"/>
<glyph d="M434 324h-1q-74 -40 -129 -40q-35 0 -60 13t-22 43q4 34 46 58t86 26q15 0 15 -4q0 -1 -15 -3q-27 -2 -49 -19.5t-24 -43.5q-1 -19 10 -29t28 -12q57 -6 129 31q32 34 55 53q28 23 47 20q6 -1 5.5 -7t-7.5 -14q-24 -26 -74 -54q-39 -39 -115 -102q-73 -61 -106 -83v-1 q18 1 35 -1q45 -5 72 -33t29 -78q33 17 68 49q9 8 12 5q3 -2 -10 -15q-29 -29 -69 -50q-4 -106 -139 -220q-87 -73 -190 -123t-169 -49q-59 2 -63 46q-7 79 211 190q51 27 146.5 68.5t146.5 71.5q15 72 -13 104q-28 30 -85 22q-33 -25 -61 -43q-61 -40 -73 -21 q-5 9 11.5 24.5t45.5 28.5q37 16 72 22q49 35 104 82q47 39 100 88zM330 3q-48 -28 -144 -71t-140 -67q-123 -66 -161 -99q-48 -41 -45 -79q3 -36 51 -36q61 0 150.5 47.5t159.5 119.5q105 108 129 185zM215 140q-24 -4 -52 -17q-21 -9 -34 -19.5t-11 -15.5q5 -9 49 20 q30 19 48 32z" glyph-name="Z" unicode="Z" horiz-adv-x="457"/>
<glyph d="M506 463l-5 -7q-33 -2 -62 -6q-16 -2 -22.5 -5.5t-16.5 -16.5q-164 -216 -187 -245q-67 -85 -187 -228q-14 -17 -12.5 -22.5t19.5 -7.5l58 -6l-4 -6h-111q3 3 37.5 51.5t80 110t85.5 112.5q106 133 228 276h99z" glyph-name="bracketleft" unicode="[" horiz-adv-x="239"/>
<glyph d="M139 -86q-5 0 -8 13q-16 70 -96 414q-5 21 10 39q11 12 17 -12q1 -3 4 -18q12 -57 37 -200t39 -217q3 -19 -3 -19z" glyph-name="backslash" unicode="\" horiz-adv-x="239"/>
<glyph d="M-112 -87l5 7q33 2 62 6q16 2 22.5 5.5t16.5 16.5q164 216 187 245q67 85 187 228q14 17 12.5 22.5t-19.5 7.5l-58 6l4 6h111q-3 -3 -37.5 -51.5t-80 -110t-85.5 -112.5q-106 -133 -228 -276h-99z" glyph-name="bracketright" unicode="]" horiz-adv-x="239"/>
<glyph d="M206 252q3 0 11 -11q36 -55 70 -96q6 -8 4 -9q-3 -3 -14 5q-52 39 -80 70q-48 -35 -145 -78q-9 -3 -10 -1q-2 3 8 9q58 38 143 103q10 8 13 8z" glyph-name="asciicircum" unicode="^" horiz-adv-x="307"/>
<glyph d="M445 -105v-30h-509v30h509z" glyph-name="underscore" unicode="_" horiz-adv-x="500"/>
<glyph d="M191 332q8 0 12 -10q19 -44 50 -86q5 -7 2 -9q-2 -1 -10 4q-52 43 -66 67q-5 7 -5 15q0 7 5.5 13t11.5 6z" glyph-name="grave" unicode="`" horiz-adv-x="307"/>
<glyph d="M195 133q36 38 57 38q15 1 18 -3t-5 -13q-40 -46 -56 -66q-24 -30 -35 -49q-10 -18 -3 -23q6 -5 23 4q18 9 45 31q26 21 48 41q11 10 14 7t-13 -18q-28 -26 -56 -48q-50 -40 -86 -40q-27 0 -29 21q-2 17 14 36l-1 1q-63 -56 -110 -58q-19 -1 -31.5 8.5t-9.5 31.5 q3 23 28 52l-1 1l-13 -12q-7 -5 -9 -3q-3 4 14 19q10 10 30 24q22 15 46 28q65 33 100 28q14 -2 20 -13.5t1 -24.5zM170 161q-29 0 -92 -63q-59 -58 -56 -79q1 -10 13 -10q14 0 38.5 14t45.5 33q25 22 46.5 48.5t22.5 38.5q1 18 -18 18z" glyph-name="a" unicode="a" horiz-adv-x="287"/>
<glyph d="M271 133q-7 -50 -67 -95q-54 -41 -115 -43q-40 0 -40 20q1 13 16.5 21t48.5 17q58 14 77 23q23 26 32 50q11 30 -10 30q-29 0 -87 -45q-44 -34 -111 -101q-13 -12 -29 -14q-14 -1 -16.5 3.5t2.5 12.5q9 20 41 67q18 26 29 39h-1l-36 -32q-8 -7 -11 -4q-2 2 5 10 q5 4 17.5 15.5t24.5 22t22 18.5q75 96 122 150q46 55 120 129.5t112 101.5q54 40 85 40q18 0 25.5 -10.5t5.5 -25.5q-3 -17 -19.5 -39.5t-50.5 -54.5t-59.5 -54.5t-75.5 -63.5q-18 -15 -94 -73.5t-110 -89.5l-67 -92l1 -1q39 40 94 77q51 33 88 29q35 -5 31 -38zM89 6 q24 2 48 17q27 17 46 42q-14 -7 -62 -19q-29 -7 -43 -14.5t-13 -16.5q1 -11 24 -9zM140 184q51 45 105 87.5t74 60.5q127 114 158 151q29 35 31 56q1 19 -17 19q-23 0 -65 -40q-70 -68 -133 -143q-92 -109 -153 -191z" glyph-name="b" unicode="b" horiz-adv-x="298"/>
<glyph d="M39 -9q-56 0 -53 42q3 29 29 60l-1 1l-17 -15q-10 -9 -13 -6q-2 3 6 11q15 14 37 30q23 17 48 30q60 32 92 27q34 -6 27 -38q-3 -14 -13.5 -24t-20.5 -10q-25 0 -8 29q18 31 3 33q-18 3 -62 -42q-51 -51 -56 -89q-3 -23 23 -23q39 0 92 36q24 16 60 48q8 7 11 4 q2 -3 -8 -13q-34 -31 -59 -48q-63 -43 -117 -43z" glyph-name="c" unicode="c" horiz-adv-x="214"/>
<glyph d="M74 143q64 33 100 28q14 -2 19.5 -12t2.5 -22h1q44 64 128 161q55 65 119 124q17 17 37 17q13 0 15 -7q-43 -41 -114 -124q-52 -60 -125 -153q-67 -86 -83 -115q-10 -18 -3 -23q6 -5 23 4q18 9 45 31q26 21 48 41q11 10 14 7t-13 -18q-28 -26 -56 -48q-50 -40 -86 -40 q-27 0 -29 21q-2 17 14 36l-1 1q-63 -56 -110 -58q-19 -1 -31.5 8.5t-9.5 31.5q3 23 28 52l-1 1l-13 -12q-7 -5 -9 -3q-3 4 16 21q8 8 28 22q25 18 46 28zM170 161q-29 0 -92 -63q-59 -58 -56 -79q1 -10 13 -10q14 0 38.5 14t45.5 33q25 22 46.5 48.5t22.5 38.5q1 18 -18 18 z" glyph-name="d" unicode="d" horiz-adv-x="287"/>
<glyph d="M59 6q37 0 91 37q31 21 61 48q8 7 11 4q2 -3 -8 -13q-31 -29 -63 -50q-62 -41 -113 -41q-27 0 -40.5 10t-12.5 30q1 28 30 62l-1 1l-20 -18q-7 -6 -10 -3q-2 3 6 11q15 14 37 30q21 15 49 30q54 28 86 28q16 0 23.5 -8t6.5 -19q-2 -30 -64 -61q-43 -21 -86 -32 q-6 -12 -6 -23q0 -23 23 -23zM48 63q37 9 68 30q39 27 41 52q2 14 -12 14q-13 0 -44 -29q-29 -27 -53 -67z" glyph-name="e" unicode="e" horiz-adv-x="213"/>
<glyph d="M505 569q17 0 24 -10.5t5 -25.5q-3 -17 -19 -39t-51 -55t-59 -53t-76 -64q-13 -11 -88 -71.5t-110 -91.5q-65 -81 -118 -155q19 4 43 14q32 14 56 29q29 19 57 44q13 13 16 9q3 -2 -9 -14q-26 -26 -65 -51q-33 -20 -79 -37q-18 -7 -25 -16q-7 -10 -14 -32 q-30 -97 -84 -190q-61 -107 -116 -148q-24 -19 -43 -16q-23 4 -16 38q8 39 51 115.5t98 151.5q72 98 176 231l-1 1q-16 -12 -53 -47q-8 -7 -11 -4q-2 2 6 11q35 33 81 69l111 137q59 69 126 136.5t105 94.5q54 39 82 39zM149 185q49 43 100 86t72 62q127 114 158 151 q29 35 31 56q2 18 -16 18t-62 -40q-51 -48 -130 -142q-73 -86 -153 -191zM-9 -25q-57 -72 -126 -176q-79 -120 -96 -159q-9 -19 0 -24q8 -4 25 9q47 36 109 144q53 91 88 206z" glyph-name="f" unicode="f" horiz-adv-x="171"/>
<glyph d="M74 143q64 34 100 28q27 -4 23 -34h1q30 34 48 34q28 0 13 -16q-12 -14 -52 -66q-9 -11 -38.5 -51.5t-43.5 -59.5q60 36 96 63q39 30 62 51q9 8 12 5t-10 -15q-19 -18 -59 -49q-49 -37 -110 -71q-77 -113 -137 -179q-103 -114 -206 -168q-39 -21 -69 -21q-53 0 -47 42 q9 69 202 195q52 34 115.5 71.5t87.5 52.5q58 81 67 94l-1 1q-63 -54 -108 -56q-19 -1 -31 8t-10 32q3 23 28 52l-1 1l-13 -12q-7 -5 -9 -3q-3 4 16 21q8 8 28 22q25 18 46 28zM53 -62q-24 -16 -86.5 -53.5t-113.5 -71.5q-68 -46 -113.5 -93t-48.5 -84q-1 -22 15 -27 q24 -8 63 16q80 48 183 180q67 86 101 133zM170 161q-29 0 -92 -63q-59 -58 -56 -79q1 -10 13 -10q14 0 38.5 14t45.5 33q25 22 46.5 48.5t22.5 38.5q1 18 -18 18z" glyph-name="g" unicode="g" horiz-adv-x="284"/>
<glyph d="M262 34q-53 -40 -90 -40q-15 0 -23 6.5t-7 19.5q1 20 42 70q7 8 21.5 24.5t20.5 24.5q8 10 1 14q-6 4 -26 -6q-35 -18 -78 -51q-22 -17 -56 -45.5t-56 -45.5q-12 -9 -26 -9q-11 0 -14 3t1 13q16 30 41 67q10 15 30 40v1l-38 -34q-8 -7 -11 -3q-1 3 5 9q13 13 65 56 q68 90 121 150q51 59 123.5 132.5t108.5 98.5q56 40 85 40q18 0 25.5 -10.5t5.5 -25.5q-3 -17 -19.5 -39.5t-50.5 -54.5t-59.5 -54.5t-75.5 -63.5q-17 -14 -89 -69.5t-115 -93.5q-18 -20 -83 -115l1 -1q74 61 92 75q73 54 109 54q34 0 31 -27q-2 -14 -40 -61 q-23 -27 -33 -44t-4 -22t24 4q23 12 48 31q18 14 48 41q10 9 13 6q2 -3 -8 -13q-26 -26 -60 -52zM140 184q54 47 108.5 90.5t70.5 57.5q90 78 138 127.5t51 79.5q1 19 -17 19q-23 0 -65 -40q-81 -81 -133 -143q-92 -109 -153 -191z" glyph-name="h" unicode="h" horiz-adv-x="317"/>
<glyph d="M220 304q11 0 14 -7.5t-6 -18.5q-8 -11 -23 -19t-24 -8q-10 12 -1 34q8 19 40 19zM81 143q-12 -5 -43 -30q-24 -19 -36 -30q-12 -10 -15 -8q-3 3 11 16q36 32 71 56q32 22 58 22q16 0 18 -3t-7 -13q-25 -28 -54 -64q-22 -27 -35 -49q-9 -16 -3 -22q7 -6 24 3q19 10 44 30 q24 20 46 40q13 12 16 9q2 -2 -11 -16q-22 -22 -57 -50q-51 -41 -87 -41q-30 0 -30 26q0 15 15 38q30 47 75 86z" glyph-name="i" unicode="i" horiz-adv-x="162"/>
<glyph d="M94 150q-3 0 -16 -8q-17 -11 -40 -29q-24 -19 -36 -30q-12 -10 -15 -8q-3 3 11 16q36 32 71 56q32 22 58 22q16 0 17.5 -3t-6.5 -12q-24 -28 -52 -64l-89 -116q48 24 105 66q35 25 63 51q11 11 15 8q2 -1 -1 -5.5t-10 -10.5q-29 -27 -64 -52q-51 -38 -116 -73 q-83 -120 -133 -175q-73 -81 -151 -135t-127 -54q-18 0 -32 9.5t-10 32.5q11 69 198 192q47 31 105 65.5t96 59.5q43 60 69 95q64 84 90 102zM-76 -65q-27 -18 -85.5 -53.5t-107.5 -68.5q-69 -45 -114 -92.5t-48 -84.5q-1 -21 15 -26q25 -8 64 16q81 50 182 179 q44 55 94 130zM211 304q13 0 16 -7.5t-6 -18.5q-8 -10 -23.5 -18t-23.5 -8q-10 10 -1 33q8 19 38 19z" glyph-name="j" unicode="j" horiz-adv-x="167"/>
<glyph d="M43 119v1l-38 -34q-8 -7 -11 -3q-1 3 5 9l64 56q62 82 122 150q155 173 232 231q55 40 85 40q18 0 25.5 -10.5t5.5 -25.5q-3 -17 -19.5 -39.5t-50.5 -54.5t-59.5 -54.5t-75.5 -63.5q-18 -15 -94 -73.5t-110 -89.5q-20 -22 -80 -110l2 -1q64 57 86 74q37 29 66 41 q26 11 50 9q20 -1 30 -13.5t3 -26.5q-9 -16 -47 -21q-37 -6 -43 -14q-9 -14 -8 -41q3 -34 17 -37q9 -1 26 8q19 11 38 26q28 23 48 41q10 9 13 6q2 -3 -10 -15q-33 -30 -59 -51q-49 -39 -86 -39q-35 0 -34 47q1 34 22 55q13 13 41 17q22 4 31 14q5 6 6 15t-7 14 q-10 4 -31 -5q-32 -15 -76 -50q-20 -16 -60 -52t-50 -43q-14 -10 -26 -10t-15 3t1 13q9 20 41 67zM140 184q54 47 108.5 90.5t70.5 57.5q60 53 93 83t63.5 66.5t32.5 57.5q1 19 -17 19q-23 0 -65 -40q-81 -81 -133 -143q-78 -94 -153 -191z" glyph-name="k" unicode="k" horiz-adv-x="312"/>
<glyph d="M47 122l-1 1l-41 -37q-8 -7 -11 -3q-1 3 5 9q11 11 73 63q66 84 118 143q59 70 119 124q19 17 36 17q15 0 15 -7q-60 -60 -149 -166q-133 -161 -160 -220q-9 -21 -2 -27q9 -6 31 6q17 9 41 28q25 19 44 37q11 12 15 8q2 -2 -7 -12q-25 -25 -61 -52q-53 -40 -90 -40 q-15 0 -23.5 7t-7.5 20q1 32 56 101z" glyph-name="l" unicode="l" horiz-adv-x="168"/>
<glyph d="M51 138q42 33 68 33q25 0 25 -22q0 -14 -21 -43q-44 -59 -47 -63l1 -1q74 61 92 75q73 54 108 54q18 0 26 -8t6 -21q-3 -14 -39 -57q-26 -30 -36 -44l1 -1q57 49 94 77q73 54 109 54q34 0 31 -27q-2 -14 -40 -61q-18 -21 -33 -44q-11 -17 -4 -22q6 -5 24 4q22 11 48 31 q18 14 48 41q10 9 13 6t-8 -13q-26 -26 -60 -52q-53 -40 -90 -40q-15 0 -23 6.5t-7 19.5q0 6 2.5 12.5t5 11t8 12.5t8 11.5t10 12t8.5 10.5l42 49q8 10 1 14q-6 4 -26 -6q-35 -18 -78 -51q-22 -17 -56 -45.5t-56 -45.5q-12 -9 -26 -9q-12 0 -14.5 3t1.5 13q15 32 53 78 q8 10 23 27t19 22q9 11 -1 14q-7 2 -25 -6q-38 -19 -78 -51q-22 -17 -56 -45.5t-56 -45.5q-12 -9 -26 -9q-12 0 -15 3t2 13q12 22 44 67q9 12 40 52q10 13 7 17q-4 5 -15 -1q-17 -8 -39 -27l-43 -38q-14 -12 -17 -9q-2 3 15 19q40 37 52 46z" glyph-name="m" unicode="m" horiz-adv-x="512"/>
<glyph d="M207 -6q-15 0 -23 6.5t-7 19.5q1 20 42 70l42 49q8 10 1 14q-6 4 -26 -6q-35 -18 -78 -51q-22 -17 -56 -45.5t-56 -45.5q-12 -9 -26 -9q-12 0 -15 3t2 13q17 32 44 67l40 52q10 13 7 17q-4 5 -15 -1q-17 -8 -39 -27l-43 -38q-14 -12 -17 -9q-2 3 15 19q40 37 52 46 q42 33 68 33q25 0 25 -22q0 -14 -21 -43q-44 -59 -47 -63l1 -1q74 61 92 75q73 54 109 54q34 0 31 -27q-2 -14 -40 -61q-21 -25 -33 -44q-11 -17 -4 -22q6 -5 24 4q22 11 48 31q18 14 48 41q10 9 13 6t-8 -13q-26 -26 -60 -52q-53 -40 -90 -40z" glyph-name="n" unicode="n" horiz-adv-x="352"/>
<glyph d="M21 100l-18 -16q-10 -9 -13 -6q-2 3 7 12q11 11 31 25q23 16 48 29q49 26 83 27q15 0 15 -4q0 -1 -11 -6q-29 -13 -72 -55q-55 -55 -58 -88q-2 -17 14 -17t42.5 17.5t50.5 43.5q2 21 18 42q13 18 32 26q3 7 3 23q0 4 -0.5 7t-1 4.5t-0.5 2.5t1 2q5 3 14 -6q15 -15 12 -35 q-4 -33 -57 -81q6 -3 19 0q15 3 34 17q14 10 32 26q14 13 17 10t-13 -18q-20 -17 -32 -26q-21 -15 -38 -18q-18 -4 -27 2q-64 -49 -114 -49q-24 0 -37 11.5t-12 32.5q2 32 32 64z" glyph-name="o" unicode="o" horiz-adv-x="249"/>
<glyph d="M101 173l-100 -91q-13 -12 -16 -9t14 19l68 63l91 83q22 20 39 20q10 0 13 -1.5t-0.5 -7t-9.5 -12.5l-4 -4q-89 -104 -257 -331q-109 -148 -179 -257q-10 -16 -6 -20t13 6t78 108q17 25 115 155q73 96 121 153q48 55 88 85q53 39 86 39t30 -26q-2 -14 -41 -60 q-28 -32 -35 -43q-11 -17 -3 -23t27 3q21 10 46 30q24 19 46 39q11 11 15 8q2 -3 -8 -13q-25 -25 -61 -52q-53 -40 -90 -40q-18 0 -26 8.5t-6 20.5q3 22 44 67q38 42 43 50q6 10 0 13t-22 -5q-50 -25 -104 -83q-55 -60 -145 -181q-99 -133 -121 -165q-65 -96 -86 -113 q-15 -13 -29 -10q-17 3 -17 21q0 27 38 84q50 76 140 197q103 141 211 275z" glyph-name="p" unicode="p" horiz-adv-x="327"/>
<glyph d="M174 171q15 -3 20.5 -14t0.5 -24q36 38 51 38q31 0 16 -16q-56 -66 -65 -77q-37 -46 -133 -177q-105 -143 -177 -256q-10 -16 -5 -20q5 -3 15 8q19 21 73 101q51 72 113 154q51 66 119 137q24 25 68 65q13 12 16 9t-12 -17q-25 -22 -57 -55q-63 -65 -126 -145 q-57 -74 -119 -164q-66 -92 -85 -110q-15 -15 -29 -13q-19 2 -19 21q0 18 41 85q49 78 136 196q15 21 114 154l-1 1q-58 -55 -109 -58q-19 -1 -31.5 8.5t-9.5 31.5q3 23 28 52l-1 1l-13 -12q-7 -5 -9 -3q-3 4 16 21q8 8 28 22q25 18 46 28q64 34 100 28zM170 161 q-29 0 -92 -63q-59 -58 -56 -79q1 -10 13 -10q14 0 38.5 14t45.5 33q25 22 46.5 48.5t22.5 38.5q1 18 -18 18z" glyph-name="q" unicode="q" horiz-adv-x="273"/>
<glyph d="M171 145q0 -7 -5.5 -15t-20 -23.5t-20.5 -22.5q-25 -30 -34 -47q-8 -14 -1 -19q6 -5 22 4q25 13 45 30q29 23 47 39q12 11 15 8t-12 -17q-30 -27 -57 -48q-52 -40 -89 -40q-15 0 -23.5 7t-7.5 19q1 26 48 71q10 9 26 22.5t27 22.5t12 12q2 7 -7 8h-33q-18 0 -23 2 q-13 -14 -38 -38l-40 -37q-12 -11 -15 -8t11 16l39 36q22 21 35 35q-17 11 0 32q14 17 38 17q16 0 18 -10q-10 -7 -17 -14q-19 -20 3 -22q57 -2 57 -20z" glyph-name="r" unicode="r" horiz-adv-x="206"/>
<glyph d="M119 21q21 8 44 22q30 18 66 50q11 8 13 6q3 -3 -11 -16q-24 -22 -51 -40q-29 -20 -63 -34q-41 -18 -84 -18q-36 0 -50 17.5t-10 42.5q3 22 18 37.5t33 14.5q23 -2 19 -22q-3 -15 -22 -25q-22 -12 -23 -30q-1 -12 7 -18.5t22 -6.5q36 0 67 54q9 15 25.5 55.5t21.5 46.5v1 q-14 -14 -48 -38q-23 -17 -38 -24q-8 -4 -10 -1q-1 4 5 8q23 14 42 28q22 16 59 48q4 9 16 17q15 11 29 11q26 0 -1 -19l-4 -2q-3 -2 -12 -7t-12 -8q-7 -7 -7 -27q2 -56 -9 -82q-12 -28 -32 -41z" glyph-name="s" unicode="s" horiz-adv-x="229"/>
<glyph d="M44 120q-16 -13 -40 -35q-9 -8 -12 -5t7 12l73 65q-7 0 -18.5 -0.5t-17.5 -0.5h-4.5t-3.5 0.5t-2.5 1.5t-0.5 3q1 4 27 6q13 1 28 1q52 64 94 104q41 41 63 41q13 0 15 -6q-19 -17 -61 -65q-31 -35 -61 -74q23 1 57 1q4 0 7.5 -0.5t5 -2t1.5 -3.5q-1 -5 -18 -5 q-38 0 -61 -1q-40 -48 -72 -110q-13 -23 -1 -29q9 -4 25 4q21 10 45 30q22 17 47 40q12 9 14 7q2 -3 -7 -12q-27 -27 -61 -53q-53 -41 -92 -41q-16 0 -23.5 8t-6.5 20q3 32 54 99z" glyph-name="t" unicode="t" horiz-adv-x="167"/>
<glyph d="M81 143q-12 -5 -43 -30q-24 -19 -36 -30q-12 -10 -15 -8q-3 3 11 16q36 32 71 56q32 22 58 22q16 0 18 -3t-7 -13q-17 -19 -52 -62q-31 -41 -37 -54t-1 -18q6 -6 23 2q27 14 75 52q27 21 61 49t47 38q15 11 29 11q15 0 18.5 -2.5t-3.5 -13.5q-5 -5 -23 -27t-30 -37 q-26 -32 -37 -51q-10 -17 -3 -22t23 3q21 10 45 30q24 19 48 41q11 11 14 7q3 -2 -8 -13q-18 -18 -61 -52q-51 -40 -86 -40q-31 0 -31 24q0 18 16 41q11 16 47 52l-1 1l-80 -63q-73 -55 -107 -55q-16 0 -25 7.5t-8 20.5q1 17 19 41q33 44 71 80z" glyph-name="u" unicode="u" horiz-adv-x="322"/>
<glyph d="M222 45q-27 0 -32 19q-16 -10 -42 -24q-54 -29 -96 -42q-21 -7 -34 -7q-14 0 -15 12q-1 6 9 18q30 35 49 58q27 34 37 55q5 10 0 14t-15 -1q-15 -7 -39 -27q-27 -22 -42 -37q-7 -7 -10 -4t4 10q25 25 53 47q44 35 70 35q32 0 28 -35q-3 -25 -35 -64q-24 -31 -57 -61 q34 9 90 39q27 14 44 27q1 27 23 57q29 41 48 37q9 -2 9 -13.5t-6 -22.5q-22 -37 -64 -65q3 -14 22 -16q23 -2 48 16q16 12 25 21q12 11 15 8t-10 -15q-8 -8 -24 -20q-27 -19 -53 -19z" glyph-name="v" unicode="v" horiz-adv-x="296"/>
<glyph d="M22 -7q-30 0 -26 31q3 26 37 67q25 29 59 59q-18 -8 -52 -35q-23 -18 -40 -34q-12 -11 -15 -8t13 18q39 35 70 56q32 22 65 22q16 0 18.5 -3t-7.5 -13q-40 -40 -60 -64q-27 -33 -34 -52q-5 -12 0 -17q6 -6 25 3q21 10 59 41q34 27 101 84q18 14 32 14q15 0 18.5 -3 t-3.5 -13q-22 -25 -45 -56q-26 -36 -33 -51q-10 -19 0 -26q7 -5 28 2q24 8 58 32q18 13 29 25q0 28 24 62q29 41 48 37q8 -2 9 -13t-6 -23q-21 -34 -63 -69q4 -10 20 -12q22 -2 50 18q15 10 25 20t13 7t-9 -15q-7 -8 -25 -20q-29 -21 -55 -19q-20 0 -27 14q-7 -6 -25 -19 q-66 -47 -113 -47q-35 0 -35 29q0 15 13 36q10 16 36 46l-1 1l-75 -62q-62 -50 -101 -50z" glyph-name="w" unicode="w" horiz-adv-x="427"/>
<glyph d="M96 49h-1q-38 -55 -75 -55q-19 0 -29 9t-9 28q1 16 12.5 28.5t26.5 12.5q11 0 17 -7.5t2 -17.5q-2 -5 -10 -12t-9 -13q-1 -12 10 -12q25 0 72 67q27 38 32 57q4 19 -12 22q-25 4 -75 -34q-22 -17 -46 -39q-14 -13 -17 -10t12 17q27 25 56 47q43 34 80 34q20 0 34 -13.5 t8 -40.5h1q47 54 79 54q15 0 23 -10t5 -25q-2 -11 -11.5 -19t-20.5 -8q-16 0 -15 15q1 4 5 9.5t5 9.5q2 8 -8 8q-12 0 -38 -24q-17 -16 -38 -44q-20 -26 -25 -45q-7 -24 10 -28q28 -6 81 34q18 13 54 46q6 6 10 3q2 -3 -6 -11q-35 -32 -53 -46q-57 -42 -94 -42q-24 0 -37 15 t-6 40z" glyph-name="x" unicode="x" horiz-adv-x="285"/>
<glyph d="M213 112l-1 1q-21 -18 -81 -64q-73 -55 -107 -55q-16 0 -25 7.5t-8 21.5q1 16 19 40q35 46 71 80q-11 -5 -44 -31q-25 -20 -35 -29q-12 -10 -15 -8q-3 3 11 16q36 32 71 56q32 22 58 22q16 0 18 -3t-7 -13q-17 -19 -52 -62q-28 -35 -37 -54q-6 -13 -1 -18q6 -6 23 2 q27 14 75 52q27 21 61 49t47 38q15 11 29 11t17 -2.5t-3 -12.5l-59 -78q-54 -70 -132 -177q-135 -184 -177 -256q-10 -17 -5 -20t15 8t73 101q82 114 113 154q67 85 128 146q22 22 61 58q10 10 14 7q2 -3 -11 -16q-26 -24 -58 -56q-63 -65 -126 -145q-66 -87 -119 -164 q-65 -92 -85 -110q-16 -14 -29 -13q-19 2 -19 21t41 85q48 75 135 196q118 163 156 215z" glyph-name="y" unicode="y" horiz-adv-x="315"/>
<glyph d="M51 36q12 3 25 2q37 -4 48 -34q26 14 59 39q34 25 61 50q11 9 14 6t-13 -17q-22 -20 -56 -46q-31 -22 -63 -41q2 -6 2 -15q0 -48 -52 -116.5t-110 -119.5q-68 -60 -141.5 -104.5t-115.5 -44.5t-42 35q0 61 155 179q80 60 195 129l76 47q2 20 -5.5 32t-21.5 12 q-33 0 -72 -37q-8 -8 -12 -5q-6 6 3 17q9 12 42 30q17 9 48.5 24t49.5 25q50 30 73 56q6 6 4 9q-1 2 -6 0q-48 -27 -90 -27q-37 0 -49 19q-29 -33 -53 -55q-8 -7 -11 -4t6 11q28 26 54 57q-2 16 10 31t33 15q17 0 17 -10q-13 -7 -16 -16q-2 -8 4.5 -14t23.5 -6q42 0 81 17 q16 6 20 1q6 -6 -6 -23q-26 -35 -86 -68q-17 -9 -44.5 -21.5t-38.5 -18.5zM-286 -394q39 0 101.5 46t123.5 111q47 49 94.5 112.5t57.5 98.5q-11 -8 -35 -22.5t-34 -21.5q-120 -75 -194 -131q-130 -98 -137 -166q-2 -27 23 -27z" glyph-name="z" unicode="z" horiz-adv-x="244"/>
<glyph d="M555 463l-6 -8q-15 1 -40 1q-80 0 -115 -38q-16 -18 -52.5 -83t-73.5 -98q-33 -29 -90 -31q13 -13 14 -37t-16 -51q-15 -21 -46 -59.5t-42 -54.5q-40 -58 32 -78q17 -5 44 -7l-6 -6q-26 0 -49 5q-49 10 -57 41.5t33 90.5q69 91 72 97q14 27 7.5 44t-25.5 21v1 q23 0 53 8.5t46 24.5q19 19 34 40t31.5 50t22.5 38q29 46 67.5 68.5t105.5 22.5z" glyph-name="braceleft" unicode="{" horiz-adv-x="295"/>
<glyph d="M82 750v-1000h-20v1000h20z" glyph-name="bar" unicode="|" horiz-adv-x="144"/>
<glyph d="M253 458l5 5q29 0 50 -5q106 -22 23 -132q-2 -2 -29.5 -36.5t-40.5 -54.5q-14 -26 -7 -42t27 -19v-1q-23 3 -53 -9.5t-49 -32.5q-14 -15 -28 -33.5t-21.5 -30.5t-21 -34.5t-17.5 -29.5q-30 -46 -68 -68.5t-105 -22.5l-57 2l6 7h40q82 0 115 38q16 18 52.5 83t73.5 98 q45 38 99 40q-16 11 -20 31.5t13 47.5q9 12 42.5 54t45.5 60q38 57 -31 78q-19 5 -44 7z" glyph-name="braceright" unicode="}" horiz-adv-x="295"/>
<glyph d="M134 214q22 0 67 -17.5t69 -17.5q21 0 32 15q3 5 5 4q2 -2 0 -8q-16 -32 -51 -32q-21 0 -63 11.5t-64 11.5q-53 0 -71 -28q-1 -1 -2 -3q0 -2 -0.5 -2.5t-1.5 -0.5q-4 0 -2 6q11 61 82 61z" glyph-name="asciitilde" unicode="~" horiz-adv-x="307"/>
<glyph glyph-name="uni00A0" unicode="" horiz-adv-x="153"/>
<glyph d="M-88 -177q-12 0 -11 5q2 7 19 30q77 100 206 230q9 9 13 7t-6 -16q-97 -128 -160 -224q-22 -32 -61 -32zM150 118q-12 0 -15 7.5t6 18.5q8 11 23 19t24 8q10 -13 1 -34q-8 -19 -39 -19z" glyph-name="exclamdown" unicode="" horiz-adv-x="239"/>
<glyph d="M213 209l-101 -152q6 -1 19 2q34 9 62 34q10 7 12 5q3 -3 -6 -12q-44 -44 -96 -44q-32 -47 -44 -63q-6 -8 -10 -7q-5 1 2 12l38 59q-43 3 -40 42q3 40 48 85q21 20 52 35.5t56 16.5q10 15 17 25q17 26 24 22q5 -3 -10 -25l-15 -23q38 -5 35 -34q-1 -13 -11.5 -24.5 t-20.5 -11.5q-22 0 -10 28q10 23 -1 30zM100 61l99 151q-22 0 -54 -35q-53 -55 -53 -96q0 -14 8 -20z" glyph-name="cent" unicode="" horiz-adv-x="266"/>
<glyph d="M631 301q0 -19 -29.5 -41.5t-75.5 -33.5q-48 -11 -86 -11l-28 -33l-38 -43q31 0 61 -1q14 0 14 -4t-14 -4q-35 -1 -70 -1q-45 -46 -131 -92q75 -16 101 -16q56 0 93 23q11 7 12 6q3 -3 -4 -10q-53 -50 -123 -50q-35 0 -111 27q-53 -26 -149 -26q-32 0 -61.5 7t-28.5 22 q1 19 39.5 28t90.5 8q50 0 130 -17q12 7 25 19t22 21t24 26t22 24q-40 -1 -124 -1q-20 0 -20 6q0 8 19 8l133 -3q6 6 17.5 20t18.5 21q27 30 32 35q-43 3 -68 23t-25 51q0 17 12 31t29 19q11 3 11 -1l-9 -4q-33 -12 -33 -45q0 -27 24 -43.5t57 -17.5h14q42 43 98.5 69.5 t96.5 26.5q32 0 32 -23zM621 301q0 14 -22 14q-73 0 -150 -87q44 5 81 16q91 28 91 57zM56 -1q91 0 135 22q-60 16 -123 18q-95 2 -97 -18q-1 -6 9.5 -11t26.5 -7t28.5 -3t20.5 -1z" glyph-name="sterling" unicode="" horiz-adv-x="510"/>
<glyph d="M284 171v-1q0 -28 -18 -58.5t-43 -50.5q17 -24 27 -45q5 -13 0 -15q-4 -2 -14 9q-12 14 -30 39q-37 -28 -76 -30q-35 -1 -56 23l-47 -30q-17 -10 -20 -7q-5 5 9 15l47 37q-6 12 -6 31q0 57 60 105l-26 45q-7 13 0 15q4 2 13 -9q2 -3 13.5 -17.5t16.5 -20.5q40 28 79 28 q36 0 55 -22l40 28q15 10 19 7t-7 -14q-14 -13 -42 -36q6 -12 6 -26zM245 172v1q0 48 -42 48q-40 -1 -74 -49t-34 -91q0 -24 9.5 -38t30.5 -13q41 1 75.5 50t34.5 92z" glyph-name="currency" unicode="" horiz-adv-x="320"/>
<glyph d="M187 126q108 94 182 140q93 56 163 50q9 -1 16.5 -4.5t5.5 -7.5q-2 -1 -2.5 -0.5t-5.5 2t-11 1.5q-49 0 -156 -63q-103 -63 -172 -119q79 0 129 -1q17 0 17 -4q0 -5 -17 -5q-100 -2 -145 -2l-21 -15l-22 -23l125 -3q18 0 18 -4t-18 -4q-37 -1 -137 -1q-29 -33 -76 -76 q-12 -12 -19 -8q-4 3 6 15q4 5 24 30.5t29 38.5q-9 0 -32 -0.5t-33 -0.5q-25 0 -25 5q0 10 26 10q41 0 73 -1l18 23l11 15q-12 0 -44.5 -0.5t-52.5 -0.5q-25 0 -25 6q0 10 26 10l103 -3q38 56 52 91q19 43 16 67q-2 20 -30 20q-38 0 -70 -32q-6 -6 -8 -5q-3 2 3 8 q39 43 91 43q39 0 51 -24q12 -25 -5 -73q-17 -45 -58 -95z" glyph-name="yen" unicode="" horiz-adv-x="371"/>
<glyph d="M82 675v-350h-20v350h20zM62 175h20v-350h-20v350z" glyph-name="brokenbar" unicode="" horiz-adv-x="144"/>
<glyph d="M42 -104q-36 0 -56 18.5t-15 45.5q8 35 38 31q9 -1 14 -8t3 -17q-1 -7 -10.5 -17t-9.5 -17q0 -25 40 -25q53 0 72 43q13 30 -7 86q-18 46 -7 79t40 51.5t63 18.5q-12 39 -3 67q11 32 41 51t65 18q25 -1 40.5 -15.5t8.5 -36.5q-3 -11 -12 -18t-19 -6q-11 1 -14 10.5 t1 16.5q2 5 5 9.5t5.5 7t3.5 5t1 5.5q-2 13 -24 13q-23 1 -42.5 -12t-27.5 -33q-11 -28 6 -71q25 -58 14 -90t-41.5 -52t-64.5 -22q11 -40 3 -65q-12 -34 -44 -52.5t-67 -18.5zM210 175q-25 1 -46.5 -12t-29.5 -32q-11 -29 6 -71l7 -18q53 3 72 45q12 25 -4 74z" glyph-name="section" unicode="" horiz-adv-x="356"/>
<glyph d="M167 241q-9 11 0 30q7 17 34 17q11 0 13.5 -6.5t-4.5 -16.5q-18 -24 -43 -24zM266 241q-9 11 0 30q7 17 34 17q11 0 13.5 -6.5t-4.5 -16.5q-18 -24 -43 -24z" glyph-name="dieresis" unicode="" horiz-adv-x="307"/>
<glyph d="M250 294q65 0 106.5 -43.5t41.5 -108.5t-42 -108.5t-106 -43.5q-63 0 -105.5 44t-42.5 108q0 65 42.5 108.5t105.5 43.5zM250 282q-58 0 -95.5 -39t-37.5 -101q0 -60 38.5 -99.5t97.5 -39.5q57 0 93.5 39.5t36.5 99.5q0 61 -38 100.5t-95 39.5zM317 107l6 -1 q-9 -32 -16 -43q-27 -8 -46 -8q-46 0 -70 26t-24 62q0 40 28 63t68 23q9 0 53 -8q0 -1 0.5 -16t2.5 -25l-6 -2q-12 43 -55 43q-27 0 -42.5 -22t-15.5 -55q0 -36 17.5 -57.5t44.5 -21.5q36 0 55 42z" glyph-name="copyright" unicode="" horiz-adv-x="500"/>
<glyph d="M208 288q23 24 35 24q19 0 9 -11q-51 -64 -62 -82q-7 -13 -2 -17q5 -3 16 3q14 7 31 21q15 12 35 30q8 8 10 5t-6 -11q-17 -17 -42 -37q-33 -26 -56 -26q-20 0 -22 15t9 29h-1q-48 -43 -77 -44q-13 -1 -21.5 5t-7.5 22q4 34 50 68q51 35 86 29q10 -1 14 -8.5t2 -14.5z M187 303q-19 0 -61 -42q-36 -37 -36 -52q0 -8 8 -8q18 0 57 35q45 41 45 55q0 12 -13 12z" glyph-name="ordfeminine" unicode="" horiz-adv-x="263"/>
<glyph d="M104 4q-2 0 -5 7q-20 42 -42 76q-5 10 -4 12q1 4 10 8q41 23 92 55q8 5 9 4q3 -3 -4 -11q-34 -39 -72 -62q19 -48 19 -80q0 -9 -3 -9zM188 4q-2 0 -5 7q-20 42 -42 76q-5 10 -4 12q1 4 10 8q41 23 92 55q8 5 9 4q3 -3 -4 -11q-34 -39 -72 -62q19 -48 19 -80q0 -9 -3 -9z " glyph-name="guillemotleft" unicode="" horiz-adv-x="280"/>
<glyph d="M80 159v1q0 6 19 6q75 0 297 7q5 0 8.5 -1t5.5 -2.5t2.5 -3.5t0 -4.5t-1.5 -3.5q-75 -84 -103 -120q-14 -18 -20 -13q-5 3 6 19q45 65 72 101l-267 7q-19 0 -19 7z" glyph-name="logicalnot" unicode="" horiz-adv-x="457"/>
<glyph d="M150 117q23 0 34.5 -15.5t10.5 -36.5q0 -5 -2 -5t-4 3q-10 16 -40 16q-12 0 -35 -4.5t-40 -4.5q-25 0 -35 13q-2 3 0 5t4 0q8 -4 16 -4q18 0 50 19q20 14 41 14z" glyph-name="uni00AD" unicode="" horiz-adv-x="245"/>
<glyph d="M297 208l-1 -6q-33 0 -45 18l-20 36q-5 9 -13 9h-8v-36q0 -16 18 -20q2 -1 3 -1v-6h-64v6q14 2 16.5 5t2.5 16v84q0 11 -3 15t-16 5v6h64q20 0 33.5 -9t13.5 -27q0 -23 -29 -35q26 -43 30 -48q10 -12 18 -12zM210 273h11q17 0 24 7q7 9 7 21q0 30 -27 30q-15 0 -15 -12 v-46zM94 268q0 59 38 98t95 39q59 0 96 -39t37 -98t-37 -97.5t-94 -38.5t-96 39.5t-39 96.5zM345 268q0 54 -33.5 88.5t-84.5 34.5q-52 0 -85 -34t-33 -89q0 -53 34.5 -87.5t86.5 -34.5q50 0 82.5 34.5t32.5 87.5z" glyph-name="registered" unicode="" horiz-adv-x="453"/>
<glyph d="M319 267q0 -3 -4 -7q-12 -11 -20 -11q-78 2 -134 0q-7 0 -9 0.5t1 5.5q8 10 29 13q62 7 124 4q13 -1 13 -5z" glyph-name="macron" unicode="" horiz-adv-x="308"/>
<glyph d="M124 264h1q17 0 30.5 -13t13.5 -32q0 -18 -13.5 -31t-31.5 -13q-19 0 -32 13t-13 31q0 19 13 32t32 13zM124 249h-1q-11 0 -20 -9t-9 -21t9 -20.5t21 -8.5t21 8.5t9 20.5t-9 21t-21 9z" glyph-name="degree" unicode="" horiz-adv-x="155"/>
<glyph d="M299 276q26 0 0 -32l-53 -63l113 -3q15 0 16 -5q0 -5 -15 -5q-78 -2 -127 -2l-59 -65q-14 -14 -19 -11q-4 4 5 16q7 11 42 59q-33 -1 -104 -1q-12 0 -17.5 1t-6.5 3t0 6q4 12 21 12l120 -4l47 66q1 1 5.5 7t5.5 7.5t4.5 5.5t6 5t6.5 2t9 1zM303 65q0 -5 -15 -5 q-86 -2 -248 -4q-15 0 -12 12q5 12 23 12l237 -9q15 0 15 -6z" glyph-name="plusminus" unicode="" horiz-adv-x="359"/>
<glyph d="M115 185q14 3 23 2q7 -1 19.5 -5t17.5 -4q18 0 37 19q5 5 7 4t-1 -6q-34 -41 -60 -41q-16 0 -36 9q-11 5 -25 5q-11 0 -20 -6q-2 -1 -4.5 -3t-4.5 -3.5t-3 -1.5q-3 0 -1 5q1 4 10 9q4 3 12 7.5t21 11.5t23 12q74 42 86 81q7 23 -15 23q-21 0 -39 -15q-15 -12 -19 -27 q-2 -10 2 -14.5t12 -2.5q4 1 4 -1t-4 -4q-6 -3 -14 -3q-18 1 -13 22t29 38q30 22 58 22q20 0 30 -10.5t6 -27.5q-7 -31 -69 -65q-39 -21 -69 -30z" glyph-name="two.superior" unicode="" horiz-adv-x="191"/>
<glyph d="M188 248q12 0 21 -7q13 -10 6 -31q-9 -26 -39 -42q-30 -15 -60 -15q-44 0 -40 30q1 10 10.5 18t20.5 9q9 1 13 -3.5t3 -10.5q-2 -8 -11 -13q-10 -5 -11 -11q-1 -5 3.5 -8t12.5 -3q15 0 34 12.5t31 37.5q13 28 -3 29q-5 0 -15 -5q-8 -4 -9 -1q-1 1 0 2.5t4 3.5t7 4 q55 23 55 48q0 12 -15 12t-29 -10q-12 -7 -16 -18q-3 -7 -1 -13q2 -5 1 -5q-4 -2 -8 4t-1 15q4 14 25 27q23 14 48 14q26 0 28 -19q1 -19 -22 -33q-16 -10 -43 -18z" glyph-name="three.superior" unicode="" horiz-adv-x="191"/>
<glyph d="M317 324q12 0 12 -17q0 -10 -11 -21q-25 -25 -83 -57q-10 -5 -12 -3q-2 3 5 10q42 40 75 79q7 9 14 9z" glyph-name="acute" unicode="" horiz-adv-x="307"/>
<glyph d="M7 60q41 52 75 83q-12 -4 -45 -31q-25 -20 -35 -29q-12 -10 -15 -8q-3 3 11 16q36 32 71 56q32 22 58 22q16 0 18 -3t-7 -13q-17 -19 -52 -62q-31 -41 -37 -54t-1 -18q6 -6 23 2q27 14 75 52q27 21 61 49t47 38q15 11 29 11q15 0 18.5 -2.5t-3.5 -13.5q-5 -5 -23 -27 t-30 -37q-26 -32 -37 -51q-10 -17 -3 -22t23 3q21 10 45 30q24 19 48 41q11 11 14 7q3 -2 -8 -13q-18 -18 -61 -52q-51 -40 -86 -40q-31 0 -31 24q0 18 16 41q11 16 47 52l-1 1l-80 -63q-73 -55 -104 -55q-25 0 -32 18q-13 -17 -34 -55q-51 -85 -57 -139q-2 -14 1 -28 q1 -3 0.5 -4.5t-2.5 -1.5t-5 2q-22 12 -22 46q0 44 47 117q22 35 84 111z" glyph-name="uni00B5" unicode="" horiz-adv-x="322"/>
<glyph d="M567 400q42 0 42 -15q0 -9 -11 -9q-6 0 -19 11q-8 6 -21 5q-47 -5 -113 -82q14 -4 24 -12q7 -6 5 -8t-8 2q-10 7 -27 12q-25 -30 -49 -62q-87 -116 -140 -170q-89 -89 -154 -90q-9 0 -15 2q-57 -38 -106 -38q-36 0 -57 16t-16 41q4 16 15 24.5t24 6.5q9 -1 14 -8t3 -17 q-2 -9 -11 -18.5t-9 -15.5q-1 -8 9.5 -14t28.5 -6q51 0 111 50q41 35 98 107q-51 6 -67.5 53.5t24.5 95.5q61 70 219 65q32 -1 60 -8q84 82 146 82zM380 314q-4 1 -13 1q-122 0 -179 -75q-35 -50 -30 -82.5t33 -38.5l9 11q127 164 180 184zM89 -10q4 -2 9 -2q39 0 107 69 q15 15 31 34t26.5 32t33 43t33.5 43q59 75 87 102q-10 2 -14 2q-8 0 -10 -1q-5 -2 -11 -5.5t-13 -10t-13.5 -12.5t-16 -16.5t-16 -18t-17.5 -21t-17.5 -21.5t-19 -24t-18.5 -23q-102 -127 -147 -160z" glyph-name="paragraph" unicode="" horiz-adv-x="417"/>
<glyph d="M93 162q13 0 16 -7.5t-6 -18.5q-8 -11 -23 -19t-24 -8q-8 12 -1 34q7 19 38 19z" glyph-name="periodcentered" unicode="" horiz-adv-x="126"/>
<glyph d="M27 -98q17 0 30 9t14 22q1 11 -7 17.5t-23 5.5q-4 0 -9 -2t-6.5 -2.5t-4.5 0.5q-2 3 4 9q17 19 42 40l6 -4q-25 -25 -30 -31q6 2 14 2q22 0 34 -9.5t10 -28.5t-23.5 -31t-50.5 -11q-40 1 -57 25q-10 13 -3 15q1 0 8 -7q17 -19 52 -19z" glyph-name="cedilla" unicode="" horiz-adv-x="307"/>
<glyph d="M250 318q10 0 -1 -13q-43 -53 -94 -123q-12 -16 -19 -20t-27 -8q-10 -2 -10 2t12 20q76 98 99 112q-6 -3 -20 -11.5t-20 -11.5t-12 -4t-9.5 -1t-4.5 2q0 1 1 2l2 1q11 4 26 12q28 14 52 30q19 11 25 11z" glyph-name="one.superior" unicode="" horiz-adv-x="191"/>
<glyph d="M94 187q-17 0 -26 8t-8 22q1 31 34 58q36 31 83 37q11 2 11 -2q0 -1 -8 -5q-26 -14 -50 -38q-38 -36 -40 -60q-2 -12 9 -12q27 0 65 41q2 14 13 30q12 15 22 17q4 8 2 18q-1 10 0 10q4 1 9 -4q10 -10 9 -25q-3 -23 -39 -54q4 -3 13 -1q8 2 23 12q13 9 23 19q7 8 10 5 t-5 -10q-10 -10 -22 -19q-18 -13 -28 -15q-12 -3 -20 1q-48 -33 -80 -33z" glyph-name="ordmasculine" unicode="" horiz-adv-x="263"/>
<glyph d="M81 166q3 0 6 -7q11 -26 41 -76q6 -9 5 -12q0 -2 -11 -8q-44 -24 -91 -55q-7 -6 -10 -3q-2 2 4 10q33 38 73 62q-18 45 -20 79q0 10 3 10zM166 166q2 0 6 -7q11 -26 41 -76q6 -9 5 -12q0 -2 -11 -8q-44 -24 -91 -55q-7 -6 -10 -3q-2 2 4 10q33 38 73 62q-18 45 -20 79 q0 10 3 10z" glyph-name="guillemotright" unicode="" horiz-adv-x="280"/>
<glyph d="M183 52q0 2 13 11q18 13 65 41l65 38q29 15 41 15q6 0 3 -5q-38 -50 -66 -89q12 0 24 -3l6 -2t4 -2.5t1 -2.5q-1 -1 -14 -1h-28q-19 -24 -34 -47q-7 -10 -30 -14q-10 -1 -11 1.5t7 15.5q9 14 32 44q-28 0 -43 -1l-28 -3q-7 -2 -7 4zM355 300q11 0 6 -7q-4 -6 -23 -25 q-146 -144 -283 -302q-10 -12 -16 -8q-3 3 7 15q142 169 266 300q25 27 43 27zM61 124q23 30 54.5 66.5t42.5 44.5q-37 -21 -38 -22q-6 -3 -12 -4t-9.5 -1t-4.5 2q0 1 3 3q11 4 26 12q28 14 52 30q18 11 25 11q10 0 -1 -13q-43 -53 -94 -123q-12 -16 -19 -20t-27 -8 q-10 -2 -10 2t12 20zM332 137l-65 -38q-12 -7 -31.5 -20t-27.5 -17v-1q26 3 61 3z" glyph-name="onequarter" unicode="" horiz-adv-x="389"/>
<glyph d="M307 54q-33 -20 -63 -29q10 2 17 1t19.5 -5t17.5 -4q20 0 37 20q4 4 6 3q3 -1 0 -4q-33 -42 -60 -42q-14 0 -36 8q-15 5 -25 5q-13 0 -19 -5q-10 -8 -11 -8q-2 -1 -3 0.5t0 3.5q2 4 10 9q4 3 12.5 7.5t21.5 11.5t22 12q76 44 86 81q7 23 -15 23q-20 0 -39 -15 q-15 -12 -19 -26q-2 -10 2 -15.5t12 -3.5q5 2 5 0t-4 -4q-9 -4 -16 -3q-17 2 -12 22q4 19 29 38q29 22 58 22q20 0 29.5 -10.5t4.5 -27.5q-9 -29 -67 -65zM356 300q11 0 6 -7q-4 -6 -23 -25q-146 -144 -283 -302q-10 -12 -16 -8q-3 3 7 15q142 169 266 300q25 27 43 27z M61 124q23 30 54.5 66.5t42.5 44.5q-37 -21 -38 -22q-6 -3 -12 -4t-9.5 -1t-4.5 2q0 1 3 3q11 4 26 12q28 14 52 30q18 11 25 11q10 0 -1 -13q-43 -53 -94 -123q-12 -16 -19 -20t-27 -8q-10 -2 -10 2t12 20z" glyph-name="onehalf" unicode="" horiz-adv-x="407"/>
<glyph d="M214 52q0 2 13 11q18 13 65 41q55 32 67 39q25 14 39 14q6 0 3 -5q-38 -50 -66 -89q12 0 24 -3l6 -2t4 -2.5t1 -2.5t-14 -1h-28q-19 -24 -34 -47q-8 -12 -30 -14q-10 -2 -11 1t7 16q9 14 32 44q-28 0 -43 -1q-10 -1 -28 -3q-7 0 -7 4zM149 196q12 0 21 -7q13 -10 6 -31 q-9 -26 -39 -42q-30 -15 -60 -15q-44 0 -40 30q1 10 10.5 18t20.5 9q9 1 13 -3.5t3 -10.5q-2 -8 -11 -13q-10 -5 -11 -11q-1 -5 3.5 -8t12.5 -3q15 0 34 12.5t31 37.5q13 28 -3 29q-5 0 -15 -5q-8 -4 -9 -1q-1 1 0 2.5t4 3.5t7 4q55 23 55 48q0 12 -15 12t-29 -10 q-12 -7 -16 -18q-3 -7 -1 -13l1 -5q-4 -2 -8 4t-1 15q4 14 25 27q23 14 48 14q26 0 28 -19q1 -19 -22 -33q-16 -10 -43 -18zM386 300q11 0 6 -7q-4 -6 -23 -25q-146 -144 -283 -302q-10 -12 -16 -8q-3 3 7 15q142 169 266 300q25 27 43 27zM367 139q-18 -9 -69 -40 q-56 -35 -59 -37v-1q25 3 61 3q52 64 67 75z" glyph-name="threequarters" unicode="" horiz-adv-x="420"/>
<glyph d="M-35 -175h-1q-28 0 -41.5 19t-5.5 47q17 57 117 104q37 18 62 33q28 16 35 32q1 2 3 8l3.5 10.5t5 8t7.5 3.5q5 -1 3.5 -9.5t-5.5 -15.5q-16 -32 -55 -55q-111 -67 -129 -123q-12 -40 21 -43t70 25q22 18 34 41.5t4 38.5q-1 3 -3.5 4.5t-3.5 2.5t-1 2q2 3 11 1 q25 -5 16 -38q-7 -27 -51 -60q-49 -36 -96 -36zM154 118q-13 0 -16 7.5t6 18.5q8 11 23 19t24 8q8 -12 1 -34q-7 -19 -38 -19z" glyph-name="questiondown" unicode="" horiz-adv-x="239"/>
<glyph d="M21 57q0 25 15.5 42t36.5 19q17 1 27 -7.5t10 -22.5q0 -18 -23 -34q-18 -13 -18 -25q0 -17 26 -27t72 -6q94 8 208 87q-55 47 -55 113q0 46 33 76t86 29q36 -1 64.5 -24t39.5 -48q11 11 47 44q94 86 149 115q69 38 121 38q22 0 35 -10q12 -10 7 -14q-1 0 -11 7 q-8 6 -22 6q-18 0 -32 -11q-36 -29 -81 -94q-95 -131 -187 -282q25 2 56 17q32 17 63 46q6 7 10 3q2 -2 -8 -13q-31 -29 -62 -45t-64 -18q-20 -21 -39 -25q-13 -3 -20 -0.5t-6 6.5l2 8l8 15q-29 3 -65 18q-38 15 -59 35q-119 -84 -221 -92q-62 -5 -102.5 14.5t-40.5 59.5z M439 286q-37 0 -58.5 -27t-23.5 -65q-1 -29 9 -56t24 -43q36 29 73 62q12 11 35.5 32.5t35.5 31.5q-35 65 -95 65zM558 99q59 92 121 172q82 107 161 145v1q-40 -3 -95 -35q-59 -34 -134 -103q-23 -21 -63 -59q11 -30 13 -65q2 -29 -3 -56zM397 86q17 -18 52 -35 q36 -16 65 -19q4 8 16 26.5t14 21.5q11 22 7 74q-3 35 -12 58q-12 -11 -35.5 -32.5t-34.5 -31.5q-44 -39 -72 -62zM793 525q-23 15 -12 34q5 7 11 7t13 -6q35 -30 90 -69q8 -6 6 -8q-2 -3 -12 0q-66 23 -96 42z" glyph-name="Agrave" unicode="" horiz-adv-x="690"/>
<glyph d="M21 57q0 25 15.5 42t36.5 19q17 1 27 -7.5t10 -22.5q0 -18 -23 -34q-18 -13 -18 -25q0 -17 26 -27t72 -6q94 8 208 87q-55 47 -55 113q0 46 33 76t86 29q36 -1 64.5 -24t39.5 -48q11 11 47 44q94 86 149 115q69 38 121 38q22 0 35 -10q12 -10 7 -14q-1 0 -11 7 q-8 6 -22 6q-18 0 -32 -11q-36 -29 -81 -94q-95 -131 -187 -282q25 2 56 17q32 17 63 46q6 7 10 3q2 -2 -8 -13q-31 -29 -62 -45t-64 -18q-20 -21 -39 -25q-13 -3 -20 -0.5t-6 6.5l2 8l8 15q-29 3 -65 18q-38 15 -59 35q-119 -84 -221 -92q-62 -5 -102.5 14.5t-40.5 59.5z M439 286q-37 0 -58.5 -27t-23.5 -65q-1 -29 9 -56t24 -43q36 29 73 62q12 11 35.5 32.5t35.5 31.5q-35 65 -95 65zM558 99q59 92 121 172q82 107 161 145v1q-40 -3 -95 -35q-59 -34 -134 -103q-23 -21 -63 -59q11 -30 13 -65q2 -29 -3 -56zM397 86q17 -18 52 -35 q36 -16 65 -19q4 8 16 26.5t14 21.5q11 22 7 74q-3 35 -12 58q-12 -11 -35.5 -32.5t-34.5 -31.5q-44 -39 -72 -62zM775 480q-1 3 8 8q48 20 120 66q7 4 13 4q8 0 10 -11q3 -17 -21 -30q-42 -20 -118 -37q-11 -4 -12 0z" glyph-name="Aacute" unicode="" horiz-adv-x="690"/>
<glyph d="M21 57q0 25 15.5 42t36.5 19q17 1 27 -7.5t10 -22.5q0 -18 -23 -34q-18 -13 -18 -25q0 -17 26 -27t72 -6q94 8 208 87q-55 47 -55 113q0 46 33 76t86 29q36 -1 64.5 -24t39.5 -48q11 11 47 44q94 86 149 115q69 38 121 38q22 0 35 -10q12 -10 7 -14q-1 0 -11 7 q-8 6 -22 6q-18 0 -32 -11q-36 -29 -81 -94q-95 -131 -187 -282q25 2 56 17q32 17 63 46q6 7 10 3q2 -2 -8 -13q-31 -29 -62 -45t-64 -18q-20 -21 -39 -25q-13 -3 -20 -0.5t-6 6.5l2 8l8 15q-29 3 -65 18q-38 15 -59 35q-119 -84 -221 -92q-62 -5 -102.5 14.5t-40.5 59.5z M439 286q-37 0 -58.5 -27t-23.5 -65q-1 -29 9 -56t24 -43q36 29 73 62q12 11 35.5 32.5t35.5 31.5q-35 65 -95 65zM558 99q59 92 121 172q82 107 161 145v1q-40 -3 -95 -35q-59 -34 -134 -103q-23 -21 -63 -59q11 -30 13 -65q2 -29 -3 -56zM397 86q17 -18 52 -35 q36 -16 65 -19q4 8 16 26.5t14 21.5q11 22 7 74q-3 35 -12 58q-12 -11 -35.5 -32.5t-34.5 -31.5q-44 -39 -72 -62zM879 553q4 0 6 -6q14 -33 34 -66q3 -7 3 -8q-3 -2 -12 3q-21 13 -43 36q-37 -19 -103 -41q-10 -3 -11 1q-1 3 7 7q82 49 109 70q6 4 10 4z" glyph-name="Acircumflex" unicode="" horiz-adv-x="690"/>
<glyph d="M21 57q0 25 15.5 42t36.5 19q17 1 27 -7.5t10 -22.5q0 -18 -23 -34q-18 -13 -18 -25q0 -17 26 -27t72 -6q94 8 208 87q-55 47 -55 113q0 46 33 76t86 29q36 -1 64.5 -24t39.5 -48q11 11 47 44q94 86 149 115q69 38 121 38q22 0 35 -10q12 -10 7 -14q-1 0 -11 7 q-8 6 -22 6q-18 0 -32 -11q-36 -29 -81 -94q-95 -131 -187 -282q25 2 56 17q32 17 63 46q6 7 10 3q2 -2 -8 -13q-31 -29 -62 -45t-64 -18q-20 -21 -39 -25q-13 -3 -20 -0.5t-6 6.5l2 8l8 15q-29 3 -65 18q-38 15 -59 35q-119 -84 -221 -92q-62 -5 -102.5 14.5t-40.5 59.5z M439 286q-37 0 -58.5 -27t-23.5 -65q-1 -29 9 -56t24 -43q36 29 73 62q12 11 35.5 32.5t35.5 31.5q-35 65 -95 65zM558 99q59 92 121 172q82 107 161 145v1q-40 -3 -95 -35q-59 -34 -134 -103q-23 -21 -63 -59q11 -30 13 -65q2 -29 -3 -56zM397 86q17 -18 52 -35 q36 -16 65 -19q4 8 16 26.5t14 21.5q11 22 7 74q-3 35 -12 58q-12 -11 -35.5 -32.5t-34.5 -31.5q-44 -39 -72 -62zM778 482q-4 2 1 11q22 41 60 40q13 -1 32 -11.5t29 -11.5q22 -1 40 19q6 6 8 5q3 -1 -1 -10q-23 -42 -57 -42q-13 0 -33 11t-31 12q-26 3 -41 -18 q-4 -7 -7 -5z" glyph-name="Atilde" unicode="" horiz-adv-x="690"/>
<glyph d="M21 57q0 25 15.5 42t36.5 19q17 1 27 -7.5t10 -22.5q0 -18 -23 -34q-18 -13 -18 -25q0 -17 26 -27t72 -6q94 8 208 87q-55 47 -55 113q0 46 33 76t86 29q36 -1 64.5 -24t39.5 -48q11 11 47 44q94 86 149 115q69 38 121 38q22 0 35 -10q12 -10 7 -14q-1 0 -11 7 q-8 6 -22 6q-18 0 -32 -11q-36 -29 -81 -94q-95 -131 -187 -282q25 2 56 17q32 17 63 46q6 7 10 3q2 -2 -8 -13q-31 -29 -62 -45t-64 -18q-20 -21 -39 -25q-13 -3 -20 -0.5t-6 6.5l2 8l8 15q-29 3 -65 18q-38 15 -59 35q-119 -84 -221 -92q-62 -5 -102.5 14.5t-40.5 59.5z M439 286q-37 0 -58.5 -27t-23.5 -65q-1 -29 9 -56t24 -43q36 29 73 62q12 11 35.5 32.5t35.5 31.5q-35 65 -95 65zM558 99q59 92 121 172q82 107 161 145v1q-40 -3 -95 -35q-59 -34 -134 -103q-23 -21 -63 -59q11 -30 13 -65q2 -29 -3 -56zM397 86q17 -18 52 -35 q36 -16 65 -19q4 8 16 26.5t14 21.5q11 22 7 74q-3 35 -12 58q-12 -11 -35.5 -32.5t-34.5 -31.5q-44 -39 -72 -62zM778 482q-9 11 -1 33q8 19 37 19q12 0 15 -7.5t-5 -18.5q-8 -10 -23 -18t-23 -8zM887 482q-8 12 0 33q8 19 38 19q12 0 15.5 -7.5t-5.5 -18.5t-23.5 -18.5 t-24.5 -7.5z" glyph-name="Adieresis" unicode="" horiz-adv-x="690"/>
<glyph d="M21 57q0 25 15.5 42t36.5 19q17 1 27 -7.5t10 -22.5q0 -18 -23 -34q-18 -13 -18 -25q0 -17 26 -27t72 -6q94 8 208 87q-55 47 -55 113q0 46 33 76t86 29q36 -1 64.5 -24t39.5 -48q11 11 47 44q94 86 149 115q69 38 121 38q22 0 35 -10q12 -10 7 -14q-1 0 -11 7 q-8 6 -22 6q-18 0 -32 -11q-36 -29 -81 -94q-95 -131 -187 -282q25 2 56 17q32 17 63 46q6 7 10 3q2 -2 -8 -13q-31 -29 -62 -45t-64 -18q-20 -21 -39 -25q-13 -3 -20 -0.5t-6 6.5l2 8l8 15q-29 3 -65 18q-38 15 -59 35q-119 -84 -221 -92q-62 -5 -102.5 14.5t-40.5 59.5z M439 286q-37 0 -58.5 -27t-23.5 -65q-1 -29 9 -56t24 -43q36 29 73 62q12 11 35.5 32.5t35.5 31.5q-35 65 -95 65zM558 99q59 92 121 172q82 107 161 145v1q-40 -3 -95 -35q-59 -34 -134 -103q-23 -21 -63 -59q11 -30 13 -65q2 -29 -3 -56zM397 86q17 -18 52 -35 q36 -16 65 -19q4 8 16 26.5t14 21.5q11 22 7 74q-3 35 -12 58q-12 -11 -35.5 -32.5t-34.5 -31.5q-44 -39 -72 -62zM868 478q-19 0 -31 12.5t-12 31.5q0 18 12.5 31.5t30.5 13.5t31 -13.5t13 -31.5q0 -19 -13 -31.5t-31 -12.5zM868 498q10 0 17.5 7t7.5 18q0 9 -7.5 16.5 t-17.5 7.5q-11 0 -17.5 -7t-6.5 -17q0 -25 24 -25z" glyph-name="Aring" unicode="" horiz-adv-x="690"/>
<glyph d="M885 216q0 12 -38 14q-27 2 -47 -1q8 -23 45 -25q40 -2 40 12zM578 105q20 51 73 85q47 31 112 42q-10 10 -5.5 43.5t28.5 61.5q22 26 60 44.5t71 24.5v1q-8 1 -25 1q-66 0 -132 -33q-80 -40 -148 -98q-24 -20 -61 -55q27 -54 27 -117zM440 285q-38 0 -59.5 -27 t-23.5 -65q-3 -57 33 -99q61 50 145 132q-35 59 -95 59zM569 54q-2 13 2 31q-3 71 -29 129q-78 -74 -145 -129q31 -34 98 -39q46 -4 74 8zM843 23q-69 -48 -143 -51q-51 -2 -87.5 16t-42.5 56q-24 -11 -75 -9q-73 4 -111 40q-115 -84 -220 -92q-61 -5 -102 14t-41 59 q0 26 15.5 43t36.5 19q17 1 27 -8t10 -23q0 -17 -23 -33q-18 -13 -18 -25q0 -17 26 -27t72 -6q96 9 207 87q-54 44 -54 113q1 46 33.5 76t85.5 29q31 -1 59.5 -19.5t45.5 -47.5q27 26 59 53q72 62 151 99q67 31 139 31q22 0 43 -7q34 5 59 4q50 -2 79 -19.5t29 -42.5 q0 -37 -45.5 -56.5t-102.5 -13.5q-41 4 -56 24q-4 6 -2 7l7 -5q18 -15 49 -18q50 -4 88.5 12.5t38.5 47.5q0 23 -20 39.5t-62 16.5q-81 0 -156 -75q-46 -50 -43 -94q21 4 49 2q56 -2 56 -24q0 -19 -55 -19q-58 0 -81 28q-117 -37 -139 -142q-9 -46 12 -70.5t68 -24.5 q62 0 130 45q32 22 71 58q10 9 13 6t-9 -14q-44 -41 -71 -59z" glyph-name="AE" unicode="" horiz-adv-x="913"/>
<glyph d="M368 255q56 0 100.5 24t52.5 60q7 33 -13.5 50t-61.5 16q-29 0 -53 -10q14 -24 17 -55q1 -8 1 -14t-1 -9t-3 -2q-1 0 -1 2t-1 7t-2 11q-6 31 -24 55q-82 -31 -156 -98q50 -37 145 -37zM258 453q-34 0 -57.5 -22.5t-23.5 -58.5q0 -30 20 -56q86 57 176 83q-49 54 -115 54z M77 -129q-40 1 -57 25q-8 11 -2 15q1 0 1.5 -0.5t2.5 -3t4 -4.5q17 -15 47 -15q15 0 27 7t15 21q2 10 -4.5 16.5t-20.5 5.5q-5 0 -9.5 -1.5l-6 -2t-3.5 0.5q-2 3 4 9q11 12 29 28q-76 19 -79 95q-2 61 46 126.5t118 116.5q-25 32 -25 63q0 41 30 67t72 26q36 0 69.5 -17 t53.5 -46q26 8 53 9q54 3 89 -15t27 -60q-8 -43 -67.5 -67.5t-124.5 -24.5q-98 0 -151 40q-57 -51 -93.5 -113.5t-36.5 -110.5q0 -81 86 -81q67 0 145 52q30 21 62 50q19 17 22 14q2 -2 -8 -13q-40 -38 -72 -60q-75 -53 -151 -57q-30 -1 -54 4q-13 -12 -22 -21q6 2 13 2 q22 0 35 -10.5t10 -27.5q-3 -18 -24 -30.5t-50 -11.5z" glyph-name="Ccedilla" unicode=""/>
<glyph d="M225 261q0 31 22 61q-43 33 -43 74q0 30 20.5 48t53.5 20q31 2 65 -13t57 -42q41 7 74 6q49 -2 76 -20t27 -43q0 -33 -44.5 -57t-105.5 -24q-84 0 -140 28q-9 -13 -15 -30q-6 -19 -3 -32q26 5 49 3q57 -2 54 -25q-3 -19 -55 -19q-59 0 -80 27q-47 -17 -91 -60 q-58 -54 -59 -110q-3 -73 82 -73q69 0 147 52q32 22 71 58q10 9 13 6t-9 -14q-44 -41 -71 -59q-75 -53 -151 -57q-67 -3 -105 19.5t-38 69.5q0 56 56.5 105t149.5 70q-7 13 -7 31zM425 281q52 0 89.5 19.5t38.5 51.5q1 21 -17.5 37.5t-58.5 17.5q-29 1 -68 -12 q10 -20 13 -44q3 -26 -2 -26q-1 0 -1.5 1.5t-1 7t-2.5 11.5q-6 22 -22 44q-36 -17 -73 -51q-14 -12 -28 -31q52 -26 133 -26zM381 405q-19 23 -48 37t-57 13q-27 -2 -45 -17t-18 -41q0 -34 40 -67q8 11 21 22q42 36 107 53zM271 230q6 -23 47 -25q36 -2 36 13q0 12 -36 14 q-21 2 -47 -2zM434 525q-23 15 -12 34q5 7 11 7q5 0 13 -6q35 -30 90 -69q8 -6 6 -8q-2 -3 -12 0q-66 23 -96 42z" glyph-name="Egrave" unicode=""/>
<glyph d="M225 261q0 31 22 61q-43 33 -43 74q0 30 20.5 48t53.5 20q31 2 65 -13t57 -42q41 7 74 6q49 -2 76 -20t27 -43q0 -33 -44.5 -57t-105.5 -24q-84 0 -140 28q-9 -13 -15 -30q-6 -19 -3 -32q26 5 49 3q57 -2 54 -25q-3 -19 -55 -19q-59 0 -80 27q-47 -17 -91 -60 q-58 -54 -59 -110q-3 -73 82 -73q69 0 147 52q32 22 71 58q10 9 13 6t-9 -14q-44 -41 -71 -59q-75 -53 -151 -57q-67 -3 -105 19.5t-38 69.5q0 56 56.5 105t149.5 70q-7 13 -7 31zM425 281q52 0 89.5 19.5t38.5 51.5q1 21 -17.5 37.5t-58.5 17.5q-29 1 -68 -12 q10 -20 13 -44q3 -26 -2 -26q-1 0 -1.5 1.5t-1 7t-2.5 11.5q-6 22 -22 44q-36 -17 -73 -51q-14 -12 -28 -31q52 -26 133 -26zM381 405q-19 23 -48 37t-57 13q-27 -2 -45 -17t-18 -41q0 -34 40 -67q8 11 21 22q42 36 107 53zM271 230q6 -23 47 -25q36 -2 36 13q0 12 -36 14 q-21 2 -47 -2zM444 480q-1 3 8 8q48 20 120 66q7 4 13 4q8 0 10 -11q3 -17 -21 -30q-42 -20 -118 -37q-11 -4 -12 0z" glyph-name="Eacute" unicode=""/>
<glyph d="M225 261q0 31 22 61q-43 33 -43 74q0 30 20.5 48t53.5 20q31 2 65 -13t57 -42q41 7 74 6q49 -2 76 -20t27 -43q0 -33 -44.5 -57t-105.5 -24q-84 0 -140 28q-9 -13 -15 -30q-6 -19 -3 -32q26 5 49 3q57 -2 54 -25q-3 -19 -55 -19q-59 0 -80 27q-47 -17 -91 -60 q-58 -54 -59 -110q-3 -73 82 -73q69 0 147 52q32 22 71 58q10 9 13 6t-9 -14q-44 -41 -71 -59q-75 -53 -151 -57q-67 -3 -105 19.5t-38 69.5q0 56 56.5 105t149.5 70q-7 13 -7 31zM425 281q52 0 89.5 19.5t38.5 51.5q1 21 -17.5 37.5t-58.5 17.5q-29 1 -68 -12 q10 -20 13 -44q3 -26 -2 -26q-1 0 -1.5 1.5t-1 7t-2.5 11.5q-6 22 -22 44q-36 -17 -73 -51q-14 -12 -28 -31q52 -26 133 -26zM381 405q-19 23 -48 37t-57 13q-27 -2 -45 -17t-18 -41q0 -34 40 -67q8 11 21 22q42 36 107 53zM271 230q6 -23 47 -25q36 -2 36 13q0 12 -36 14 q-21 2 -47 -2zM551 553q4 0 6 -6q14 -33 34 -66q3 -7 3 -8q-3 -2 -12 3q-21 13 -43 36q-37 -19 -103 -41q-10 -3 -11 1q-1 3 7 7q82 49 109 70q6 4 10 4z" glyph-name="Ecircumflex" unicode=""/>
<glyph d="M225 261q0 31 22 61q-43 33 -43 74q0 30 20.5 48t53.5 20q31 2 65 -13t57 -42q41 7 74 6q49 -2 76 -20t27 -43q0 -33 -44.5 -57t-105.5 -24q-84 0 -140 28q-9 -13 -15 -30q-6 -19 -3 -32q26 5 49 3q57 -2 54 -25q-3 -19 -55 -19q-59 0 -80 27q-47 -17 -91 -60 q-58 -54 -59 -110q-3 -73 82 -73q69 0 147 52q32 22 71 58q10 9 13 6t-9 -14q-44 -41 -71 -59q-75 -53 -151 -57q-67 -3 -105 19.5t-38 69.5q0 56 56.5 105t149.5 70q-7 13 -7 31zM425 281q52 0 89.5 19.5t38.5 51.5q1 21 -17.5 37.5t-58.5 17.5q-29 1 -68 -12 q10 -20 13 -44q3 -26 -2 -26q-1 0 -1.5 1.5t-1 7t-2.5 11.5q-6 22 -22 44q-36 -17 -73 -51q-14 -12 -28 -31q52 -26 133 -26zM381 405q-19 23 -48 37t-57 13q-27 -2 -45 -17t-18 -41q0 -34 40 -67q8 11 21 22q42 36 107 53zM271 230q6 -23 47 -25q36 -2 36 13q0 12 -36 14 q-21 2 -47 -2zM444 482q-9 11 -1 33q8 19 37 19q12 0 15 -7.5t-5 -18.5q-8 -10 -23 -18t-23 -8zM553 482q-8 12 0 33q8 19 38 19q12 0 15.5 -7.5t-5.5 -18.5t-23.5 -18.5t-24.5 -7.5z" glyph-name="Edieresis" unicode=""/>
<glyph d="M613 413q-11 -3 -39.5 -9.5t-43.5 -10.5q-96 -25 -147 -55q-25 -15 -45 -37.5t-20 -43.5q0 -26 27 -26q14 0 27 9q9 6 10 5q2 -3 -5 -10q-14 -14 -36 -14t-34.5 12t-12.5 30q0 51 87 93q56 27 147 47q86 20 92 23q16 7 20 6q6 -2 5 -8t-7 -8q-40 -18 -93 -92 q-6 -8 -40 -59t-50 -73q-164 -210 -351 -210q-50 0 -86 19t-36 59q0 22 15.5 41t40.5 19q16 0 25.5 -9.5t8.5 -25.5q-2 -16 -19 -30q-1 -1 -5 -4.5t-5.5 -5.5t-4 -5t-3.5 -7t-1 -8q0 -14 18.5 -23.5t48.5 -9.5q76 0 147.5 52t148.5 149q5 6 45.5 57.5t56.5 70.5q25 29 57 55 t57 37zM548 525q-23 15 -12 34q5 7 11 7q5 0 13 -6q35 -30 90 -69q8 -6 6 -8q-2 -3 -12 0q-66 23 -96 42z" glyph-name="Igrave" unicode="" horiz-adv-x="440"/>
<glyph d="M613 413q-11 -3 -39.5 -9.5t-43.5 -10.5q-96 -25 -147 -55q-25 -15 -45 -37.5t-20 -43.5q0 -26 27 -26q14 0 27 9q9 6 10 5q2 -3 -5 -10q-14 -14 -36 -14t-34.5 12t-12.5 30q0 51 87 93q56 27 147 47q86 20 92 23q16 7 20 6q6 -2 5 -8t-7 -8q-40 -18 -93 -92 q-6 -8 -40 -59t-50 -73q-164 -210 -351 -210q-50 0 -86 19t-36 59q0 22 15.5 41t40.5 19q16 0 25.5 -9.5t8.5 -25.5q-2 -16 -19 -30q-1 -1 -5 -4.5t-5.5 -5.5t-4 -5t-3.5 -7t-1 -8q0 -14 18.5 -23.5t48.5 -9.5q76 0 147.5 52t148.5 149q5 6 45.5 57.5t56.5 70.5q25 29 57 55 t57 37zM535 480q-1 3 8 8q48 20 120 66q7 4 13 4q8 0 10 -11q3 -17 -21 -30q-42 -20 -118 -37q-11 -4 -12 0z" glyph-name="Iacute" unicode="" horiz-adv-x="440"/>
<glyph d="M613 413q-11 -3 -39.5 -9.5t-43.5 -10.5q-96 -25 -147 -55q-25 -15 -45 -37.5t-20 -43.5q0 -26 27 -26q14 0 27 9q9 6 10 5q2 -3 -5 -10q-14 -14 -36 -14t-34.5 12t-12.5 30q0 51 87 93q56 27 147 47q86 20 92 23q16 7 20 6q6 -2 5 -8t-7 -8q-40 -18 -93 -92 q-6 -8 -40 -59t-50 -73q-164 -210 -351 -210q-50 0 -86 19t-36 59q0 22 15.5 41t40.5 19q16 0 25.5 -9.5t8.5 -25.5q-2 -16 -19 -30q-1 -1 -5 -4.5t-5.5 -5.5t-4 -5t-3.5 -7t-1 -8q0 -14 18.5 -23.5t48.5 -9.5q76 0 147.5 52t148.5 149q5 6 45.5 57.5t56.5 70.5q25 29 57 55 t57 37zM655 553q4 0 6 -6q14 -33 34 -66q3 -7 3 -8q-3 -2 -12 3q-21 13 -43 36q-37 -19 -103 -41q-10 -3 -11 1q-1 3 7 7q82 49 109 70q6 4 10 4z" glyph-name="Icircumflex" unicode="" horiz-adv-x="440"/>
<glyph d="M613 413q-11 -3 -39.5 -9.5t-43.5 -10.5q-96 -25 -147 -55q-25 -15 -45 -37.5t-20 -43.5q0 -26 27 -26q14 0 27 9q9 6 10 5q2 -3 -5 -10q-14 -14 -36 -14t-34.5 12t-12.5 30q0 51 87 93q56 27 147 47q86 20 92 23q16 7 20 6q6 -2 5 -8t-7 -8q-40 -18 -93 -92 q-6 -8 -40 -59t-50 -73q-164 -210 -351 -210q-50 0 -86 19t-36 59q0 22 15.5 41t40.5 19q16 0 25.5 -9.5t8.5 -25.5q-2 -16 -19 -30q-1 -1 -5 -4.5t-5.5 -5.5t-4 -5t-3.5 -7t-1 -8q0 -14 18.5 -23.5t48.5 -9.5q76 0 147.5 52t148.5 149q5 6 45.5 57.5t56.5 70.5q25 29 57 55 t57 37zM556 482q-9 11 -1 33q8 19 37 19q12 0 15 -7.5t-5 -18.5q-8 -10 -23 -18t-23 -8zM665 482q-8 12 0 33q8 19 38 19q12 0 15.5 -7.5t-5.5 -18.5t-23.5 -18.5t-24.5 -7.5z" glyph-name="Idieresis" unicode="" horiz-adv-x="440"/>
<glyph d="M213 -3q-56 -6 -99 -6q-132 0 -151 9q-7 4 -7 9q3 24 145 19q55 -2 134 -15q13 4 26.5 10.5t23 12t23.5 18t20 17t21.5 22t18.5 21t20.5 24.5t18.5 23h-35q-16 0 -16 6q0 7 15 7h46q103 121 177 171q-32 33 -90 50.5t-117 17.5q-119 0 -211.5 -63.5t-92.5 -147.5 q0 -34 19 -56t56 -24q76 -6 141 52q57 52 57 98q0 21 -12 33.5t-32 13.5q-38 1 -65 -26q-5 -5 -9 -11t-6 -7.5t-3 -1.5q-1 1 -0.5 3.5t4 8t8.5 11.5q30 35 74 32q24 -1 40 -16t16 -41q0 -58 -60 -108q-67 -55 -154 -51q-56 3 -86.5 27.5t-29.5 70.5q1 58 52 107.5t130 77 t164 27.5q146 0 222 -67q34 23 65 35q56 20 98 20q35 0 56 -15q14 -10 9 -15q-1 0 -2 0.5t-4 3.5t-8 6q-18 11 -51 11q-44 0 -93 -21q-39 -17 -60 -36q44 -48 45.5 -114t-34.5 -117q-41 -61 -114 -91t-156 -30q-80 0 -147 5zM588 134q36 50 41 106t-24 94q-20 -19 -64 -80.5 t-59 -80.5q40 0 65 -1q10 0 10 -4q0 -3 -10 -3q-30 -1 -72 -1q-53 -64 -105.5 -98t-119.5 -55q42 -9 94 -9q148 0 244 132z" glyph-name="Eth" unicode="" horiz-adv-x="673"/>
<glyph d="M-88 48q0 25 17.5 43.5t38.5 18.5q18 0 28.5 -9t10.5 -24q0 -18 -18 -33q-19 -19 -20 -27q-2 -15 15 -24t53 -9q61 0 137 31t144 84q143 109 217 249q7 14 19 32q22 30 40 31q9 1 11.5 -3t-1.5 -10q-16 -22 -24 -56q-4 -17 -13 -122q-8 -103 -28 -151h1q119 173 221 281 q116 123 195 123q29 0 45 -17t17 -39q0 -10 -3 -10l-5 10q-10 27 -57 27q-85 0 -184 -103q-104 -108 -263 -339q-16 -21 -25 -16q-10 6 -2 27q26 73 33 160q2 18 4 44t3 40.5t3.5 30.5t6.5 27h-1q-29 -55 -85.5 -116.5t-118.5 -108.5q-72 -54 -148.5 -86t-139.5 -33 q-51 -1 -87.5 17.5t-36.5 59.5zM672 482q-4 2 1 11q22 41 60 40q13 -1 32 -11.5t29 -11.5q22 -1 40 19q6 6 8 5q3 -1 -1 -10q-23 -42 -57 -42q-13 0 -33 11t-31 12q-26 3 -41 -18q-4 -7 -7 -5z" glyph-name="Ntilde" unicode="" horiz-adv-x="645"/>
<glyph d="M136 52q0 -22 11 -38q5 -6 4 -7q-2 -3 -8 3q-18 18 -18 51q0 76 66 163q54 66 118.5 106.5t108.5 35.5q47 -5 40 -72q-2 -30 -23 -76.5t-52 -84.5q-53 -64 -128.5 -106.5t-141.5 -41.5q-46 1 -73.5 25.5t-27.5 70.5q0 104 103 207q60 59 143 96.5t159 33.5 q31 -2 51.5 -15.5t22.5 -39.5q3 -29 -15 -49q-11 -13 -14 -8l8 12q14 21 10 44q-2 19 -20 30.5t-43 12.5q-61 3 -138.5 -44.5t-124.5 -99.5q-44 -50 -69 -104.5t-25 -97.5q0 -62 63 -65q103 -4 228 152q81 101 88 172q5 35 -22 38q-38 4 -97 -37t-110 -105q-74 -94 -74 -162 zM381 525q-23 15 -12 34q5 7 11 7t13 -6q35 -30 90 -69q8 -6 6 -8q-2 -3 -12 0q-66 23 -96 42z" glyph-name="Ograve" unicode="" horiz-adv-x="407"/>
<glyph d="M136 52q0 -22 11 -38q5 -6 4 -7q-2 -3 -8 3q-18 18 -18 51q0 76 66 163q54 66 118.5 106.5t108.5 35.5q47 -5 40 -72q-2 -30 -23 -76.5t-52 -84.5q-53 -64 -128.5 -106.5t-141.5 -41.5q-46 1 -73.5 25.5t-27.5 70.5q0 104 103 207q60 59 143 96.5t159 33.5 q31 -2 51.5 -15.5t22.5 -39.5q3 -29 -15 -49q-11 -13 -14 -8l8 12q14 21 10 44q-2 19 -20 30.5t-43 12.5q-61 3 -138.5 -44.5t-124.5 -99.5q-44 -50 -69 -104.5t-25 -97.5q0 -62 63 -65q103 -4 228 152q81 101 88 172q5 35 -22 38q-38 4 -97 -37t-110 -105q-74 -94 -74 -162 zM360 480q-1 3 8 8q48 20 120 66q7 4 13 4q8 0 10 -11q3 -17 -21 -30q-42 -20 -118 -37q-11 -4 -12 0z" glyph-name="Oacute" unicode="" horiz-adv-x="407"/>
<glyph d="M136 52q0 -22 11 -38q5 -6 4 -7q-2 -3 -8 3q-18 18 -18 51q0 76 66 163q54 66 118.5 106.5t108.5 35.5q47 -5 40 -72q-2 -30 -23 -76.5t-52 -84.5q-53 -64 -128.5 -106.5t-141.5 -41.5q-46 1 -73.5 25.5t-27.5 70.5q0 104 103 207q60 59 143 96.5t159 33.5 q31 -2 51.5 -15.5t22.5 -39.5q3 -29 -15 -49q-11 -13 -14 -8l8 12q14 21 10 44q-2 19 -20 30.5t-43 12.5q-61 3 -138.5 -44.5t-124.5 -99.5q-44 -50 -69 -104.5t-25 -97.5q0 -62 63 -65q103 -4 228 152q81 101 88 172q5 35 -22 38q-38 4 -97 -37t-110 -105q-74 -94 -74 -162 zM459 553q4 0 6 -6q14 -33 34 -66q3 -7 3 -8q-3 -2 -12 3q-21 13 -43 36q-37 -19 -103 -41q-10 -3 -11 1q-1 3 7 7q82 49 109 70q6 4 10 4z" glyph-name="Ocircumflex" unicode="" horiz-adv-x="407"/>
<glyph d="M136 52q0 -22 11 -38q5 -6 4 -7q-2 -3 -8 3q-18 18 -18 51q0 76 66 163q54 66 118.5 106.5t108.5 35.5q47 -5 40 -72q-2 -30 -23 -76.5t-52 -84.5q-53 -64 -128.5 -106.5t-141.5 -41.5q-46 1 -73.5 25.5t-27.5 70.5q0 104 103 207q60 59 143 96.5t159 33.5 q31 -2 51.5 -15.5t22.5 -39.5q3 -29 -15 -49q-11 -13 -14 -8l8 12q14 21 10 44q-2 19 -20 30.5t-43 12.5q-61 3 -138.5 -44.5t-124.5 -99.5q-44 -50 -69 -104.5t-25 -97.5q0 -62 63 -65q103 -4 228 152q81 101 88 172q5 35 -22 38q-38 4 -97 -37t-110 -105q-74 -94 -74 -162 zM358 482q-4 2 1 11q22 41 60 40q13 -1 32 -11.5t29 -11.5q22 -1 40 19q6 6 8 5q3 -1 -1 -10q-23 -42 -57 -42q-13 0 -33 11t-31 12q-26 3 -41 -18q-4 -7 -7 -5z" glyph-name="Otilde" unicode="" horiz-adv-x="407"/>
<glyph d="M136 52q0 -22 11 -38q5 -6 4 -7q-2 -3 -8 3q-18 18 -18 51q0 76 66 163q54 66 118.5 106.5t108.5 35.5q47 -5 40 -72q-2 -30 -23 -76.5t-52 -84.5q-53 -64 -128.5 -106.5t-141.5 -41.5q-46 1 -73.5 25.5t-27.5 70.5q0 104 103 207q60 59 143 96.5t159 33.5 q31 -2 51.5 -15.5t22.5 -39.5q3 -29 -15 -49q-11 -13 -14 -8l8 12q14 21 10 44q-2 19 -20 30.5t-43 12.5q-61 3 -138.5 -44.5t-124.5 -99.5q-44 -50 -69 -104.5t-25 -97.5q0 -62 63 -65q103 -4 228 152q81 101 88 172q5 35 -22 38q-38 4 -97 -37t-110 -105q-74 -94 -74 -162 zM364 482q-9 11 -1 33q8 19 37 19q12 0 15 -7.5t-5 -18.5q-8 -10 -23 -18t-23 -8zM473 482q-8 12 0 33q8 19 38 19q12 0 15.5 -7.5t-5.5 -18.5t-23.5 -18.5t-24.5 -7.5z" glyph-name="Odieresis" unicode="" horiz-adv-x="407"/>
<glyph d="M174 140l100 77q34 25 51 23q12 -1 12 -4q1 -5 -28 -25l-2 -2q-6 -5 -128 -88l20 -88q4 -16 0 -19q-3 -1 -5 1.5t-5 9.5l-29 83q-20 -14 -64.5 -44t-64.5 -43t-22 -9q-3 3 12 14l133 99l-28 79q-9 22 9 33q16 9 20 -11z" glyph-name="multiply" unicode="" horiz-adv-x="314"/>
<glyph d="M449 398l-356 -397q14 -7 30 -7q103 -4 228 152q75 94 88 169q4 18 0 33q-1 6 -3 11t-2.5 5.5t0.5 2.5q2 1 6 -3.5t8 -15.5q9 -24 8 -54q-2 -30 -22 -76.5t-51 -84.5q-53 -64 -128.5 -107t-141.5 -41q-16 0 -31 4q-59 -61 -72 -74q-8 -8 -11 -5q-2 3 5 12l64 71 q-49 17 -55 73q-6 49 21.5 108t80.5 114q60 62 143 98t159 32q13 0 25 -4q9 10 19 21.5t21.5 25t18.5 21.5q11 12 18 8q6 -4 -4 -16q-6 -7 -17.5 -20.5t-21 -24.5t-18.5 -21q31 -15 33 -45q3 -27 -16 -48q-10 -12 -13 -9v1q1 1 3 4t5 7q12 21 10 44q-4 26 -31 36zM82 8 l351 395q-8 2 -16 2q-61 3 -138.5 -44.5t-124.5 -99.5q-49 -56 -74 -116t-19 -101q4 -24 21 -36z" glyph-name="Oslash" unicode="" horiz-adv-x="407"/>
<glyph d="M407 134q-51 -51 -118.5 -97t-111.5 -46q-50 0 -44 46q4 29 33 68.5t94 112.5q99 113 111 153q6 21 -7.5 30.5t-35.5 9.5q-39 0 -86 -23t-88 -64q-80 -78 -80 -130q0 -41 36 -41q20 0 36 10q5 3 10 7q3 4 5 3t-2 -6.5t-10 -9.5q-19 -13 -41 -13q-47 2 -50 49 q-2 34 18.5 74t58.5 75q42 39 96.5 58.5t96.5 19.5q37 0 59.5 -14.5t21.5 -42.5q-1 -48 -97 -157q-66 -73 -95 -111t-32 -61q-4 -22 14 -24q31 -4 110 54q75 55 147 140q98 112 183 178q58 44 81 41q13 -2 10.5 -15t-16.5 -30q-23 -25 -75 -63q-68 -51 -91 -70 q-20 -24 -32 -39q-108 -138 -108 -178q0 -17 20 -17q22 0 64 31q26 18 49 40q17 15 20 12q2 -3 -10 -15q-21 -20 -53 -45q-52 -40 -88 -40q-47 0 -47 44q0 35 44 96zM574 277q11 9 33 24.5t26 18.5q40 28 66 54q10 11 15.5 19.5t6 13t-2.5 6.5q-14 5 -54 -38 q-53 -55 -90 -98zM495 513q-23 15 -12 34q5 7 11 7t13 -6q35 -30 90 -69q8 -6 6 -8q-2 -3 -12 0q-66 23 -96 42z" glyph-name="Ugrave" unicode="" horiz-adv-x="553"/>
<glyph d="M407 134q-51 -51 -118.5 -97t-111.5 -46q-50 0 -44 46q4 29 33 68.5t94 112.5q99 113 111 153q6 21 -7.5 30.5t-35.5 9.5q-39 0 -86 -23t-88 -64q-80 -78 -80 -130q0 -41 36 -41q20 0 36 10q5 3 10 7q3 4 5 3t-2 -6.5t-10 -9.5q-19 -13 -41 -13q-47 2 -50 49 q-2 34 18.5 74t58.5 75q42 39 96.5 58.5t96.5 19.5q37 0 59.5 -14.5t21.5 -42.5q-1 -48 -97 -157q-66 -73 -95 -111t-32 -61q-4 -22 14 -24q31 -4 110 54q75 55 147 140q98 112 183 178q58 44 81 41q13 -2 10.5 -15t-16.5 -30q-23 -25 -75 -63q-68 -51 -91 -70 q-20 -24 -32 -39q-108 -138 -108 -178q0 -17 20 -17q22 0 64 31q26 18 49 40q17 15 20 12q2 -3 -10 -15q-21 -20 -53 -45q-52 -40 -88 -40q-47 0 -47 44q0 35 44 96zM574 277q11 9 33 24.5t26 18.5q40 28 66 54q10 11 15.5 19.5t6 13t-2.5 6.5q-14 5 -54 -38 q-53 -55 -90 -98zM510 468q-1 3 8 8q48 20 120 66q7 4 13 4q8 0 10 -11q3 -17 -21 -30q-42 -20 -118 -37q-11 -4 -12 0z" glyph-name="Uacute" unicode="" horiz-adv-x="553"/>
<glyph d="M407 134q-51 -51 -118.5 -97t-111.5 -46q-50 0 -44 46q4 29 33 68.5t94 112.5q99 113 111 153q6 21 -7.5 30.5t-35.5 9.5q-39 0 -86 -23t-88 -64q-80 -78 -80 -130q0 -41 36 -41q20 0 36 10q5 3 10 7q3 4 5 3t-2 -6.5t-10 -9.5q-19 -13 -41 -13q-47 2 -50 49 q-2 34 18.5 74t58.5 75q42 39 96.5 58.5t96.5 19.5q37 0 59.5 -14.5t21.5 -42.5q-1 -48 -97 -157q-66 -73 -95 -111t-32 -61q-4 -22 14 -24q31 -4 110 54q75 55 147 140q98 112 183 178q58 44 81 41q13 -2 10.5 -15t-16.5 -30q-23 -25 -75 -63q-68 -51 -91 -70 q-20 -24 -32 -39q-108 -138 -108 -178q0 -17 20 -17q22 0 64 31q26 18 49 40q17 15 20 12q2 -3 -10 -15q-21 -20 -53 -45q-52 -40 -88 -40q-47 0 -47 44q0 35 44 96zM574 277q11 9 33 24.5t26 18.5q40 28 66 54q10 11 15.5 19.5t6 13t-2.5 6.5q-14 5 -54 -38 q-53 -55 -90 -98zM591 553q4 0 6 -6q14 -33 34 -66q3 -7 3 -8q-3 -2 -12 3q-21 13 -43 36q-37 -19 -103 -41q-10 -3 -11 1q-1 3 7 7q82 49 109 70q6 4 10 4z" glyph-name="Ucircumflex" unicode="" horiz-adv-x="553"/>
<glyph d="M407 134q-51 -51 -118.5 -97t-111.5 -46q-50 0 -44 46q4 29 33 68.5t94 112.5q99 113 111 153q6 21 -7.5 30.5t-35.5 9.5q-39 0 -86 -23t-88 -64q-80 -78 -80 -130q0 -41 36 -41q20 0 36 10q5 3 10 7q3 4 5 3t-2 -6.5t-10 -9.5q-19 -13 -41 -13q-47 2 -50 49 q-2 34 18.5 74t58.5 75q42 39 96.5 58.5t96.5 19.5q37 0 59.5 -14.5t21.5 -42.5q-1 -48 -97 -157q-66 -73 -95 -111t-32 -61q-4 -22 14 -24q31 -4 110 54q75 55 147 140q98 112 183 178q58 44 81 41q13 -2 10.5 -15t-16.5 -30q-23 -25 -75 -63q-68 -51 -91 -70 q-20 -24 -32 -39q-108 -138 -108 -178q0 -17 20 -17q22 0 64 31q26 18 49 40q17 15 20 12q2 -3 -10 -15q-21 -20 -53 -45q-52 -40 -88 -40q-47 0 -47 44q0 35 44 96zM574 277q11 9 33 24.5t26 18.5q40 28 66 54q10 11 15.5 19.5t6 13t-2.5 6.5q-14 5 -54 -38 q-53 -55 -90 -98zM496 482q-9 11 -1 33q8 19 37 19q12 0 15 -7.5t-5 -18.5q-8 -10 -23 -18t-23 -8zM605 482q-8 12 0 33q8 19 38 19q12 0 15.5 -7.5t-5.5 -18.5t-23.5 -18.5t-24.5 -7.5z" glyph-name="Udieresis" unicode="" horiz-adv-x="553"/>
<glyph d="M421 148q-55 -58 -127 -107.5t-117 -49.5q-50 0 -44 46q4 29 33 68.5t94 112.5q99 113 111 153q6 21 -7.5 30.5t-35.5 9.5q-39 0 -86 -23t-88 -64q-80 -78 -80 -130q0 -41 36 -41q22 0 36 10q2 1 4.5 3t3.5 3.5t2.5 2.5t2.5 1h2q2 -1 -2 -6.5t-10 -9.5q-19 -13 -41 -13 q-21 0 -35 13.5t-15 35.5q-2 34 19 75t58 74q42 38 96.5 58t96.5 20q37 0 59.5 -14.5t21.5 -42.5q-1 -48 -97 -157q-66 -73 -95 -111t-32 -61q-4 -22 14 -24q31 -4 110 54q79 59 147 140q107 129 157 178q46 44 74 41q14 -1 14.5 -15.5t-11.5 -29.5q-22 -28 -66 -63 q-51 -40 -81 -70l-130 -178q-15 -21 -33.5 -47.5t-31 -44l-22.5 -31.5q76 2 116.5 -31t31.5 -90q-2 -8 -5 -14.5t-6 -5.5q-1 0 -1 0.5t0.5 2t1 3.5t1 5.5t1.5 7.5q6 54 -33 85t-113 27q-39 -56 -107 -136q-59 -69 -126.5 -115.5t-109.5 -46.5q-17 0 -30.5 9.5t-11.5 32.5 q3 39 51 90.5t97 84.5q95 64 192 84zM269 -74q-86 -19 -178 -82q-43 -29 -85 -81.5t-42 -86.5q0 -24 21 -26q24 -3 62 20q58 36 128 129zM566 278l51 42q41 33 58 54q27 34 13 39t-48 -38q-18 -21 -74 -97zM487 480q-1 3 8 8q48 20 120 66q7 4 13 4q8 0 10 -11 q3 -17 -21 -30q-42 -20 -118 -37q-11 -4 -12 0z" glyph-name="Yacute" unicode="" horiz-adv-x="499"/>
<glyph d="M210 96q-81 -48 -163 -110q-81 -65 -81 -88q0 -12 15 -12q33 2 85.5 48t143.5 162zM476 358q36 8 74 22q80 31 82 57q1 11 -5.5 16.5t-19.5 4.5q-35 -2 -82 -49q-7 -6 -49 -51zM368 224q107 94 160 94q23 0 38.5 -14.5t15.5 -44.5q0 -44 -47 -104q-52 -67 -131 -106.5 t-129 -33.5q-14 1 -24 5.5t-13 9t-1 7.5q1 1 4 -1t12 -6t21 -5q41 -4 106.5 40t115.5 108q35 44 44.5 75.5t1 43.5t-25.5 12q-47 0 -169 -110q-3 -4 -20 -25t-21 -26t-19.5 -24t-21 -25.5t-19.5 -23t-22 -25t-21 -22.5t-23 -23.5t-22.5 -21t-24.5 -22.5q-87 -78 -149 -82 q-30 0 -30 24q0 28 85 96q82 64 185 123q4 5 28 36.5t38 48.5q66 81 120 132v1q-52 -9 -87 -9q-120 0 -120 57q0 22 20 38t46 21q33 6 33 -2q0 -1 -3.5 -1t-11.5 -0.5t-16 -3.5q-44 -16 -43 -53q3 -47 94 -47q38 0 99 11q32 35 75 67q68 53 112 54q16 1 26 -7.5t9 -22.5 q-2 -34 -93 -66q-33 -12 -81 -24q-57 -65 -101 -123z" glyph-name="Thorn" unicode="" horiz-adv-x="565"/>
<glyph d="M229 21q19 6 56 30q27 18 52 40q11 11 15 8q2 -3 -12 -17q-23 -20 -50 -39q-31 -20 -64 -34q-38 -18 -87 -18q-32 0 -45.5 18t-8.5 41q5 24 20 38.5t33 12.5q9 -1 14 -7.5t3 -13.5q-2 -12 -23 -25t-22 -29q-1 -11 6.5 -18t20.5 -7q38 0 66 49q11 19 15.5 47t-1.5 51 q-1 5 -6.5 21t-7 23t0 19t7.5 22q6 9 24 17t45 18.5t46 22.5q60 38 68 83q2 14 -4.5 22.5t-17.5 9.5q-51 5 -120 -75q-12 -13 -29.5 -37.5t-43.5 -62.5t-38 -55q-104 -147 -136 -188q-44 -56 -101 -101t-108 -45q-68 0 -72 32q-1 12 6 19.5t18 7.5q4 0 7 -1.5t5 -3t5 -5 t4 -5.5t3 -6.5t3 -5.5q12 -22 26 -22q36 0 71 30.5t91 108.5q20 27 56 82t38 58v1q-33 -27 -52 -46q-9 -9 -12 -5q-2 3 7 12q37 34 80 71q79 110 100 134q57 67 108.5 94t85.5 23q26 -3 36 -22.5t2 -44.5q-12 -37 -65 -66q-19 -11 -49 -20.5t-51 -17.5t-26 -16q-7 -6 -4 -19 t7 -20t12.5 -20.5t11.5 -20.5q27 -50 12 -88q-10 -25 -31 -39z" glyph-name="germandbls" unicode="" horiz-adv-x="339"/>
<glyph d="M195 133q36 38 57 38q15 1 18 -3t-5 -13q-40 -46 -56 -66q-24 -30 -35 -49q-10 -18 -3 -23q6 -5 23 4q18 9 45 31q26 21 48 41q11 10 14 7t-13 -18q-28 -26 -56 -48q-50 -40 -86 -40q-27 0 -29 21q-2 17 14 36l-1 1q-63 -56 -110 -58q-19 -1 -31.5 8.5t-9.5 31.5 q3 23 28 52l-1 1l-13 -12q-7 -5 -9 -3q-3 4 14 19q10 10 30 24q22 15 46 28q65 33 100 28q14 -2 20 -13.5t1 -24.5zM170 161q-29 0 -92 -63q-59 -58 -56 -79q1 -10 13 -10q14 0 38.5 14t45.5 33q25 22 46.5 48.5t22.5 38.5q1 18 -18 18zM166 352q8 0 12 -10q19 -44 50 -86 q5 -7 2 -9q-2 -1 -10 4q-52 43 -66 67q-5 8 -5 15t5.5 13t11.5 6z" glyph-name="agrave" unicode="" horiz-adv-x="287"/>
<glyph d="M195 133q36 38 57 38q15 1 18 -3t-5 -13q-40 -46 -56 -66q-24 -30 -35 -49q-10 -18 -3 -23q6 -5 23 4q18 9 45 31q26 21 48 41q11 10 14 7t-13 -18q-28 -26 -56 -48q-50 -40 -86 -40q-27 0 -29 21q-2 17 14 36l-1 1q-63 -56 -110 -58q-19 -1 -31.5 8.5t-9.5 31.5 q3 23 28 52l-1 1l-13 -12q-7 -5 -9 -3q-3 4 14 19q10 10 30 24q22 15 46 28q65 33 100 28q14 -2 20 -13.5t1 -24.5zM170 161q-29 0 -92 -63q-59 -58 -56 -79q1 -10 13 -10q14 0 38.5 14t45.5 33q25 22 46.5 48.5t22.5 38.5q1 18 -18 18zM273 344q12 0 12 -17q0 -10 -11 -21 q-25 -25 -83 -57q-10 -5 -12 -3q-2 3 5 10q42 40 75 79q7 9 14 9z" glyph-name="aacute" unicode="" horiz-adv-x="287"/>
<glyph d="M195 133q36 38 57 38q15 1 18 -3t-5 -13q-40 -46 -56 -66q-24 -30 -35 -49q-10 -18 -3 -23q6 -5 23 4q18 9 45 31q26 21 48 41q11 10 14 7t-13 -18q-28 -26 -56 -48q-50 -40 -86 -40q-27 0 -29 21q-2 17 14 36l-1 1q-63 -56 -110 -58q-19 -1 -31.5 8.5t-9.5 31.5 q3 23 28 52l-1 1l-13 -12q-7 -5 -9 -3q-3 4 14 19q10 10 30 24q22 15 46 28q65 33 100 28q14 -2 20 -13.5t1 -24.5zM170 161q-29 0 -92 -63q-59 -58 -56 -79q1 -10 13 -10q14 0 38.5 14t45.5 33q25 22 46.5 48.5t22.5 38.5q1 18 -18 18zM243 321q3 0 6 -7q21 -46 34 -66 q4 -5 2 -7q-3 -3 -11 3q-25 17 -43 42q-55 -32 -105 -47q-8 -3 -9 1q-1 1 7 6q75 45 109 70q7 5 10 5z" glyph-name="acircumflex" unicode="" horiz-adv-x="287"/>
<glyph d="M195 133q36 38 57 38q15 1 18 -3t-5 -13q-40 -46 -56 -66q-24 -30 -35 -49q-10 -18 -3 -23q6 -5 23 4q18 9 45 31q26 21 48 41q11 10 14 7t-13 -18q-28 -26 -56 -48q-50 -40 -86 -40q-27 0 -29 21q-2 17 14 36l-1 1q-63 -56 -110 -58q-19 -1 -31.5 8.5t-9.5 31.5 q3 23 28 52l-1 1l-13 -12q-7 -5 -9 -3q-3 4 14 19q10 10 30 24q22 15 46 28q65 33 100 28q14 -2 20 -13.5t1 -24.5zM170 161q-29 0 -92 -63q-59 -58 -56 -79q1 -10 13 -10q14 0 38.5 14t45.5 33q25 22 46.5 48.5t22.5 38.5q1 18 -18 18zM126 251q-4 2 1 12q24 41 59 40 q13 -1 31.5 -14t30.5 -14q20 -1 40 24q4 6 8 5t-1 -11q-21 -41 -57 -41q-13 0 -33 13t-31 14q-21 2 -40 -22q-5 -7 -8 -6z" glyph-name="atilde" unicode="" horiz-adv-x="287"/>
<glyph d="M195 133q36 38 57 38q15 1 18 -3t-5 -13q-40 -46 -56 -66q-24 -30 -35 -49q-10 -18 -3 -23q6 -5 23 4q18 9 45 31q26 21 48 41q11 10 14 7t-13 -18q-28 -26 -56 -48q-50 -40 -86 -40q-27 0 -29 21q-2 17 14 36l-1 1q-63 -56 -110 -58q-19 -1 -31.5 8.5t-9.5 31.5 q3 23 28 52l-1 1l-13 -12q-7 -5 -9 -3q-3 4 14 19q10 10 30 24q22 15 46 28q65 33 100 28q14 -2 20 -13.5t1 -24.5zM170 161q-29 0 -92 -63q-59 -58 -56 -79q1 -10 13 -10q14 0 38.5 14t45.5 33q25 22 46.5 48.5t22.5 38.5q1 18 -18 18zM155 251q-9 11 0 30q7 17 34 17 q11 0 13.5 -6.5t-4.5 -16.5q-18 -24 -43 -24zM254 251q-9 11 0 30q7 17 34 17q11 0 13.5 -6.5t-4.5 -16.5q-18 -24 -43 -24z" glyph-name="adieresis" unicode="" horiz-adv-x="287"/>
<glyph d="M195 133q36 38 57 38q15 1 18 -3t-5 -13q-40 -46 -56 -66q-24 -30 -35 -49q-10 -18 -3 -23q6 -5 23 4q18 9 45 31q26 21 48 41q11 10 14 7t-13 -18q-28 -26 -56 -48q-50 -40 -86 -40q-27 0 -29 21q-2 17 14 36l-1 1q-63 -56 -110 -58q-19 -1 -31.5 8.5t-9.5 31.5 q3 23 28 52l-1 1l-13 -12q-7 -5 -9 -3q-3 4 14 19q10 10 30 24q22 15 46 28q65 33 100 28q14 -2 20 -13.5t1 -24.5zM170 161q-29 0 -92 -63q-59 -58 -56 -79q1 -10 13 -10q14 0 38.5 14t45.5 33q25 22 46.5 48.5t22.5 38.5q1 18 -18 18zM219 335q18 0 30.5 -13.5t12.5 -31.5 q0 -19 -13 -31.5t-31 -12.5q-19 0 -31.5 12.5t-12.5 31.5q0 18 13.5 31.5t31.5 13.5zM218 317q-11 0 -18.5 -8t-7.5 -19t7 -18.5t19 -7.5q11 0 18.5 7.5t7.5 18.5t-7 19t-19 8z" glyph-name="aring" unicode="" horiz-adv-x="287"/>
<glyph d="M20 -6q-19 -1 -31.5 8.5t-9.5 31.5q3 23 28 52l-1 1l-11 -10q-8 -7 -11 -4q-2 3 9 14q17 16 31 25q64 48 149 48q35 0 35 -5t-18 -5q-73 -1 -123 -47q-27 -25 -37 -48t-8 -36q1 -10 13 -10q31 0 83 48q14 14 31 30.5t27 26t20 17.5q54 41 99 41q36 0 34 -27 q-2 -30 -64 -61q-43 -21 -86 -32q-6 -12 -6 -23q0 -23 23 -23q37 0 91 37q28 19 61 48q8 7 11 4q3 -4 -8 -13q-34 -31 -59 -48q-64 -43 -115 -43q-27 0 -40 10.5t-12 30.5q0 12 7 23h-1q-21 -21 -53 -40.5t-58 -20.5zM185 63q37 9 68 30q39 27 41 52q2 14 -12 14t-43 -28 q-30 -28 -54 -68z" glyph-name="ae" unicode="" horiz-adv-x="350"/>
<glyph d="M39 -9h-10q-8 -8 -14 -14.5t-9 -9.5q6 2 14 2q22 0 34 -9.5t10 -28.5t-23.5 -31t-50.5 -11q-40 1 -57 25q-10 13 -3 15q1 0 8 -7q17 -19 52 -19q17 0 30 9t14 22q1 11 -7 17.5t-23 5.5q-4 0 -9 -2t-6.5 -2.5t-4.5 0.5q-2 3 4 9q11 12 31 31q-35 7 -33 40q3 29 29 60l-1 1 l-17 -15q-10 -9 -13 -6q-2 3 6 11q15 14 37 30q23 17 48 30q60 32 92 27q34 -6 27 -38q-3 -14 -13.5 -24t-20.5 -10q-25 0 -8 29q18 31 3 33q-18 3 -62 -42q-51 -51 -56 -89q-3 -23 23 -23q39 0 92 36q24 16 60 48q8 7 11 4q2 -3 -8 -13q-34 -31 -59 -48q-63 -43 -117 -43z " glyph-name="ccedilla" unicode="" horiz-adv-x="214"/>
<glyph d="M59 6q37 0 91 37q31 21 61 48q8 7 11 4q2 -3 -8 -13q-31 -29 -63 -50q-62 -41 -113 -41q-27 0 -40.5 10t-12.5 30q1 28 30 62l-1 1l-20 -18q-7 -6 -10 -3q-2 3 6 11q15 14 37 30q21 15 49 30q54 28 86 28q16 0 23.5 -8t6.5 -19q-2 -30 -64 -61q-43 -21 -86 -32 q-6 -12 -6 -23q0 -23 23 -23zM48 63q37 9 68 30q39 27 41 52q2 14 -12 14q-13 0 -44 -29q-29 -27 -53 -67zM142 349q8 0 12 -10q19 -44 50 -86q5 -7 2 -9q-2 -1 -10 4q-52 43 -66 67q-5 7 -5 15q0 7 5.5 13t11.5 6z" glyph-name="egrave" unicode="" horiz-adv-x="213"/>
<glyph d="M59 6q37 0 91 37q31 21 61 48q8 7 11 4q2 -3 -8 -13q-31 -29 -63 -50q-62 -41 -113 -41q-27 0 -40.5 10t-12.5 30q1 28 30 62l-1 1l-20 -18q-7 -6 -10 -3q-2 3 6 11q15 14 37 30q21 15 49 30q54 28 86 28q16 0 23.5 -8t6.5 -19q-2 -30 -64 -61q-43 -21 -86 -32 q-6 -12 -6 -23q0 -23 23 -23zM48 63q37 9 68 30q39 27 41 52q2 14 -12 14q-13 0 -44 -29q-29 -27 -53 -67zM240 344q12 0 12 -17q0 -10 -11 -21q-25 -25 -83 -57q-10 -5 -12 -3q-2 3 5 10q42 40 75 79q7 9 14 9z" glyph-name="eacute" unicode="" horiz-adv-x="213"/>
<glyph d="M59 6q37 0 91 37q31 21 61 48q8 7 11 4q2 -3 -8 -13q-31 -29 -63 -50q-62 -41 -113 -41q-27 0 -40.5 10t-12.5 30q1 28 30 62l-1 1l-20 -18q-7 -6 -10 -3q-2 3 6 11q15 14 37 30q21 15 49 30q54 28 86 28q16 0 23.5 -8t6.5 -19q-2 -30 -64 -61q-43 -21 -86 -32 q-6 -12 -6 -23q0 -23 23 -23zM48 63q37 9 68 30q39 27 41 52q2 14 -12 14q-13 0 -44 -29q-29 -27 -53 -67zM206 321q2 0 6 -7q21 -46 34 -66q4 -5 2 -7q-3 -3 -11 3q-25 17 -43 42q-55 -32 -105 -47q-8 -3 -9 1q0 1 0.5 2t3.5 2l3 2q75 45 109 70q7 5 10 5z" glyph-name="ecircumflex" unicode="" horiz-adv-x="213"/>
<glyph d="M59 6q37 0 91 37q31 21 61 48q8 7 11 4q2 -3 -8 -13q-31 -29 -63 -50q-62 -41 -113 -41q-27 0 -40.5 10t-12.5 30q1 28 30 62l-1 1l-20 -18q-7 -6 -10 -3q-2 3 6 11q15 14 37 30q21 15 49 30q54 28 86 28q16 0 23.5 -8t6.5 -19q-2 -30 -64 -61q-43 -21 -86 -32 q-6 -12 -6 -23q0 -23 23 -23zM48 63q37 9 68 30q39 27 41 52q2 14 -12 14q-13 0 -44 -29q-29 -27 -53 -67zM110 251q-9 11 0 30q7 17 34 17q11 0 13.5 -6.5t-4.5 -16.5q-18 -24 -43 -24zM209 251q-9 11 0 30q7 17 34 17q11 0 13.5 -6.5t-4.5 -16.5q-18 -24 -43 -24z" glyph-name="edieresis" unicode="" horiz-adv-x="213"/>
<glyph d="M81 143q-11 -5 -44 -31q-25 -20 -35 -29q-12 -10 -15 -8q-3 3 11 16q36 32 71 56q32 22 58 22q16 0 18 -3t-7 -13q-16 -18 -53 -64q-25 -31 -36 -49q-9 -16 -3 -22q7 -6 24 3q19 10 44 30q24 20 46 40q13 12 16 9q2 -2 -11 -16q-22 -22 -57 -50q-51 -41 -87 -41 q-30 0 -30 26q0 15 15 38q30 47 75 86zM132 345q8 0 12 -10q19 -44 50 -86q5 -7 2 -9q-2 -1 -10 4q-52 43 -66 67q-5 7 -5 15q0 7 5.5 13t11.5 6z" glyph-name="igrave" unicode="" horiz-adv-x="162"/>
<glyph d="M81 143q-11 -5 -44 -31q-25 -20 -35 -29q-12 -10 -15 -8q-3 3 11 16q36 32 71 56q32 22 58 22q16 0 18 -3t-7 -13q-16 -18 -53 -64q-25 -31 -36 -49q-9 -16 -3 -22q7 -6 24 3q19 10 44 30q24 20 46 40q13 12 16 9q2 -2 -11 -16q-22 -22 -57 -50q-51 -41 -87 -41 q-30 0 -30 26q0 15 15 38q30 47 75 86zM212 344q12 0 12 -17q0 -10 -11 -21q-25 -25 -83 -57q-10 -5 -12 -3q-2 3 5 10q42 40 75 79q7 9 14 9z" glyph-name="iacute" unicode="" horiz-adv-x="162"/>
<glyph d="M81 143q-11 -5 -44 -31q-25 -20 -35 -29q-12 -10 -15 -8q-3 3 11 16q36 32 71 56q32 22 58 22q16 0 18 -3t-7 -13q-16 -18 -53 -64q-25 -31 -36 -49q-9 -16 -3 -22q7 -6 24 3q19 10 44 30q24 20 46 40q13 12 16 9q2 -2 -11 -16q-22 -22 -57 -50q-51 -41 -87 -41 q-30 0 -30 26q0 15 15 38q30 47 75 86zM192 321q2 0 6 -7q21 -46 34 -66q4 -5 2 -7q-3 -3 -11 3q-25 17 -43 42q-55 -32 -105 -47q-8 -3 -9 1q0 1 0.5 2t3 2.5t3.5 1.5q75 45 109 70q7 5 10 5z" glyph-name="icircumflex" unicode="" horiz-adv-x="162"/>
<glyph d="M81 143q-11 -5 -44 -31q-25 -20 -35 -29q-12 -10 -15 -8q-3 3 11 16q36 32 71 56q32 22 58 22q16 0 18 -3t-7 -13q-16 -18 -53 -64q-25 -31 -36 -49q-9 -16 -3 -22q7 -6 24 3q19 10 44 30q24 20 46 40q13 12 16 9q2 -2 -11 -16q-22 -22 -57 -50q-51 -41 -87 -41 q-30 0 -30 26q0 15 15 38q30 47 75 86zM85 251q-9 11 0 30q7 17 34 17q11 0 13.5 -6.5t-4.5 -16.5q-18 -24 -43 -24zM184 251q-9 11 0 30q7 17 34 17q11 0 13.5 -6.5t-4.5 -16.5q-18 -24 -43 -24z" glyph-name="idieresis" unicode="" horiz-adv-x="162"/>
<glyph d="M165 171q36 0 31 -39q12 17 25.5 51t14.5 61q0 14 -1 20l-88 -30q-9 -2 -11 0q-3 5 9 10l88 35q-7 32 -27.5 53t-50.5 22h-10t-6 -0.5t-2 0.5q-1 2 1 3.5t6.5 3t10.5 1.5q35 3 64 -17.5t44 -54.5q5 2 21.5 8t24.5 9q12 6 16 -3q1 -4 -3 -7t-10 -5q-37 -14 -44 -16 q5 -20 5 -37q0 -55 -34.5 -109.5t-70.5 -84.5q-69 -54 -125 -54q-22 0 -35.5 11.5t-13.5 31.5q0 34 28 65l-1 1l-18 -16q-10 -9 -13 -6q-2 3 7 12q11 11 31 25q23 16 48 29q52 27 89 27zM52 2q40 0 92 60q13 14 27 40t14 41q0 18 -16 18q-28 0 -81 -55q-19 -21 -35 -47 t-17 -40q0 -17 16 -17z" glyph-name="eth" unicode="" horiz-adv-x="262"/>
<glyph d="M207 -6q-15 0 -23 6.5t-7 19.5q1 20 42 70l42 49q8 10 1 14q-6 4 -26 -6q-35 -18 -78 -51q-22 -17 -56 -45.5t-56 -45.5q-12 -9 -26 -9q-12 0 -15 3t2 13q17 32 44 67l40 52q10 13 7 17q-4 5 -15 -1q-17 -8 -39 -27l-43 -38q-14 -12 -17 -9q-2 3 15 19q40 37 52 46 q42 33 68 33q25 0 25 -22q0 -14 -21 -43q-44 -59 -47 -63l1 -1q74 61 92 75q73 54 109 54q34 0 31 -27q-2 -14 -40 -61q-21 -25 -33 -44q-11 -17 -4 -22q6 -5 24 4q22 11 48 31q18 14 48 41q10 9 13 6t-8 -13q-26 -26 -60 -52q-53 -40 -90 -40zM166 251q-4 2 1 12 q24 41 59 40q13 -1 31.5 -14t30.5 -14q20 -1 40 24q4 6 8 5t-1 -11q-21 -41 -57 -41q-13 0 -33 13t-31 14q-21 2 -40 -22q-5 -7 -8 -6z" glyph-name="ntilde" unicode="" horiz-adv-x="352"/>
<glyph d="M21 100l-18 -16q-10 -9 -13 -6q-2 3 7 12q11 11 31 25q23 16 48 29q49 26 83 27q15 0 15 -4q0 -1 -11 -6q-29 -13 -72 -55q-55 -55 -58 -88q-2 -17 14 -17t42.5 17.5t50.5 43.5q2 21 18 42q13 18 32 26q3 7 3 23q0 4 -0.5 7t-1 4.5t-0.5 2.5t1 2q5 3 14 -6q15 -15 12 -35 q-4 -33 -57 -81q6 -3 19 0q15 3 34 17q14 10 32 26q14 13 17 10t-13 -18q-20 -17 -32 -26q-21 -15 -38 -18q-18 -4 -27 2q-64 -49 -114 -49q-24 0 -37 11.5t-12 32.5q2 32 32 64zM166 349q8 0 12 -10q19 -44 50 -86q5 -7 2 -9q-2 -1 -10 4q-52 43 -66 67q-5 7 -5 15 q0 7 5.5 13t11.5 6z" glyph-name="ograve" unicode="" horiz-adv-x="249"/>
<glyph d="M21 100l-18 -16q-10 -9 -13 -6q-2 3 7 12q11 11 31 25q23 16 48 29q49 26 83 27q15 0 15 -4q0 -1 -11 -6q-29 -13 -72 -55q-55 -55 -58 -88q-2 -17 14 -17t42.5 17.5t50.5 43.5q2 21 18 42q13 18 32 26q3 7 3 23q0 4 -0.5 7t-1 4.5t-0.5 2.5t1 2q5 3 14 -6q15 -15 12 -35 q-4 -33 -57 -81q6 -3 19 0q15 3 34 17q14 10 32 26q14 13 17 10t-13 -18q-20 -17 -32 -26q-21 -15 -38 -18q-18 -4 -27 2q-64 -49 -114 -49q-24 0 -37 11.5t-12 32.5q2 32 32 64zM264 344q12 0 12 -17q0 -10 -11 -21q-25 -25 -83 -57q-10 -5 -12 -3q-2 3 5 10q42 40 75 79 q7 9 14 9z" glyph-name="oacute" unicode="" horiz-adv-x="249"/>
<glyph d="M21 100l-18 -16q-10 -9 -13 -6q-2 3 7 12q11 11 31 25q23 16 48 29q49 26 83 27q15 0 15 -4q0 -1 -11 -6q-29 -13 -72 -55q-55 -55 -58 -88q-2 -17 14 -17t42.5 17.5t50.5 43.5q2 21 18 42q13 18 32 26q3 7 3 23q0 4 -0.5 7t-1 4.5t-0.5 2.5t1 2q5 3 14 -6q15 -15 12 -35 q-4 -33 -57 -81q6 -3 19 0q15 3 34 17q14 10 32 26q14 13 17 10t-13 -18q-20 -17 -32 -26q-21 -15 -38 -18q-18 -4 -27 2q-64 -49 -114 -49q-24 0 -37 11.5t-12 32.5q2 32 32 64zM226 321q2 0 6 -7q21 -46 34 -66q4 -5 2 -7q-3 -3 -11 3q-25 17 -43 42q-55 -32 -105 -47 q-8 -3 -9 1q0 1 0.5 2t3 2.5t3.5 1.5q75 45 109 70q7 5 10 5z" glyph-name="ocircumflex" unicode="" horiz-adv-x="249"/>
<glyph d="M21 100l-18 -16q-10 -9 -13 -6q-2 3 7 12q11 11 31 25q23 16 48 29q49 26 83 27q15 0 15 -4q0 -1 -11 -6q-29 -13 -72 -55q-55 -55 -58 -88q-2 -17 14 -17t42.5 17.5t50.5 43.5q2 21 18 42q13 18 32 26q3 7 3 23q0 4 -0.5 7t-1 4.5t-0.5 2.5t1 2q5 3 14 -6q15 -15 12 -35 q-4 -33 -57 -81q6 -3 19 0q15 3 34 17q14 10 32 26q14 13 17 10t-13 -18q-20 -17 -32 -26q-21 -15 -38 -18q-18 -4 -27 2q-64 -49 -114 -49q-24 0 -37 11.5t-12 32.5q2 32 32 64zM118 251q-4 2 1 12q24 41 59 40q13 -1 31.5 -14t30.5 -14q20 -1 40 24q4 6 8 5t-1 -11 q-21 -41 -57 -41q-13 0 -33 13t-31 14q-21 2 -40 -22q-5 -7 -8 -6z" glyph-name="otilde" unicode="" horiz-adv-x="249"/>
<glyph d="M21 100l-18 -16q-10 -9 -13 -6q-2 3 7 12q11 11 31 25q23 16 48 29q49 26 83 27q15 0 15 -4q0 -1 -11 -6q-29 -13 -72 -55q-55 -55 -58 -88q-2 -17 14 -17t42.5 17.5t50.5 43.5q2 21 18 42q13 18 32 26q3 7 3 23q0 4 -0.5 7t-1 4.5t-0.5 2.5t1 2q5 3 14 -6q15 -15 12 -35 q-4 -33 -57 -81q6 -3 19 0q15 3 34 17q14 10 32 26q14 13 17 10t-13 -18q-20 -17 -32 -26q-21 -15 -38 -18q-18 -4 -27 2q-64 -49 -114 -49q-24 0 -37 11.5t-12 32.5q2 32 32 64zM137 251q-9 11 0 30q7 17 34 17q11 0 13.5 -6.5t-4.5 -16.5q-18 -24 -43 -24zM236 251 q-9 11 0 30q7 17 34 17q11 0 13.5 -6.5t-4.5 -16.5q-18 -24 -43 -24z" glyph-name="odieresis" unicode="" horiz-adv-x="249"/>
<glyph d="M217 215q11 0 13.5 -7t-4.5 -17q-7 -9 -21 -16.5t-22 -7.5q-8 12 0 31q7 17 34 17zM311 129q0 -6 -16 -6l-235 -3q-17 0 -12 12t22 12q169 -7 225 -9q16 0 16 -6zM167 90q11 0 13.5 -7t-4.5 -17q-7 -9 -21 -16t-22 -7q-8 10 0 30q7 17 34 17z" glyph-name="divide" unicode="" horiz-adv-x="319"/>
<glyph d="M28 115q23 16 48 29q45 24 89 28q18 2 30 -3l30 29q23 22 27 19q5 -4 -16 -24l-31 -29q16 -13 13 -36q-4 -33 -57 -81q6 -3 19 0q15 3 34 17q14 10 32 26q14 13 17 10t-13 -18q-20 -17 -32 -26q-21 -15 -38 -18q-18 -4 -27 2q-64 -49 -113 -49q-13 0 -17 2l-38 -36 q-9 -9 -12 -5q-3 2 6 11l34 33q-25 9 -23 39q2 32 32 64l-1 1l-18 -16q-10 -9 -13 -6q-2 3 7 12q11 11 31 25zM178 166q-28 0 -87 -59q-36 -34 -53 -73q-5 -12 -5 -19q22 21 78 74t78 74q-3 3 -11 3zM47 1q17 0 43.5 17.5t49.5 43.5q2 21 18 42q13 18 32 26q5 11 3 23 l-157 -147q3 -5 11 -5z" glyph-name="oslash" unicode="" horiz-adv-x="249"/>
<glyph d="M81 143q-12 -5 -43 -30q-24 -19 -36 -30q-12 -10 -15 -8q-3 3 11 16q36 32 71 56q32 22 58 22q16 0 18 -3t-7 -13q-17 -19 -52 -62q-31 -41 -37 -54t-1 -18q6 -6 23 2q27 14 75 52q27 21 61 49t47 38q15 11 29 11q15 0 18.5 -2.5t-3.5 -13.5q-5 -5 -23 -27t-30 -37 q-26 -32 -37 -51q-10 -17 -3 -22t23 3q21 10 45 30q24 19 48 41q11 11 14 7q3 -2 -8 -13q-18 -18 -61 -52q-51 -40 -86 -40q-31 0 -31 24q0 18 16 41q11 16 47 52l-1 1l-80 -63q-73 -55 -107 -55q-16 0 -25 7.5t-8 20.5q1 17 19 41q33 44 71 80zM166 342q8 0 12 -10 q19 -44 50 -86q5 -7 2 -9q-2 -1 -10 4q-52 43 -66 67q-5 8 -5 15t5.5 13t11.5 6z" glyph-name="ugrave" unicode="" horiz-adv-x="322"/>
<glyph d="M81 143q-12 -5 -43 -30q-24 -19 -36 -30q-12 -10 -15 -8q-3 3 11 16q36 32 71 56q32 22 58 22q16 0 18 -3t-7 -13q-17 -19 -52 -62q-31 -41 -37 -54t-1 -18q6 -6 23 2q27 14 75 52q27 21 61 49t47 38q15 11 29 11q15 0 18.5 -2.5t-3.5 -13.5q-5 -5 -23 -27t-30 -37 q-26 -32 -37 -51q-10 -17 -3 -22t23 3q21 10 45 30q24 19 48 41q11 11 14 7q3 -2 -8 -13q-18 -18 -61 -52q-51 -40 -86 -40q-31 0 -31 24q0 18 16 41q11 16 47 52l-1 1l-80 -63q-73 -55 -107 -55q-16 0 -25 7.5t-8 20.5q1 17 19 41q33 44 71 80zM289 344q12 0 12 -17 q0 -10 -11 -21q-25 -25 -83 -57q-10 -5 -12 -3q-2 3 5 10q42 40 75 79q7 9 14 9z" glyph-name="uacute" unicode="" horiz-adv-x="322"/>
<glyph d="M81 143q-12 -5 -43 -30q-24 -19 -36 -30q-12 -10 -15 -8q-3 3 11 16q36 32 71 56q32 22 58 22q16 0 18 -3t-7 -13q-17 -19 -52 -62q-31 -41 -37 -54t-1 -18q6 -6 23 2q27 14 75 52q27 21 61 49t47 38q15 11 29 11q15 0 18.5 -2.5t-3.5 -13.5q-5 -5 -23 -27t-30 -37 q-26 -32 -37 -51q-10 -17 -3 -22t23 3q21 10 45 30q24 19 48 41q11 11 14 7q3 -2 -8 -13q-18 -18 -61 -52q-51 -40 -86 -40q-31 0 -31 24q0 18 16 41q11 16 47 52l-1 1l-80 -63q-73 -55 -107 -55q-16 0 -25 7.5t-8 20.5q1 17 19 41q33 44 71 80zM264 326q2 0 6 -7 q21 -46 34 -66q4 -5 2 -7q-3 -3 -11 3q-25 17 -43 42q-55 -32 -105 -47q-8 -3 -9 1q0 1 0.5 2t3.5 3l3 1q75 45 109 70q7 5 10 5z" glyph-name="ucircumflex" unicode="" horiz-adv-x="322"/>
<glyph d="M81 143q-12 -5 -43 -30q-24 -19 -36 -30q-12 -10 -15 -8q-3 3 11 16q36 32 71 56q32 22 58 22q16 0 18 -3t-7 -13q-17 -19 -52 -62q-31 -41 -37 -54t-1 -18q6 -6 23 2q27 14 75 52q27 21 61 49t47 38q15 11 29 11q15 0 18.5 -2.5t-3.5 -13.5q-5 -5 -23 -27t-30 -37 q-26 -32 -37 -51q-10 -17 -3 -22t23 3q21 10 45 30q24 19 48 41q11 11 14 7q3 -2 -8 -13q-18 -18 -61 -52q-51 -40 -86 -40q-31 0 -31 24q0 18 16 41q11 16 47 52l-1 1l-80 -63q-73 -55 -107 -55q-16 0 -25 7.5t-8 20.5q1 17 19 41q33 44 71 80zM172 251q-9 11 0 30 q7 17 34 17q11 0 13.5 -6.5t-4.5 -16.5q-18 -24 -43 -24zM271 251q-9 11 0 30q7 17 34 17q11 0 13.5 -6.5t-4.5 -16.5q-18 -24 -43 -24z" glyph-name="udieresis" unicode="" horiz-adv-x="322"/>
<glyph d="M213 112l-1 1q-21 -18 -81 -64q-73 -55 -107 -55q-16 0 -25 7.5t-8 21.5q1 16 19 40q35 46 71 80q-11 -5 -44 -31q-25 -20 -35 -29q-12 -10 -15 -8q-3 3 11 16q36 32 71 56q32 22 58 22q16 0 18 -3t-7 -13q-17 -19 -52 -62q-28 -35 -37 -54q-6 -13 -1 -18q6 -6 23 2 q27 14 75 52q27 21 61 49t47 38q15 11 29 11t17 -2.5t-3 -12.5l-59 -78q-54 -70 -132 -177q-135 -184 -177 -256q-10 -17 -5 -20t15 8t73 101q82 114 113 154q67 85 128 146q22 22 61 58q10 10 14 7q2 -3 -11 -16q-26 -24 -58 -56q-63 -65 -126 -145q-66 -87 -119 -164 q-65 -92 -85 -110q-16 -14 -29 -13q-19 2 -19 21t41 85q48 75 135 196q118 163 156 215zM289 339q12 0 12 -17q0 -10 -11 -21q-25 -25 -83 -57q-10 -5 -12 -3q-2 3 5 10q42 40 75 79q7 9 14 9z" glyph-name="yacute" unicode="" horiz-adv-x="315"/>
<glyph d="M91 43q-56 -66 -126 -159q-99 -133 -121 -165q-65 -96 -86 -113q-15 -13 -29 -10q-17 3 -17 21q0 27 38 84q67 99 140 197q99 136 211 275l-100 -91q-13 -11 -16 -8t10 15l72 66q38 34 69 65q5 6 15.5 18.5t25.5 30t25 29.5q59 70 119 124q17 17 37 17q14 0 14 -7 q-66 -68 -176 -199q-89 -104 -257 -331q-109 -148 -179 -257q-10 -16 -6 -20q4 -3 13 6q20 23 78 108l115 155q73 96 121 153q56 61 103 95q45 32 85 29q36 -3 31 -38q-6 -43 -62 -92q-25 -21 -57 -33.5t-53 -12.5q-30 0 -38 20q-5 14 1 28zM129 6q36 5 83 59q30 35 39 61 q11 30 -9 30q-28 0 -83 -45q-28 -23 -46 -44q5 1 8 0q18 -5 4 -25q-4 -5 -12.5 -13t-11.5 -13q5 -14 28 -10z" glyph-name="thorn" unicode="" horiz-adv-x="324"/>
<glyph d="M225 261q0 31 22 61q-43 33 -43 74q0 30 20.5 48t53.5 20q31 2 65 -13t57 -42q41 7 74 6q49 -2 76 -20t27 -43q0 -33 -44.5 -57t-105.5 -24q-84 0 -140 28q-9 -13 -15 -30q-6 -19 -3 -32q26 5 49 3q57 -2 54 -25q-3 -19 -55 -19q-59 0 -80 27q-47 -17 -91 -60 q-58 -54 -59 -110q-3 -73 82 -73q69 0 147 52q32 22 71 58q10 9 13 6t-9 -14q-44 -41 -71 -59q-75 -53 -151 -57q-67 -3 -105 19.5t-38 69.5q0 56 56.5 105t149.5 70q-7 13 -7 31zM425 281q52 0 89.5 19.5t38.5 51.5q1 21 -17.5 37.5t-58.5 17.5q-29 1 -68 -12 q10 -20 13 -44q3 -26 -2 -26q-1 0 -1.5 1.5t-1 7t-2.5 11.5q-6 22 -22 44q-36 -17 -73 -51q-14 -12 -28 -31q52 -26 133 -26zM381 405q-19 23 -48 37t-57 13q-27 -2 -45 -17t-18 -41q0 -34 40 -67q8 11 21 22q42 36 107 53zM271 230q6 -23 47 -25q36 -2 36 13q0 12 -36 14 q-21 2 -47 -2zM434 525q-23 15 -12 34q5 7 11 7q5 0 13 -6q35 -30 90 -69q8 -6 6 -8q-2 -3 -12 0q-66 23 -96 42z" glyph-name="uni0400" unicode=""/>
<glyph d="M225 261q0 31 22 61q-43 33 -43 74q0 30 20.5 48t53.5 20q31 2 65 -13t57 -42q41 7 74 6q49 -2 76 -20t27 -43q0 -33 -44.5 -57t-105.5 -24q-84 0 -140 28q-9 -13 -15 -30q-6 -19 -3 -32q26 5 49 3q57 -2 54 -25q-3 -19 -55 -19q-59 0 -80 27q-47 -17 -91 -60 q-58 -54 -59 -110q-3 -73 82 -73q69 0 147 52q32 22 71 58q10 9 13 6t-9 -14q-44 -41 -71 -59q-75 -53 -151 -57q-67 -3 -105 19.5t-38 69.5q0 56 56.5 105t149.5 70q-7 13 -7 31zM425 281q52 0 89.5 19.5t38.5 51.5q1 21 -17.5 37.5t-58.5 17.5q-29 1 -68 -12 q10 -20 13 -44q3 -26 -2 -26q-1 0 -1.5 1.5t-1 7t-2.5 11.5q-6 22 -22 44q-36 -17 -73 -51q-14 -12 -28 -31q52 -26 133 -26zM381 405q-19 23 -48 37t-57 13q-27 -2 -45 -17t-18 -41q0 -34 40 -67q8 11 21 22q42 36 107 53zM271 230q6 -23 47 -25q36 -2 36 13q0 12 -36 14 q-21 2 -47 -2zM444 482q-9 11 -1 33q8 19 37 19q12 0 15 -7.5t-5 -18.5q-8 -10 -23 -18t-23 -8zM553 482q-8 12 0 33q8 19 38 19q12 0 15.5 -7.5t-5.5 -18.5t-23.5 -18.5t-24.5 -7.5z" glyph-name="uni0401" unicode=""/>
<glyph d="M179 -168q-68 0 -68 52q0 17 11 34q5 6 7 4t-1 -7q-6 -12 -6 -26q0 -36 67 -36q56 0 109 33q74 46 167 188q46 70 46 109q0 21 -24 23q-36 2 -115 -66q-53 -45 -106 -79q-35 -23 -80 -41q27 -6 49 -8q43 -3 73 17q6 4 10 7.5t5 4t2 0.5q1 -1 1 -3t-2.5 -6t-7.5 -8 q-37 -33 -94 -33q-29 0 -77 14q-57 -17 -103 -17q-69 0 -69 28q0 16 16 26.5t46 10.5q13 0 30.5 -3t31 -6t37 -9t36.5 -9q35 18 75 60q39 41 93 107t72 87q25 30 70 66q-37 5 -91 15q-119 22 -161 24q-70 3 -119.5 -20.5t-55.5 -70.5q-4 -33 18 -53.5t57 -20.5q38 0 60.5 17 t24.5 46q2 17 -7 29l-4 6q5 2 13 -4q18 -12 18 -33q1 -32 -29.5 -51t-75.5 -19q-41 0 -65.5 23.5t-20.5 62.5q5 53 61.5 83.5t136.5 28.5q48 -1 166 -21q68 -12 107 -18q10 8 42 29q18 12 20 7q1 -2 -8 -9q-12 -10 -32 -30q27 -4 49 -5q24 -1 45.5 -1t40.5 7t30 23q5 7 7 6 q3 -1 -1 -9q-17 -33 -47 -42.5t-87 -9.5q-22 0 -60 5q-14 -17 -42 -55q-85 -115 -140 -167l1 -2q84 72 115 89q33 19 60 19q28 0 43 -13t15 -35q0 -46 -40 -102q-88 -126 -220 -200q-76 -43 -125 -43zM43 -3q41 0 85 13q-12 2 -33.5 8t-40 10t-34.5 4q-35 0 -35 -17 q0 -18 58 -18z" glyph-name="uni0402" unicode="" horiz-adv-x="598"/>
<glyph d="M140 -18q-49 0 -84 16.5t-36 53.5q-1 20 12.5 35t35.5 15q14 0 22.5 -9t7.5 -22q-2 -12 -15 -25t-13 -23q1 -15 21.5 -23.5t46.5 -8.5q111 0 200 97q21 23 59 72t60 74q76 87 145 124l-86 20q-98 22 -178 22q-42 0 -82 -8t-75 -34.5t-35 -68.5q0 -35 29.5 -54t70.5 -19 q46 0 72.5 16.5t28.5 45.5q2 17 -7 29l-4 6q3 2 11 -3q20 -11 20 -34q1 -32 -34 -50.5t-86 -18.5q-46 0 -79 21t-33 63q0 47 35.5 80t83 46.5t98.5 12.5q26 0 53 -3t61 -10.5t51 -12t58.5 -16.5t48.5 -14q52 28 110 28q28 0 45.5 -8t16.5 -23q-2 -28 -57 -28q-46 0 -111 10 q-15 -11 -38.5 -34.5t-40.5 -44.5q-10 -13 -33.5 -43.5t-41.5 -53.5t-36 -43q-140 -152 -298 -152zM743 352q41 0 43 20q2 21 -53 21q-48 0 -87 -25q59 -16 97 -16zM604 481q-1 3 8 8q48 20 120 66q7 4 13 4q8 0 10 -11q3 -17 -21 -30q-42 -20 -118 -37q-11 -4 -12 0z" glyph-name="uni0403" unicode="" horiz-adv-x="546"/>
<glyph d="M169 -34q-65 -2 -103.5 22.5t-40.5 78.5q-3 65 54 137q-35 6 -91 -12q-8 -3 -8 0q0 4 9 8q53 26 107 24q39 47 93 86q-25 32 -25 63q0 41 30 67t72 26q36 0 69.5 -17t53.5 -46q26 8 53 9q54 3 89 -15t27 -60q-8 -43 -67.5 -67.5t-124.5 -24.5q-98 0 -151 40 q-31 -27 -60 -64q5 -1 59 -14.5t85 -14.5q54 -2 94 15q16 7 17 5q1 -3 -3 -6t-11 -7q-51 -24 -105 -24q-38 0 -95 13l-56 14q-55 -78 -55 -141q0 -81 86 -81q67 0 145 52q30 21 62 50q19 17 22 14q2 -2 -8 -13q-40 -38 -72 -60q-75 -53 -151 -57zM368 255q56 0 100.5 24 t52.5 60q7 33 -13.5 50t-61.5 16q-29 0 -53 -10q14 -24 17 -55q1 -8 1 -14t-1 -9t-3 -2q-1 0 -1 2t-1 7t-2 11q-6 31 -24 55q-82 -31 -156 -98q50 -37 145 -37zM197 316q86 57 176 83q-49 54 -115 54q-34 0 -57.5 -22.5t-23.5 -58.5q0 -30 20 -56z" glyph-name="uni0404" unicode=""/>
<glyph d="M383 216q145 61 156 65q57 86 116 128q34 23 62 24q14 1 24.5 -5.5t9.5 -21.5q-2 -24 -38 -53t-87 -51l-27 -11q-10 -19 -27 -52.5t-24 -46.5q-104 -203 -323 -218q-106 -6 -163 34q-64 -57 -80 -93q-1 -3 -2 -4t-2 -3t-2 -2h-2q-4 1 0 12q15 43 75 100q-41 37 -37 94 q4 46 40 82t80.5 53t88.5 20q47 4 94.5 -8.5t67.5 -42.5zM253 70q-48 0 -80 21q-36 -24 -60 -42l-33 -26q49 -48 154 -40q78 7 139 58t116 152q32 55 44 73v1q-84 -34 -143 -62q6 -14 6 -31q-1 -47 -45.5 -75.5t-97.5 -28.5zM367 208q-16 31 -58.5 42.5t-87.5 7.5 q-62 -5 -115.5 -41.5t-58.5 -100.5q-3 -50 22 -80q13 13 31 26q26 19 58 40q-18 16 -21 38q-2 10 3 10q1 0 3 -8q5 -19 24 -34q61 37 134 70zM251 80q47 0 83.5 26t38.5 67q0 13 -3 24l-67 -31q-65 -32 -122 -69q31 -17 70 -17zM605 305l18 7q46 19 80 45t37 49q1 10 -6 15 t-17 3q-21 -3 -46 -28q-28 -26 -66 -91z" glyph-name="uni0405" unicode="" horiz-adv-x="545"/>
<glyph d="M613 413q-11 -3 -39.5 -9.5t-43.5 -10.5q-96 -25 -147 -55q-25 -15 -45 -37.5t-20 -43.5q0 -26 27 -26q14 0 27 9q9 6 10 5q2 -3 -5 -10q-14 -14 -36 -14t-34.5 12t-12.5 30q0 51 87 93q56 27 147 47q86 20 92 23q16 7 20 6q6 -2 5 -8t-7 -8q-40 -18 -93 -92 q-6 -8 -40 -59t-50 -73q-164 -210 -351 -210q-50 0 -86 19t-36 59q0 22 15.5 41t40.5 19q16 0 25.5 -9.5t8.5 -25.5q-2 -16 -19 -30q-1 -1 -5 -4.5t-5.5 -5.5t-4 -5t-3.5 -7t-1 -8q0 -14 18.5 -23.5t48.5 -9.5q76 0 147.5 52t148.5 149q5 6 45.5 57.5t56.5 70.5q25 29 57 55 t57 37z" glyph-name="uni0406" unicode="" horiz-adv-x="440"/>
<glyph d="M613 413q-11 -3 -39.5 -9.5t-43.5 -10.5q-96 -25 -147 -55q-25 -15 -45 -37.5t-20 -43.5q0 -26 27 -26q14 0 27 9q9 6 10 5q2 -3 -5 -10q-14 -14 -36 -14t-34.5 12t-12.5 30q0 51 87 93q56 27 147 47q86 20 92 23q16 7 20 6q6 -2 5 -8t-7 -8q-40 -18 -93 -92 q-6 -8 -40 -59t-50 -73q-164 -210 -351 -210q-50 0 -86 19t-36 59q0 22 15.5 41t40.5 19q16 0 25.5 -9.5t8.5 -25.5q-2 -16 -19 -30q-1 -1 -5 -4.5t-5.5 -5.5t-4 -5t-3.5 -7t-1 -8q0 -14 18.5 -23.5t48.5 -9.5q76 0 147.5 52t148.5 149q5 6 45.5 57.5t56.5 70.5q25 29 57 55 t57 37zM555 482q-9 11 -1 33q8 19 37 19q12 0 15 -7.5t-5 -18.5q-8 -10 -23 -18t-23 -8zM664 482q-8 12 0 33q8 19 38 19q12 0 15.5 -7.5t-5.5 -18.5t-23.5 -18.5t-24.5 -7.5z" glyph-name="uni0407" unicode="" horiz-adv-x="440"/>
<glyph d="M161 -21q26 10 54 26t67 44q28 21 51 42q13 12 16 9t-13 -18q-33 -29 -56 -46q-35 -27 -70 -45q-34 -18 -60 -29q-47 -58 -71 -83q-114 -121 -224 -175q-56 -27 -95 -27q-56 0 -56 42q0 63 171 146q82 40 207 87q96 129 192 238q56 64 154 142q19 15 84 60q11 8 11 9 q0 5 -10 5q-96 2 -212 -59q-70 -37 -115.5 -87t-45.5 -93q0 -37 28 -44q6 -2 10.5 -1.5t5.5 1t2 -1.5t-1.5 -3.5t-7 -2t-9.5 -0.5q-23 2 -37 19.5t-14 44.5q0 47 43.5 101t134.5 93q44 19 107 32t115 10q7 -1 11 -2t8 -4t3 -9q-1 -4 -18 -17q-19 -15 -60 -54 q-59 -58 -124 -135q-100 -119 -176 -215zM73 -63q-110 -40 -197 -83q-73 -37 -109.5 -72.5t-33.5 -63.5q3 -23 33 -25q36 -3 84 20q73 36 175 161q17 21 48 63z" glyph-name="uni0408" unicode="" horiz-adv-x="335"/>
<glyph d="M114 -17q-39 -3 -64 10.5t-25 49.5q0 23 14.5 37.5t32.5 15.5q16 1 25 -6.5t9 -20.5q0 -18 -18 -31q-22 -15 -22 -23q0 -24 51 -19q77 7 183 87q34 26 67.5 54.5t87 78t65.5 60.5q52 47 85.5 74t85 52t97.5 25q26 0 39 -11q12 -10 7 -14q-1 0 -2 0.5t-3.5 2.5t-5.5 4 q-8 6 -24 6q-18 0 -34 -13q-17 -14 -36.5 -41t-39 -59t-26.5 -42q-149 -208 -235 -248q61 -16 132 -16q79 0 132.5 45t56.5 111q1 32 -15 46t-32 15q-25 -5 -41 -5q-10 0 -17 3t-6 7q2 11 27 11q23 0 51 -7q88 -22 85 -88q-3 -63 -75 -104.5t-166 -41.5q-84 0 -155 16 q-37 -8 -58 -10q-51 -4 -51 10q0 9 14 16.5t39 7.5q37 0 60 -10q24 14 59.5 59t79.5 108.5t61 85.5q91 116 161 145v1q-40 -3 -95 -34q-53 -29 -134 -104q-171 -157 -231 -204q-41 -32 -96.5 -60t-99.5 -32z" glyph-name="uni0409" unicode="" horiz-adv-x="844"/>
<glyph d="M79 -18q-41 0 -70.5 19t-29.5 59q0 21 15 37t37 15q15 -1 24 -11t8 -26q-1 -17 -16 -30q-13 -12 -13 -25q0 -14 15.5 -21.5t34.5 -7.5q17 0 34.5 4t35 14.5t31 18t32 26t28 27t28 31.5t23.5 29t23.5 30.5t19.5 25.5q95 124 189 186q-26 -10 -80.5 -11t-133.5 3 q-93 3 -155.5 -33t-62.5 -107q0 -28 19.5 -56.5t53.5 -39.5l12 -5q-2 -5 -19 0q-38 11 -61 40t-25 63q-2 72 56.5 117t168.5 42q19 -1 59 -4t70 -5.5t61.5 -1t46.5 8.5q3 2 8 4.5t7.5 4t7 3t6 1.5t4.5 -1q4 -3 -5 -11q-5 -4 -8 -7q-41 -39 -72 -79q-13 -16 -34.5 -43.5 l-43 -55t-27.5 -34.5q78 43 183 51q46 55 80 86q56 53 118 88q53 30 107 30q25 0 42 -10t21 -22q5 -13 -1 -15q-1 0 -1.5 0.5t-1.5 3.5t-2 5q-14 28 -56 28q-45 0 -92 -34q-45 -33 -91 -85q-22 -25 -58 -73h12.5h14.5h8q51 -2 89 -24.5t36 -70.5q-3 -66 -74.5 -106 t-166.5 -40q-84 0 -155 16q-41 -9 -58 -10q-51 -4 -51 10q0 9 14 16.5t39 7.5q37 0 60 -10q24 14 50.5 47t60 82t47.5 67q-43 -3 -98 -19t-85 -33q-76 -93 -144 -136.5t-149 -43.5zM548 -4q80 1 133 43.5t56 107.5q1 32 -19 49.5t-56 20.5q-24 1 -42 0q-29 -39 -45 -59 t-44 -52.5t-56 -55t-59 -38.5q61 -16 132 -16z" glyph-name="uni040A" unicode="" horiz-adv-x="832"/>
<glyph d="M42 -12q-69 0 -69 28q0 16 16 26.5t46 10.5q13 0 30.5 -3t31 -6t37 -9t36.5 -9q35 18 75 60q40 41 93 106.5t69 83.5q28 34 73 70q-37 5 -91 15q-119 22 -161 24q-70 3 -119.5 -20.5t-55.5 -70.5q-4 -33 18 -53.5t57 -20.5q38 0 60.5 17t24.5 46q2 17 -7 29l-4 6 q5 2 13 -4q18 -12 18 -33q1 -32 -29.5 -51t-75.5 -19q-41 0 -65.5 23.5t-20.5 62.5q5 53 61.5 83.5t136.5 28.5q48 -1 166 -21q84 -15 104 -18q25 19 42 29q18 10 20 7q1 -2 -8 -9q-12 -10 -32 -30q25 -4 52 -5q24 -1 45.5 -1t40.5 7t30 23q5 7 7 6q3 -1 -1 -9 q-17 -33 -47 -42.5t-87 -9.5q-22 0 -60 5q-22 -27 -50 -66q-15 -22 -59.5 -76t-72.5 -80l1 -2q3 3 23.5 20.5t30 25.5t30 23.5t34.5 23t32.5 14t33.5 6.5q48 0 48 -42q0 -7 -2.5 -15.5t-5.5 -15t-9.5 -16t-10.5 -14.5t-12.5 -16t-11.5 -15q-44 -56 -46 -59q-11 -17 -4 -22 q6 -5 27 6q22 11 48 31q18 14 48 41q10 9 13 6t-8 -13q-26 -26 -60 -52q-53 -40 -93 -40q-15 0 -23 6.5t-7 19.5q1 23 49 81q4 5 15 18.5t16.5 20.5t13 17.5t10.5 18t3 14.5q0 20 -20 21q-34 2 -121 -71q-53 -45 -106 -79q-35 -23 -80 -41q27 -6 49 -8q43 -3 73 17 q6 4 10 7.5t5 4t2 0.5q1 -1 1 -3t-2.5 -6t-7.5 -8q-37 -33 -94 -33q-29 0 -77 14q-57 -17 -103 -17zM43 -3q41 0 85 13q-12 2 -33.5 8t-40 10t-34.5 4q-35 0 -35 -17q0 -18 58 -18z" glyph-name="uni040B" unicode="" horiz-adv-x="584"/>
<glyph d="M457 -10q-23 0 -35.5 10.5t-12.5 28.5q0 29 35 78q4 5 13 17.5t14.5 20t10 17t4.5 15.5q0 11 -7 20q-12 -6 -30 -6q-11 0 -20 3.5t-8 10.5q1 15 32 13q17 -2 30 -10q18 7 34.5 19.5t26 23t27.5 33t29 34.5q89 100 174 100q26 0 43 -13.5t17 -37.5q0 -34 -39.5 -57.5 t-84.5 -19.5q-21 2 -36 10q-4 3 -3 6q1 1 6 -1q15 -6 32 -7q41 -4 78.5 17t37.5 52q0 19 -14 30.5t-35 11.5q-28 0 -55.5 -18.5t-42 -35t-45.5 -56.5q-55 -71 -142 -98q20 -13 25 -36q7 -29 -22 -72q-4 -5 -11 -15.5t-10 -16t-7.5 -13t-6 -13.5t-1.5 -12q0 -17 18 -17 q23 0 72 38q29 22 46 38q17 14 19 12q3 -3 -7 -13q-26 -24 -55 -47q-54 -44 -94 -44zM79 -19q-41 0 -70.5 19.5t-29.5 59.5q0 20 15 36t37 15q36 -2 33 -36q-1 -17 -17 -31q-13 -13 -13 -25q0 -14 16 -21.5t34 -7.5q26 0 54 12.5t48.5 27t48.5 43t41 43.5t38.5 48t29.5 37 q77 98 128 132v1q-35 -23 -74 -33.5t-63 -10.5q-51 -1 -81.5 16.5t-25.5 51.5q5 30 37 51q15 10 28 10q10 0 1 -8l-2 -2q-22 -20 -26 -52q-2 -26 16 -41.5t54 -15.5q46 0 99.5 24t95.5 60q20 20 26 16q5 -5 -9 -19q-23 -23 -62 -73q-15 -19 -42 -56t-37 -49 q-35 -44 -58 -70.5t-57.5 -59t-64 -50t-68.5 -30t-80 -12.5zM448 198q12 0 24 5q-6 6 -21 8q-21 2 -21 -6q0 -7 18 -7zM600 482q-1 3 8 8q48 20 120 66q7 4 13 4q8 0 10 -11q3 -17 -21 -30q-42 -20 -118 -37q-11 -4 -12 0z" glyph-name="uni040C" unicode="" horiz-adv-x="606"/>
<glyph d="M407 134q-51 -51 -118.5 -97t-111.5 -46q-50 0 -44 46q4 29 33 68.5t94 112.5q99 113 111 153q6 21 -7.5 30.5t-35.5 9.5q-39 0 -86 -23t-88 -64q-80 -78 -80 -130q0 -41 36 -41q20 0 36 10q5 3 10 7q3 4 5 3t-2 -6.5t-10 -9.5q-19 -13 -41 -13q-47 2 -50 49 q-2 34 18.5 74t58.5 75q42 39 96.5 58.5t96.5 19.5q37 0 59.5 -14.5t21.5 -42.5q-1 -48 -97 -157q-66 -73 -95 -111t-32 -61q-4 -22 14 -24q31 -4 110 54q75 55 147 140q98 112 183 178q58 44 81 41q13 -2 10.5 -15t-16.5 -30q-23 -25 -75 -63q-68 -51 -91 -70 q-20 -24 -32 -39q-108 -138 -108 -178q0 -17 20 -17q22 0 64 31q26 18 49 40q17 15 20 12q2 -3 -10 -15q-21 -20 -53 -45q-52 -40 -88 -40q-47 0 -47 44q0 35 44 96zM574 277q11 9 33 24.5t26 18.5q40 28 66 54q10 11 15.5 19.5t6 13t-2.5 6.5q-14 5 -54 -38 q-53 -55 -90 -98zM496 525q-23 15 -12 34q5 7 11 7q5 0 13 -6q35 -30 90 -69q8 -6 6 -8q-2 -3 -12 0q-66 23 -96 42z" glyph-name="uni040D" unicode="" horiz-adv-x="553"/>
<glyph d="M193 -27q-49 0 -84 16.5t-36 53.5q-1 20 12.5 35t35.5 15q14 0 22.5 -9t7.5 -22q-2 -12 -15 -25t-13 -23q1 -15 21.5 -23.5t46.5 -8.5q96 0 192 115q35 43 96 133q-55 -58 -127 -107.5t-117 -49.5q-47 0 -47 39q0 7 1 13t4 13.5t6 13t10 15t11.5 15.5t15 18t17 19.5 t21.5 24t24 26.5q66 75 73 101q6 21 -7.5 30.5t-35.5 9.5q-39 0 -86 -23t-88 -64q-70 -68 -70 -107q0 -15 9.5 -24.5t26.5 -9.5q22 0 36 10q2 1 4.5 3t3.5 3.5t2.5 2.5t2.5 1h2q2 -1 -2 -6.5t-10 -9.5q-19 -13 -41 -13q-48 0 -50 45q-2 61 67 123q42 38 96.5 58t96.5 20 q37 0 59 -14.5t22 -42.5q0 -38 -59 -105q-13 -14 -30.5 -33.5t-26 -28.5t-19.5 -22t-15.5 -19.5t-10 -15.5t-7 -15.5t-1.5 -13.5q0 -19 18 -19q34 0 109 55q65 48 147 138q49 55 98 98t75 41q14 -1 14.5 -15.5t-11.5 -29.5q-22 -28 -66 -63q-51 -40 -81 -70q-5 -8 -9 -13 t-6.5 -9.5t-10.5 -16.5t-19 -28q-64 -94 -136.5 -149.5t-168.5 -55.5zM534 481q-35 0 -54 13.5t-19 34.5q0 18 14 30t32 12q12 0 19.5 -6.5t6.5 -16.5q-1 -14 -17 -20.5t-40 -2.5q11 -18 70 -18q85 0 159 46q10 4 11 1q2 -2 -6 -9q-82 -64 -176 -64zM566 278l51 42 q41 33 58 54q27 34 13 39t-48 -38q-18 -21 -74 -97z" glyph-name="uni040E" unicode="" horiz-adv-x="499"/>
<glyph d="M177 -9q-50 0 -44 46q4 29 33 68.5t94 112.5q99 113 111 153q6 21 -7.5 30.5t-35.5 9.5q-39 0 -86 -23t-88 -64q-80 -78 -80 -130q0 -41 36 -41q20 0 36 10q5 3 10 7q3 4 5 3t-2 -6.5t-10 -9.5q-19 -13 -41 -13q-45 2 -50 49q-3 33 18 73.5t59 75.5q42 39 96.5 58.5 t96.5 19.5q37 0 59.5 -14.5t21.5 -42.5q-1 -48 -97 -157q-66 -73 -95 -111t-32 -61q-4 -22 14 -24q31 -4 110 54q75 55 147 140q98 112 183 178q57 43 81 41q13 -3 10.5 -15.5t-16.5 -29.5q-23 -25 -75 -63q-68 -51 -91 -70q-5 -7 -15.5 -20t-16.5 -19q-108 -135 -108 -178 q0 -17 20 -17q22 0 64 31q26 18 49 40q17 15 20 12q2 -3 -10 -15q-21 -20 -53 -45q-52 -40 -88 -40q-47 0 -47 44q0 35 44 96q-51 -51 -118.5 -97t-111.5 -46zM54 -239q-36 0 -53 25q-10 15 -3 18q2 1 3.5 -0.5t4.5 -5.5t4 -6q17 -21 45 -21q10 0 18.5 2t16 8t13.5 10.5 t13.5 14.5t11 15.5t12 18t11.5 17.5q52 78 96 118q26 23 47 37q15 12 19 8q1 -2 -8 -11q-15 -15 -39 -47q-16 -22 -62 -90q-34 -51 -69 -81t-81 -30zM574 277q11 9 33 24.5t26 18.5q36 24 66 54q10 11 15.5 19.5t6 13t-2.5 6.5q-14 5 -54 -38q-53 -55 -90 -98z" glyph-name="uni040F" unicode="" horiz-adv-x="553"/>
<glyph d="M21 57q0 25 15.5 42t36.5 19q17 1 27 -7.5t10 -22.5q0 -18 -23 -34q-18 -13 -18 -25q0 -17 26 -27t72 -6q94 8 208 87q-55 47 -55 113q0 46 33 76t86 29q36 -1 64.5 -24t39.5 -48q11 11 47 44q94 86 149 115q69 38 121 38q22 0 35 -10q12 -10 7 -14q-1 0 -11 7 q-8 6 -22 6q-18 0 -32 -11q-36 -29 -81 -94q-95 -131 -187 -282q25 2 56 17q32 17 63 46q6 7 10 3q2 -2 -8 -13q-31 -29 -62 -45t-64 -18q-20 -21 -39 -25q-13 -3 -20 -0.5t-6 6.5l2 8l8 15q-29 3 -65 18q-38 15 -59 35q-119 -84 -221 -92q-62 -5 -102.5 14.5t-40.5 59.5z M439 286q-37 0 -58.5 -27t-23.5 -65q-1 -29 9 -56t24 -43q36 29 73 62q12 11 35.5 32.5t35.5 31.5q-35 65 -95 65zM558 99q59 92 121 172q82 107 161 145v1q-40 -3 -95 -35q-59 -34 -134 -103q-23 -21 -63 -59q11 -30 13 -65q2 -29 -3 -56zM397 86q17 -18 52 -35 q36 -16 65 -19q4 8 16 26.5t14 21.5q11 22 7 74q-3 35 -12 58q-12 -11 -35.5 -32.5t-34.5 -31.5q-44 -39 -72 -62z" glyph-name="uni0410" unicode="" horiz-adv-x="690"/>
<glyph d="M41 -19q-30 0 -30 24q0 43 105 108q63 39 154 75q73 97 150 158q-37 5 -72 12q-110 20 -141 21q-68 3 -110.5 -19t-46.5 -66q-3 -33 20 -53.5t58 -20.5q38 0 60.5 17t24.5 46q2 17 -7 29l-4 6q5 2 13 -4q18 -12 18 -33q1 -32 -29.5 -51t-75.5 -19q-41 0 -66 23.5 t-21 62.5q5 51 52.5 79.5t125.5 26.5q46 -1 146 -18q63 -11 88 -15q10 8 42 29q18 12 20 7q1 -2 -8 -9q-12 -10 -31 -29q56 -8 99 -10q66 -2 97 6.5t48 33.5q5 7 7 6q3 -1 -1 -9q-34 -65 -172 -62q-38 0 -102 8q-56 -63 -99 -130q38 17 82 17q50 0 76.5 -27t15.5 -77 q-11 -52 -67 -92.5t-129 -40.5q-78 0 -78 46q0 22 16.5 36.5t38.5 14.5q29 0 29 -22q0 -16 -23 -26q-20 -8 -22 -18q-3 -23 39 -23q52 0 92.5 43.5t51.5 101.5q13 69 -44 73q-36 3 -87 -18q-64 -86 -132 -141q-96 -77 -171 -77zM40 -10q64 0 145 93q28 32 76 93 q-87 -36 -144 -73q-96 -60 -96 -97q0 -16 19 -16z" glyph-name="uni0411" unicode="" horiz-adv-x="570"/>
<glyph d="M401 -9q-81 0 -81 49q0 23 19.5 39.5t42.5 16.5q31 0 31 -24q0 -18 -26 -29q-22 -9 -24 -20q-2 -12 10 -18t28 -6q50 0 95.5 46.5t48.5 106.5q2 33 -18.5 49t-39.5 14q-18 -3 -29 -3q-7 0 -12.5 0.5t-8.5 2.5t-3 5q1 8 27 8q3 0 30 -3q33 5 62 31t37 60q12 50 -22 71 l-7.5 -7.5t-8.5 -8t-7 -7.5q-32 -32 -124 -154q-169 -230 -317 -230q-106 0 -106 76q0 47 40.5 107.5t124.5 121.5q82 60 177.5 91t178.5 31q21 0 39 -3q51 36 96 54q51 21 99 21q53 0 70 -27q5 -8 2 -9q-1 0 -6 5q-19 23 -65 23q-47 0 -94 -22q-36 -16 -79 -51 q65 -25 55 -82q-7 -38 -46 -63.5t-81 -31.5v-1q44 -7 67 -30.5t21 -55.5q-3 -62 -60.5 -102.5t-135.5 -40.5zM38 55q0 -30 16.5 -48t48.5 -18q31 0 59 12.5t56.5 40.5t48.5 52.5t53 67.5q10 13 15 20q89 116 185 194q2 2 25 19q-14 3 -32 3q-76 0 -166.5 -31t-166.5 -89 q-75 -58 -108.5 -117.5t-33.5 -105.5z" glyph-name="uni0412" unicode="" horiz-adv-x="640"/>
<glyph d="M140 -18q-49 0 -84 16.5t-36 53.5q-1 20 12.5 35t35.5 15q14 0 22.5 -9t7.5 -22q-2 -12 -15 -25t-13 -23q1 -15 21.5 -23.5t46.5 -8.5q111 0 200 97q21 23 59 72t60 74q76 87 145 124l-86 20q-98 22 -178 22q-42 0 -82 -8t-75 -34.5t-35 -68.5q0 -35 29.5 -54t70.5 -19 q46 0 72.5 16.5t28.5 45.5q2 17 -7 29l-4 6q3 2 11 -3q20 -11 20 -34q1 -32 -34 -50.5t-86 -18.5q-46 0 -79 21t-33 63q0 47 35.5 80t83 46.5t98.5 12.5q26 0 53 -3t61 -10.5t51 -12t58.5 -16.5t48.5 -14q52 28 110 28q28 0 45.5 -8t16.5 -23q-2 -28 -57 -28q-46 0 -111 10 q-15 -11 -38.5 -34.5t-40.5 -44.5q-10 -13 -33.5 -43.5t-41.5 -53.5t-36 -43q-140 -152 -298 -152zM743 352q41 0 43 20q2 21 -53 21q-48 0 -87 -25q59 -16 97 -16z" glyph-name="uni0413" unicode="" horiz-adv-x="546"/>
<glyph d="M356 272q0 21 -12 33.5t-32 13.5q-38 1 -65 -26q-4 -4 -7 -7.5t-4.5 -5.5t-2.5 -4t-2 -2.5t-2 -0.5q-1 1 -0.5 3.5t4 8t8.5 11.5q30 35 74 32q24 -1 40 -16t16 -41q0 -58 -60 -108q-67 -55 -154 -51q-56 3 -86.5 27.5t-29.5 70.5q1 58 52 107.5t130 77t164 27.5 q146 0 222 -67q34 23 65 35q49 20 98 20q35 0 56 -15q14 -10 9 -15q-1 0 -2 0.5t-4 3.5t-8 6q-18 11 -51 11q-44 0 -93 -21q-39 -17 -60 -36q44 -49 47.5 -114.5t-32.5 -117.5q-41 -61 -115.5 -90.5t-158.5 -29.5q-80 0 -147 5q-56 -6 -99 -6q-132 0 -151 9q-7 4 -7 9 q3 24 145 19q55 -2 134 -15q29 8 59.5 30.5t43 35.5t50 58.5t41.5 50.5q90 107 165 157q-32 33 -90 50.5t-117 17.5q-119 0 -211.5 -63.5t-92.5 -147.5q0 -34 19 -56t56 -24q78 -4 141 52q57 52 57 98zM250 11q42 -9 94 -9q148 0 244 132q36 50 41 106t-24 94 q-20 -18 -62.5 -79t-60.5 -83q-55 -68 -109 -104t-123 -57z" glyph-name="uni0414" unicode="" horiz-adv-x="673"/>
<glyph d="M225 261q0 31 22 61q-43 33 -43 74q0 30 20.5 48t53.5 20q31 2 65 -13t57 -42q41 7 74 6q49 -2 76 -20t27 -43q0 -33 -44.5 -57t-105.5 -24q-84 0 -140 28q-9 -13 -15 -30q-6 -19 -3 -32q26 5 49 3q57 -2 54 -25q-3 -19 -55 -19q-59 0 -80 27q-47 -17 -91 -60 q-58 -54 -59 -110q-3 -73 82 -73q69 0 147 52q32 22 71 58q10 9 13 6t-9 -14q-44 -41 -71 -59q-75 -53 -151 -57q-67 -3 -105 19.5t-38 69.5q0 56 56.5 105t149.5 70q-7 13 -7 31zM425 281q52 0 89.5 19.5t38.5 51.5q1 21 -17.5 37.5t-58.5 17.5q-29 1 -68 -12 q10 -20 13 -44q3 -26 -2 -26q-1 0 -1.5 1.5t-1 7t-2.5 11.5q-6 22 -22 44q-36 -17 -73 -51q-14 -12 -28 -31q52 -26 133 -26zM381 405q-19 23 -48 37t-57 13q-27 -2 -45 -17t-18 -41q0 -34 40 -67q8 11 21 22q42 36 107 53zM271 230q6 -23 47 -25q36 -2 36 13q0 12 -36 14 q-21 2 -47 -2z" glyph-name="uni0415" unicode=""/>
<glyph d="M85 -30q-115 0 -119 72q-1 26 16.5 47t43.5 21q17 0 28 -9.5t10 -24.5q-2 -16 -22 -34q-17 -15 -19 -25q-3 -15 16 -25t56 -10q73 0 153 42q108 57 182.5 154t81.5 158q9 76 -65 76q-73 0 -149 -59q-32 -25 -53.5 -59t-25.5 -65q-5 -43 20 -68l7 -7q-1 -3 -11 1 q-40 20 -34 75q3 31 25.5 66t61.5 64q81 61 161 61q123 0 110 -100q-7 -55 -61 -118.5t-130 -114.5q-3 -2 -3 -3l3 1q22 13 53 36q204 152 309 254q22 19 33 18q23 -3 0 -26q-32 -32 -34 -35q-126 -193 -191 -259q-3 -3 -2.5 -3.5t2.5 1.5q141 126 222 185q85 62 178 111 q119 63 191 63q25 0 42 -10t21 -22q5 -13 -1 -15q-1 0 -1.5 0.5t-1.5 3.5t-2 5q-14 28 -56 28q-57 0 -125 -39q-112 -65 -200 -177q-48 -60 -66.5 -95t-18.5 -63q0 -39 43 -39q37 0 91 36q22 15 57 45q9 8 12 5q3 -2 -6 -11q-28 -26 -58 -47q-58 -42 -113 -42q-77 0 -77 59 q0 66 79 152q63 69 147 126q3 2 3 3t-4 -1q-96 -51 -209 -149q-25 -21 -96.5 -81t-104.5 -91q-12 -11 -15 -13t-12 1q-17 15 24 50q8 9 22 28.5t36.5 51.5t38.5 54q37 50 108 134q2 3 1.5 3.5t-3.5 -2.5q-77 -74 -258 -207q-80 -60 -173.5 -101t-167.5 -41z" glyph-name="uni0416" unicode="" horiz-adv-x="914"/>
<glyph d="M134 -18q-50 0 -86 19t-36 59q0 22 15.5 41t40.5 19q16 0 25.5 -9.5t8.5 -25.5q-2 -16 -19 -30q-19 -17 -19 -30q0 -15 17.5 -25t49.5 -10q89 0 160 54t75 130q1 31 -14 43q-26 -17 -57 -28q-48 -18 -55 0q-4 11 7 21t35 16q35 9 70 6q84 65 84 149q-1 41 -43 41 q-55 0 -107 -42q-48 -40 -48 -84q0 -28 25 -29q30 -1 63 35q20 21 23 43q2 11 -1 19q-2 4 -1 5q3 3 8 -6q4 -8 4 -17q0 -28 -23 -52q-35 -36 -75 -35q-37 2 -37 38q0 46 56 90q57 45 121 45q35 0 60.5 -16t25.5 -50q0 -68 -117 -138q22 -4 39 -22t14 -49 q-7 -76 -93.5 -125.5t-195.5 -49.5zM251 195q3 -10 42 3q26 9 47 24q-27 3 -57 -5q-17 -5 -25.5 -11t-6.5 -11z" glyph-name="uni0417" unicode="" horiz-adv-x="443"/>
<glyph d="M407 134q-51 -51 -118.5 -97t-111.5 -46q-50 0 -44 46q4 29 33 68.5t94 112.5q99 113 111 153q6 21 -7.5 30.5t-35.5 9.5q-39 0 -86 -23t-88 -64q-80 -78 -80 -130q0 -41 36 -41q20 0 36 10q5 3 10 7q3 4 5 3t-2 -6.5t-10 -9.5q-19 -13 -41 -13q-47 2 -50 49 q-2 34 18.5 74t58.5 75q42 39 96.5 58.5t96.5 19.5q37 0 59.5 -14.5t21.5 -42.5q-1 -48 -97 -157q-66 -73 -95 -111t-32 -61q-4 -22 14 -24q31 -4 110 54q75 55 147 140q98 112 183 178q58 44 81 41q13 -2 10.5 -15t-16.5 -30q-23 -25 -75 -63q-68 -51 -91 -70 q-20 -24 -32 -39q-108 -138 -108 -178q0 -17 20 -17q22 0 64 31q26 18 49 40q17 15 20 12q2 -3 -10 -15q-21 -20 -53 -45q-52 -40 -88 -40q-47 0 -47 44q0 35 44 96zM574 277q11 9 33 24.5t26 18.5q40 28 66 54q10 11 15.5 19.5t6 13t-2.5 6.5q-14 5 -54 -38 q-53 -55 -90 -98z" glyph-name="uni0418" unicode="" horiz-adv-x="553"/>
<glyph d="M407 134q-51 -51 -118.5 -97t-111.5 -46q-50 0 -44 46q4 29 33 68.5t94 112.5q99 113 111 153q6 21 -7.5 30.5t-35.5 9.5q-39 0 -86 -23t-88 -64q-80 -78 -80 -130q0 -41 36 -41q20 0 36 10q5 3 10 7q3 4 5 3t-2 -6.5t-10 -9.5q-19 -13 -41 -13q-47 2 -50 49 q-2 34 18.5 74t58.5 75q42 39 96.5 58.5t96.5 19.5q37 0 59.5 -14.5t21.5 -42.5q-1 -48 -97 -157q-66 -73 -95 -111t-32 -61q-4 -22 14 -24q31 -4 110 54q75 55 147 140q98 112 183 178q58 44 81 41q13 -2 10.5 -15t-16.5 -30q-23 -25 -75 -63q-68 -51 -91 -70 q-20 -24 -32 -39q-108 -138 -108 -178q0 -17 20 -17q22 0 64 31q26 18 49 40q17 15 20 12q2 -3 -10 -15q-21 -20 -53 -45q-52 -40 -88 -40q-47 0 -47 44q0 35 44 96zM574 277q11 9 33 24.5t26 18.5q40 28 66 54q10 11 15.5 19.5t6 13t-2.5 6.5q-14 5 -54 -38 q-53 -55 -90 -98zM701 553q10 4 11 1q2 -2 -6 -9q-82 -64 -176 -64q-35 0 -54 13.5t-19 34.5q0 18 14 30t32 12q12 0 19.5 -6.5t6.5 -16.5q-1 -14 -17 -20.5t-40 -2.5q11 -18 70 -18q85 0 159 46z" glyph-name="uni0419" unicode="" horiz-adv-x="553"/>
<glyph d="M457 -10q-23 0 -35.5 10.5t-12.5 28.5q0 29 35 78q4 5 13 17.5t14.5 20t10 17t4.5 15.5q0 11 -7 20q-12 -6 -30 -6q-11 0 -20 3.5t-8 10.5q1 15 32 13q17 -2 30 -10q18 7 34.5 19.5t26 23t27.5 33t29 34.5q89 100 174 100q26 0 43 -13.5t17 -37.5q0 -34 -39.5 -57.5 t-84.5 -19.5q-21 2 -36 10q-4 3 -3 6q1 1 6 -1q15 -6 32 -7q41 -4 78.5 17t37.5 52q0 19 -14 30.5t-35 11.5q-28 0 -55.5 -18.5t-42 -35t-45.5 -56.5q-55 -71 -142 -98q20 -13 25 -36q7 -29 -22 -72q-4 -5 -11 -15.5t-10 -16t-7.5 -13t-6 -13.5t-1.5 -12q0 -17 18 -17 q23 0 72 38q29 22 46 38q17 14 19 12q3 -3 -7 -13q-26 -24 -55 -47q-54 -44 -94 -44zM79 -19q-41 0 -70.5 19.5t-29.5 59.5q0 20 15 36t37 15q36 -2 33 -36q-1 -17 -17 -31q-13 -13 -13 -25q0 -14 16 -21.5t34 -7.5q26 0 54 12.5t48.5 27t48.5 43t41 43.5t38.5 48t29.5 37 q77 98 128 132v1q-35 -23 -74 -33.5t-63 -10.5q-51 -1 -81.5 16.5t-25.5 51.5q5 30 37 51q15 10 28 10q10 0 1 -8l-2 -2q-22 -20 -26 -52q-2 -26 16 -41.5t54 -15.5q46 0 99.5 24t95.5 60q20 20 26 16q5 -5 -9 -19q-23 -23 -62 -73q-15 -19 -42 -56t-37 -49 q-35 -44 -58 -70.5t-57.5 -59t-64 -50t-68.5 -30t-80 -12.5zM448 198q12 0 24 5q-6 6 -21 8q-21 2 -21 -6q0 -7 18 -7z" glyph-name="uni041A" unicode="" horiz-adv-x="606"/>
<glyph d="M114 -17q-39 -3 -64 10.5t-25 49.5q0 23 14.5 37.5t32.5 15.5q16 1 25 -6.5t9 -20.5q0 -18 -18 -31q-22 -15 -22 -23q0 -24 51 -19q77 7 183 87q34 26 67.5 54.5t87 78t65.5 60.5q52 47 85.5 74t85 52t97.5 25q23 0 37 -11q12 -10 7 -14q-1 0 -11 7q-8 6 -22 6 q-17 0 -36 -15q-33 -27 -77 -90q-172 -239 -172 -282q0 -17 19 -17q27 0 71 31q16 11 57 47q9 8 12 5q3 -2 -6 -11q-32 -29 -58 -49q-55 -40 -93 -40q-48 0 -48 44q0 54 141 233q85 109 161 145v1q-40 -3 -95 -34q-53 -29 -134 -104q-171 -157 -231 -204q-41 -32 -96.5 -60 t-99.5 -32z" glyph-name="uni041B" unicode="" horiz-adv-x="665"/>
<glyph d="M113 -19q-88 0 -88 62q0 23 14.5 37.5t32.5 15.5q16 1 25 -6.5t9 -20.5q0 -18 -19 -31q-23 -15 -23 -23q0 -23 48 -23q104 0 279 130q32 24 70 56.5t65 57t73.5 69t70.5 66.5q5 5 15.5 14.5t15.5 13.5q20 20 36 18q19 -3 -3 -26q-4 -5 -12 -13.5t-12 -12.5 q-28 -35 -88.5 -137t-83.5 -132q98 88 188 161q82 67 155 119q66 47 105 47q17 0 28 -9q12 -10 7 -14q-1 0 -2 0.5t-3.5 2t-5.5 2.5q-8 3 -20 3q-30 0 -75 -45q-74 -74 -148 -167q-106 -132 -107 -173q0 -13 13 -13q26 0 76 41q24 19 48 41q9 8 12 5q2 -3 -9 -14 q-26 -24 -56 -48q-49 -39 -82 -40q-44 -2 -45 37q-1 42 74 138q81 105 166 177h-1q-90 -67 -201 -163q-113 -98 -191 -172l-4 -4l-3.5 -3.5t-3.5 -3t-3 -2.5t-3 -1.5t-3 -0.5t-2.5 0.5t-3.5 1.5q-10 9 3 27q23 32 102.5 155.5t109.5 160.5h-1q-177 -173 -256 -230 q-175 -131 -283 -131z" glyph-name="uni041C" unicode="" horiz-adv-x="798"/>
<glyph d="M528 383q-26 -10 -80.5 -11t-133.5 3q-93 3 -155.5 -33t-62.5 -107q0 -28 19.5 -56.5t53.5 -39.5l12 -5q-1 -2 -7.5 -2.5t-11.5 1.5q-37 11 -60.5 40t-25.5 64q-2 72 56.5 117t168.5 42q19 -1 60.5 -4t72.5 -5t62 -0.5t42 7.5q27 15 33 12q4 -3 -5 -11q-5 -4 -8 -7 q-41 -39 -72 -79q-17 -21 -40.5 -52t-29.5 -39h143q37 43 84 87q66 62 126 96q53 30 100 30q25 0 42 -10t21 -22q5 -13 -1 -15q-1 0 -1.5 0.5t-1.5 3.5t-2 5q-14 28 -56 28q-44 0 -91 -34q-37 -27 -91 -85q-39 -42 -70 -84q66 -2 80 -4q23 -3 23 -5q0 -3 -22 -3 q-68 0 -91 -1q-109 -138 -109 -177q0 -17 19 -17q27 0 71 31q16 11 57 47q9 8 12 5q2 -2 -6 -11q-32 -29 -58 -49q-55 -40 -93 -40q-48 0 -48 44q0 53 95 167l-141 -1q-45 -55 -74 -86.5t-71.5 -67.5t-87 -52t-95.5 -16q-41 0 -70.5 19t-29.5 59q0 21 15 37t37 15 q15 -1 24 -11t8 -26q-1 -17 -16 -30q-13 -12 -13 -25q0 -14 15.5 -21.5t34.5 -7.5t40 7t37.5 15.5t37.5 26.5t33.5 29.5t33.5 36t28.5 33.5t28 35.5t22.5 29.5q-4 0 -74 -2q-18 2 -19 5q1 4 29 6q19 2 74 4q39 47 90.5 96t82.5 70z" glyph-name="uni041D" unicode="" horiz-adv-x="650"/>
<glyph d="M136 52q0 -22 11 -38q5 -6 4 -7q-2 -3 -8 3q-18 18 -18 51q0 76 66 163q54 66 118.5 106.5t108.5 35.5q47 -5 40 -72q-2 -30 -23 -76.5t-52 -84.5q-53 -64 -128.5 -106.5t-141.5 -41.5q-46 1 -73.5 25.5t-27.5 70.5q0 104 103 207q60 59 143 96.5t159 33.5 q31 -2 51.5 -15.5t22.5 -39.5q3 -29 -15 -49q-11 -13 -14 -8l8 12q14 21 10 44q-2 19 -20 30.5t-43 12.5q-61 3 -138.5 -44.5t-124.5 -99.5q-44 -50 -69 -104.5t-25 -97.5q0 -62 63 -65q103 -4 228 152q81 101 88 172q5 35 -22 38q-38 4 -97 -37t-110 -105q-74 -94 -74 -162 z" glyph-name="uni041E" unicode="" horiz-adv-x="407"/>
<glyph d="M79 -18q-41 0 -70.5 19t-29.5 59q0 21 15 37t37 15q15 -1 24 -11t8 -26q-1 -17 -16 -30q-13 -12 -13 -25q1 -14 16.5 -21.5t33.5 -7.5q22 0 44.5 7.5t44.5 23t39.5 30t39.5 39t34 39t32.5 41t26.5 33.5q54 67 106.5 112.5t90.5 63.5q-112 20 -208 20q-100 0 -169 -46 t-69 -119q0 -28 19.5 -56.5t53.5 -39.5l12 -5q-1 -2 -7.5 -2.5t-11.5 1.5q-38 11 -61.5 40.5t-24.5 63.5q-2 80 70 134.5t185 54.5q86 0 215 -25q17 -3 75 -15t83 -17q59 33 121 33q28 0 45.5 -8t16.5 -23q-1 -13 -18 -21t-42 -8q-51 0 -110 9q-9 -6 -49 -49 q-41 -44 -80 -97q-85 -111 -101 -148q-8 -18 -8 -29q0 -17 19 -17q27 0 71 31q16 11 57 47q9 8 12 5q2 -2 -6 -11q-32 -29 -58 -49q-55 -40 -93 -40q-48 0 -48 44q0 53 95 167q39 46 95 100q27 24 64 50q-14 2 -61 10.5t-66 11.5q-32 -14 -74 -68q-17 -21 -44.5 -58.5 t-34.5 -46.5q-45 -55 -74 -86.5t-71.5 -67.5t-87 -52t-95.5 -16zM831 352q44 0 46 20q2 21 -53 21q-47 0 -93 -29q60 -12 100 -12z" glyph-name="uni041F" unicode="" horiz-adv-x="630"/>
<glyph d="M394 282q0 19 -12 31.5t-30 13.5q-36 1 -65 -25q-5 -5 -9.5 -10.5t-6.5 -7.5t-3 -2q-1 1 -0.5 4t4.5 9.5t10 12.5q31 31 73 29q23 -1 39 -16t16 -41q0 -58 -62.5 -110t-138.5 -49q-114 3 -111 90t106 148.5t241 61.5q96 0 158 -37q31 24 70 40q48 21 101 21q56 0 73 -27 q4 -8 0 -9l-6 6q-19 21 -66 21q-48 0 -95 -21q-38 -17 -66 -39q21 -17 33 -39.5t11 -55t-24 -65.5q-45 -66 -150 -75q-35 -2 -50 3q-74 -79 -168 -118v-1q84 -15 101 -15q50 0 81 22q12 9 13 8t1 -2.5t-2.5 -5.5t-7.5 -8q-39 -34 -96 -34q-52 0 -128 19q-57 -21 -154 -21 q-91 0 -91 33q0 20 28 30.5t75 8.5q54 -3 161 -28q38 23 72.5 58t87.5 98q114 141 182 186q-18 14 -58.5 26t-83.5 12q-126 0 -213 -57t-94 -149q-2 -32 15.5 -53t53.5 -23q70 -3 127.5 50.5t57.5 101.5zM442 154q15 -4 37 -1q72 9 120 78q26 43 24 78t-22 55 q-27 -24 -80.5 -102t-57.5 -83q-13 -17 -21 -25zM212 15q-102 20 -130 22q-86 5 -86 -16q0 -23 78 -23q92 0 138 17z" glyph-name="uni0420" unicode="" horiz-adv-x="567"/>
<glyph d="M266 466q36 0 69.5 -17t53.5 -46q26 8 53 9q54 3 89 -15t27 -60q-8 -43 -67.5 -67.5t-124.5 -24.5q-98 0 -151 40q-57 -51 -93.5 -113.5t-36.5 -110.5q0 -81 86 -81q67 0 145 52q30 21 62 50q19 17 22 14q2 -2 -8 -13q-40 -38 -72 -60q-75 -53 -151 -57 q-65 -2 -103.5 22.5t-40.5 78.5q-2 61 46 126.5t118 116.5q-25 32 -25 63q0 41 30 67t72 26zM368 255q56 0 100.5 24t52.5 60q7 33 -13.5 50t-61.5 16q-29 0 -53 -10q14 -24 17 -55q1 -8 1 -14t-1 -9t-3 -2q-1 0 -1 2t-1 7t-2 11q-6 31 -24 55q-82 -31 -156 -98 q50 -37 145 -37zM258 453q-34 0 -57.5 -22.5t-23.5 -58.5q0 -30 20 -56q86 57 176 83q-49 54 -115 54z" glyph-name="uni0421" unicode=""/>
<glyph d="M79 -18q-41 0 -70.5 19t-29.5 59q0 21 15 37t37 15q15 -1 24 -11t8 -26q-1 -17 -16 -30q-13 -12 -13 -25q0 -14 15.5 -21.5t34.5 -7.5q22 0 44.5 7.5t44.5 23t39.5 30t39.5 39t34 39t32.5 41t26.5 33.5q54 67 106.5 112.5t90.5 63.5q-112 20 -208 20q-100 0 -169 -46 t-69 -119q0 -28 19.5 -56.5t53.5 -39.5l12 -5q-1 -2 -7.5 -2.5t-11.5 1.5q-38 11 -61.5 40.5t-24.5 63.5q-2 80 70 134.5t185 54.5q86 0 215 -25q27 -5 133.5 -24t112.5 -20q72 40 133 40q28 0 45.5 -8t16.5 -23q-2 -36 -74 -36q-49 0 -108 9q-7 -5 -37 -37q-46 -50 -81 -97 q-59 -76 -83.5 -114t-24.5 -63q0 -17 19 -17q27 0 71 31q16 11 57 47q9 8 12 5q2 -2 -6 -11q-32 -29 -58 -49q-55 -40 -93 -40q-47 0 -47 42q0 54 96 169q56 66 95 100q38 32 50 38l-96 15q-18 -13 -49 -49q-39 -48 -86 -109l-136 -182q-15 -20 -41 -25q-15 -4 -19.5 -0.5 t-4.5 6.5t3 8q21 33 67 92l78 100q92 114 174 162l-105 16q-32 -14 -74 -68q-18 -22 -47.5 -60.5t-34.5 -44.5q-47 -57 -74 -87t-69.5 -66.5t-86.5 -52.5t-95 -16zM917 340q58 0 60 27q2 21 -53 21q-48 0 -105 -36q60 -12 98 -12z" glyph-name="uni0422" unicode="" horiz-adv-x="730"/>
<glyph d="M364 -12q-49 0 -150 14q-42 -9 -97 -11q-14 -1 -31 -0.5t-32 2t-25 5.5t-9 10q2 25 83 25q43 0 139 -13q48 9 115 68q64 58 110 124q-134 -119 -212 -119q-47 0 -47 39q0 22 19 51t71 87q65 72 73 101q6 21 -7.5 30.5t-35.5 9.5q-76 0 -162 -77q-62 -55 -62 -97 q0 -15 9.5 -24.5t26.5 -9.5q22 0 36 10q2 1 4.5 3t3.5 3.5t2.5 2.5t2.5 1h2q2 -1 -2 -6.5t-10 -9.5q-19 -13 -41 -13q-48 0 -50 45q-2 60 59 113q77 68 181 68q37 0 59 -14.5t22 -42.5q0 -40 -59 -105q-53 -59 -71.5 -85t-18.5 -43q0 -19 18 -19q40 0 109 50q46 34 98 83 q67 85 127 138q49 43 75 41q14 -1 14.5 -16t-11.5 -30q-20 -26 -66 -63q-67 -56 -81 -69q-5 -6 -18 -27.5t-29 -43.5t-32 -40q-86 -94 -200 -117v-1q82 -10 114 -9q90 2 160 49q19 12 43 34q10 8 13 6q3 -3 -8 -13q-26 -23 -45 -37q-83 -58 -177 -58zM566 278l51 42 q41 33 58 54q27 34 13 39t-48 -38q-18 -21 -74 -97z" glyph-name="uni0423" unicode="" horiz-adv-x="584"/>
<glyph d="M14 -176q-42 0 -63.5 21t-18.5 57q0 4 1.5 8t3 6t2.5 1q1 0 1 -2t-0.5 -5t0.5 -8q2 -24 22.5 -41.5t57.5 -17.5q48 0 80 18t74 63q63 69 113 133l-1 2q-86 -77 -167 -80q-95 -3 -95 70q0 51 46.5 103t107 82.5t105.5 30.5q26 0 40 -13.5t14 -35.5q0 -36 -24.5 -68.5 t-60.5 -54.5q-10 -6 -13 -2q-1 2 5 6q3 2 5 3q76 52 76 117q0 36 -39 36q-61 0 -140.5 -75t-79.5 -135q0 -27 13 -40t43 -12q69 1 146 71q32 29 96 102t94 101q57 54 105 75q-11 2 -56 13t-79.5 16.5t-65.5 5.5q-53 0 -84.5 -24.5t-24.5 -71.5q2 -11 1 -11q-1 -1 -3 0.5 t-3.5 5t-2.5 8.5q-11 55 27.5 86t106.5 32q32 0 69 -6.5t85.5 -18.5t63.5 -15q44 15 91 15q33 0 51.5 -8t17.5 -22q-2 -21 -53 -21q-41 0 -123 14q-22 -14 -72 -72l-85 -100l1 -2q113 93 180 93q46 0 48 -39q1 -52 -52 -120q-38 -49 -90.5 -80.5t-101.5 -31.5q-63 0 -63 40 q0 18 13.5 30.5t32.5 12.5q23 0 23 -19q0 -15 -19 -23q-14 -5 -15 -14q-1 -10 7.5 -15t20.5 -5q72 0 143 107q50 76 50 115q0 23 -23 23q-27 0 -73.5 -28t-78.5 -58q-38 -36 -79 -84q-5 -6 -22.5 -26t-22 -25t-17.5 -19.5t-18.5 -20.5t-16 -16.5t-19.5 -19t-20 -17.5 q-114 -100 -198 -100zM718 337q27 0 28 10q1 8 -16.5 13.5t-41.5 5.5q-38 0 -75 -10q85 -19 105 -19z" glyph-name="uni0424" unicode="" horiz-adv-x="643"/>
<glyph d="M475 314q117 102 202 102q22 0 34.5 -12.5t8.5 -31.5q-7 -32 -45.5 -55t-68.5 -27q-14 -2 -15 1q0 2 15 6q29 8 53.5 28.5t29.5 46.5q5 31 -23 33q-49 1 -115 -54.5t-131 -138.5q-83 -107 -96 -164q-8 -41 24 -41q28 0 80 36q19 13 56 46q14 13 17 10t-11 -16 q-35 -32 -57 -48q-56 -43 -100 -44q-35 -1 -49 14t-11 44q2 21 18 46v1q-120 -110 -231 -110q-92 0 -97 62q-2 26 15 47t46 21q15 0 24.5 -8t8.5 -21q-1 -16 -20 -31q-21 -17 -22 -31q-1 -16 13 -23t35 -7q132 0 286 196q37 47 68.5 99t37.5 76q10 45 -39 45q-39 0 -86 -23 t-88 -64q-81 -79 -80 -130q0 -41 36 -41q20 0 36 10q3 2 6 5t5 4t3 1q3 -1 -1 -6.5t-10 -9.5q-19 -13 -40 -13q-22 0 -36 13.5t-15 35.5q-2 36 18.5 76.5t58.5 72.5q44 38 98 58t95 20q36 0 56.5 -14.5t19.5 -42.5q-2 -27 -17 -49z" glyph-name="uni0425" unicode="" horiz-adv-x="488"/>
<glyph d="M247 -193q-50 2 -72 32q-9 12 -2 15q2 1 10 -9q22 -25 58 -25t70.5 18.5t51 34.5t51.5 54q15 16 101 120q-24 -18 -35.5 -26.5t-32 -17.5t-37.5 -9q-47 0 -47 44q0 35 44 96q-51 -51 -118.5 -97t-111.5 -46q-50 0 -44 46q4 29 33 68.5t94 112.5q99 113 111 153 q6 21 -7.5 30.5t-35.5 9.5q-39 0 -86 -23t-88 -64q-80 -78 -80 -130q0 -41 36 -41q20 0 36 10q5 3 10 7q3 4 5 3t-2 -6.5t-10 -9.5q-19 -13 -41 -13q-45 2 -50 49q-3 33 18 73.5t59 75.5q42 39 96.5 58.5t96.5 19.5q37 0 59.5 -14.5t21.5 -42.5q-1 -48 -97 -157 q-66 -73 -95 -111t-32 -61q-4 -22 14 -24q31 -4 110 54q75 55 147 140q98 112 183 178q58 44 81 41q13 -2 10.5 -15t-16.5 -30q-23 -25 -75 -63q-68 -51 -91 -70l-32 -39q-108 -130 -108 -178q0 -17 20 -17q22 0 64 31q34 25 53 44q22 32 32 42q8 8 14 8t6 -5q0 -4 -11 -15 q-19 -19 -35 -40q-12 -17 -45 -73.5t-43 -70.5q-43 -60 -100 -94t-116 -31zM574 277q11 9 33 24.5t26 18.5q36 24 66 54q10 11 15.5 19.5t6 13t-2.5 6.5q-14 5 -54 -38q-53 -55 -90 -98z" glyph-name="uni0426" unicode="" horiz-adv-x="594"/>
<glyph d="M404 -23q-48 0 -48 44q0 24 20.5 61.5t37.5 59.5t52 65l-1 1q-109 -103 -184 -103q-52 0 -52 46q0 38 69 119q3 3 14.5 17t15.5 18.5t13.5 16t13 18t9 15.5t7.5 16t2 13q0 27 -45 27q-39 0 -86 -23t-88 -64q-80 -78 -80 -130q0 -41 36 -41q22 0 36 10q2 1 4.5 3t3.5 3.5 t2.5 2.5t2.5 1h2q2 -1 -2 -6.5t-10 -9.5q-19 -13 -41 -13q-21 0 -35 13.5t-15 35.5q-2 34 19 75t58 74q42 38 96.5 58t96.5 20q37 0 59 -14.5t22 -42.5q0 -36 -59 -105q-70 -81 -70 -111q0 -25 25 -25q34 0 89 39q61 44 106 99q68 82 113 123q48 42 74 40q14 -1 14.5 -15.5 t-11.5 -29.5q-22 -28 -66 -63q-40 -32 -73 -64l-45 -63q-82 -114 -97 -150q-7 -17 -7 -27q0 -17 19 -17q27 0 71 31q28 20 74 64q10 8 12 6q3 -3 -6 -12q-47 -45 -75 -66q-55 -40 -93 -40zM566 278l51 42q41 33 58 54q27 34 13 39t-48 -38q-18 -21 -74 -97z" glyph-name="uni0427" unicode="" horiz-adv-x="570"/>
<glyph d="M642 -6q-48 0 -48 44q0 39 45 98q-59 -57 -124 -101t-109 -44q-48 0 -45 45q3 38 46 98q-51 -51 -118.5 -97t-111.5 -46q-50 0 -44 46q4 29 33 68.5t94 112.5q99 113 111 153q6 21 -7.5 30.5t-35.5 9.5q-39 0 -86 -23t-88 -64q-80 -78 -80 -130q0 -41 36 -41q20 0 36 10 q5 3 10 7q3 4 5 3t-2 -6.5t-10 -9.5q-19 -13 -41 -13q-45 2 -50 49q-3 33 18 73.5t59 75.5q42 39 96.5 58.5t96.5 19.5q37 0 59.5 -14.5t21.5 -42.5q-1 -48 -97 -157q-66 -73 -95 -111t-32 -61q-4 -22 14 -24q31 -4 110 54q75 55 147 140q3 3 16.5 18.5t21.5 25t25 27.5 t32 32.5t36 32.5t42 35q65 51 93 48q15 -2 12.5 -18t-18.5 -34q-21 -22 -84 -71q-86 -65 -106 -82l-9 -11q-95 -116 -103 -173q-3 -22 14 -24q31 -4 110 54q75 55 147 140q98 112 183 178q58 44 81 41q13 -2 10.5 -15t-16.5 -30q-23 -25 -75 -63q-55 -41 -85 -66 q-22 -26 -50 -63q-34 -44 -47.5 -63t-29.5 -48.5t-16 -46.5t19 -17q27 0 71 31q16 11 57 47q9 8 12 5q3 -2 -6 -11q-32 -29 -58 -49q-55 -40 -93 -40zM547 245q13 11 79 60q57 43 76 64q11 12 16.5 22t5.5 15.5t-4 7.5q-15 6 -63 -47q-44 -44 -110 -122zM803 277 q11 9 33 24.5t26 18.5q36 24 66 54q10 11 15.5 19.5t6 13t-2.5 6.5q-14 5 -54 -38q-53 -55 -90 -98z" glyph-name="uni0428" unicode="" horiz-adv-x="791"/>
<glyph d="M476 -193q-50 2 -72 32q-9 12 -2 15q2 1 10 -9q22 -25 58 -25t70.5 18.5t51 34.5t51.5 54q15 16 101 120q-24 -18 -35.5 -26.5t-32 -17.5t-37.5 -9q-47 0 -47 44q0 35 44 96q-51 -51 -118.5 -97t-111.5 -46q-48 0 -45 45q3 38 46 98q-51 -51 -118.5 -97t-111.5 -46 q-50 0 -44 46q4 29 33 68.5t94 112.5q99 113 111 153q6 21 -7.5 30.5t-35.5 9.5q-39 0 -86 -23t-88 -64q-80 -78 -80 -130q0 -41 36 -41q20 0 36 10q5 3 10 7q3 4 5 3t-2 -6.5t-10 -9.5q-19 -13 -41 -13q-45 2 -50 49q-3 33 18 73.5t59 75.5q42 39 96.5 58.5t96.5 19.5 q37 0 59.5 -14.5t21.5 -42.5q-1 -48 -97 -157q-66 -73 -95 -111t-32 -61q-4 -22 14 -24q31 -4 110 54q75 55 147 140q98 112 183 178q58 44 81 41q13 -2 10.5 -15t-16.5 -30q-23 -25 -75 -63q-68 -51 -91 -70l-32 -39q-96 -127 -102 -172q-3 -22 14 -24q31 -4 110 54 q75 55 147 140q98 112 183 178q58 44 81 41q13 -2 10.5 -15t-16.5 -30q-23 -25 -75 -63q-68 -51 -91 -70l-32 -39q-28 -37 -39.5 -52.5t-32 -45t-28.5 -48.5t-8 -32q0 -17 20 -17q22 0 64 31q34 25 53 44q22 32 32 42q8 8 14 8t6 -5q0 -4 -11 -15q-19 -19 -35 -40 q-12 -17 -45 -73.5t-43 -70.5q-43 -60 -100 -94t-116 -31zM574 277q11 9 33 24.5t26 18.5q36 24 66 54q10 11 15.5 19.5t6 13t-2.5 6.5q-14 5 -54 -38q-53 -55 -90 -98zM803 277q11 9 33 24.5t26 18.5q36 24 66 54q10 11 15.5 19.5t6 13t-2.5 6.5q-14 5 -54 -38 q-53 -55 -90 -98z" glyph-name="uni0429" unicode="" horiz-adv-x="823"/>
<glyph d="M278 -12q-84 0 -155 16q-37 -8 -58 -10q-51 -4 -51 10q0 9 14 16.5t39 7.5q37 0 60 -10q19 12 47.5 47t67 88.5t60.5 79.5q20 24 61.5 65.5t71.5 60.5q-31 2 -110.5 13.5t-106.5 12.5q-69 3 -114 -20.5t-51 -70.5q-4 -33 18 -53.5t57 -20.5q38 0 60.5 17t24.5 46 q2 17 -7 29l-4 6q5 2 13 -4q18 -12 18 -33q1 -32 -29.5 -51t-75.5 -19q-41 0 -65.5 23.5t-20.5 62.5q5 54 57 84t131 28q49 -1 121.5 -20t91.5 -21q23 20 31 26q31 22 47 16q6 -2 5 -9t-8 -14q-15 -13 -58 -27q-16 -12 -33 -34t-45 -64t-45 -65q-112 -153 -197 -184 q65 -17 138 -17q79 0 132.5 45t56.5 111q1 32 -15 46t-32 15q-25 -5 -41 -5q-10 0 -17 3t-6 7q2 11 27 11q23 0 51 -7q88 -22 85 -88q-3 -63 -75 -104.5t-166 -41.5z" glyph-name="uni042A" unicode="" horiz-adv-x="562"/>
<glyph d="M208 -12q-84 0 -155 16q-37 -8 -58 -10q-51 -4 -51 10q0 9 14 16.5t39 7.5q37 0 60 -10q19 12 42.5 40.5t58 77.5t54.5 74q104 131 183 181q79 52 164 52q57 0 73 -27q4 -8 0 -9l-6 6q-19 21 -66 21q-82 0 -156 -58q-16 -13 -30 -27t-29 -33.5t-23.5 -31.5t-25.5 -37.5 t-24 -35.5q-59 -83 -103 -129.5t-93 -69.5q53 -14 126 -14q84 0 138 44t57 110q1 32 -16.5 45.5t-32.5 12.5q-30 -5 -42 -4q-11 1 -16 4t-4 8q2 11 27 11q16 0 52 -8q93 10 180 40q108 39 186 87q4 4 26 27t33 33q29 27 45 27q11 0 11 -9q0 -11 -16 -27q-32 -30 -76 -56 q-88 -90 -141 -157q-93 -118 -93 -158q0 -17 19 -17q27 0 71 31q16 11 57 47q9 8 12 5q3 -2 -6 -11q-32 -29 -58 -49q-55 -40 -93 -40q-48 0 -48 44q0 47 91 152q57 66 125 120l-2 3q-59 -33 -142 -62q-80 -29 -162 -37q68 -23 65 -80q-3 -63 -75 -104.5t-166 -41.5z" glyph-name="uni042B" unicode="" horiz-adv-x="671"/>
<glyph d="M208 -12q-84 0 -155 16q-37 -8 -58 -10q-51 -4 -51 10q0 9 14 16.5t39 7.5q37 0 60 -10q19 12 42.5 40.5t58 77.5t54.5 74q104 131 183 181q79 52 164 52q57 0 73 -27q4 -8 0 -9l-6 6q-19 21 -66 21q-82 0 -156 -58q-16 -13 -30 -27t-29 -33.5t-23.5 -31.5t-25.5 -37.5 t-24 -35.5q-59 -83 -103 -129.5t-93 -69.5q61 -16 132 -16q79 0 132.5 45t56.5 111q1 32 -15 46t-32 15q-25 -5 -41 -5q-10 0 -17 3t-6 7q2 11 27 11q23 0 51 -7q88 -22 85 -88q-3 -63 -75 -104.5t-166 -41.5z" glyph-name="uni042C" unicode="" horiz-adv-x="492"/>
<glyph d="M90 -14q-92 0 -97 62q-2 26 15 47t46 21q15 0 24.5 -8t8.5 -21q-1 -16 -20 -31q-21 -17 -22 -31q-1 -16 13 -23t35 -7q58 0 118.5 40t130.5 109q-20 4 -44 4q-42 0 -91 -20q-9 -4 -10 -2t7 8q47 33 98 33q28 0 56 -5q89 98 99 174q5 38 -11.5 57t-48.5 19q-73 0 -136 -49 q-29 -22 -49.5 -54t-23.5 -60q-7 -55 39 -59q44 -4 96 52q33 36 37 75q2 15 -1 25q-2 8 -1 8q2 1 6 -4q9 -14 8 -34q-2 -41 -38 -80q-19 -21 -50 -36.5t-59 -13.5q-62 5 -56 69q7 61 83 118q68 52 147 52q51 0 84 -24t27 -81q-9 -68 -100 -165q18 -3 31 -3q43 0 69 16 q12 8 14 6q2 -3 -11 -14q-37 -26 -86 -26q-18 0 -35 3q-61 -60 -145.5 -103.5t-156.5 -43.5z" glyph-name="uni042D" unicode="" horiz-adv-x="460"/>
<glyph d="M79 -18q-41 0 -70.5 19t-29.5 59q0 21 15 37t37 15q15 -1 24 -11t8 -26q-1 -17 -16 -30q-13 -12 -13 -25q0 -14 15.5 -21.5t34.5 -7.5t40 7t37.5 15.5t37.5 26.5t33.5 29.5t33.5 36t28.5 33.5t28 35.5t22.5 29.5q-25 -2 -57 -12.5t-49 -27.5q-9 -9 -11 -6t5 12 q19 21 54 33t68 14q39 47 90.5 96t82.5 70q-26 -10 -80.5 -11t-133.5 3q-93 3 -155.5 -33t-62.5 -107q0 -28 19.5 -56.5t53.5 -39.5l12 -5q-1 -2 -7.5 -2.5t-11.5 1.5q-37 11 -60.5 40t-25.5 64q-2 72 56.5 117t168.5 42q19 -1 60.5 -4t72.5 -5t62 -0.5t42 7.5q27 15 33 12 q4 -3 -5 -11q-5 -4 -8 -7q-41 -39 -72 -79q-17 -21 -40.5 -52t-29.5 -39q9 0 26 -0.5t26.5 -0.5t22.5 1t23.5 3.5t20.5 7.5q26 36 49 59q60 59 143 96.5t159 33.5q31 -2 51.5 -15.5t22.5 -39.5q3 -29 -15 -49q-11 -13 -14 -8l8 12q14 21 10 44q-2 19 -20 30.5t-43 12.5 q-61 3 -138.5 -44.5t-124.5 -99.5q-49 -56 -74 -116t-19 -101q8 -48 62 -50q103 -4 228 152q81 101 88 172q5 35 -22 38q-38 4 -97 -37t-110 -105q-74 -94 -74 -162q0 -22 11 -38q4 -6 4 -7q-2 -3 -8 3q-14 14 -17 43q-6 82 65 171q52 66 117.5 106.5t109.5 35.5 q47 -5 40 -72q-2 -30 -23 -76.5t-52 -84.5q-53 -65 -128.5 -107.5t-141.5 -40.5q-90 2 -100 81q-8 68 42 147q-15 -5 -30.5 -7.5t-25 -2.5t-30 0.5t-31.5 0.5q-45 -55 -74 -86.5t-71.5 -67.5t-87 -52t-95.5 -16z" glyph-name="uni042E" unicode="" horiz-adv-x="876"/>
<glyph d="M79 -11q-106 0 -106 68q0 25 15.5 42t36.5 19q17 1 27 -7.5t10 -22.5q0 -18 -23 -34q-18 -13 -18 -25q0 -28 47 -28q63 0 197 104q98 76 169 115v1q-32 -8 -56 6t-25 42q-1 61 74 109q49 31 116 31q77 0 77 -53q0 -20 -19 -47q105 105 193 121q13 2 13 -2q0 -2 -12 -6 q-61 -19 -151 -121q-37 -40 -81 -96q-109 -139 -109 -177q0 -17 19 -17q27 0 71 31q16 11 57 47q9 8 12 5q3 -2 -6 -11q-32 -29 -58 -49q-55 -40 -93 -40q-48 0 -48 44q0 55 98 171q57 66 74 83q26 43 25 61q-1 38 -46 38q-23 0 -53 -12.5t-52 -30.5q-56 -47 -56 -90 q0 -28 30 -28q32 0 67 25q24 17 29 10q2 -4 -3 -8.5t-22 -12.5q-16 -8 -32 -18.5t-26 -18t-28.5 -23.5t-24 -21t-28 -27t-25.5 -25q-127 -122 -256 -122z" glyph-name="uni042F" unicode="" horiz-adv-x="605"/>
<glyph d="M195 133q36 38 57 38q15 1 18 -3t-5 -13q-40 -46 -56 -66q-24 -30 -35 -49q-10 -18 -3 -23q6 -5 23 4q18 9 45 31q26 21 48 41q11 10 14 7t-13 -18q-28 -26 -56 -48q-50 -40 -86 -40q-27 0 -29 21q-2 17 14 36l-1 1q-63 -56 -110 -58q-19 -1 -31.5 8.5t-9.5 31.5 q3 23 28 52l-1 1l-13 -12q-7 -5 -9 -3q-3 4 14 19q10 10 30 24q22 15 46 28q65 33 100 28q14 -2 20 -13.5t1 -24.5zM170 161q-29 0 -92 -63q-59 -58 -56 -79q1 -10 13 -10q14 0 38.5 14t45.5 33q25 22 46.5 48.5t22.5 38.5q1 18 -18 18z" glyph-name="uni0430" unicode="" horiz-adv-x="287"/>
<glyph d="M20 -7q-46 0 -41 41q3 23 28 52l-1 1l-13 -12q-7 -5 -9 -3q-3 4 16 21q8 8 28 22q25 18 46 28q64 33 100 28q14 -2 19.5 -12t2.5 -22h1q69 100 151 190q112 124 187 124q19 0 63 -3.5t51 -3.5q28 0 44 12q13 9 32 28q4 4 6 3q3 -1 -2 -8q-23 -32 -37 -46q-22 -20 -52 -20 q-10 0 -67 6t-75 6q-30 0 -51.5 -16.5t-71.5 -73.5q-40 -46 -145 -180q-48 -62 -101 -109q-61 -53 -109 -53zM35 5q32 0 84 48q25 23 46.5 51t22.5 39q1 18 -18 18q-29 0 -92 -63q-60 -58 -56 -83q1 -10 13 -10z" glyph-name="uni0431" unicode="" horiz-adv-x="242"/>
<glyph d="M46 -9q-48 0 -48 40q0 31 25 63q4 5 19 23l-1 1l-36 -32q-8 -7 -11 -4q-2 2 5 10q5 4 17.5 15.5t24.5 22t22 18.5q80 103 116 143q37 44 94 103t86 80q47 36 76 36q30 0 26 -29q-4 -26 -44.5 -67t-116.5 -106q-17 -15 -79.5 -68t-96.5 -82q-27 -34 -52 -69 q-27 -36 -31 -65q-3 -20 14 -22q22 -2 56 24q33 24 56 57q-4 16 1 39q4 17 15.5 34t23.5 17q9 0 12 -11.5t-3 -29.5q-11 -34 -31 -56q9 -10 24 -10q13 0 24 7q5 3 21 17q8 8 11 5t-5 -11q-13 -13 -24 -19q-14 -8 -28 -8q-18 0 -29 11q-27 -27 -62 -51q-39 -26 -71 -26z M140 184q124 108 152 134q73 65 109.5 104.5t38.5 63.5q1 15 -14 15q-19 0 -52 -33q-15 -15 -101 -115q-64 -77 -133 -169z" glyph-name="uni0432" unicode="" horiz-adv-x="257"/>
<glyph d="M57 -6q-30 0 -30 25q0 15 15 38q10 16 33 42t28 35q5 11 0 15q-6 5 -20 -2q-15 -7 -39 -27q-27 -22 -42 -37q-7 -7 -10 -4t4 10q25 25 53 47q45 36 75 36t30 -26q0 -14 -34 -57q-22 -27 -35 -49q-9 -16 -3 -22q7 -6 24 3q22 11 48 31q18 14 48 41q10 9 13 6t-8 -13 q-26 -26 -60 -52q-53 -40 -90 -40z" glyph-name="uni0433" unicode="" horiz-adv-x="202"/>
<glyph d="M74 143q64 34 100 28q27 -4 23 -34h1q30 34 48 34q28 0 13 -16q-12 -14 -52 -66q-9 -11 -38.5 -51.5t-43.5 -59.5q60 36 96 63q39 30 62 51q9 8 12 5t-10 -15q-19 -18 -59 -49q-49 -37 -110 -71q-77 -113 -137 -179q-103 -114 -206 -168q-39 -21 -69 -21q-53 0 -47 42 q9 69 202 195q52 34 115.5 71.5t87.5 52.5q58 81 67 94l-1 1q-63 -54 -108 -56q-19 -1 -31 8t-10 32q3 23 28 52l-1 1l-13 -12q-7 -5 -9 -3q-3 4 16 21q8 8 28 22q25 18 46 28zM53 -62q-24 -16 -86.5 -53.5t-113.5 -71.5q-68 -46 -113.5 -93t-48.5 -84q-1 -22 15 -27 q24 -8 63 16q80 48 183 180q67 86 101 133zM170 161q-29 0 -92 -63q-59 -58 -56 -79q1 -10 13 -10q14 0 38.5 14t45.5 33q25 22 46.5 48.5t22.5 38.5q1 18 -18 18z" glyph-name="uni0434" unicode="" horiz-adv-x="284"/>
<glyph d="M59 6q37 0 91 37q31 21 61 48q8 7 11 4q2 -3 -8 -13q-31 -29 -63 -50q-62 -41 -113 -41q-27 0 -40.5 10t-12.5 30q1 28 30 62l-1 1l-20 -18q-7 -6 -10 -3q-2 3 6 11q15 14 37 30q21 15 49 30q54 28 86 28q16 0 23.5 -8t6.5 -19q-2 -30 -64 -61q-43 -21 -86 -32 q-6 -12 -6 -23q0 -23 23 -23zM48 63q37 9 68 30q39 27 41 52q2 14 -12 14q-13 0 -44 -29q-29 -27 -53 -67z" glyph-name="uni0435" unicode="" horiz-adv-x="213"/>
<glyph d="M30 -3q-34 6 -27 38q3 14 13.5 24t20.5 10q25 0 8 -29q-18 -31 -3 -34q17 -3 62 43q51 51 56 89q3 23 -23 23q-29 0 -82 -36q-24 -16 -60 -48q-8 -7 -11 -4q-3 4 8 13q34 31 59 48q63 43 106 43q28 0 40.5 -11.5t10.5 -32.5q-1 -25 -30 -59q26 18 66 46t58 40 q16 10 42 10q19 0 7 -14q-72 -75 -90 -112l1 -1q31 25 103 71q43 27 48 30q60 32 92 27q34 -6 27 -38q-3 -14 -13.5 -24t-20.5 -10q-25 0 -8 29q18 31 3 34q-17 3 -62 -43q-51 -51 -56 -89q-3 -23 23 -23q29 0 82 36q24 16 60 48q8 7 11 4q2 -3 -8 -13q-34 -31 -59 -48 q-63 -43 -106 -43q-57 0 -54 42q3 29 29 60l-1 1q-61 -39 -128 -91q-5 -8 -35 -8q-20 0 -8 16q18 21 51 61.5t49 59.5l-1 1l-136 -93q-75 -49 -114 -43z" glyph-name="uni0436" unicode="" horiz-adv-x="542"/>
<glyph d="M-281 -405q-42 0 -42 35q0 61 155 179q80 60 195 129l76 47q2 20 -5.5 32t-21.5 12q-43 0 -82 -37q-8 -8 -12 -5q-6 6 3 17q9 12 42 30q17 9 49 21.5t49 23.5q37 23 37 52t-29 29q-34 0 -76 -31q-17 -13 -53 -44q-8 -7 -11 -4t6 11q36 32 55 47q50 41 98 41 q27 0 42.5 -11.5t15.5 -31.5q0 -42 -62 -69q-15 -7 -49.5 -16t-50.5 -18q16 4 31 4q43 0 55 -34q26 14 59 39q34 25 61 50q11 9 14 6t-13 -17q-22 -20 -56 -46q-31 -22 -63 -41q2 -6 2 -15q0 -48 -52 -116.5t-110 -119.5q-68 -60 -141.5 -104.5t-115.5 -44.5zM-277 -394 q39 0 102 45.5t124 111.5q47 49 94.5 112.5t57.5 98.5q-11 -8 -35 -22.5t-34 -21.5q-120 -75 -194 -131q-130 -98 -137 -166q-2 -27 22 -27z" glyph-name="uni0437" unicode="" horiz-adv-x="254"/>
<glyph d="M24 -6q-16 0 -25 7.5t-8 20.5q1 17 19 41q33 44 71 80q-12 -5 -43 -30q-24 -19 -36 -30q-12 -10 -15 -8q-3 3 11 16q36 32 71 56q32 22 58 22q16 0 18 -3t-7 -13q-17 -19 -52 -62q-31 -41 -37 -54t-1 -18q6 -6 23 2q27 14 75 52q27 21 61 49t47 38q15 11 29 11 q15 0 18.5 -2.5t-3.5 -13.5q-5 -5 -23 -27t-30 -37q-26 -32 -37 -51q-10 -17 -3 -22t23 3q21 10 45 30q24 19 48 41q11 11 14 7q3 -2 -8 -13q-18 -18 -61 -52q-51 -40 -86 -40q-31 0 -31 24q0 18 16 41q11 16 47 52l-1 1l-80 -63q-73 -55 -107 -55z" glyph-name="uni0438" unicode="" horiz-adv-x="322"/>
<glyph d="M24 -6q-16 0 -25 7.5t-8 20.5q1 17 19 41q33 44 71 80q-12 -5 -43 -30q-24 -19 -36 -30q-12 -10 -15 -8q-3 3 11 16q36 32 71 56q32 22 58 22q16 0 18 -3t-7 -13q-17 -19 -52 -62q-31 -41 -37 -54t-1 -18q6 -6 23 2q27 14 75 52q27 21 61 49t47 38q15 11 29 11 q15 0 18.5 -2.5t-3.5 -13.5q-5 -5 -23 -27t-30 -37q-26 -32 -37 -51q-10 -17 -3 -22t23 3q21 10 45 30q24 19 48 41q11 11 14 7q3 -2 -8 -13q-18 -18 -61 -52q-51 -40 -86 -40q-31 0 -31 24q0 18 16 41q11 16 47 52l-1 1l-80 -63q-73 -55 -107 -55zM361 321q7 4 9 2 q2 -4 -3 -9q-71 -66 -143 -66q-58 0 -58 44q0 16 12 28.5t26 12.5q10 0 16 -7t5 -16q-2 -11 -12.5 -17.5t-27.5 -4.5q6 -15 50 -15q58 0 126 48z" glyph-name="uni0439" unicode="" horiz-adv-x="322"/>
<glyph d="M186 -6q-37 0 -36 38q1 15 7.5 32.5t6.5 21.5q-43 -1 -41 11q1 9 20 7q20 -2 29 -8q21 0 52 33q1 1 6 6.5t7 7t6.5 6t7 6.5t6.5 5.5t7.5 5t7.5 3.5t8.5 2.5t8.5 0.5q17 0 24.5 -10.5t4.5 -24.5q-3 -13 -12.5 -22t-18.5 -9q-11 0 -14.5 8.5t3.5 19.5q5 9 7 14.5t1.5 8 t-4.5 3.5t-8.5 -1t-10 -6.5t-9.5 -8.5t-11 -11.5t-11 -11.5q-29 -29 -48 -32q21 -13 18 -45q-3 -28 9 -30q9 -2 34 12q20 11 42 29q23 19 44 38q11 9 14 7t-10 -15q-37 -34 -57 -49q-55 -42 -90 -42zM20 -4q-12 0 -15 3t2 13q18 33 44 67l40 52q10 13 7 17q-4 5 -15 -1 q-17 -8 -39 -27l-43 -38q-14 -12 -17 -9q-2 3 15 19q40 37 52 46q42 33 68 33q25 0 25 -22q0 -14 -21 -43q-23 -30 -73 -98q-9 -12 -30 -12z" glyph-name="uni043A" unicode="" horiz-adv-x="329"/>
<glyph d="M5 -7q-17 0 -27.5 9t-9.5 27q1 14 11 25.5t24 11.5q21 0 21 -21q0 -11 -12 -21q-2 -1 -5 -3.5t-5 -4t-3.5 -3.5t-1.5 -4q0 -6 9 -6q35 0 128 83q49 45 77 63q30 20 61 20q13 0 14.5 -3t-6.5 -13q-16 -18 -53 -64q-22 -27 -35 -49q-9 -16 -3 -22q7 -6 24 3q19 10 44 30 q24 20 46 40q13 12 16 9q3 -2 -11 -16q-22 -22 -57 -50q-51 -41 -87 -41q-30 0 -30 26q0 15 15 38q35 50 82 93q-12 -3 -36.5 -23t-53 -46t-30.5 -28q-71 -60 -106 -60z" glyph-name="uni043B" unicode="" horiz-adv-x="305"/>
<glyph d="M5 -7q-17 0 -27.5 9t-9.5 27q1 14 11 25.5t24 11.5q21 0 21 -21q0 -11 -12 -21q-2 -1 -5 -3.5t-5 -4t-3.5 -3.5t-1.5 -4q0 -6 9 -6q35 0 128 83q49 45 77 63q30 20 61 20q13 0 14.5 -3t-6.5 -13q-16 -18 -53 -64q-22 -27 -35 -49q-9 -16 -3 -22t24 3q15 8 79 65 q49 45 77 63q30 20 61 20q13 0 14.5 -3t-6.5 -13q-16 -18 -53 -64q-22 -27 -35 -49q-10 -17 -3 -22t23 3q21 10 45 30q24 19 48 41q11 11 14 7q3 -2 -8 -13q-18 -18 -61 -52q-51 -40 -86 -40q-31 0 -31 24q0 16 15 39q22 33 76 86q-9 -2 -27 -15t-32.5 -26t-33 -30.5 t-20.5 -18.5q-68 -60 -104 -60q-31 0 -31 26q0 15 15 38q25 36 75 86q-12 -3 -35 -21t-49.5 -42.5t-28.5 -26.5q-71 -60 -106 -60z" glyph-name="uni043C" unicode="" horiz-adv-x="464"/>
<glyph d="M184 -6q-28 0 -28 26q0 16 15 38q9 15 28 38q-18 -12 -36 -12q-6 0 -16 3t-15 3q-14 0 -35 -18l-51 -66q-6 -8 -28 -10q-13 -1 -16 2.5t3 13.5q8 10 22.5 30t21.5 30q6 9 20 28t22 31q9 14 7 17q-4 5 -15 -1q-17 -8 -39 -27q-23 -20 -43 -38q-14 -12 -17 -9q-2 3 15 19 q40 37 52 46q42 33 68 33q25 0 25 -22q0 -14 -21 -43l-11 -15q19 14 35 14q6 0 15.5 -3t14.5 -3q17 0 36 13q25 27 33 34q26 23 44 23q16 0 18 -3t-7 -13q-25 -28 -54 -64q-22 -27 -35 -49q-9 -16 -3 -22q7 -6 24 3q19 10 44 30q24 20 46 40q13 12 16 9q3 -2 -11 -16 q-17 -17 -57 -49q-51 -41 -87 -41z" glyph-name="uni043D" unicode="" horiz-adv-x="325"/>
<glyph d="M21 100l-18 -16q-10 -9 -13 -6q-2 3 7 12q11 11 31 25q23 16 48 29q49 26 83 27q15 0 15 -4q0 -1 -11 -6q-29 -13 -72 -55q-55 -55 -58 -88q-2 -17 14 -17t42.5 17.5t50.5 43.5q2 21 18 42q13 18 32 26q3 7 3 23q0 4 -0.5 7t-1 4.5t-0.5 2.5t1 2q5 3 14 -6q15 -15 12 -35 q-4 -33 -57 -81q6 -3 19 0q15 3 34 17q14 10 32 26q14 13 17 10t-13 -18q-20 -17 -32 -26q-21 -15 -38 -18q-18 -4 -27 2q-64 -49 -114 -49q-24 0 -37 11.5t-12 32.5q2 32 32 64z" glyph-name="uni043E" unicode="" horiz-adv-x="249"/>
<glyph d="M207 -6q-15 0 -23 6.5t-7 19.5q1 20 42 70l42 49q8 10 1 14q-6 4 -26 -6q-35 -18 -78 -51q-22 -17 -56 -45.5t-56 -45.5q-12 -9 -26 -9q-12 0 -15 3t2 13q17 32 44 67l40 52q10 13 7 17q-4 5 -15 -1q-17 -8 -39 -27l-43 -38q-14 -12 -17 -9q-2 3 15 19q40 37 52 46 q42 33 68 33q25 0 25 -22q0 -14 -21 -43q-44 -59 -47 -63l1 -1q74 61 92 75q73 54 109 54q34 0 31 -27q-2 -14 -40 -61q-21 -25 -33 -44q-11 -17 -4 -22q6 -5 24 4q22 11 48 31q18 14 48 41q10 9 13 6t-8 -13q-26 -26 -60 -52q-53 -40 -90 -40z" glyph-name="uni043F" unicode="" horiz-adv-x="352"/>
<glyph d="M101 173l-100 -91q-13 -12 -16 -9t14 19l68 63l91 83q22 20 39 20q10 0 13 -1.5t-0.5 -7t-9.5 -12.5l-4 -4q-89 -104 -257 -331q-109 -148 -179 -257q-10 -16 -6 -20t13 6t78 108q17 25 115 155q73 96 121 153q48 55 88 85q53 39 86 39t30 -26q-2 -14 -41 -60 q-28 -32 -35 -43q-11 -17 -3 -23t27 3q21 10 46 30q24 19 46 39q11 11 15 8q2 -3 -8 -13q-25 -25 -61 -52q-53 -40 -90 -40q-18 0 -26 8.5t-6 20.5q3 22 44 67q38 42 43 50q6 10 0 13t-22 -5q-50 -25 -104 -83q-55 -60 -145 -181q-99 -133 -121 -165q-65 -96 -86 -113 q-15 -13 -29 -10q-17 3 -17 21q0 27 38 84q50 76 140 197q103 141 211 275z" glyph-name="uni0440" unicode="" horiz-adv-x="327"/>
<glyph d="M39 -9q-56 0 -53 42q3 29 29 60l-1 1l-17 -15q-10 -9 -13 -6q-2 3 6 11q15 14 37 30q23 17 48 30q60 32 92 27q34 -6 27 -38q-3 -14 -13.5 -24t-20.5 -10q-25 0 -8 29q18 31 3 33q-18 3 -62 -42q-51 -51 -56 -89q-3 -23 23 -23q39 0 92 36q24 16 60 48q8 7 11 4 q2 -3 -8 -13q-34 -31 -59 -48q-63 -43 -117 -43z" glyph-name="uni0441" unicode="" horiz-adv-x="214"/>
<glyph d="M51 138q42 33 68 33q25 0 25 -22q0 -14 -21 -43q-44 -59 -47 -63l1 -1q74 61 92 75q73 54 108 54q18 0 26 -8t6 -21q-3 -14 -39 -57q-26 -30 -36 -44l1 -1q57 49 94 77q73 54 109 54q34 0 31 -27q-2 -14 -40 -61q-18 -21 -33 -44q-11 -17 -4 -22q6 -5 24 4q22 11 48 31 q18 14 48 41q10 9 13 6t-8 -13q-26 -26 -60 -52q-53 -40 -90 -40q-15 0 -23 6.5t-7 19.5q0 6 2.5 12.5t5 11t8 12.5t8 11.5t10 12t8.5 10.5l42 49q8 10 1 14q-6 4 -26 -6q-35 -18 -78 -51q-22 -17 -56 -45.5t-56 -45.5q-12 -9 -26 -9q-12 0 -14.5 3t1.5 13q15 32 53 78 q8 10 23 27t19 22q9 11 -1 14q-7 2 -25 -6q-38 -19 -78 -51q-22 -17 -56 -45.5t-56 -45.5q-12 -9 -26 -9q-12 0 -15 3t2 13q12 22 44 67q9 12 40 52q10 13 7 17q-4 5 -15 -1q-17 -8 -39 -27l-43 -38q-14 -12 -17 -9q-2 3 15 19q40 37 52 46z" glyph-name="uni0442" unicode="" horiz-adv-x="512"/>
<glyph d="M-258 -391q25 -8 64 16q81 49 183 180q29 36 101 133q-23 -15 -86 -52.5t-114 -72.5q-69 -45 -114 -92.5t-48 -84.5q-1 -22 14 -27zM213 112l-1 1q-30 -26 -80 -64q-73 -55 -108 -55q-16 0 -24.5 7.5t-7.5 21.5q2 18 18 40q32 43 71 80q-11 -5 -44 -31q-25 -20 -35 -29 q-12 -10 -15 -8q-3 3 11 16q36 32 71 56q32 22 58 22q16 0 18 -3t-7 -13q-17 -19 -52 -62q-31 -41 -37 -54t-1 -18q6 -6 23 3q31 17 75 51q27 21 61 49t47 38q15 11 28 11q15 0 18.5 -2.5t-3.5 -12.5q-2 -3 -20.5 -27.5t-30.5 -39.5q-25 -33 -84 -111q42 24 96 63 q33 24 62 51q8 8 11 4q3 -2 -7 -12q-21 -21 -61 -51q-44 -34 -110 -71q-70 -102 -137 -179q-102 -112 -206 -168q-40 -21 -69 -21q-22 0 -36 9.5t-11 32.5q9 69 202 195q51 32 113 69t90 55q54 75 114 157z" glyph-name="uni0443" unicode="" horiz-adv-x="321"/>
<glyph d="M-430 -404q-96 0 -137.5 38.5t-43.5 90.5q-1 39 16 60q6 8 9 5q2 -1 -2 -8q-14 -24 -12 -56q4 -45 46.5 -74.5t135.5 -29.5q116 0 213 57q56 33 99.5 77.5t101.5 120.5q82 108 134 174l-1 1q-58 -55 -109 -58q-19 -1 -31.5 8.5t-9.5 31.5q3 23 28 52l-1 1l-13 -12 q-7 -5 -9 -3q-3 4 16 21q8 8 28 22q25 18 46 28q64 34 100 28q14 -2 20 -13.5t1 -24.5q40 54 69 87q59 69 101 100q64 48 117 48q18 0 32 -7q13 -8 9 -12l-1 1q-1 0 -3.5 1.5t-5.5 2.5q-10 4 -27 4q-52 0 -120 -74q-47 -50 -138 -168l1 -1q12 12 36 27q51 33 91 29 q16 -2 24.5 -11.5t6.5 -26.5q-6 -43 -62 -92q-25 -21 -57 -33.5t-53 -12.5t-33 9.5t-11 27.5q-12 -14 -47.5 -59t-59.5 -74q-120 -144 -261 -228q-124 -75 -233 -75zM35 9q14 0 38.5 14t45.5 33q25 22 46.5 48.5t22.5 38.5q1 18 -18 18q-33 0 -94 -61q-58 -56 -54 -81 q1 -10 13 -10zM218 9q36 4 81 56q32 38 40 61q11 30 -10 30q-32 0 -88 -43q-39 -30 -61 -67q-5 -19 4.5 -29.5t33.5 -7.5z" glyph-name="uni0444" unicode="" horiz-adv-x="408"/>
<glyph d="M96 49h-1q-38 -55 -75 -55q-19 0 -29 9t-9 28q1 16 12.5 28.5t26.5 12.5q11 0 17 -7.5t2 -17.5q-2 -5 -10 -12t-9 -13q-1 -12 10 -12q25 0 72 67q27 38 32 57q4 19 -12 22q-25 4 -75 -34q-22 -17 -46 -39q-14 -13 -17 -10t12 17q27 25 56 47q43 34 80 34q20 0 34 -13.5 t8 -40.5h1q47 54 79 54q15 0 23 -10t5 -25q-2 -11 -11.5 -19t-20.5 -8q-16 0 -15 15q1 4 5 9.5t5 9.5q2 8 -8 8q-12 0 -38 -24q-17 -16 -38 -44q-20 -26 -25 -45q-7 -24 10 -28q28 -6 81 34q18 13 54 46q6 6 10 3q2 -3 -6 -11q-35 -32 -53 -46q-57 -42 -94 -42q-24 0 -37 15 t-6 40z" glyph-name="uni0445" unicode="" horiz-adv-x="285"/>
<glyph d="M20 -197q-50 2 -72 32q-9 12 -2 15q2 1 10 -9q22 -25 58 -25t70.5 18.5t51 34.5t51.5 54q17 19 124 148q-12 -11 -45 -37q-51 -40 -86 -40q-31 0 -31 24q0 18 16 41q11 16 47 52l-1 1l-80 -63q-73 -55 -107 -55q-16 0 -25 7.5t-8 20.5q1 17 19 41q33 44 71 80 q-12 -5 -43 -30q-24 -19 -36 -30q-12 -10 -15 -8q-3 3 11 16q36 32 71 56q32 22 58 22q16 0 18 -3t-7 -13q-17 -19 -52 -62q-31 -41 -37 -54t-1 -18q6 -6 23 2q27 14 75 52q27 21 61 49t47 38q15 11 29 11q15 0 18.5 -2.5t-3.5 -13.5q-5 -5 -23 -27t-30 -37q-26 -32 -37 -51 q-10 -17 -3 -22t23 3q21 10 45 30q24 19 48 41q5 5 16.5 17.5t13.5 14.5q8 8 13 8q6 0 6 -5q0 -4 -13 -15q-14 -12 -33 -37q-12 -17 -45 -75t-43 -72q-43 -60 -100 -94t-116 -31z" glyph-name="uni0446" unicode="" horiz-adv-x="386"/>
<glyph d="M61 -6q-15 0 -23.5 7t-7.5 19q1 26 48 71q10 9 26 22.5t27 22.5t12 12q2 7 -7 8h-33q-18 0 -23 2q-13 -14 -38 -38l-40 -37q-12 -11 -15 -8t11 16l39 36q22 21 35 35q-17 11 0 32q14 17 38 17q16 0 18 -10q-10 -7 -17 -14q-19 -20 3 -22q57 -2 57 -20q0 -5 -4.5 -12 t-10 -13.5t-15.5 -17.5t-16 -18q-25 -30 -34 -47q-8 -14 -1 -19q6 -5 22 4q25 13 45 30q29 23 47 39q12 11 15 8t-12 -17q-30 -27 -57 -48q-52 -40 -89 -40z" glyph-name="uni0447" unicode="" horiz-adv-x="206"/>
<glyph d="M24 -6q-16 0 -25 7.5t-8 20.5q1 17 19 41q33 44 71 80q-12 -5 -43 -30q-24 -19 -36 -30q-12 -10 -15 -8q-3 3 11 16q36 32 71 56q32 22 58 22q16 0 18 -3t-7 -13q-17 -19 -52 -62q-31 -41 -37 -54t-1 -18q6 -6 23 2q27 14 75 52q27 21 61 49t47 38q15 11 29 11 q15 0 18.5 -2.5t-3.5 -13.5q-5 -5 -23 -27t-30 -37q-31 -41 -37 -54t-1 -18q6 -6 23 2q27 14 75 52q27 21 61 49t47 38q15 11 29 11q15 0 18.5 -2.5t-3.5 -13.5q-4 -5 -22.5 -27t-30.5 -37q-26 -32 -37 -51q-10 -17 -3 -22t23 3q21 10 45 30q24 19 48 41q11 11 14 7 q3 -2 -8 -13q-18 -18 -61 -52q-51 -40 -86 -40q-31 0 -31 24q0 18 16 41q11 16 47 52l-1 1l-80 -63q-73 -55 -107 -55q-16 0 -25 7.5t-8 20.5q1 17 19 41q13 17 43 48l-1 1l-80 -63q-73 -55 -107 -55z" glyph-name="uni0448" unicode="" horiz-adv-x="481"/>
<glyph d="M179 -197q-50 2 -72 32q-9 12 -2 15q2 1 10 -9q22 -25 58 -25t70.5 18.5t51 34.5t51.5 54q17 19 124 148q-12 -11 -45 -37q-51 -40 -86 -40q-31 0 -31 24q0 18 16 41q11 16 47 52l-1 1l-80 -63q-73 -55 -107 -55q-16 0 -25 7.5t-8 20.5q1 17 19 41q13 17 43 48l-1 1 l-80 -63q-73 -55 -107 -55q-16 0 -25 7.5t-8 20.5q1 17 19 41q33 44 71 80q-12 -5 -43 -30q-24 -19 -36 -30q-12 -10 -15 -8q-3 3 11 16q36 32 71 56q32 22 58 22q16 0 18 -3t-7 -13q-17 -19 -52 -62q-31 -41 -37 -54t-1 -18q6 -6 23 2q27 14 75 52q27 21 61 49t47 38 q15 11 29 11q15 0 18.5 -2.5t-3.5 -13.5q-5 -5 -23 -27t-30 -37q-31 -41 -37 -54t-1 -18q6 -6 23 2q27 14 75 52q27 21 61 49t47 38q15 11 29 11q15 0 18.5 -2.5t-3.5 -13.5q-4 -5 -22.5 -27t-30.5 -37q-26 -32 -37 -51q-10 -17 -3 -22t23 3q21 10 45 30q24 19 48 41 q5 5 16.5 17.5t13.5 14.5q8 8 13 8q6 0 6 -5q0 -4 -13 -15q-14 -12 -33 -37q-12 -17 -45 -75t-43 -72q-43 -60 -100 -94t-116 -31z" glyph-name="uni0449" unicode="" horiz-adv-x="545"/>
<glyph d="M73 -7q-42 0 -42 28q0 26 47 70q10 9 26 22.5t27 22.5t12 12q2 7 -7 8h-33q-18 0 -23 2q-13 -14 -38 -38l-40 -37q-12 -11 -15 -8t11 16l39 36q22 21 35 35q-17 11 0 32q14 17 38 17q16 0 18 -10q-10 -7 -17 -14q-19 -20 3 -22q57 -2 57 -20q0 -6 -8 -16t-23 -25t-23 -24 l1 -1q47 37 76 37q26 0 26 -23q0 -29 -33 -59q-47 -41 -114 -41zM79 1q33 0 85 49q35 33 35 50q0 7 -9 7q-13 0 -41 -16t-53 -39q-29 -26 -29 -41q0 -10 12 -10z" glyph-name="uni044A" unicode="" horiz-adv-x="259"/>
<glyph d="M44 -7q-46 0 -48 30q-2 17 10 34q25 39 76 86q-13 -4 -41 -26q-11 -9 -39 -34q-12 -10 -15 -8q-3 3 11 16q51 45 71 58q30 20 58 20q16 0 18 -3t-7 -13q-25 -28 -54 -64q-41 -49 -41 -71q0 -15 17 -15q34 0 75 43q23 23 26 46q-15 0 -21 1q-11 1 -16 5t-4 10q2 14 23 11 q18 -3 29 -18q19 0 44 8q24 7 70 38q30 22 57 22q16 0 18 -3t-7 -13q-25 -28 -54 -64q-22 -27 -35 -49q-9 -16 -3 -22q7 -6 24 3q19 10 44 30q24 20 46 40q13 12 16 9q2 -2 -11 -16q-22 -22 -57 -50q-51 -41 -87 -41q-30 0 -30 26q0 15 15 38q30 47 75 86q-7 -4 -22 -14 t-28 -17t-30 -12q-28 -8 -41 -8q3 -6 3 -17q0 -24 -22 -44q-43 -38 -113 -38z" glyph-name="uni044B" unicode="" horiz-adv-x="378"/>
<glyph d="M49 -7q-51 0 -51 33q0 22 20 47q22 28 64 70q-13 -4 -41 -26q-11 -9 -39 -34q-12 -10 -15 -8q-3 3 11 16q51 45 71 58q30 20 58 20q16 0 18 -3t-7 -13q-63 -71 -79 -92l1 -1q53 57 98 57q32 0 32 -31q0 -29 -30 -54q-47 -39 -111 -39zM61 2q42 0 77 44q18 22 18 42 q0 13 -14 13q-17 0 -42 -16.5t-44 -39.5q-15 -17 -15 -29q0 -14 20 -14z" glyph-name="uni044C" unicode="" horiz-adv-x="220"/>
<glyph d="M31 -9q-39 0 -39 29q0 12 8.5 22.5t21.5 10.5q17 0 15 -17q-1 -8 -7 -16t-6 -12q0 -8 12 -8q24 0 62 42q25 29 33 42q-21 -13 -33 -13q-8 0 -19 4t-17 4q-8 0 -19 -6q-5 -3 -7 -1q-3 3 7 11q17 15 32 16q10 1 23.5 -4t19.5 -5q12 2 21 8q15 24 15 40q0 19 -23 19 q-31 0 -76 -32q-25 -17 -71 -58q-8 -7 -11 -4q-3 4 8 13q38 35 67 56q58 41 103 40q27 -1 39 -12.5t11 -32.5q-2 -48 -63 -94q-56 -42 -107 -42z" glyph-name="uni044D" unicode="" horiz-adv-x="231"/>
<glyph d="M203 -9q-24 0 -37 11.5t-12 32.5q2 32 26 60q-11 -11 -25 -11q-6 0 -13.5 3.5t-12.5 3.5q-10 0 -32 -19l-51 -66q-6 -8 -28 -10q-13 -1 -16 2.5t3 13.5q8 11 23.5 33t23.5 33q6 9 19 26.5t20 26.5q10 13 7 17q-4 5 -15 -1q-17 -8 -39 -27q-13 -11 -43 -38q-14 -12 -17 -9 q-2 3 15 19q40 37 52 46q42 33 68 33q25 0 25 -22q0 -14 -21 -43l-8 -11q15 11 29 11q6 0 13 -3.5t12 -3.5q12 0 25 10q23 23 50 37q39 20 79 25q33 3 47 -8q15 -12 12 -35q-4 -33 -57 -81q6 -3 19 0q15 3 34 17q14 10 32 26q14 13 17 10t-13 -18q-20 -17 -32 -26 q-21 -15 -38 -18q-17 -4 -27 2q-64 -49 -114 -49zM212 1q31 0 92 59q0 20 18 44q13 18 32 26q3 10 3 19q-1 11 -10.5 14t-19.5 -2q-29 -14 -72 -55q-54 -53 -58 -88q-2 -17 15 -17z" glyph-name="uni044E" unicode="" horiz-adv-x="413"/>
<glyph d="M5 -7q-17 0 -27.5 9.5t-9.5 27.5q1 13 11 24.5t24 11.5q21 0 21 -21q0 -11 -12 -21q-2 -1 -5 -3.5t-5 -4t-3.5 -3.5t-1.5 -4q0 -6 10 -6q28 0 82 40q34 25 60 48l-1 1q-37 -26 -60 -26q-33 0 -33 27q0 22 21 43q37 36 95 36q18 0 25.5 -9.5t4.5 -24.5q25 31 48 31 q16 0 18 -3t-7 -13q-25 -28 -54 -64q-22 -27 -35 -49q-9 -16 -3 -22q7 -6 24 3q19 10 44 30q24 20 46 40q13 12 16 9q2 -2 -11 -16q-22 -22 -57 -50q-51 -41 -82 -41q-15 0 -21.5 6.5t-5.5 19.5q1 18 15 38q11 16 27 34l-1 1q-33 -31 -70 -59q-53 -40 -87 -40zM97 76 q15 0 41.5 18t44.5 38q7 9 7 17q0 15 -18 15q-14 0 -35 -12t-36 -31q-16 -18 -16 -33q0 -12 12 -12z" glyph-name="uni044F" unicode="" horiz-adv-x="284"/>
<glyph d="M59 6q37 0 91 37q31 21 61 48q8 7 11 4q2 -3 -8 -13q-31 -29 -63 -50q-62 -41 -113 -41q-27 0 -40.5 10t-12.5 30q1 28 30 62l-1 1l-20 -18q-7 -6 -10 -3q-2 3 6 11q15 14 37 30q21 15 49 30q54 28 86 28q16 0 23.5 -8t6.5 -19q-2 -30 -64 -61q-43 -21 -86 -32 q-6 -12 -6 -23q0 -23 23 -23zM48 63q37 9 68 30q39 27 41 52q2 14 -12 14q-13 0 -44 -29q-29 -27 -53 -67zM166 332q8 0 12 -10q19 -44 50 -86q5 -7 2 -9q-2 -1 -10 4q-52 43 -66 67q-5 7 -5 15q0 7 5.5 13t11.5 6z" glyph-name="uni0450" unicode="" horiz-adv-x="213"/>
<glyph d="M59 6q37 0 91 37q31 21 61 48q8 7 11 4q2 -3 -8 -13q-31 -29 -63 -50q-62 -41 -113 -41q-27 0 -40.5 10t-12.5 30q1 28 30 62l-1 1l-20 -18q-7 -6 -10 -3q-2 3 6 11q15 14 37 30q21 15 49 30q54 28 86 28q16 0 23.5 -8t6.5 -19q-2 -30 -64 -61q-43 -21 -86 -32 q-6 -12 -6 -23q0 -23 23 -23zM48 63q37 9 68 30q39 27 41 52q2 14 -12 14q-13 0 -44 -29q-29 -27 -53 -67zM128 241q-9 11 0 30q7 17 34 17q11 0 13.5 -6.5t-4.5 -16.5q-18 -24 -43 -24zM227 241q-9 11 0 30q7 17 34 17q11 0 13.5 -6.5t-4.5 -16.5q-18 -24 -43 -24z" glyph-name="uni0451" unicode="" horiz-adv-x="213"/>
<glyph d="M-409 -404q-66 0 -98.5 27t-34.5 72q-1 36 18 60q6 8 9 5q2 -1 -2 -8q-15 -25 -12 -56q3 -34 36.5 -54t95.5 -20q116 0 213 57q38 22 74.5 54.5t60 58.5t74.5 85q141 167 201 262q6 10 1 14q-6 4 -26 -6q-35 -18 -78 -51q-22 -17 -56 -45.5t-56 -45.5q-12 -9 -26 -9 q-11 0 -14 3t1 13q16 30 41 67q10 15 30 40v1l-38 -34q-8 -7 -11 -3q-1 3 5 9q13 13 65 56q31 40 95 116q-47 0 -64 1q-17 0 -17 5q0 4 30 5q16 1 62 1q76 88 138 146q19 17 37 17q13 0 15 -7q-62 -62 -140 -156q80 0 101 -1q15 0 15 -5q0 -3 -17 -4q-30 -2 -109 -2 q-95 -116 -169 -221l1 -1q74 61 92 75q73 54 109 54q16 0 24.5 -8t6.5 -21q-3 -23 -32 -62q-62 -83 -149 -181q-125 -142 -269 -228q-124 -75 -233 -75z" glyph-name="uni0452" unicode="" horiz-adv-x="307"/>
<glyph d="M57 -6q-30 0 -30 25q0 15 15 38q10 16 33 42t28 35q5 11 0 15q-6 5 -20 -2q-15 -7 -39 -27q-27 -22 -42 -37q-7 -7 -10 -4t4 10q25 25 53 47q45 36 75 36t30 -26q0 -14 -34 -57q-22 -27 -35 -49q-9 -16 -3 -22q7 -6 24 3q22 11 48 31q18 14 48 41q10 9 13 6t-8 -13 q-26 -26 -60 -52q-53 -40 -90 -40zM222 324q12 0 12 -17q0 -10 -11 -21q-25 -25 -83 -57q-10 -5 -12 -3q-2 3 5 10q42 40 75 79q7 9 14 9z" glyph-name="uni0453" unicode="" horiz-adv-x="202"/>
<glyph d="M39 -9q-56 0 -53 42q3 29 29 60l-1 1l-17 -15q-10 -9 -13 -6q-2 3 6 11q15 14 37 30q23 17 48 30q61 32 92 27q30 -4 25 -34q-3 -12 -12.5 -21t-18.5 -9q-22 0 -7 26q16 27 1 28q-18 4 -62 -42q-20 -21 -31 -37q21 13 34 13q8 0 18.5 -4t16.5 -4q8 0 19 6q6 3 7 1 q1 -4 -7 -11q-18 -15 -32 -16q-10 -1 -23 4t-19 5q-13 -2 -23 -9q-14 -18 -16 -37q-3 -23 23 -23q39 0 92 36q24 16 60 48q8 7 11 4q2 -3 -8 -13q-34 -31 -59 -48q-63 -43 -117 -43z" glyph-name="uni0454" unicode="" horiz-adv-x="214"/>
<glyph d="M119 21q21 8 44 22q30 18 66 50q11 8 13 6q3 -3 -11 -16q-24 -22 -51 -40q-29 -20 -63 -34q-41 -18 -84 -18q-36 0 -50 17.5t-10 42.5q3 22 18 37.5t33 14.5q23 -2 19 -22q-3 -15 -22 -25q-22 -12 -23 -30q-1 -12 7 -18.5t22 -6.5q36 0 67 54q9 15 25.5 55.5t21.5 46.5v1 q-14 -14 -48 -38q-23 -17 -38 -24q-8 -4 -10 -1q-1 4 5 8q23 14 42 28q22 16 59 48q4 9 16 17q15 11 29 11q26 0 -1 -19l-4 -2q-3 -2 -12 -7t-12 -8q-7 -7 -7 -27q2 -56 -9 -82q-12 -28 -32 -41z" glyph-name="uni0455" unicode="" horiz-adv-x="229"/>
<glyph d="M220 304q11 0 14 -7.5t-6 -18.5q-8 -11 -23 -19t-24 -8q-10 12 -1 34q8 19 40 19zM81 143q-12 -5 -43 -30q-24 -19 -36 -30q-12 -10 -15 -8q-3 3 11 16q36 32 71 56q32 22 58 22q16 0 18 -3t-7 -13q-25 -28 -54 -64q-22 -27 -35 -49q-9 -16 -3 -22q7 -6 24 3q19 10 44 30 q24 20 46 40q13 12 16 9q2 -2 -11 -16q-22 -22 -57 -50q-51 -41 -87 -41q-30 0 -30 26q0 15 15 38q30 47 75 86z" glyph-name="uni0456" unicode="" horiz-adv-x="162"/>
<glyph d="M81 143q-11 -5 -44 -31q-25 -20 -35 -29q-12 -10 -15 -8q-3 3 11 16q36 32 71 56q32 22 58 22q16 0 18 -3t-7 -13q-16 -18 -53 -64q-25 -31 -36 -49q-9 -16 -3 -22q7 -6 24 3q19 10 44 30q24 20 46 40q13 12 16 9q2 -2 -11 -16q-22 -22 -57 -50q-51 -41 -87 -41 q-30 0 -30 26q0 15 15 38q30 47 75 86zM210 251q-10 12 -1 34q8 19 40 19q11 0 14 -7.5t-6 -18.5q-8 -11 -23 -19t-24 -8zM110 251q-10 12 -1 34q8 19 40 19q11 0 14 -7.5t-6 -18.5q-8 -11 -23 -19t-24 -8z" glyph-name="uni0457" unicode="" horiz-adv-x="162"/>
<glyph d="M94 150q-3 0 -16 -8q-17 -11 -40 -29q-24 -19 -36 -30q-12 -10 -15 -8q-3 3 11 16q36 32 71 56q32 22 58 22q16 0 17.5 -3t-6.5 -12q-24 -28 -52 -64l-89 -116q48 24 105 66q35 25 63 51q11 11 15 8q2 -1 -1 -5.5t-10 -10.5q-29 -27 -64 -52q-51 -38 -116 -73 q-83 -120 -133 -175q-73 -81 -151 -135t-127 -54q-18 0 -32 9.5t-10 32.5q11 69 198 192q47 31 105 65.5t96 59.5q43 60 69 95q64 84 90 102zM-76 -65q-27 -18 -85.5 -53.5t-107.5 -68.5q-69 -45 -114 -92.5t-48 -84.5q-1 -21 15 -26q25 -8 64 16q81 50 182 179 q44 55 94 130zM211 304q13 0 16 -7.5t-6 -18.5q-8 -10 -23.5 -18t-23.5 -8q-10 10 -1 33q8 19 38 19z" glyph-name="uni0458" unicode="" horiz-adv-x="167"/>
<glyph d="M191 -7q-51 0 -51 33q0 22 20 47q22 28 64 70q-12 -3 -35 -21t-49.5 -42.5t-28.5 -26.5q-71 -60 -106 -60q-17 0 -27.5 9t-9.5 27q1 14 11 25.5t24 11.5q21 0 21 -21q0 -11 -12 -21q-2 -1 -5 -3.5t-5 -4t-3.5 -3.5t-1.5 -4q0 -6 9 -6q35 0 128 83q49 45 77 63 q29 20 58 20q16 0 18 -3t-7 -13q-63 -71 -79 -92l1 -1q53 57 98 57q32 0 32 -31q0 -29 -30 -54q-47 -39 -111 -39zM203 2q42 0 77 44q18 22 18 42q0 13 -14 13q-17 0 -42 -16.5t-44 -39.5q-15 -17 -15 -29q0 -14 20 -14z" glyph-name="uni0459" unicode="" horiz-adv-x="382"/>
<glyph d="M212 -7q-51 0 -51 33q0 20 21 46q12 16 20 24q-18 -12 -39 -12q-6 0 -16 3t-15 3q-14 0 -35 -18q-28 -38 -51 -66q-6 -8 -28 -10q-13 -1 -16 2.5t3 13.5q8 11 23.5 32.5t23.5 32.5q21 29 39 54q9 14 7 17q-4 5 -15 -1q-17 -8 -39 -27q-23 -20 -43 -38q-14 -12 -17 -9 q-2 3 15 19q40 37 52 46q42 33 68 33q25 0 25 -22q0 -14 -21 -43l-11 -15q19 14 35 14q6 0 15.5 -3t14.5 -3q18 0 38 13q26 28 32 34q23 23 43 23q16 0 18 -3t-7 -13q-63 -71 -79 -92l1 -1q53 57 98 57q32 0 32 -31q0 -29 -30 -54q-47 -39 -111 -39zM224 2q42 0 77 44 q18 22 18 42q0 13 -14 13q-17 0 -42 -16.5t-44 -39.5q-15 -17 -15 -29q0 -14 20 -14z" glyph-name="uni045A" unicode="" horiz-adv-x="403"/>
<glyph d="M172 -6q-15 0 -23 6.5t-7 19.5q1 20 42 70l42 49q8 10 1 14q-6 4 -26 -6q-35 -18 -78 -51q-22 -17 -56 -45.5t-56 -45.5q-12 -9 -26 -9q-11 0 -14 3t1 13q16 30 41 67q10 15 30 40v1l-38 -34q-8 -7 -11 -3q-1 3 5 9q13 13 65 56l96 118q-37 2 -66 -9q-12 -4 -12 -2 q-1 4 8 9q38 20 82 16q59 70 137 142q19 17 36 17q13 0 15 -7q-52 -52 -142 -157q48 -8 81 0q8 2 8 -1q0 -4 -8 -7q-36 -13 -93 -5q-89 -106 -165 -219l1 -1q74 61 92 75q73 54 109 54q34 0 31 -27q-2 -14 -40 -61q-21 -25 -33 -44q-11 -17 -4 -22q6 -5 24 4q22 11 48 31 q18 14 48 41q10 9 13 6q2 -3 -8 -13q-26 -26 -60 -52q-53 -40 -90 -40z" glyph-name="uni045B" unicode="" horiz-adv-x="317"/>
<glyph d="M186 -6q-37 0 -36 38q1 15 7.5 32.5t6.5 21.5q-43 -1 -41 11q1 9 20 7q20 -2 29 -8q21 0 52 33q1 1 6 6.5t7 7t6.5 6t7 6.5t6.5 5.5t7.5 5t7.5 3.5t8.5 2.5t8.5 0.5q17 0 24.5 -10.5t4.5 -24.5q-3 -13 -12.5 -22t-18.5 -9q-11 0 -14.5 8.5t3.5 19.5q5 9 7 14.5t1.5 8 t-4.5 3.5t-8.5 -1t-10 -6.5t-9.5 -8.5t-11 -11.5t-11 -11.5q-29 -29 -48 -32q21 -13 18 -45q-3 -28 9 -30q9 -2 34 12q20 11 42 29q23 19 44 38q11 9 14 7t-10 -15q-37 -34 -57 -49q-55 -42 -90 -42zM20 -4q-12 0 -15 3t2 13q18 33 44 67l40 52q10 13 7 17q-4 5 -15 -1 q-17 -8 -39 -27l-43 -38q-14 -12 -17 -9q-2 3 15 19q40 37 52 46q42 33 68 33q25 0 25 -22q0 -14 -21 -43q-23 -30 -73 -98q-9 -12 -30 -12zM297 324q12 0 12 -17q0 -10 -11 -21q-25 -25 -83 -57q-10 -5 -12 -3q-2 3 5 10q42 40 75 79q7 9 14 9z" glyph-name="uni045C" unicode="" horiz-adv-x="329"/>
<glyph d="M24 -6q-16 0 -25 7.5t-8 20.5q1 17 19 41q33 44 71 80q-12 -5 -43 -30q-24 -19 -36 -30q-12 -10 -15 -8q-3 3 11 16q36 32 71 56q32 22 58 22q16 0 18 -3t-7 -13q-17 -19 -52 -62q-31 -41 -37 -54t-1 -18q6 -6 23 2q27 14 75 52q27 21 61 49t47 38q15 11 29 11 q15 0 18.5 -2.5t-3.5 -13.5q-5 -5 -23 -27t-30 -37q-26 -32 -37 -51q-10 -17 -3 -22t23 3q21 10 45 30q24 19 48 41q11 11 14 7q3 -2 -8 -13q-18 -18 -61 -52q-51 -40 -86 -40q-31 0 -31 24q0 18 16 41q11 16 47 52l-1 1l-80 -63q-73 -55 -107 -55zM190 332q8 0 12 -10 q19 -44 50 -86q5 -7 2 -9q-2 -1 -10 4q-52 43 -66 67q-5 7 -5 15q0 7 5.5 13t11.5 6z" glyph-name="uni045D" unicode="" horiz-adv-x="322"/>
<glyph d="M-258 -391q25 -8 64 16q81 49 183 180q29 36 101 133q-23 -15 -86 -52.5t-114 -72.5q-69 -45 -114 -92.5t-48 -84.5q-1 -22 14 -27zM213 112l-1 1q-30 -26 -80 -64q-73 -55 -108 -55q-16 0 -24.5 7.5t-7.5 21.5q2 18 18 40q32 43 71 80q-11 -5 -44 -31q-25 -20 -35 -29 q-12 -10 -15 -8q-3 3 11 16q36 32 71 56q32 22 58 22q16 0 18 -3t-7 -13q-17 -19 -52 -62q-31 -41 -37 -54t-1 -18q6 -6 23 3q31 17 75 51q27 21 61 49t47 38q15 11 28 11q15 0 18.5 -2.5t-3.5 -12.5q-2 -3 -20.5 -27.5t-30.5 -39.5q-25 -33 -84 -111q42 24 96 63 q33 24 62 51q8 8 11 4q3 -2 -7 -12q-21 -21 -61 -51q-44 -34 -110 -71q-70 -102 -137 -179q-102 -112 -206 -168q-40 -21 -69 -21q-22 0 -36 9.5t-11 32.5q9 69 202 195q51 32 113 69t90 55q54 75 114 157zM362 321q7 4 9 2q2 -4 -3 -9q-71 -66 -143 -66q-58 0 -58 44 q0 16 12 28.5t26 12.5q10 0 16 -7t5 -16q-2 -11 -12.5 -17.5t-27.5 -4.5q6 -15 50 -15q58 0 126 48z" glyph-name="uni045E" unicode="" horiz-adv-x="321"/>
<glyph d="M24 -6q-16 0 -25 7.5t-8 20.5q1 17 19 41q33 44 71 80q-12 -5 -43 -30q-24 -19 -36 -30q-12 -10 -15 -8q-3 3 11 16q36 32 71 56q32 22 58 22q16 0 18 -3t-7 -13q-17 -19 -52 -62q-31 -41 -37 -54t-1 -18q6 -6 23 2q27 14 75 52q27 21 61 49t47 38q15 11 29 11 q15 0 18.5 -2.5t-3.5 -13.5q-5 -5 -23 -27t-30 -37q-26 -32 -37 -51q-10 -17 -3 -22t23 3q21 10 45 30q24 19 48 41q11 11 14 7q3 -2 -8 -13q-18 -18 -61 -52q-51 -40 -86 -40q-31 0 -31 24q0 18 16 41q11 16 47 52l-1 1l-80 -63q-73 -55 -107 -55zM-127 -239q-36 0 -53 25 q-10 15 -3 18q2 1 3.5 -0.5t4.5 -5.5t4 -6q17 -21 45 -21q10 0 18.5 2t16 8t13.5 10.5t13.5 14.5t11 15.5t12 18t11.5 17.5q52 78 96 118q26 23 47 37q15 12 19 8q2 -2 -8 -11q-15 -15 -39 -47q-16 -22 -62 -90q-34 -51 -69 -81t-81 -30z" glyph-name="uni045F" unicode="" horiz-adv-x="322"/>
<glyph d="M278 -12q-84 0 -155 16q-37 -8 -58 -10q-51 -4 -51 10q0 9 14 16.5t39 7.5q37 0 60 -10q7 4 14.5 11t17 17.5t17 19.5t19.5 25t19 25t21 28.5t20 27.5q48 65 84 103l-76 -3q-8 0 -8 3t9 5q41 6 88 9q45 47 83 70q-31 2 -110.5 13.5t-106.5 12.5q-69 3 -114 -20.5 t-51 -70.5q-4 -33 18 -53.5t57 -20.5q38 0 60.5 17t24.5 46q2 17 -7 29l-4 6q5 2 13 -4q18 -12 18 -33q1 -32 -29.5 -51t-75.5 -19q-41 0 -65.5 23.5t-20.5 62.5q5 54 57 84t131 28q49 -1 121.5 -20t91.5 -21q23 20 31 26q31 22 47 16q6 -2 5 -9t-8 -14q-15 -13 -58 -27 q-24 -17 -59 -70q78 -2 105 -16q9 -5 7 -8q0 -1 -26 2q-36 4 -98 5q-33 -50 -52 -76q-112 -153 -197 -184q65 -17 138 -17q79 0 132.5 45t56.5 111q1 33 -19 48t-39 13q-18 -3 -29 -3q-7 0 -12.5 0.5t-8.5 2.5t-3 5q1 8 27 8t54 -7q85 -21 82 -85q-3 -63 -75 -104.5 t-166 -41.5z" glyph-name="uni0462" unicode="" horiz-adv-x="562"/>
<glyph d="M240 -7q-51 0 -51 33q0 22 20 47q7 9 26.5 33t26.5 33q8 9 0 14q-6 4 -26 -6q-35 -18 -78 -51q-22 -17 -56 -45.5t-56 -45.5q-12 -9 -26 -9q-12 0 -15 3t2 13q17 32 44 67l40 52q10 13 7 17q-4 5 -15 -1q-17 -8 -39 -27l-43 -38q-14 -12 -17 -9q-2 3 15 19q40 37 52 46 q42 33 68 33q25 0 25 -22q0 -14 -21 -43q-44 -59 -47 -63l1 -1q74 61 92 75q73 54 109 54q34 0 31 -27q-2 -14 -37 -55q-10 -11 -22 -28l1 -1q53 57 100 57q35 0 35 -33q0 -29 -29 -52q-46 -39 -117 -39zM252 2q41 0 76 44q18 22 18 42q0 13 -13 13q-17 0 -42 -16.5 t-44 -39.5q-15 -17 -15 -29q0 -14 20 -14z" glyph-name="uni0463" unicode="" horiz-adv-x="436"/>
<glyph d="M113 -15q-90 2 -100 81q-5 49 22 109t80 113q60 59 143 96.5t159 33.5q31 -2 51.5 -15.5t22.5 -39.5q3 -29 -15 -49q-11 -13 -14 -8l8 12q14 21 10 44q-2 19 -20 30.5t-43 12.5q-61 3 -138.5 -44.5t-124.5 -99.5q-23 -26 -44 -58q43 16 77 16q56 70 121.5 111t109.5 36 q47 -5 40 -72q-2 -30 -23 -76.5t-52 -84.5q-53 -65 -128.5 -107.5t-141.5 -40.5zM123 -6q103 -4 228 152q23 28 42 60q-39 -15 -77 -15q-24 0 -62.5 4.5t-53.5 5.5q-64 -87 -64 -149q0 -22 11 -38q5 -6 4 -7q-2 -3 -8 3q-16 18 -18 42q-5 68 50 151q-41 0 -71 -11 q-53 -89 -43 -148q8 -48 62 -50zM346 207q25 0 54 11q35 60 39 100q5 35 -22 38q-37 4 -95 -35.5t-109 -101.5q26 -1 72.5 -6.5t60.5 -5.5z" glyph-name="uni0472" unicode="" horiz-adv-x="407"/>
<glyph d="M39 -9q-24 0 -37 11.5t-12 32.5q2 32 32 64l-1 1l-18 -16q-10 -9 -13 -6q-2 3 7 12q11 11 31 25q23 16 46 28q59 31 105 29q20 -1 31 -12.5t8 -31.5q-6 -41 -55 -83q-26 -23 -60.5 -38.5t-63.5 -15.5zM48 1q31 0 83 50q17 17 29 31q-13 -6 -25 -6q-7 0 -18 4t-17 4 q-21 0 -41 -11q-28 -37 -28 -57q0 -15 17 -15zM69 86q28 14 42 14q8 0 20.5 -5t18.5 -5q10 0 18 3q9 11 16 24q6 9 9.5 18.5t0 19t-17.5 9.5q-39 0 -107 -78z" glyph-name="uni0473" unicode="" horiz-adv-x="241"/>
<glyph d="M20 -18q-46 -3 -46 7q0 15 38 17q34 2 62 -2q72 31 170 132q112 114 123 200q5 38 -11.5 57t-48.5 19q-73 0 -149 -59q-32 -25 -54.5 -60.5t-26.5 -66.5q-7 -62 43 -65q45 -4 106 62q40 44 44 81q2 16 -4 26q-4 6 -4 7q2 3 8 -3q13 -13 12 -38q-3 -42 -42 -84 q-23 -24 -57 -42.5t-65 -16.5q-33 2 -49.5 22.5t-12.5 52.5q3 30 28 66t64 66q81 61 161 61q51 0 84 -24t27 -81q-10 -83 -132 -196q-78 -73 -194 -117q97 5 189 46q52 23 87.5 47t85.5 67q23 20 46.5 44t56 62t42.5 49q47 51 87 75.5t86 24.5q26 0 43 -13.5t17 -37.5 q0 -34 -39.5 -57.5t-84.5 -19.5q-21 2 -36 10q-4 3 -3 6q1 1 6 -1q15 -6 32 -7q41 -4 78.5 17t37.5 52q0 19 -14 30.5t-35 11.5q-40 0 -73.5 -25.5t-73.5 -74.5q-85 -102 -152 -160q-85 -73 -187 -114q-105 -41 -218 -44q-30 -8 -52 -9z" glyph-name="uni0474" unicode="" horiz-adv-x="502"/>
<glyph d="M18 -9q-14 0 -15 12q-1 6 9 18q30 35 49 58q27 34 37 55q5 10 0 14t-15 -1q-15 -7 -39 -27q-27 -22 -42 -37q-7 -7 -10 -4t4 10q25 25 53 47q44 35 70 35q32 0 28 -35q-3 -25 -35 -64q-24 -31 -57 -61q45 12 92 47q33 24 76 75q1 2 6 7t8 8.5t8 8t9.5 7.5t10 5t10.5 2 q23 0 20 -35q-2 -18 -8 -18l-2 8q-2 11 -13 11t-37 -24q-50 -44 -88 -69q-47 -31 -95 -46q-21 -7 -34 -7z" glyph-name="uni0475" unicode="" horiz-adv-x="296"/>
<glyph d="M140 -18q-49 0 -84 16.5t-36 53.5q-1 20 12.5 35t35.5 15q14 0 22.5 -9t7.5 -22q-2 -12 -15 -25t-13 -23q1 -15 21.5 -23.5t46.5 -8.5q111 0 200 97q21 23 59 72t60 74q75 86 147 125l-88 19q-98 22 -178 22q-42 0 -82 -8t-75 -34.5t-35 -68.5q0 -35 29.5 -54t70.5 -19 q46 0 72.5 16.5t28.5 45.5q2 17 -7 29l-4 6q3 2 11 -3q20 -11 20 -34q1 -32 -34 -50.5t-86 -18.5q-46 0 -79 21t-33 63q0 47 35.5 80t83 46.5t98.5 12.5q32 0 74.5 -6.5t69 -12.5t80.5 -20.5t66 -17.5q91 -23 102 -25q46 56 85 56q30 0 30 -27q0 -19 -19 -33.5t-48 -14.5 q-17 0 -33 2q-50 -71 -88 -102q-10 -8 -24 -16t-16 -5q0 1 14 15q20 20 50 58q27 35 40 54q-55 9 -114 20q-19 -13 -72 -81q-10 -13 -33.5 -43.5t-41.5 -53.5t-36 -43q-137 -152 -298 -152zM798 341q20 0 35.5 10t15.5 27q0 18 -18 18q-29 0 -65 -52q12 -3 32 -3z" glyph-name="uni0490" unicode="" horiz-adv-x="546"/>
<glyph d="M20 -4q-12 0 -15 3t2 13q17 32 44 67l40 52q10 13 7 17q-4 5 -15 -1q-17 -8 -39 -27q-17 -14 -43 -38q-14 -12 -17 -9q-2 3 15 19q40 37 52 46q42 33 68 33q25 0 25 -22q0 -14 -21 -43l-30 -40l2 -2q37 37 79 74q38 33 63 33q9 0 22.5 -2t20.5 -2q17 0 30 10t13 32 q0 17 -12 29q-5 5 -4 7q1 4 9 -2q18 -13 20 -34q4 -37 -18 -58.5t-56 -21.5q-5 0 -25 2.5t-28 2.5q-22 0 -62 -35q-39 -34 -101 -94q-9 -9 -26 -9z" glyph-name="uni0491" unicode="" horiz-adv-x="277"/>
<glyph d="M140 -18q-49 0 -84 16.5t-36 53.5q-1 20 12.5 35t35.5 15q14 0 22.5 -9t7.5 -22q-2 -12 -15 -25t-13 -23q1 -15 21.5 -23.5t46.5 -8.5q111 0 200 97q20 21 62 74.5t74 90.5h-57h-2q-17 0 -15 6q2 7 27 7h59q63 63 116 92l-86 20q-98 22 -178 22q-42 0 -82 -8t-75 -34.5 t-35 -68.5q0 -34 28.5 -53.5t66.5 -19.5q41 0 67.5 16.5t28.5 45.5q2 17 -7 29l-4 6q3 2 11 -3q20 -11 20 -34q1 -31 -33.5 -50t-81.5 -19q-44 0 -75.5 21.5t-31.5 62.5q0 47 35.5 80t83 46.5t98.5 12.5q26 0 53 -3t61 -10.5t51 -12t58.5 -16.5t48.5 -14q52 28 110 28 q28 0 45.5 -8t16.5 -23q-2 -28 -57 -28q-46 0 -111 10q-36 -26 -86 -87h96q8 0 12 -1.5t3 -5.5q-1 -6 -29 -6h-92q-65 -86 -94 -119q-140 -152 -298 -152zM743 352q41 0 43 20q2 21 -53 21q-48 0 -87 -25q59 -16 97 -16z" glyph-name="uni0492" unicode="" horiz-adv-x="545"/>
<glyph d="M57 -6q-30 0 -30 25q0 15 15 38q7 11 23 31h-13q-11 0 -11 4q0 5 22 5h10q22 24 30 37q5 11 0 15q-6 5 -20 -2q-15 -7 -39 -27q-27 -22 -42 -37q-7 -7 -10 -4t4 10q25 25 53 47q45 36 75 36t30 -26q0 -14 -28 -49h18q7 0 10 -1t2 -4q-1 -4 -17 -4h-20q-20 -25 -34 -48 q-9 -16 -3 -22q7 -6 24 3q22 11 48 31q18 14 48 41q10 9 13 6t-8 -13q-26 -26 -60 -52q-53 -40 -90 -40z" glyph-name="uni0493" unicode="" horiz-adv-x="202"/>
<glyph d="M604 -194q-50 2 -72 32q-9 12 -2 15q2 1 10 -9q22 -25 58 -25t70.5 18.5t51 34.5t51.5 54q15 16 101 120q-64 -52 -126 -52q-77 0 -77 59q0 66 79 152q63 69 147 126q3 2 2.5 3t-3.5 -1q-96 -51 -209 -149q-25 -21 -96.5 -81t-104.5 -91q-12 -11 -15 -13t-12 1 q-17 15 24 50q8 9 22 28.5t36.5 51.5t38.5 54q37 50 108 134q2 3 1 3t-3 -2q-77 -74 -258 -207q-80 -60 -173.5 -101t-167.5 -41q-115 0 -119 72q-1 26 16.5 47t43.5 21q17 0 28 -9.5t10 -24.5q-2 -16 -22 -34q-17 -15 -19 -25q-3 -15 16 -25t56 -10q73 0 153 42 q108 57 182.5 154t81.5 158q9 76 -65 76q-73 0 -149 -59q-32 -25 -53.5 -59t-25.5 -65q-5 -43 20 -68l7 -7q-1 -3 -11 1q-40 20 -34 75q3 31 25.5 66t61.5 64q81 61 161 61q123 0 110 -100q-14 -107 -192 -234l1 -1q22 13 53 36q204 152 309 254q22 19 33 18q23 -3 0 -26 q-32 -32 -34 -35q-132 -202 -192 -260q-1 -1 -1 -2t2 1q141 126 222 185q85 62 178 111q119 63 191 63q25 0 42 -10t21 -22q5 -13 -1 -15q-1 0 -1.5 0.5t-1.5 3.5t-2 5q-14 28 -56 28q-57 0 -125 -39q-112 -65 -200 -177q-48 -60 -66.5 -95t-18.5 -63q0 -39 43 -39 q40 0 91 36q26 19 48 41q22 32 32 42q8 8 14 8t6 -5q0 -4 -11 -15q-19 -19 -35 -40q-12 -17 -45 -73.5t-43 -70.5q-43 -60 -100 -94t-116 -31z" glyph-name="uni0496" unicode="" horiz-adv-x="951"/>
<glyph d="M242 -197q-50 2 -72 32q-9 12 -2 15q2 1 10 -9q22 -25 58 -25t70.5 18.5t51 34.5t51.5 54q17 19 124 148q-34 -28 -47 -37q-63 -43 -106 -43q-57 0 -54 42q3 29 29 60l-1 1q-61 -39 -128 -91q-5 -8 -35 -8q-20 0 -8 16q18 21 51 61.5t49 59.5l-1 1l-136 -93 q-75 -49 -114 -43q-34 6 -27 38q3 14 13.5 24t20.5 10q25 0 8 -29q-18 -31 -3 -34q17 -3 62 43q51 51 56 89q3 23 -23 23q-29 0 -82 -36q-24 -16 -60 -48q-8 -7 -11 -4q-3 4 8 13q34 31 59 48q63 43 106 43q28 0 40.5 -11.5t10.5 -32.5q-1 -25 -30 -59q26 18 66 46t58 40 q16 10 42 10q19 0 7 -14q-72 -75 -90 -112l1 -1q31 25 103 71q43 27 48 30q60 32 92 27q34 -6 27 -38q-3 -14 -13.5 -24t-20.5 -10q-25 0 -8 29q18 31 3 34q-17 3 -62 -43q-51 -51 -56 -89q-3 -23 23 -23q29 0 82 36q23 16 61 49q5 5 16.5 17.5t13.5 14.5q8 8 13 8q6 0 6 -5 q0 -4 -13 -15q-14 -12 -33 -37q-12 -17 -45 -75t-43 -72q-43 -60 -100 -94t-116 -31z" glyph-name="uni0497" unicode="" horiz-adv-x="609"/>
<glyph d="M-62 -251q-16 2 -25 13t-4 27q13 34 91 68q-110 3 -110 85q0 46 36.5 84.5t94.5 57.5q74 24 215 24q37 0 99 -4q12 53 -13 78q-28 28 -72 24q-41 -24 -61 -35q-63 -33 -73 -16q-5 8 11.5 20t45.5 22q33 12 72 18q27 15 89 57q6 4 100 70l-1 1q-78 -34 -130 -34 q-39 0 -61.5 10.5t-19.5 35.5q4 27 46 47t86 22q15 0 15 -5l-15 -2q-27 -2 -49 -16t-24 -34q-1 -16 11 -23.5t29 -8.5q60 -4 127 24q39 33 54 43q30 19 48 15q14 -4 -2 -18q-22 -19 -74 -42q-31 -25 -115 -82q-71 -47 -91 -58v-1q19 0 28 -1q50 -5 75 -35.5t15 -79.5l42 -3 q1 0 1 -2q0 -4 -7 -4h-38q-29 -81 -145 -157q-115 -76 -226 -77q-57 -33 -67 -63q-7 -21 14 -23q18 -1 45 15q8 6 10 3t-4 -9q-36 -34 -73 -31zM10 -132q108 0 214 86q80 65 108 139q-11 1 -51 1q-81 0 -136.5 -6.5t-117.5 -29.5q-48 -17 -85 -48t-37 -75q0 -67 105 -67z M133 162q4 -7 49 16l48 25q-21 -2 -52 -13q-14 -5 -25 -11t-16 -10.5t-4 -6.5z" glyph-name="uni0498" unicode="" horiz-adv-x="443"/>
<glyph d="M-320 -394q-16 2 -25 13t-4 27q13 34 91 68q-61 2 -91.5 29t-32.5 70q-1 36 18 60q6 8 9 5q2 -1 -2 -8q-15 -25 -12 -56q3 -34 36.5 -54t95.5 -20q97 0 177 45q63 35 116 119q33 52 37 81q5 44 -27 44q-33 0 -72 -37q-8 -8 -12 -5q-6 6 3 17q9 12 42 30q17 9 48.5 21.5 t49.5 23.5q37 22 37 52q0 29 -29 29q-34 0 -76 -31q-17 -13 -53 -44q-8 -7 -11 -4t6 11q36 32 55 47q50 41 98 41q27 0 42.5 -11.5t15.5 -31.5q0 -42 -62 -69q-17 -7 -51.5 -16t-46.5 -16q8 2 26 2q29 -1 45.5 -17t16.5 -41q0 -40 -42 -89q-47 -55 -148 -114 q-107 -62 -193 -63q-57 -33 -67 -63q-7 -21 14 -23q18 -1 45 15q8 6 10 3t-4 -9q-36 -34 -73 -31z" glyph-name="uni0499" unicode="" horiz-adv-x="240"/>
<glyph d="M300 -193q-50 2 -72 32q-9 12 -2 15q2 1 10 -9q22 -25 58 -25t70.5 18.5t51 34.5t51.5 54q15 16 101 120q-70 -57 -111 -57q-23 0 -35.5 10.5t-12.5 28.5q0 29 35 78q4 5 13 17.5t14.5 20t10 17t4.5 15.5q0 11 -7 20q-12 -6 -30 -6q-11 0 -20 3.5t-8 10.5q1 15 32 13 q17 -2 30 -10q18 7 34.5 19.5t26 23t27.5 33t29 34.5q89 100 174 100q26 0 43 -13.5t17 -37.5q0 -34 -39.5 -57.5t-84.5 -19.5q-21 2 -36 10q-4 3 -3 6q1 1 6 -1q15 -6 32 -7q41 -4 78.5 17t37.5 52q0 19 -14 30.5t-35 11.5q-28 0 -55.5 -18.5t-42 -35t-45.5 -56.5 q-55 -71 -142 -98q20 -13 25 -36q7 -29 -22 -72q-4 -5 -11 -15.5t-10 -16t-7.5 -13t-6 -13.5t-1.5 -12q0 -17 18 -17q23 0 72 38q35 27 50 42q22 32 32 42q8 8 14 8t6 -5q0 -4 -11 -15q-19 -19 -35 -40q-12 -17 -45 -73.5t-43 -70.5q-43 -60 -100 -94t-116 -31zM79 -19 q-41 0 -70.5 19.5t-29.5 59.5q0 20 15 36t37 15q36 -2 33 -36q-1 -17 -17 -31q-13 -13 -13 -25q0 -14 16 -21.5t34 -7.5q26 0 54 12.5t48.5 27t48.5 43t41 43.5t38.5 48t29.5 37q77 98 128 132v1q-35 -23 -74 -33.5t-63 -10.5q-51 -1 -81.5 16.5t-25.5 51.5q5 30 37 51 q15 10 28 10q10 0 1 -8l-2 -2q-22 -20 -26 -52q-2 -26 16 -41.5t54 -15.5q46 0 99.5 24t95.5 60q20 20 26 16q5 -5 -9 -19q-23 -23 -62 -73q-15 -19 -42 -56t-37 -49q-35 -44 -58 -70.5t-57.5 -59t-64 -50t-68.5 -30t-80 -12.5zM448 198q12 0 24 5q-6 6 -21 8q-21 2 -21 -6 q0 -7 18 -7z" glyph-name="uni049A" unicode="" horiz-adv-x="647"/>
<glyph d="M27 -197q-50 2 -72 32q-9 12 -2 15q2 1 10 -9q22 -25 58 -25t70.5 18.5t51 34.5t51.5 54q17 19 124 148q-10 -10 -45 -37q-51 -40 -86 -40q-16 0 -27 9.5t-10 28.5q1 15 7.5 32.5t6.5 21.5q-43 -1 -41 11q1 9 20 7q20 -2 29 -8q21 0 52 33q1 1 6 6.5t7 7t6.5 6t7 6.5 t6.5 5.5t7.5 5t7.5 3.5t8.5 2.5t8.5 0.5q17 0 24.5 -10.5t4.5 -24.5q-3 -13 -12.5 -22t-18.5 -9q-11 0 -14.5 8.5t3.5 19.5q5 9 7 14.5t1.5 8t-4.5 3.5t-8.5 -1t-10 -6.5t-9.5 -8.5t-11 -11.5t-11 -11.5q-29 -29 -48 -32q21 -13 18 -45q-3 -29 9 -30q10 -1 34 12 q19 11 38 26q28 23 48 41l29 31q8 8 13 8q6 0 6 -5q0 -4 -13 -15q-14 -12 -33 -37q-12 -17 -45 -75t-43 -72q-43 -60 -100 -94t-116 -31zM20 -4q-12 0 -15 3t2 13q18 33 44 67l40 52q10 13 7 17q-4 5 -15 -1q-17 -8 -39 -27l-43 -38q-14 -12 -17 -9q-2 3 15 19q40 37 52 46 q42 33 68 33q25 0 25 -22q0 -14 -21 -43q-23 -30 -73 -98q-9 -12 -30 -12z" glyph-name="uni049B" unicode="" horiz-adv-x="394"/>
<glyph d="M457 -10q-23 0 -35.5 10.5t-12.5 28.5q0 29 35 78q4 5 13 17.5t14.5 20t10 17t4.5 15.5q0 11 -7 20q-12 -6 -30 -6q-11 0 -20 3.5t-8 10.5q1 15 32 13q17 -2 30 -10q18 7 34.5 19.5t26 23t27.5 33t29 34.5q89 100 174 100q26 0 43 -13.5t17 -37.5q0 -34 -39.5 -57.5 t-84.5 -19.5q-21 2 -36 10q-4 3 -3 6q1 1 6 -1q15 -6 32 -7q41 -4 78.5 17t37.5 52q0 19 -14 30.5t-35 11.5q-28 0 -55.5 -18.5t-42 -35t-45.5 -56.5q-55 -71 -142 -98q20 -13 25 -36q7 -29 -22 -72q-4 -5 -11 -15.5t-10 -16t-7.5 -13t-6 -13.5t-1.5 -12q0 -17 18 -17 q23 0 72 38q29 22 46 38q17 14 19 12q3 -3 -7 -13q-26 -24 -55 -47q-54 -44 -94 -44zM79 -19q-41 0 -70.5 19.5t-29.5 59.5q0 20 15 36t37 15q36 -2 33 -36q-1 -17 -17 -31q-13 -13 -13 -25q0 -14 16 -21.5t34 -7.5q17 0 34.5 4.5t36 15.5t32.5 19.5t33 27.5t29.5 28.5 t29 32.5t24 29.5t23.5 29.5t18 24q32 42 84 86.5t95 68.5l-93 22q-102 23 -169 23q-75 0 -128 -26.5t-66 -80.5q-7 -32 8 -63.5t58 -50.5l13 -6q-1 -4 -19 1q-43 15 -63 50t-15 76q8 58 65 95t148 36q67 0 170 -31q15 -5 66 -21.5t84 -24.5q2 0 6.5 -1t6 -2t1.5 -3 q-1 -3 -18 -1l-36 5q-17 -12 -39.5 -35t-38.5 -43t-34.5 -43.5t-22.5 -28.5q-35 -44 -58 -70.5t-57.5 -59t-64 -50t-68.5 -30t-80 -12.5zM448 198q12 0 24 5q-6 6 -21 8q-21 2 -21 -6q0 -7 18 -7z" glyph-name="uni04A0" unicode="" horiz-adv-x="606"/>
<glyph d="M204 -6q-37 0 -36 38q1 15 7.5 32.5t6.5 21.5q-41 -1 -39 11q1 9 18 7q20 -2 29 -8q21 0 52 33q1 1 6 6.5t7 7t6.5 6t7 6.5t6.5 5.5t7.5 5t7.5 3.5t8.5 2.5t8.5 0.5q17 0 24.5 -10.5t4.5 -24.5q-3 -13 -12.5 -22t-18.5 -9q-11 0 -14.5 8.5t3.5 19.5q5 9 7 14.5t1.5 8 t-4.5 3.5t-8.5 -1t-10 -6.5t-9.5 -8.5t-11 -11.5t-11 -11.5q-29 -29 -48 -32q21 -13 18 -45q-3 -28 9 -30q9 -2 34 12q20 11 42 29q23 19 44 38q11 9 14 7t-10 -15q-37 -34 -57 -49q-55 -42 -90 -42zM38 -4q-11 0 -14 3t1 13q13 26 44 66q12 15 27 31.5t24 26t10 12.5 q2 6 -2.5 7t-24.5 1q-18 0 -23 2q-13 -14 -38 -38l-40 -37q-12 -11 -15 -8t11 16l39 36q22 21 35 35q-17 11 0 32q14 17 38 17q16 0 18 -10q-10 -7 -17 -14q-19 -20 3 -22q14 0 20.5 -1t15.5 -2.5t12.5 -6t3.5 -10.5q0 -7 -4.5 -14.5t-18.5 -24t-18 -22.5q-20 -25 -57 -76 q-9 -12 -30 -12z" glyph-name="uni04A1" unicode="" horiz-adv-x="347"/>
<glyph d="M344 -193q-50 2 -72 32q-9 12 -2 15q2 1 10 -9q22 -25 58 -25t70.5 18.5t51 34.5t51.5 54q15 16 101 120q-71 -53 -111 -53q-48 0 -48 44q0 53 95 167l-141 -1q-45 -55 -74 -86.5t-71.5 -67.5t-87 -52t-95.5 -16q-41 0 -70.5 19t-29.5 59q0 21 15 37t37 15q15 -1 24 -11 t8 -26q-1 -17 -16 -30q-13 -12 -13 -25q1 -14 16.5 -21.5t33.5 -7.5q19 0 40 7t37.5 15.5t37.5 26.5t33.5 29.5t33.5 36t28.5 33.5t28 35.5t22.5 29.5q-4 0 -74 -2q-18 2 -19 5q1 4 29 6q19 2 74 4q39 47 90.5 96t82.5 70q-26 -10 -80.5 -11t-133.5 3q-93 3 -155.5 -33 t-62.5 -107q0 -28 19.5 -56.5t53.5 -39.5l12 -5q-1 -2 -7.5 -2.5t-11.5 1.5q-37 11 -60.5 40t-25.5 64q-2 72 56.5 117t168.5 42q19 -1 60.5 -4t72.5 -5t62 -0.5t42 7.5q27 15 33 12q4 -3 -5 -11q-5 -4 -8 -7q-41 -39 -72 -79q-17 -21 -40.5 -52t-29.5 -39h143q37 43 84 87 q68 64 126 96q54 30 100 30q25 0 42 -10t21 -22q5 -13 -1 -15q-1 0 -1.5 0.5t-1.5 3.5t-2 5q-14 28 -56 28q-44 0 -91 -34q-37 -27 -91 -85q-39 -42 -70 -84q66 -2 80 -4q23 -3 23 -5q0 -3 -22 -3q-68 0 -91 -1q-109 -138 -109 -177q0 -17 19 -17q27 0 71 31q34 25 53 44 q22 32 32 42q8 8 14 8t6 -5q0 -4 -11 -15q-19 -19 -35 -40q-12 -17 -45 -73.5t-43 -70.5q-43 -60 -100 -94t-116 -31z" glyph-name="uni04A2" unicode="" horiz-adv-x="691"/>
<glyph d="M24 -197q-50 2 -72 32q-9 12 -2 15q2 1 10 -9q22 -25 58 -25t70.5 18.5t51 34.5t51.5 54q17 19 124 148q-10 -9 -44 -36q-51 -41 -87 -41q-28 0 -28 26q0 16 15 38q8 12 28 38q-18 -12 -36 -12q-6 0 -16 3t-15 3q-14 0 -35 -18l-51 -66q-6 -8 -28 -10q-13 -1 -16 2.5 t3 13.5q14 20 44 60q41 57 42 59q9 14 7 17q-4 5 -15 -1q-17 -8 -39 -27q-23 -20 -43 -38q-14 -12 -17 -9q-2 3 15 19q40 37 52 46q42 33 68 33q25 0 25 -22q0 -14 -21 -43l-11 -15q19 14 35 14q6 0 15.5 -3t14.5 -3q17 0 36 13q13 14 33 34q23 23 44 23q16 0 18 -3t-7 -13 q-25 -28 -54 -64q-22 -27 -35 -49q-9 -16 -3 -22q7 -6 24 3q19 10 44 30q24 19 48 41q5 5 16.5 17.5t13.5 14.5q8 8 13 8q6 0 6 -5q0 -4 -13 -15q-14 -12 -33 -37q-12 -17 -45 -75t-43 -72q-43 -60 -100 -94t-116 -31z" glyph-name="uni04A3" unicode="" horiz-adv-x="391"/>
<glyph d="M86 -142q-16 2 -25 13t-4 27q11 34 91 68q-120 5 -123 101q-2 61 46 126.5t118 116.5q-25 32 -25 63q0 41 30 67t72 26q36 0 69.5 -17t53.5 -46q26 8 53 9q54 3 89 -15t27 -60q-8 -43 -67.5 -67.5t-124.5 -24.5q-98 0 -151 40q-57 -51 -93.5 -113.5t-36.5 -110.5 q0 -81 86 -81q67 0 145 52q30 21 62 50q19 17 22 14q2 -2 -8 -13q-40 -38 -72 -60q-79 -56 -159 -57q-57 -33 -67 -63q-7 -21 14 -23q18 -1 45 15q8 6 10 3t-4 -9q-36 -34 -73 -31zM368 255q56 0 100.5 24t52.5 60q7 33 -13.5 50t-61.5 16q-29 0 -53 -10q14 -24 17 -55 q1 -8 1 -14t-1 -9t-3 -2q-1 0 -1 2t-1 7t-2 11q-6 31 -24 55q-82 -31 -156 -98q50 -37 145 -37zM197 316q86 57 176 83q-49 54 -115 54q-34 0 -57.5 -22.5t-23.5 -58.5q0 -30 20 -56z" glyph-name="uni04AA" unicode=""/>
<glyph d="M-25 -116q-16 2 -25 13t-4 27q13 35 88 67q-51 2 -48 42q3 29 29 60l-1 1l-17 -15q-10 -9 -13 -6q-2 3 6 11q15 14 37 30q23 17 48 30q60 32 92 27q34 -6 27 -38q-3 -14 -13.5 -24t-20.5 -10q-25 0 -8 29q18 31 3 33q-18 3 -62 -42q-51 -51 -56 -89q-3 -23 23 -23 q39 0 92 36q24 16 60 48q8 7 11 4q2 -3 -8 -13q-34 -31 -59 -48q-54 -37 -107 -42q-56 -32 -66 -63q-7 -21 14 -23q18 -1 45 15q8 6 10 3t-4 -9q-36 -34 -73 -31z" glyph-name="uni04AB" unicode="" horiz-adv-x="214"/>
<glyph d="M364 -12q-49 0 -150 14q-42 -9 -97 -11q-14 -1 -31 -0.5t-32 2t-25 5.5t-9 10q2 25 83 25q43 0 139 -13q48 9 115 68q64 58 110 124q-134 -119 -212 -119q-47 0 -47 39q0 22 19 51t71 87q65 72 73 101q6 21 -7.5 30.5t-35.5 9.5q-76 0 -162 -77q-62 -55 -62 -97 q0 -15 9.5 -24.5t26.5 -9.5q22 0 36 10q2 1 4.5 3t3.5 3.5t2.5 2.5t2.5 1h2q2 -1 -2 -6.5t-10 -9.5q-19 -13 -41 -13q-48 0 -50 45q-2 60 59 113q77 68 181 68q37 0 59 -14.5t22 -42.5q0 -40 -59 -105q-53 -59 -71.5 -85t-18.5 -43q0 -19 18 -19q40 0 109 50q46 34 98 83 q67 85 127 138q49 43 75 41q14 -1 14.5 -16t-11.5 -30q-20 -26 -66 -63q-67 -56 -81 -69q-5 -6 -18 -27.5t-29 -43.5t-32 -40q-86 -94 -200 -117v-1q82 -10 114 -9q90 2 160 49q19 12 43 34q10 8 13 6q3 -3 -8 -13q-26 -23 -45 -37q-83 -58 -177 -58zM566 278l51 42 q41 33 58 54q27 34 13 39t-48 -38q-18 -21 -74 -97z" glyph-name="uni04AE" unicode="" horiz-adv-x="584"/>
<glyph d="M-260 -405q-12 0 -5 16q10 22 68 109t129 177q40 52 87 115q24 33 47 67q22 32 32 55q5 10 0 14t-15 -1q-15 -7 -39 -27q-27 -22 -42 -37q-7 -7 -10 -4t4 10q25 25 53 47q44 35 70 35q32 0 28 -35q-3 -25 -31 -64q-44 -62 -63 -79l1 -2q14 12 50 43t50 43q61 50 95 72 t57 22q22 0 26 -28q1 -7 -1 -8q-2 0 -7 3.5t-12 3.5q-13 0 -29 -8q-52 -25 -113 -67q-83 -58 -134 -109q-4 -5 -50 -57q-73 -89 -116 -150q-80 -113 -97 -133q-20 -23 -33 -23z" glyph-name="uni04AF" unicode="" horiz-adv-x="323"/>
</font>
</defs>
</svg>
